<?xml version="1.0" encoding="UTF-8" standalone="no"?>
<svg
   xmlns:dc="http://purl.org/dc/elements/1.1/"
   xmlns:cc="http://creativecommons.org/ns#"
   xmlns:rdf="http://www.w3.org/1999/02/22-rdf-syntax-ns#"
   xmlns:svg="http://www.w3.org/2000/svg"
   xmlns="http://www.w3.org/2000/svg"
   version="1.1"
   id="svg2"
   viewBox="0 0 1000 1000">
  <metadata
     id="metadata214">
    <rdf:RDF>
      <cc:Work
         rdf:about="">
        <dc:format>image/svg+xml</dc:format>
        <dc:type
           rdf:resource="http://purl.org/dc/dcmitype/StillImage" />
        <dc:title></dc:title>
      </cc:Work>
    </rdf:RDF>
  </metadata>
  <defs
     id="defs4" />
  <g
     id="guidelines">
    <rect
       stroke="black"
       fill="none"
       height="5000"
       width="5000"
       y="-2000"
       x="-2000"
       id="background" />
    <rect
       stroke="black"
       fill="none"
       height="1000"
       width="1000"
       y="0"
       x="0"
       id="frame" />
  </g>
  <path
     id="path4342"
     d="m 247.93681,98.888285 c 59.85,-14.820445 173.36778,-31.398231 182.02007,0 2.90838,84.546905 -529.506427,18.157145 -179.02386,161.046565 221.57155,86.70487 93.01386,139.68905 -1.49811,160.29751 C -173.83822,495.64012 13.053925,579.88969 70.411057,579.03177 l 357.116903,-1.05932 c 262.45525,4.55128 -55.49339,58.01777 -187.46136,57.49231 -128.41113,-0.5113 -374.56545,8.51646 -171.153651,105.36263 120.847351,49.47075 241.694691,0.11845 362.542041,-1.49811 245.99631,2.14071 185.15608,55.10161 -58.66947,58.20334 -251.54939,3.19999 -334.22846,88.60174 -121.10345,103.59228 l 178.27481,-1.49811 180.52196,-0.74905 0.74906,0"
     style="fill:none;fill-rule:evenodd;stroke:#000000;stroke-width:1px;stroke-linecap:butt;stroke-linejoin:miter;stroke-opacity:1" />
</svg>
