<?xml version="1.0" encoding="UTF-8" standalone="no"?>
<!-- Created with Inkscape (http://www.inkscape.org/) -->

<svg
   xmlns:dc="http://purl.org/dc/elements/1.1/"
   xmlns:cc="http://creativecommons.org/ns#"
   xmlns:rdf="http://www.w3.org/1999/02/22-rdf-syntax-ns#"
   xmlns:svg="http://www.w3.org/2000/svg"
   xmlns="http://www.w3.org/2000/svg"
   xmlns:sodipodi="http://sodipodi.sourceforge.net/DTD/sodipodi-0.dtd"
   xmlns:inkscape="http://www.inkscape.org/namespaces/inkscape"
   width="210mm"
   height="297mm"
   viewBox="0 0 744.09448819 1052.3622047"
   id="svg4427"
   version="1.1"
   inkscape:version="0.91 r13725"
   sodipodi:docname="icons.svg">
  <defs
     id="defs4429" />
  <sodipodi:namedview
     id="base"
     pagecolor="#ffffff"
     bordercolor="#666666"
     borderopacity="1.0"
     inkscape:pageopacity="0.0"
     inkscape:pageshadow="2"
     inkscape:zoom="0.0875"
     inkscape:cx="-4622.8747"
     inkscape:cy="-526.84685"
     inkscape:document-units="px"
     inkscape:current-layer="layer1"
     showgrid="true"
     inkscape:window-width="1366"
     inkscape:window-height="689"
     inkscape:window-x="0"
     inkscape:window-y="30"
     inkscape:window-maximized="1">
    <inkscape:grid
       type="xygrid"
       id="grid5134" />
  </sodipodi:namedview>
  <metadata
     id="metadata4432">
    <rdf:RDF>
      <cc:Work
         rdf:about="">
        <dc:format>image/svg+xml</dc:format>
        <dc:type
           rdf:resource="http://purl.org/dc/dcmitype/StillImage" />
      </cc:Work>
    </rdf:RDF>
  </metadata>
  <g
     inkscape:label="Layer 1"
     inkscape:groupmode="layer"
     id="layer1">
    <path
       style="fill:#000000;fill-rule:evenodd;stroke:none;stroke-width:1px;stroke-linecap:butt;stroke-linejoin:miter;stroke-opacity:1"
       d="m -4012.9315,568.93148 c -2.9891,-0.045 -6.033,0.1473 -9.1132,0.5957 -23.1039,3.3629 -41.8996,20.7443 -47.3282,43.7695 -3.2969,13.9834 -0.3282,31.1138 7.5059,43.3223 4.0994,6.3883 10.27,12.3078 17.2656,16.873 l 0,-2.8164 65.1563,0 0,0.3809 c 10.3978,-7.9847 18.0405,-19.3915 21.1015,-32.377 8.3982,-35.6306 -19.3171,-69.214 -54.5879,-69.748 z m -29.4355,104.7305 0,22.1425 60.7148,0 0,-22.1425 -60.7148,0 z m -2.2344,19.6601 c -17.064,0.1545 -20.8747,0.5797 -24.6933,1.75 -9.5435,2.9246 -17.4818,7.66 -24.5723,14.6602 -12.2092,12.053 -16.3596,19.3838 -49.0606,86.6543 -3.4395,7.0755 -6.2956,12.9633 -8.8652,18.2773 l 43.916,20.0488 c 2.7321,-5.2474 5.7192,-11.0055 9.2617,-17.8554 l 27.3204,-52.8262 0.3164,94.3008 c -13.7689,-3.9388 -27.5377,-8.8605 -41.3067,-14.4141 l 2.9649,-6.3008 -43.9746,-20.6894 -10.4336,22.1777 43.9726,20.6895 3.5899,-7.6309 c -0.6791,-0.2954 -1.3583,-0.5822 -2.0371,-0.8809 l 5,-7.1425 c 0.2084,0.0843 0.4165,0.1664 0.625,0.25 l -3.4161,7.2539 c 15.026,6.5368 30.0926,12.2668 45.2227,16.7207 l -0.031,-9.416 c 38.0605,10.8417 76.1212,14.1207 114.1817,2.2343 l 0.3262,-97.2812 26.8437,52.166 c 3.4963,6.7945 6.444,12.5022 9.1387,17.7031 l 44.0273,-20.0996 c -2.3063,-4.7663 -4.9038,-10.1188 -7.8808,-16.2441 -33.089,-68.0824 -37.3786,-75.6748 -49.5547,-87.6953 -7.0904,-7 -15.0307,-11.7356 -24.5742,-14.6602 -3.5494,-1.0877 -7.0047,-1.5347 -21.1504,-1.7168 l 0,5.6035 -65.1563,0 0,-5.6367 z m 169.9258,122.9883 -43.9727,20.6894 2.4121,5.127 c -13.4043,8.2792 -26.8085,14.351 -40.2128,18.5371 l -0.033,9.668 c 14.6002,-4.6143 29.3098,-11.4166 44.1484,-20.7989 l -3.4277,-7.2812 c 0.1384,-0.0843 0.2775,-0.1672 0.416,-0.2539 l 4.2851,7.1426 c -0.4821,0.3101 -0.9634,0.6074 -1.4453,0.9121 l 4.293,9.125 43.9726,-20.6895 -10.4355,-22.1777 z m 11.5449,25.2246 -42.7031,19.4961 c 4.0534,7.1834 6.0647,9.9132 8.1211,11.8769 3.8567,3.683 6.0876,4.9429 10.5058,5.9317 10.5957,2.3712 20.751,-2.4095 25.7325,-12.1133 2.445,-4.7623 2.7657,-6.3599 2.4101,-11.9941 -0.1939,-3.0734 -0.6858,-5.4956 -4.0664,-13.1973 z m -301.7754,1.0098 c -2.9833,6.9125 -3.4461,9.2659 -3.6269,12.1875 -0.348,5.625 -0.023,7.2397 2.4179,12 7.0046,13.6599 24.2412,16.9846 35.7129,6.8867 1.8867,-1.6608 3.8452,-4.2939 8.0059,-11.666 l -42.5098,-19.4082 z m 93.9629,26.3398 0.1485,44.2461 0.5,149.10162 2.1621,4 c 3.1755,5.8737 8.4953,10.5109 14.5214,12.6562 12.1261,4.3168 25.664,-1.289 31.5196,-13.0488 1.6753,-3.3643 1.8147,-8.8848 2.0644,-81.85742 l 0.2676,-78.25 5.9824,0 5.9825,0 0,76.875 c 0,83.29182 -0.1318,81.15302 5.457,88.48042 1.394,1.8275 4.8991,4.6291 7.789,6.2266 4.4134,2.4396 6.3743,2.9018 12.254,2.8828 10.409,-0.034 18.5807,-5.0376 23.1035,-14.1445 1.8307,-3.6862 1.9141,-9.0645 2.3965,-152.98442 l 0.1406,-42.2168 c -38.7411,12.2438 -76.7132,9.0944 -114.2891,-1.9668 z"
       id="path5272"
       inkscape:connector-curvature="0" />
    <path
       style="opacity:1;fill:#000000;fill-rule:evenodd;stroke:none;stroke-width:1px;stroke-linecap:butt;stroke-linejoin:miter;stroke-opacity:1"
       d="m -1472.8572,93.076495 193.5714,1.42857 c 34.8522,46.369565 38.5954,181.917255 -81.4285,199.999955 l 1.4285,82.8572 45,1.4286 c 16.1381,0.4762 18.2091,29.5238 0.7143,29.2857 l -127.1428,0 c -14.3602,0.2381 -15.2632,-28.8095 0,-29.2857 l 46.4285,-1.4286 1.4286,-81.4286 c -131.3494,-32.2333 -106.1983,-155.6278 -80,-202.857125 z"
       id="path5056"
       inkscape:connector-curvature="0"
       sodipodi:nodetypes="ccccccccccc" />
    <path
       style="fill:#000000"
       d="m -350.55779,165.71847 c -31.90003,0 -39.92528,1.48345 -32.58026,6.02292 4.01679,2.48251 2.70381,6.02293 -2.23505,6.02293 -2.55546,0 -6.46788,1.82364 -8.69561,4.05135 -5.19608,5.1961 -3.81133,22.83546 2.85149,36.30223 l 4.71951,9.54258 -6.67226,7.99447 c -9.41472,11.27732 -12.96996,28.94865 -9.34023,46.43298 3.02428,14.56786 15.0835,34.95572 25.54095,43.18154 5.60033,4.40522 5.80714,5.17839 2.38566,8.9591 -2.05962,2.2758 -3.0178,4.86375 -2.13156,5.75001 2.42239,2.4224 48.50515,1.93676 50.02792,-0.527 0.72612,-1.17491 -0.10528,-3.31381 -1.84453,-4.75717 -2.50542,-2.07933 -0.77183,-5.17034 8.34268,-14.8785 13.6619,-14.55177 21.37196,-33.20209 21.37196,-51.68423 0,-14.06938 -2.74982,-22.30517 -11.32119,-33.92127 l -5.45829,-7.40162 4.77599,-9.37319 c 5.37392,-10.54064 6.48445,-32.1799 1.88689,-36.77746 -1.59006,-1.59005 -5.50973,-2.89382 -8.70973,-2.89382 -5.6523,0 -5.7066,-0.17178 -1.87274,-6.02293 l 3.94783,-6.02292 -34.98943,0 z m -33.91657,16.86419 c 9.91472,0 14.89861,12.38084 10.86477,26.99021 -1.31008,4.74476 -3.91938,9.90484 -5.80176,11.46709 -2.76327,2.29331 -4.11074,1.51674 -6.98283,-4.03724 -8.70238,-16.82857 -7.72134,-34.42006 1.91982,-34.42006 z m 65.13225,0.39994 c 0.6922,-0.0537 1.40997,-0.0311 2.15508,0.0752 6.23355,0.88932 8.1122,12.9556 4.10313,26.34559 -1.44069,4.81171 -4.17102,10.03696 -6.06998,11.61294 -2.80791,2.33037 -4.15717,1.50554 -7.21811,-4.41367 -7.5931,-14.68345 -3.35299,-32.81281 7.02988,-33.62015 z"
       id="path4986"
       inkscape:connector-curvature="0" />
    <path
       style="opacity:1;fill:#000000;fill-rule:evenodd;stroke:none;stroke-width:1px;stroke-linecap:butt;stroke-linejoin:miter;stroke-opacity:1"
       d="m -574.26621,155.24821 c -4.24013,-0.10482 -8.28003,1.4386 -10.58399,5.32226 l -28.75,45.53516 36.96485,0 16.96484,-33.57031 c 5.03714,-8.84449 -5.26741,-17.05651 -14.5957,-17.28711 z m 8.07617,53.63672 -131.32031,0.50586 c -0.92873,42.08969 32.8308,60.43987 18.18359,68.68945 -0.009,6.77655 -0.0792,13.55369 -0.12695,20.33008 l 92.74414,-0.12696 c -0.26199,-6.69806 -0.13476,-13.60384 -0.18945,-20.20312 -11.17427,-8.92301 20.40736,-27.94741 20.70898,-69.19531 z"
       id="path5022"
       inkscape:connector-curvature="0" />
    <path
       style="fill:#000000"
       d="m -946.02588,320.06816 c -15.0571,-15.53088 -39.527,-40.78284 -54.37762,-56.11544 l -27.0009,-27.87748 33.24802,-0.12348 c 18.2864,-0.0679 33.3179,-0.0536 33.4033,0.0318 0.1318,0.13185 39.8959,105.33631 41.7732,110.52018 0.3591,0.99133 0.5803,1.80242 0.4916,1.80242 -0.089,0 -12.4806,-12.70709 -27.5376,-28.23797 z m 41.9027,27.517 c 0.3191,-0.87703 7.5525,-20.05958 32.9549,-87.3954 4.9693,-13.17257 9.1277,-24.04267 9.2408,-24.15579 0.1132,-0.11313 15.1539,-0.15012 33.4239,-0.0822 l 33.2181,0.12348 -51.4316,53.11139 c -56.6368,58.48658 -57.909,59.78082 -57.4061,58.39853 z m -7.6315,-3.60485 c -0.1452,-0.39653 -9.3482,-24.82322 -20.4512,-54.28155 -11.103,-29.45835 -20.1178,-53.63008 -20.0329,-53.71495 0.085,-0.0849 18.5532,-0.099 41.0408,-0.0314 l 40.8864,0.12288 -5.4194,14.41939 c -18.0212,47.94934 -35.0082,92.86511 -35.3559,93.48572 -0.359,0.64085 -0.4332,0.64085 -0.6678,0 z M -1028.753,227.70221 c 0.3295,-0.90964 41.02712,-62.03382 41.30582,-62.03766 0.2657,-0.004 22.7674,59.2446 23.3576,61.50173 0.2555,0.97685 0.2077,0.97829 -32.2839,0.97829 -19.61152,0 -32.47602,-0.17575 -32.37952,-0.44236 z m 78.26522,-0.0317 c 0,-0.56787 38.7698,-59.12609 39.1458,-59.12609 0.363,0 39.1996,58.60849 39.1996,59.15636 0,0.26765 -15.5468,0.44379 -39.1727,0.44379 -25.4315,0 -39.1727,-0.16629 -39.1727,-0.47406 z m 91.8035,-0.0818 c 0,-0.30574 5.1082,-14.09428 11.3515,-30.6412 6.2433,-16.54692 11.4961,-30.47171 11.6727,-30.94397 0.2383,-0.63664 5.6611,7.18201 20.972,30.23752 11.3579,17.10291 20.7228,31.27785 20.8109,31.49987 0.088,0.22202 -14.4574,0.40368 -32.3235,0.40368 -24.2667,0 -32.4836,-0.14062 -32.4836,-0.5559 z m -27.2767,-34.99461 c -11.169,-16.8393 -20.3073,-30.76146 -20.3073,-30.93812 0,-0.17667 14.3833,-0.32121 31.963,-0.32121 17.5796,0 31.963,0.14145 31.963,0.31433 0,0.39243 -22.5754,60.28787 -23.001,61.02467 -0.1707,0.29548 -9.4487,-13.24037 -20.6177,-30.07967 z m -82.92,-0.14807 c -6.2831,-16.71466 -11.42,-30.55251 -11.4153,-30.75078 0.01,-0.38898 63.9344,-0.51503 63.9344,-0.12607 0,0.46261 -40.4863,61.28808 -40.7874,61.27773 -0.1693,-0.006 -5.4486,-13.68621 -11.7317,-30.40088 z"
       id="path5041"
       inkscape:connector-curvature="0" />
    <path
       style="fill:#000000"
       d="m -1822.2227,725.78936 c -2.8341,0 -5.5607,0.065 -8.1241,0.1894 -21.9924,1.0677 -49.1777,6.0529 -48.1017,8.8203 1.5189,3.907 43.6536,8.3395 54.4853,5.7325 1.6038,-0.3861 -3.23,-0.7071 -10.7417,-0.7071 -11.6379,-0.01 -14.0096,-0.2794 -16.0385,-1.8535 -3.7308,-2.8945 -2.9545,-5.2345 2.5766,-7.7676 4.6911,-2.1484 6.2416,-2.2695 28.8693,-2.2695 23.1732,0 24.0921,0.077 29.7441,2.5 l 5.8322,2.5 0.2985,83.5801 0.2983,83.582 9.0331,1.6817 c 4.9682,0.9251 9.8204,2.1198 10.7827,2.6543 4.7777,2.6536 4.6657,4.6798 4.6657,-84.4258 l 0,-85.4297 -6.707,-2.1582 c -11.8889,-3.8268 -37.0343,-6.65 -56.8728,-6.6289 z m 1.2712,5.9863 c -10.878,-0.039 -20.7405,0.7387 -21.4333,2.5313 -0.4342,1.1236 1.8731,1.3049 12.7352,1 l 13.2682,-0.3731 0.3485,2.5762 c 0.3406,2.5099 0.5048,2.5567 6.4154,1.832 9.3877,-1.151 18.3144,-2.9992 18.3144,-3.791 0,-2.3263 -15.6625,-3.7252 -29.6484,-3.7754 z m -57.8342,9.8926 0,85.8535 0,85.8555 6.3494,1.582 c 3.4917,0.8703 9.6592,1.9847 13.7056,2.4746 16.0985,1.9492 55.2219,-0.1994 65.5573,-3.5996 1.6951,-0.5576 1.8703,-8.5873 1.8703,-86.0078 0,-46.9661 -0.2367,-85.3926 -0.5263,-85.3926 -0.2895,0 -3.5701,0.7164 -7.2902,1.5918 -4.6398,1.0918 -14.0898,1.7588 -30.0926,2.1231 -23.5403,0.5359 -35.359,-0.2836 -44.9328,-3.1114 l -4.6407,-1.3691 z"
       id="path5091"
       inkscape:connector-curvature="0" />
    <path
       style="fill:#000000"
       d="m -1815.3247,226.45461 c -4.0462,0.11025 -13.7014,4.13094 -38.5743,14.88281 -42.7451,18.47757 -43.0316,18.61495 -45.7695,22.0957 -2.1101,2.68258 -2.1172,2.88634 -1.8457,63.44922 l 0.2734,60.7559 2.4161,2.5722 c 3.1356,3.3371 10.1707,6.7248 17.0839,8.2266 l 0,-0.002 c 7.4493,1.6185 14.5651,1.6301 20.5313,0.0332 5.1681,-1.3833 79.0237,-33.1195 81.2187,-34.90035 0.9748,-0.79083 1.25,-14.18294 1.25,-60.82031 0,-53.03587 -0.1787,-59.98342 -1.5722,-61.37696 -0.8643,-0.86429 -2.0369,-1.57226 -2.6055,-1.57226 -0.5686,0 -18.873,7.75416 -40.6777,17.23242 -39.6389,17.2307 -39.6457,17.23485 -47.1446,17.24805 -12.4043,0.0218 -22.0753,-3.75763 -16.3222,-6.37891 1.4645,-0.66727 16.7639,-7.31915 34,-14.78125 l 31.3398,-13.56836 4.7403,2.05664 4.7421,2.0586 0.3028,-6.15235 c 0.1669,-3.38373 0.047,-7.17187 -0.2656,-8.41797 -0.4223,-1.68254 -1.0017,-2.69837 -3.1211,-2.64062 z"
       id="path5118"
       inkscape:connector-curvature="0" />
    <path
       style="fill:#000000;fill-rule:evenodd;stroke:none;stroke-width:1px;stroke-linecap:butt;stroke-linejoin:miter;stroke-opacity:1"
       d="m -2122.6007,480.54478 -72.0955,10.0847 -186.8361,209.9572 -14.5368,13.7361 -13.7361,-14.5367 -14.5368,13.736 13.7361,14.5369 -47.2446,44.6424 -6.8681,-7.2685 -10.9026,10.3021 6.8681,7.2684 27.7002,29.315 6.6401,7.0271 10.9026,-10.3021 -6.6763,-7.0654 47.089,-44.8071 13.7,14.4985 14.5367,-13.7362 -13.7467,-14.5481 14.4884,-13.7872 220.136,-174.5883 11.3824,-74.4648 z"
       id="path5136"
       inkscape:connector-curvature="0" />
    <path
       style="fill:#000000"
       d="m -2685.1205,543.01006 c -30.7003,-0.026 -33.9399,0.5657 -41.4473,7.5879 -6.5611,6.1372 -9.3118,12.7555 -9.3008,22.3887 0.01,4.632 0.621,8.9316 1.6094,11.2441 l 1.5996,3.7461 -2.6973,0.5996 c -11.5433,2.5727 -14.2722,3.7697 -18.1211,7.9453 -4.1921,4.5478 -7.0938,12.1181 -7.0508,18.3965 0.09,13.1865 9.125,28.3079 19.504,32.6445 5.7803,2.4152 12.9764,1.8104 20.6796,-1.7402 l 6.8672,-3.166 4.7129,5.0488 c 4.9046,5.2527 10.5207,8.647 16.9473,10.2422 5.3459,1.327 12.7774,0.327 18.1523,-2.4414 2.9067,-1.4972 11.3478,-9.1526 22.8203,-20.6973 18.8118,-18.93 22.2236,-23.6359 22.2696,-30.7051 0.05,-7.7174 -4.8212,-16.4343 -10.961,-19.6093 -2.6287,-1.3593 -3.3708,-3.7042 -11.83,-0.035 -10.6502,4.6192 -26.3015,12.7455 -26.8829,12.1641 -0.539,-0.5391 3.8505,-3.1335 17.1973,-10.168 15.7184,-8.2845 16.2222,-8.7093 18.1094,-15.2012 2.2367,-7.694 0.6903,-14.8183 -4.4551,-20.5254 -6.658,-7.3849 -8.1728,-7.6937 -37.7226,-7.7187 z m -23.9864,8.0918 c 4.7809,-0.01 9.5974,1.9294 13.8457,5.7558 10.9454,9.8583 10.6549,27.6165 -0.5976,36.5489 -3.2399,2.5719 -4.8024,3.0656 -10.5,3.3164 -7.2304,0.3183 -10.3571,-0.8088 -15.5352,-5.6035 -4.9816,-4.6127 -7.0959,-9.8436 -7.1289,-17.6328 -0.036,-8.529 2.8005,-14.3867 9.1074,-18.8145 3.3931,-2.3821 7.0902,-3.5647 10.8086,-3.5703 z m 0.1582,6.2793 c -3.7026,-0.07 -7.0351,1.4019 -9.9004,4.3926 -2.7529,2.8734 -5.7031,9.9314 -5.7031,13.6425 0,3.9981 7.687,14.1944 12,15.9161 2.6182,1.0453 9.2311,-0.1282 11.9121,-2.1133 3.4045,-2.5208 6.8311,-7.6423 8.0391,-12.0176 0.785,-2.8431 0.5666,-4.502 -1.1309,-8.6172 -2.5087,-6.0819 -5.6495,-9.0087 -11.3945,-10.6172 -1.3128,-0.3675 -2.5881,-0.5625 -3.8223,-0.5859 z m 0,2.8183 c 2.7262,-0.067 5.5668,0.6714 7.8808,2.1875 2.3911,1.5668 6.5137,9.4222 6.5137,12.4121 0,3.1746 -4.3722,10.4431 -7.3867,12.2813 -6.9684,4.2491 -14.3076,1.3018 -18.543,-7.4473 -1.7545,-3.6244 -1.9129,-4.8489 -0.9961,-7.7265 1.8966,-5.9526 3.2095,-7.9315 6.6797,-10.0762 1.6801,-1.0383 3.7312,-1.5784 5.8516,-1.6309 z m 1.2422,5.2696 c -0.9179,-0.051 -1.8918,0.1217 -2.8946,0.5371 -6.4661,2.6784 -8.2761,11.0803 -3.2031,14.8652 3.3353,2.4884 6.0519,2.6435 9.0899,0.5156 3.2099,-2.2483 4.2342,-5.5453 3.0527,-9.8242 -1.0388,-3.7619 -3.2914,-5.9401 -6.0449,-6.0937 z m -0.6387,2.6152 c 1.0686,0.035 2.1216,0.6129 3.1348,1.7324 2.3369,2.5822 2.0547,6.4474 -0.6582,8.9961 -2.83,2.6586 -2.8009,2.658 -6.0508,0.1016 -3.1741,-2.4967 -3.3288,-4.7762 -0.5625,-8.293 1.3648,-1.7351 2.7628,-2.5828 4.1367,-2.5371 z m -31.1641,29.7852 c 4.5636,0.1331 9.4057,2.689 13.7676,7.6445 9.6637,10.9785 9.2956,27.4405 -0.7656,34.2207 -5.8991,3.9755 -15.0454,2.251 -20.7051,-3.9023 -4.8719,-5.2967 -6.8418,-10.8886 -6.8418,-19.418 0,-6.9318 0.3458,-8.581 2.4531,-11.6563 3.2435,-4.7336 7.5283,-7.0218 12.0918,-6.8886 z m -0.3437,6.1172 c -5.5071,-10e-5 -9.7012,6.0492 -9.7012,13.9902 0,6.1562 2.5208,11.506 7.4746,15.8555 6.4784,5.6881 13.3779,3.5384 17.0801,-5.3223 2.2581,-5.4043 1.7909,-10.174 -1.5703,-16.0488 -3.087,-5.3955 -7.9132,-8.4746 -13.2832,-8.4746 z m 48.8203,2.2558 c 3.1444,-0.073 6.4084,0.6127 9.5859,2.1231 16.9884,8.0751 19.5482,31.7394 4.3633,40.3398 -4.6031,2.6072 -13.1096,3.014 -18.0488,0.8633 -8.3285,-3.6265 -14.3126,-12.1352 -15.1289,-21.5098 -0.4147,-4.7618 -0.067,-6.3665 2.3945,-11.0371 3.5759,-6.7849 9.9163,-10.6177 16.834,-10.7793 z m -47.9453,0.3047 c 1.0998,0.016 2.3051,0.2243 3.623,0.6191 3.1002,0.9288 4.7025,2.2671 6.9004,5.7657 4.4359,7.0613 3.3689,15.1811 -2.6133,19.8867 -1.5158,1.1923 -3.4827,2.1576 -4.3711,2.1426 -2.8319,-0.047 -6.6892,-3.098 -9.9316,-7.8555 -2.9068,-4.265 -3.0855,-5.0026 -2.3437,-9.6191 1.2026,-7.4845 3.9702,-11.0098 8.7363,-10.9395 z m 1.748,4.9824 c -0.9406,-0.031 -1.9266,0.2784 -2.9355,0.9395 -5.4088,3.5439 -5.4316,11.3021 -0.043,14.5879 4.0085,2.4442 4.249,2.4267 7.1992,-0.5235 2.805,-2.8051 3.0518,-5.1809 1.0391,-9.998 -1.3472,-3.2244 -3.1904,-4.9375 -5.2598,-5.0059 z m 45.4981,1.0664 c -3.2913,0.037 -4.4489,0.616 -6.8438,2.8907 -4.466,4.2417 -5.9785,7.6461 -5.9785,13.4472 0,4.4251 0.4619,5.5612 3.75,9.211 2.0625,2.2893 5.1,4.9878 6.75,5.998 5.4861,3.3588 13.0874,1.99 17.2656,-3.1094 4.1195,-5.0278 5.6783,-15.6031 2.668,-18.1015 -0.8613,-0.7148 -2.2195,-2.5623 -3.0176,-4.1055 -1.9619,-3.794 -6.7323,-6.0661 -13.0429,-6.2148 -0.5672,-0.013 -1.0806,-0.021 -1.5508,-0.016 z m -46.1934,1.4551 c 1.4183,-0.14 2.9076,1.1259 4.3047,3.7773 0.967,1.8358 0.9724,2.9683 0.027,5.25 l 0,0 c -1.4219,3.4328 -4.0909,3.7803 -6.9629,0.9083 -2.4015,-2.4016 -2.4567,-3.216 -0.4746,-7.0489 0.9404,-1.8185 2.0004,-2.7778 3.1035,-2.8867 z m 47.5586,1.0879 c 0.9289,-0.044 1.8991,-6e-4 2.9082,0.1348 4.716,0.6326 7.1521,2.5738 10.5918,8.4433 1.9149,3.2674 2.3211,4.9758 1.7871,7.5 -1.0607,5.0145 -4.1532,9.3897 -7.8926,11.1641 -1.8619,0.8836 -4.2175,1.6015 -5.2343,1.6015 -2.7097,-0.01 -7.3771,-3.1268 -11.2168,-7.5 -3.1041,-3.5354 -3.3239,-4.2188 -2.793,-8.7011 0.9129,-7.708 5.3471,-12.3323 11.8496,-12.6426 z m 0.6992,4.9394 c -1.4641,0.096 -2.9395,0.8693 -4.3926,2.3223 -4.9876,4.9877 -4.1964,11.4014 1.7266,13.9902 4.6111,2.0153 5.5465,1.9202 8.3242,-0.8574 3.3437,-3.3437 3.2889,-8.4 -0.1347,-12.4687 -1.777,-2.1118 -3.6411,-3.1097 -5.5235,-2.9864 z m 0.545,3.0293 c 1.6922,0.016 3.368,1.0324 4.5371,3.129 1.3753,2.4699 1.3755,3.03 0,5.5 l 0,0 c -2.0432,3.6688 -5.843,4.079 -8.7851,0.9472 -1.8027,-1.9189 -2.0644,-2.881 -1.3204,-4.8379 1.1879,-3.1242 3.3908,-4.7585 5.5665,-4.7383 z"
       id="path5154"
       inkscape:connector-curvature="0"
       sodipodi:nodetypes="sscccccsscccscsccscssssssssscsscsscscsccccscccccscsscsccccsccccsscccssssccscsccccccscsscccscscccscsscccccccccscccccccsscscccssccccscc" />
    <path
       style="fill:#000000;fill-rule:evenodd;stroke:none;stroke-width:1px;stroke-linecap:butt;stroke-linejoin:miter;stroke-opacity:1"
       d="m -2193.8214,803.1969 c -7.0475,18.0933 -22.789,23.5905 -43.5801,23.3926 l -10.3574,29.6426 c 48.7406,26.8797 26.3096,55.5381 0.3574,84.2851 l 20.3574,27.8575 c 21.4406,-9.4233 41.7633,-12.2429 55.6602,12.2812 l 0,0.01 c 0,-0.002 0,-0.004 0,-0.006 0,0.005 0,0.0105 0.01,0.0156 l 0,-0.0293 c 13.897,-24.5239 34.3153,-21.5149 55.7559,-12.0918 l 20.3574,-27.8574 c -25.9522,-28.747 -48.3832,-57.4054 0.3574,-84.2851 l -10.3574,-29.6446 c -20.8593,0.1986 -36.6371,-5.3345 -43.6504,-23.5703 l -44.9121,0 z"
       id="path5172"
       inkscape:connector-curvature="0" />
    <path
       style="fill:#000000"
       d="m -2946.7651,497.92861 c -2.0121,0 -18.9974,9.5756 -21.5976,12.1758 -1.5607,1.5607 -1.8216,3.5218 -1.8086,13.5742 0.01,6.4625 0.4092,12.3735 0.8925,13.1367 0.4833,0.7631 5.3157,3.9875 10.7364,7.1641 5.4208,3.1765 10.501,5.8133 11.291,5.8613 2.2362,0.1353 20.8236,-10.7324 22.5351,-13.1758 1.9774,-2.8232 2.1997,-23.4807 0.2793,-25.9843 -1.6674,-2.1739 -20.1895,-12.752 -22.3281,-12.752 z m 52.7969,0 c -1.9179,0 -20.4459,10.3632 -22.1074,12.3652 -0.7984,0.9617 -1.0836,5.5239 -0.8926,14.2735 l 0.2812,12.8613 10.5,6.2422 c 5.775,3.4333 11.1779,6.25 12.0059,6.25 0.828,0 6.228,-2.8047 12,-6.2422 l 10.4941,-6.25 0.2774,-13.0703 c 0.2443,-11.4969 0.064,-13.2541 -1.5,-14.6016 -3.1044,-2.6749 -19.4008,-11.8281 -21.0586,-11.8281 z m -26.334,46 c -3.7059,0 -21.8638,10.8044 -22.9473,13.6543 -1.2148,3.2042 -1.2173,20.4799 0,23.6816 0.6301,1.6573 4.156,4.2985 10.75,8.0547 l 0,0 c 5.3968,3.0743 10.8597,5.5996 12.1387,5.5996 2.3333,0.01 13.8426,-6.159 19.9238,-10.6777 l 3.25,-2.4141 0,-12.3984 0,-12.3984 -3.25,-2.4141 c -5.9956,-4.4552 -17.5773,-10.6875 -19.8613,-10.6875 z m 52.5918,0 c -2.9502,0 -21.1732,10.5638 -22.5,13.043 -1.4844,2.7737 -1.2417,23.2127 0.3008,25.3222 0.703,0.9615 5.3155,4.1632 10.25,7.1153 4.9344,2.9521 10.1735,5.4013 11.6426,5.4433 2.5263,0.072 18.2531,-8.2374 22.08,-11.666 1.4852,-1.3306 1.75,-3.4122 1.75,-13.7578 0,-10.3456 -0.2648,-12.4272 -1.75,-13.7578 -3.4884,-3.1253 -19.467,-11.7422 -21.7734,-11.7422 z m -79.0996,45 c -2.3721,0 -17.8573,8.4203 -21.627,11.7598 -1.4862,1.3166 -1.75,3.3879 -1.75,13.7402 0,14.1241 -0.7716,12.8163 12,20.3301 4.675,2.7504 9.6955,5.038 11.1563,5.084 2.8972,0.092 19.2393,-8.8895 22.0937,-12.1426 1.4388,-1.6397 1.75,-3.9424 1.75,-12.9492 0,-6.0252 -0.441,-11.7769 -0.9785,-12.7813 -1.3623,-2.5454 -19.5873,-13.041 -22.6445,-13.041 z m 52.7422,0.023 c -2.3798,-0.024 -18.8107,8.8087 -21.6289,11.627 -1.1603,1.1603 -1.4866,4.1941 -1.4746,13.6699 0.01,6.6982 0.3459,12.6913 0.75,13.3164 0.4041,0.625 5.0093,3.654 10.2343,6.7324 5.225,3.0785 10.5844,5.6033 11.9102,5.6133 3.5346,0.024 22.0473,-10.9564 22.6641,-13.4433 0.278,-1.1213 0.3741,-7.4192 0.2148,-13.9942 l -0.2891,-11.9551 -10,-5.7714 c -5.5,-3.1745 -11.0711,-5.782 -12.3808,-5.795 z m 52.7617,0 c -1.3097,0.013 -6.8809,2.6212 -12.3809,5.7969 l -10,5.7735 0,13.9062 0,13.9043 10,5.7734 c 5.5,3.1757 11.0856,5.7859 12.4122,5.7989 2.431,0.024 20.9567,-10.2144 22.3222,-12.336 0.4041,-0.6278 0.74,-6.6221 0.75,-13.3203 0.012,-9.4758 -0.3162,-12.5096 -1.4765,-13.6699 -2.8182,-2.8183 -19.2472,-11.651 -21.627,-11.627 z m -79.0117,44.9766 c -2.2129,0 -20.7667,11.013 -22.3418,13.2617 -1.8242,2.6044 -2.1746,21.2437 -0.4688,24.9414 0.5969,1.294 5.291,4.7828 10.75,7.9903 5.3296,3.1315 10.5236,5.719 11.5411,5.75 2.5574,0.078 21.4878,-10.775 22.6796,-13.002 1.4661,-2.7394 1.2365,-24.2289 -0.2793,-26.1172 -1.5324,-1.9089 -20.1565,-12.8242 -21.8808,-12.8242 z m 52.8652,0 c -2.1134,0 -20.687,11.0916 -22.207,13.2617 -1.9775,2.8233 -2.1979,23.483 -0.2774,25.9844 0.6875,0.8954 5.525,4.1088 10.75,7.1426 5.225,3.0339 10.3606,5.5384 11.4122,5.5644 2.2394,0.055 20.5076,-10.3453 22.3378,-12.7168 0.8353,-1.0824 1.25,-5.4726 1.25,-13.2363 0,-7.7862 -0.4122,-12.1381 -1.25,-13.1953 -1.4313,-1.8064 -20.3413,-12.8047 -22.0156,-12.8047 z m -105.8535,0.01 c -0.7597,0 -6.1059,2.8167 -11.8809,6.25 l -10.5,6.2422 -0.2773,13.0684 c -0.3233,15.2125 -1.2397,13.6232 12.2773,21.3046 4.95,2.813 9.7732,5.1211 10.7188,5.1211 1.7448,0.01 17.8252,-9.0068 21.0312,-11.7871 1.495,-1.2965 1.75,-3.3661 1.75,-14.207 0,-10.8481 -0.254,-12.9083 -1.75,-14.1895 -2.7901,-2.3895 -19.8485,-11.8127 -21.3691,-11.8027 z"
       id="path5204"
       inkscape:connector-curvature="0" />
    <path
       style="opacity:1;fill:#000000;fill-opacity:1;stroke:none;stroke-width:10;stroke-linecap:round;stroke-linejoin:round;stroke-miterlimit:4;stroke-dasharray:none;stroke-dashoffset:0;stroke-opacity:1"
       d="M -3525.1951,792.36133 A 114.80525,148.57149 0 0 0 -3640,940.93347 a 114.80525,148.57149 0 0 0 114.8049,148.57103 114.80525,148.57149 0 0 0 114.8061,-148.57103 114.80525,148.57149 0 0 0 -114.8061,-148.57214 z m -11.8181,28.7018 c -36.2701,36.73512 -58.2732,80.60308 -67.5322,130.84371 -6.1353,-70.9587 24.4253,-106.88881 67.5322,-130.84371 z"
       id="path5212"
       inkscape:connector-curvature="0" />
    <rect
       style="opacity:1;fill:#000000;fill-opacity:1;stroke:none;stroke-width:10;stroke-linecap:round;stroke-linejoin:round;stroke-miterlimit:4;stroke-dasharray:none;stroke-dashoffset:0;stroke-opacity:1"
       id="rect5311"
       width="240"
       height="240"
       x="-4080"
       y="1372.3622" />
    <rect
       style="opacity:1;fill:#ffff00;fill-opacity:1;stroke:none;stroke-width:10;stroke-linecap:round;stroke-linejoin:round;stroke-miterlimit:4;stroke-dasharray:none;stroke-dashoffset:0;stroke-opacity:1"
       id="rect5313"
       width="60"
       height="60"
       x="-3740"
       y="1372.3622" />
  </g>
</svg>
