<svg xmlns="http://www.w3.org/2000/svg" viewBox="0 0 1000 1000" version="1.1"><g style="line-height:125%;-inkscape-font-specification:'arial, Normal';text-align:start" font-style="normal" font-variant="normal" font-weight="normal" font-stretch="normal" font-size="30" font-family="STIX" letter-spacing="0" word-spacing="0" writing-mode="lr-tb" text-anchor="start" fill="#000" fill-opacity="1" stroke="none" stroke-width="1" stroke-linecap="butt" stroke-linejoin="miter" stroke-opacity="1"><path d="M128.6 540.3l-.2-5h-16.8l-.2 5h.7c.7-3.3 1.5-4 4.7-4h1.8v15c0 2.7-.4 3-2.8 3v.7h8.7v-.6c-2.4 0-3-.4-3-2.7v-15.3h2c3 0 4 .6 4.5 4h.6zM143.8 555v-.4c-1.6-.3-1.8-.6-1.8-2.6v-6c0-3.2-1.2-4.8-3.7-4.8-1.8 0-3 .7-4.4 2.5v-9l-.2-.2c-1 .4-1.8.6-3.5 1l-.8.3v.5h.4c1 0 1.4.2 1.4 1.5V552c0 2-.2 2.3-2 2.6v.4h6.5v-.4c-1.8-.2-2-.6-2-2.6v-7.3c1.2-1.4 2-2 3.3-2 1.4 0 2.2 1.2 2.2 3.3v6c0 2-.3 2.4-2 2.6v.4h6.3zM156.4 550c-1.4 2.3-2.6 3.2-4.6 3.2-1.4 0-2.5-.5-3.3-1.6-1-1.4-1.2-2.6-1.4-5h9.3c0-1.5-.4-2.5-1-3.3-1-1.4-2.3-2-4-2-4 0-6.4 3-6.4 7.2 0 4 2 6.8 5.6 6.8 3 0 5-1.7 6.3-5l-.6-.2zm-9.2-4.3c.3-2.2 1.5-3.4 3-3.4 2 0 2.8 1 3 3.4h-6zM171 541.5h-4v.5c1 0 1.5.2 1.5.7v.5l-3 8.3-3.4-7.5-.3-1.2c0-.6.4-.8 1.7-.8v-.5h-6v.4c.7 0 1.2.3 1.5 1l3.8 8.4c.6 1.2 1.3 2.6 1.3 3 0 .6-.5 2.4-1 3.3-.6.7-1.2 1.3-1.6 1.3-.2 0-.5 0-.8-.2-.5-.3-1-.4-1.6-.4-.7 0-1.2.7-1.2 1.4 0 1 .8 1.8 2 1.8 2.3 0 3.7-1.6 5.3-5.8l4.6-12.3c.4-1 .8-1.4 1.5-1.5v-.5zM215.5 553c-.5.5-.8.6-1.3.6s-1-.6-1-2V546c0-2 0-2.6-.8-3.4-.7-1-1.8-1.4-3.5-1.4-1.4 0-2.7.4-3.5 1-1 .6-1.6 1.5-1.6 2.3 0 .8.6 1.4 1.2 1.4.8 0 1.4-.8 1.4-1.3 0-.7-.2-.8-.2-1.3 0-.8 1-1.5 2-1.5 1.5 0 2.5.8 2.5 2.6v1.7c-3.5 1.2-4.6 1.8-5.5 2.4-1.2.8-2 2-2 3.5 0 2 1 3 3 3 1.3 0 2.8-.3 4.4-2 0 1.5.7 2 1.8 2 1 0 1.8-.2 2.7-1.3v-1zm-4.6-1.8c0 1-.3 1.3-1.2 2-.5.2-1 .4-1.7.4-1 0-2-.7-2-2.3 0-1 .3-1.7 1-2.3.8-.7 2-1.4 4-2v4.2zM227.5 550.3c-1.4 2-2.5 3-4.2 3-2.8 0-4.7-2.5-4.7-6 0-3 1.7-5.2 4-5.2 1.2 0 1.6.4 2 1.5v.7c.3 1 .8 1.4 1.5 1.4 1 0 1.5-.6 1.5-1.3 0-1.7-2-3-4.6-3-1.5 0-3 .5-4.2 1.4-1.6 1.4-2.5 3.5-2.5 6 0 3.8 2.4 6.6 5.7 6.6 1.3 0 2.4-.4 3.5-1.2 1-.7 1.5-1.5 2.4-3.4l-.5-.3zM243.5 561.5v-.5c-1.6-.2-2-.5-2-1.8v-18h-.2l-1.6 1c-1.4-.7-2.3-1-3.5-1-3.7 0-6.6 3.3-6.6 7.7 0 3.6 2 6.3 4.8 6.3 1.7 0 3.4-.8 4.7-2.2v5.7c0 1.7-.5 2.2-2.6 2.3v.5h7zm-4.4-10.3c0 .7 0 1-.3 1.3-.6.6-1.7 1-2.6 1-.8 0-1.6-.3-2.2-.8-1-1-1.6-2.8-1.6-5 0-3.5 1.5-5.6 4-5.6 2 0 3 1 3 3v6.2zM257.8 553.5c-1.5 0-1.8-.3-1.8-1.7v-10.3h-4.8v.5c1.8 0 2.2.4 2.2 2v7c0 1-.2 1.2-.7 1.6-.7.7-1.6 1-2.5 1-1 0-2-1-2-2.4v-9.7h-4.5v.4c1.5 0 2 .4 2 2v7.5c0 2.3 1.2 3.8 3.5 3.8 1 0 3-.6 4.3-2.6v2.5h.2l4-1.3v-.5zM263.8 536c0-.8-.6-1.5-1.5-1.5-.8 0-1.5.7-1.5 1.6 0 1 .6 1.6 1.5 1.6 1 0 1.5-.7 1.5-1.5zm2.2 19v-.4c-2-.2-2.2-.5-2.2-2.7v-10.7l-4.8 1.6v.3h1.3c.8 0 1 .4 1 1.8v7c0 2.2-.3 2.4-2.4 2.6v.4h7zM271.6 541.3h-.2l-4.4 1.5v.5h1c.8 0 1 .4 1 1.7v7.5c0 1.5-.2 1.7-2 2v.5h7v-.4c-2 0-2.4-.6-2.4-2.3v-6.7c0-1 1.2-2.5 2-2.5.2 0 .5.3.8.6.5.4 1 .6 1.2.6.8 0 1.2-.6 1.2-1.4 0-1-.6-1.6-1.6-1.6-1.3 0-2 .7-3.6 2.8v-2.7zM289 550c-1.5 2.3-2.6 3.2-4.7 3.2-1.3 0-2.4-.5-3.3-1.6-1-1.4-1.2-2.6-1.4-5h9.3c-.2-1.5-.5-2.5-1-3.3-1-1.4-2.5-2-4.3-2-3.8 0-6.2 3-6.2 7.2 0 4 2 6.8 5.7 6.8 3 0 5-1.7 6.2-5l-.4-.2zm-9.3-4.3c.3-2.2 1.5-3.4 3.2-3.4 2 0 2.5 1 2.8 3.4h-6zM304.8 553.8v-.5h-.7c-1 0-1.3-.3-1.3-1.7v-17l-4.5 1.2v.5h.6c1.2 0 1.4.3 1.4 1.5v4.7c-1-1-2-1.3-3-1.3-3.6 0-6.4 3.4-6.4 7.7 0 3.7 2.3 6.3 5.6 6.3 1.7 0 2.8-.6 3.8-2v2l4.6-1.5zm-4.6-1.8l-.4.8c-.6.6-1.3 1-2.2 1-2.6 0-4.2-2.4-4.2-6 0-3.5 1.5-5.7 3.8-5.7 1.6 0 3 1.5 3 3v7zM340 546c-.7-.5-1.2-1.4-1.2-2 0-1.5 1-2 2.3-2 2 0 2.8 1 3.4 3.6h.5l-.3-4h-.3c-.2.2-.3.2-.5.2-.3 0-.6 0-1-.2-.5-.3-1.2-.4-2-.4-2.4 0-4 1.4-4 3.7 0 1.5 1 3 3.5 4.3l1.7 1c1 .4 1.6 1.2 1.6 2 0 1.4-1 2.4-2.5 2.4-2 0-3.2-1.4-3.8-4.3h-.5v4.7h.4c0-.2.3-.2.7-.2l1.5.2c.7.3 1.5.3 2.2.3 2.2 0 4.2-1.7 4.2-3.7 0-1.7-1-2.6-2.8-3.7l-3-2zM351.8 541.3c-1.7.5-2.8 1-4.5 1.4v.5h.8c1 0 1.3.3 1.3 1.7v14c0 1.5-.3 1.8-2 2v.5h7.2v-.5c-2.3 0-2.7-.4-2.7-2.3V554c1 1 1.8 1.3 3 1.3 3.6 0 6.4-3.3 6.4-7.7 0-3.7-2-6.4-5-6.4-1.7 0-3 .7-4.4 2.4v-2.3zm0 3.7c0-1 1.7-2 3-2 2.3 0 3.8 2.3 3.8 5.8 0 3.3-1.5 5.6-3.6 5.6-1.4 0-3.2-1-3.2-2V545zM367.5 536c0-.8-.7-1.5-1.6-1.5-1 0-1.6.7-1.6 1.6 0 1 .7 1.6 1.5 1.6s1.5-.7 1.5-1.5zm2.2 19v-.4c-2-.2-2.3-.5-2.3-2.7v-10.7l-4.7 1.6v.3h1.2c.7 0 1 .4 1 1.8v7c0 2.2-.4 2.4-2.4 2.6v.4h7zM382.3 550.3c-1.4 2-2.5 3-4.2 3-2.7 0-4.5-2.5-4.5-6 0-3 1.6-5.2 4-5.2 1 0 1.5.4 1.8 1.5l.2.7c.2 1 .8 1.4 1.4 1.4.7 0 1.3-.6 1.3-1.3 0-1.7-2-3-4.6-3-1.4 0-2.8.5-4 1.4-1.7 1.4-2.6 3.5-2.6 6 0 3.8 2.5 6.6 5.8 6.6 1.3 0 2.5-.4 3.5-1.2 1-.7 1.5-1.5 2.5-3.4l-.5-.3zM396 550c-1.5 2.3-2.7 3.2-4.7 3.2-1.4 0-2.5-.5-3.3-1.6-1-1.4-1.2-2.6-1.4-5h9.2c0-1.5-.4-2.5-1-3.3-1-1.4-2.3-2-4-2-4 0-6.4 3-6.4 7.2 0 4 2.2 6.8 5.7 6.8 3 0 5.2-1.7 6.4-5l-.5-.2zm-9.3-4.3c.3-2.2 1.5-3.4 3-3.4 2 0 2.8 1 3 3.4h-6zM401.7 546c-1-.5-1.3-1.4-1.3-2 0-1.5 1-2 2.2-2 1.8 0 2.7 1 3.4 3.6h.5l-.2-4h-.3c-.2.2-.4.2-.5.2-.2 0-.5 0-.8-.2-.7-.3-1.3-.4-2-.4-2.5 0-4.2 1.4-4.2 3.7 0 1.5 1 3 3.6 4.3l1.7 1c1 .4 1.6 1.2 1.6 2 0 1.4-1 2.4-2.5 2.4-2 0-3-1.4-3.8-4.3h-.4v4.7h.3c0-.2.3-.2.7-.2l1.3.2c.7.3 1.6.3 2.2.3 2.3 0 4.2-1.7 4.2-3.7 0-1.7-.7-2.6-2.6-3.7l-3-2zM411 559.2c2.2-1 3.5-2.8 3.5-4.6 0-1.6-1-2.6-2.4-2.6-1 0-1.7.6-1.7 1.7 0 1 .6 1.5 1.7 1.5h1c.2 0 .3 0 .3.3 0 1-.8 2-2.5 3.2l.3.5zM467.4 541.5h-3.7v.5c1 .2 1.3.4 1.3 1l-.5 2-2.7 6.5-2.5-6.7c-.4-1-.5-1.3-.5-1.8 0-.6.3-.8 1.7-1v-.5h-6v.5c1 0 1.4.4 2 2l.6 1.7-2.6 6-3-7.8-.2-1c0-.7.3-1 1.4-1v-.5h-5.4v.5c.7 0 1 .2 1.6 2l4 10c.4 1 .6 1.4.8 1.4.2 0 .4-.4.8-1l3.3-7.3 2.7 7c.5 1.3.6 1.4.8 1.4.2 0 .3-.2.8-1.4l4-10.4c.6-1.2.8-1.4 1.4-1.6v-.5zM473.6 536c0-.8-.6-1.5-1.5-1.5-.7 0-1.4.7-1.4 1.6 0 1 .6 1.6 1.5 1.6 1 0 1.6-.7 1.6-1.5zm2.2 19v-.4c-2-.2-2.2-.5-2.2-2.7v-10.7l-4.8 1.6v.3h1.3c.8 0 1 .4 1 1.8v7c0 2.2-.2 2.4-2.3 2.6v.4h7zM491 555v-.4c-1.4-.2-1.7-.5-1.7-2v-6.8c0-3-1.3-4.6-3.6-4.6-1.3 0-2.7.7-4.3 2.4v-2.3h-.3l-4 1.3v.5h1c.7 0 1 .4 1 2v7.2c0 1.8-.4 2.2-2 2.4v.4h6.4v-.4c-1.5-.2-2-.6-2-1.7v-8.4c1.5-1.4 2.2-1.7 3.2-1.7 1.4 0 2.2.8 2.2 3v6c0 1.8-.4 2.4-2 2.6v.4h6.3zM503.8 550c-1.5 2.3-2.6 3.2-4.6 3.2-1.4 0-2.5-.5-3.4-1.6-1-1.4-1.2-2.6-1.3-5h9.2c0-1.5-.4-2.5-1-3.3-1-1.4-2.3-2-4.2-2-3.8 0-6.2 3-6.2 7.2 0 4 2.2 6.8 5.7 6.8 3 0 5-1.7 6.3-5l-.5-.2zm-9.3-4.3c.4-2.2 1.5-3.4 3.2-3.4 2 0 2.6 1 3 3.4h-6.2zM507.3 559.2c2-1 3.4-2.8 3.4-4.6 0-1.6-1-2.6-2.4-2.6-1 0-1.8.6-1.8 1.7 0 1 .6 1.5 1.7 1.5h1c.2 0 .3 0 .3.3 0 1-.8 2-2.5 3.2l.3.5zM115.4 572c-1.4.5-2 .7-3.6 1l-1 .3v.6c.3-.2.4-.2.7-.2 1.2 0 1.4.2 1.4 1.7v15.3c0 1 2.4 2 5 2 3.8 0 7-3 7-7.5 0-3.7-2.3-6.6-5.5-6.6-1.8 0-3.4 1-4 2.5v-9zm0 11c0-1.3 1.4-2.4 3-2.4 1 0 2 .5 2.7 1.4.8 1 1.3 2.8 1.3 4.6 0 1.7-.4 3-1.2 4-.5.8-1.5 1.3-2.6 1.3-1.6 0-3-.7-3-1.7V583zM140 585.6c0-4.2-3-7-6.5-7-4 0-6.8 3-6.8 7 0 4.2 3 7.2 6.5 7.2 4 0 6.8-3 6.8-7.2zm-2.7.8c0 3.5-1.4 5.6-3.6 5.6-1 0-2-.6-2.7-1.5-1-1.6-1.6-3.8-1.6-6.2 0-3 1.4-4.7 3.5-4.7 1.2 0 2 .6 2.8 1.5 1 1.3 1.5 3.4 1.5 5.4zM155 585.6c0-4.2-3-7-6.5-7-4 0-6.8 3-6.8 7 0 4.2 3 7.2 6.5 7.2 4 0 6.8-3 6.8-7.2zm-2.7.8c0 3.5-1.4 5.6-3.6 5.6-1 0-2-.6-2.7-1.5-1-1.6-1.6-3.8-1.6-6.2 0-3 1.4-4.7 3.5-4.7 1.2 0 2 .6 2.8 1.5 1 1.3 1.5 3.4 1.5 5.4zM171 592.5v-.4c-1.3 0-2.3-.6-3.5-2l-4.6-6 .8-.8c3.7-3.4 4.5-3.7 6.5-3.7v-.5H164v.4c1.3 0 1.6.2 1.6.6 0 .2-.2.6-.7 1l-4.2 3.7V572l-3.8 1-1 .3v.5h1c1 0 1.3.4 1.3 1.8V590c0 1.6 0 1.7-2.2 2v.5h7v-.4h-.5c-1.2 0-1.7-.4-1.7-1.5V585l4.5 6c.3.2.4.5.4.6 0 .3-.3.5-.7.5h-.5v.5h6.5zM175.7 583.5c-.8-.5-1.3-1.4-1.3-2 0-1.5 1-2 2.3-2 1.8 0 2.7 1 3.4 3.6h.5v-4h-.5c-.2.3-.3.3-.4.3-.3 0-.6 0-1-.2-.5-.2-1.2-.3-2-.3-2.4 0-4 1.4-4 3.7 0 1.6 1 3 3.6 4.4l1.6 1c1 .4 1.6 1.2 1.6 2 0 1.4-1 2.4-2.5 2.4-2.2 0-3.3-1.4-4-4.3h-.4v4.6h.4c.2-.3.3-.3.7-.3l1.4.2c.8.3 1.6.3 2.3.3 2.3 0 4.2-1.7 4.2-3.7 0-1.6-.7-2.5-2.7-3.6l-3-2zM185.2 596.7c2-1 3.3-2.8 3.3-4.6 0-1.5-1-2.5-2.4-2.5-1 0-1.7.6-1.7 1.7 0 1 .7 1.5 1.8 1.5h1c.2 0 .4 0 .4.3 0 1-1 2-2.5 3.2l.2.5zM208.7 583.5c-.8-.5-1.3-1.4-1.3-2 0-1.5 1-2 2.3-2 1.8 0 2.7 1 3.4 3.6h.5v-4h-.5c-.2.3-.3.3-.4.3-.3 0-.6 0-1-.2-.5-.2-1.2-.3-2-.3-2.4 0-4 1.4-4 3.7 0 1.6 1 3 3.6 4.4l1.6 1c1 .4 1.6 1.2 1.6 2 0 1.4-1 2.4-2.5 2.4-2.2 0-3.3-1.4-4-4.3h-.4v4.6h.4c.2-.3.3-.3.7-.3l1.4.2c.8.3 1.6.3 2.3.3 2.3 0 4.2-1.7 4.2-3.7 0-1.6-.7-2.5-2.7-3.6l-3-2zM221 573.6c0-1-.6-1.6-1.4-1.6-1 0-1.6.7-1.6 1.6 0 .8.7 1.5 1.5 1.5 1 0 1.6-.6 1.6-1.4zm2.3 19v-.5c-2 0-2.2-.4-2.2-2.6v-10.6l-4.7 1.6v.4h1.3c.7 0 1 .4 1 1.8v6.8c0 2.3-.4 2.5-2.4 2.7v.5h7zM231.7 592.5v-.4c-2 0-2.2-.4-2.2-2v-18h-.2l-4.7 1.3v.5h1c1 0 1.4.4 1.4 2v14c0 1.6-.5 2-2.4 2.3v.5h7zM247.5 592.5v-.4c-1.3 0-2.3-.6-3.5-2l-4.6-6 1-.8c3.5-3.4 4.4-3.7 6.3-3.7v-.5h-6v.4c1 0 1.4.2 1.4.6 0 .2-.2.6-.6 1l-4 3.7V572h-.2l-3.8 1-1 .3v.5h1c1 0 1.4.4 1.4 1.8V590c0 1.6 0 1.7-2.3 2v.5h7v-.4h-.5c-1.2 0-1.7-.4-1.7-1.5V585l4.5 6c.3.2.3.5.3.6 0 .3 0 .5-.5.5h-.6v.5h6.5zM250 596.7c2-1 3.4-2.8 3.4-4.6 0-1.5-1-2.5-2.4-2.5-1 0-1.8.6-1.8 1.7 0 1 .6 1.5 1.7 1.5h.8c.2 0 .4 0 .4.3 0 1-.8 2-2.5 3.2l.3.5zM283 581v-1.3h-2.4c-.6 0-1 0-1.6-.3l-.7-.2c-.8-.3-1.6-.5-2.4-.5-3 0-5 2.2-5 5 0 1.8.7 3 2.7 4l-1.3 1c-1 1-1.4 1.6-1.4 2.2 0 .6.4 1 1.6 1.5-2 1.5-3 2.5-3 3.6 0 1.7 2.4 3 5.3 3 2 0 4.3-.7 6-2 1-.8 1.7-1.8 1.7-3 0-2-1.4-3-3.6-3.2l-3.8-.2c-1.6 0-2.4-.3-2.4-.8 0-.6 1-1.7 1.8-2l.6.2h1.2c1 0 2-.4 3-1 1.2-1 1.6-2 1.6-3.6 0-1 0-1.6-.5-2.5h2.5zm-9.6 1.4c0-1.8 1-2.8 2.2-2.8 1 0 1.7.5 2.2 1.4.6 1 1 2.4 1 3.6 0 1.6-1 2.7-2.3 2.7-2 0-3-2-3-4.8zm8.4 12c0 1.8-2.2 3-5.7 3-2.5 0-4.2-1-4.2-2.2 0-.7.3-1.2 1.5-2.6 1 .2 3.4.4 4.8.4 3 0 3.8.3 3.8 1.4zM291.5 592.5v-.4c-2 0-2.2-.4-2.2-2v-18h-.2l-4.6 1.3v.5h1c1 0 1.3.4 1.3 2v14c0 1.6-.4 2-2.3 2.3v.5h7zM305.4 590.5c-.5.5-.8.6-1.3.6s-.8-.5-.8-2v-5.6c0-1.8-.2-2.5-1-3.3-.6-.8-1.7-1.3-3.4-1.3-1.4 0-2.6.4-3.5 1-1 .6-1.5 1.5-1.5 2.3 0 .8.7 1.4 1.3 1.4 1 0 1.5-.7 1.5-1.2 0-.7-.2-.8-.2-1.3 0-1 1-1.6 2-1.6 1.4 0 2.4 1 2.4 2.7v1.8c-3.4 1.2-4.5 1.8-5.4 2.4-1 .8-2 2-2 3.5 0 2 1.2 3 3 3 1.4 0 2.8-.3 4.4-2 .2 1.5 1 2 2 2s1.8-.2 2.7-1.3v-1zm-4.7-1.8c0 1-.2 1.3-1 2-.5.2-1.2.4-1.8.4-1.2 0-2-.6-2-2.2 0-1 .2-1.7 1-2.3.6-.7 2-1.4 3.7-2v4.2zM310 583.5c-.7-.5-1.2-1.4-1.2-2 0-1.5 1-2 2.3-2 2 0 2.8 1 3.4 3.6h.5l-.3-4h-.3c-.2.3-.3.3-.5.3-.3 0-.6 0-1-.2-.5-.2-1.2-.3-2-.3-2.4 0-4 1.4-4 3.7 0 1.6 1 3 3.5 4.4l1.7 1c1 .4 1.6 1.2 1.6 2 0 1.4-1 2.4-2.5 2.4-2 0-3.2-1.4-3.8-4.3h-.5v4.6h.4c0-.3.3-.3.7-.3l1.5.2c.7.3 1.5.3 2.2.3 2.2 0 4.2-1.7 4.2-3.7 0-1.6-1-2.5-2.8-3.6l-3-2zM321.8 583.5c-1-.5-1.3-1.4-1.3-2 0-1.5 1-2 2.2-2 1.8 0 2.7 1 3.4 3.6h.6l-.2-4h-.3c-.2.3-.3.3-.4.3-.2 0-.5 0-.8-.2-.7-.2-1.3-.3-2-.3-2.5 0-4.2 1.4-4.2 3.7 0 1.6 1 3 3.6 4.4l1.6 1c1 .4 1.6 1.2 1.6 2 0 1.4-1 2.4-2.5 2.4-2 0-3.3-1.4-4-4.3h-.4v4.6h.4c.2-.3.4-.3.7-.3l1.4.2c.8.3 1.7.3 2.3.3 2.3 0 4.2-1.7 4.2-3.7 0-1.6-.7-2.5-2.6-3.6l-3.2-2zM355.8 590.5c-.5.5-.8.6-1.2.6-.6 0-1-.5-1-2v-5.6c0-1.8 0-2.5-.8-3.3-.7-.8-2-1.3-3.6-1.3-1.3 0-2.6.4-3.4 1-1 .6-1.5 1.5-1.5 2.3 0 .8.6 1.4 1.3 1.4.7 0 1.3-.7 1.3-1.2 0-.7-.2-.8-.2-1.3 0-1 1-1.6 2-1.6 1.4 0 2.4 1 2.4 2.7v1.8c-3.4 1.2-4.5 1.8-5.4 2.4-1.2.8-2 2-2 3.5 0 2 1.2 3 3 3 1.3 0 2.8-.3 4.4-2 .2 1.5.8 2 2 2 1 0 1.7-.2 2.6-1.3v-1zm-4.6-1.8c0 1-.2 1.3-1 2-.6.2-1.2.4-1.8.4-1.2 0-2-.6-2-2.2 0-1 .2-1.7 1-2.3.7-.7 2-1.4 3.8-2v4.2zM370.4 592.5v-.4c-1.4 0-1.8-.4-1.8-2v-6.7c0-3-1.3-4.6-3.5-4.6-1.3 0-2.7.7-4.3 2.4V579h-.2l-4 1.3v.6h.7c1 0 1 .3 1 1.8v7.3c0 1.8-.2 2.2-1.8 2.4v.5h6.4v-.4c-1.6 0-2-.5-2-1.6V582c1.4-1.3 2-1.6 3-1.6 1.6 0 2.3 1 2.3 3v6c0 2-.3 2.5-1.8 2.7v.5h6.2zM385.6 591.3v-.5h-.7c-1.2 0-1.4-.3-1.4-1.7v-17l-4.6 1.3v.5h.7c1 0 1.4.3 1.4 1.5v4.7c-1-1-2-1.3-3-1.3-3.5 0-6.3 3.4-6.3 7.7 0 3.8 2.2 6.4 5.5 6.4 1.7 0 3-.6 4-2v2l4.4-1.5zm-4.5-1.8c0 .2 0 .5-.4.8-.5.6-1.3 1-2.2 1-2.5 0-4-2.4-4-6 0-3.5 1.3-5.7 3.6-5.7 1.6 0 3 1.4 3 3v7zM405.5 573.6c0-1-.6-1.6-1.5-1.6-.8 0-1.5.7-1.5 1.6 0 .8.6 1.5 1.5 1.5 1 0 1.5-.6 1.5-1.4zm0 5.2l-4.8 1.5v.5h1.3c.7 0 1 .4 1 1.7V594c0 2 0 3-.4 3.5-.2.3-.6.5-1 .5-.5 0-.8-.2-1.3-.8-.5-.7-1-1-1.4-1-.8 0-1.4.5-1.4 1.2 0 1 1.2 1.7 2.8 1.7 3.3 0 5-2.2 5-6.5v-13.7zM420.3 587.6c-1.5 2.2-2.6 3-4.6 3-1.4 0-2.5-.4-3.4-1.5-1-1.3-1.2-2.5-1.3-4.8h9.2c0-1.6-.4-2.6-1-3.4-1-1.4-2.3-2-4.2-2-3.8 0-6.2 3-6.2 7.2 0 4 2.2 6.8 5.7 6.8 3 0 5-1.7 6.3-5l-.5-.2zm-9.3-4.4c.3-2.2 1.5-3.4 3.2-3.4 2 0 2.6 1 3 3.4H411zM441.6 579H438v.5c1 .2 1.2.4 1.2 1l-.5 2-2.7 6.5-2.5-6.7c-.4-1-.5-1.3-.5-1.8 0-.6.3-.8 1.7-1v-.5h-6v.5c1 0 1.4.4 2 2l.6 1.7-2.7 6-3-7.8-.2-1c0-.6.3-.8 1.4-1v-.4h-5.4v.5c.7 0 1 .2 1.6 2l4 10c.4 1 .6 1.4.8 1.4.2 0 .4-.5.8-1.2l3.3-7.2 2.6 7c.5 1.2.6 1.3.8 1.3.2 0 .3-.3.8-1.5l4-10.4c.6-1 .8-1.3 1.4-1.5v-.5zM454.2 587.6c-1.5 2.2-2.7 3-4.7 3-1.3 0-2.5-.4-3.3-1.5-1-1.3-1.2-2.5-1.4-4.8h9.3c0-1.6-.4-2.6-1-3.4-1-1.4-2.3-2-4-2-4 0-6.3 3-6.3 7.2 0 4 2 6.8 5.7 6.8 3 0 5-1.7 6.2-5l-.4-.2zm-9.3-4.4c.2-2.2 1.4-3.4 3-3.4 2 0 2.7 1 3 3.4h-6zM463 592.5v-.4c-2 0-2.3-.4-2.3-2v-18h-.2l-4.7 1.3v.5h1c1 0 1.4.4 1.4 2v14c0 1.6-.5 2-2.4 2.3v.5h7zM468.2 583.5c-.8-.5-1.3-1.4-1.3-2 0-1.5 1-2 2.2-2 1.8 0 2.7 1 3.4 3.6h.4v-4h-.5c-.2.3-.3.3-.4.3-.2 0-.5 0-.8-.2-.6-.2-1.3-.3-2-.3-2.5 0-4 1.4-4 3.7 0 1.6 1 3 3.5 4.4l1.6 1c1 .4 1.6 1.2 1.6 2 0 1.4-1 2.4-2.6 2.4-2 0-3.2-1.4-3.8-4.3h-.5v4.6h.5c.2-.3.3-.3.7-.3l1.4.2c.7.3 1.5.3 2.2.3 2.3 0 4.2-1.7 4.2-3.7 0-1.6-.7-2.5-2.7-3.6l-3-2zM494.4 573.6c0-1-.6-1.6-1.5-1.6-1 0-1.6.7-1.6 1.6 0 .8.6 1.5 1.5 1.5.8 0 1.4-.6 1.4-1.4zm2.2 19v-.5c-2 0-2.2-.4-2.2-2.6v-10.6l-4.8 1.6v.4h1.3c.6 0 1 .4 1 1.8v6.8c0 2.3-.4 2.5-2.5 2.7v.5h7zM512 592.5v-.4c-1.6 0-2-.4-2-2v-6.7c0-3-1.2-4.6-3.5-4.6-1.3 0-2.7.7-4.3 2.4V579h-.3l-4.2 1.3v.6h1c.7 0 1 .3 1 1.8v7.3c0 1.8-.4 2.2-2 2.4v.5h6.4v-.4c-1.5 0-2-.5-2-1.6V582c1.5-1.3 2.2-1.6 3.2-1.6 1.4 0 2.2 1 2.2 3v6c0 2-.4 2.5-2 2.7v.5h6.3zM123 625c-1.4 2.3-2.5 3.2-4.5 3.2-1.4 0-2.5-.5-3.4-1.6-1-1.4-1-2.6-1.2-5h9.2c0-1.5-.4-2.5-1-3.3-1-1.4-2.3-2-4.2-2-3.8 0-6.2 3-6.2 7.2 0 4 2.2 6.8 5.7 6.8 3 0 5-1.7 6.3-5l-.5-.2zm-9.2-4.3c.4-2.2 1.5-3.4 3.2-3.4 2 0 2.6 1 3 3.4h-6.2zM138 630v-.4c-1 0-1.7-.5-2.6-1.8l-3.8-6 2.5-3.5c.6-.8 1.5-1.3 2.5-1.3v-.5h-4.7v.5c1 0 1.2.2 1.2.6 0 .4-.5 1-1 2l-1 1.3-.5-.7c-.8-1.3-1.3-2.3-1.3-2.7 0-.4.3-.6 1.2-.6v-.5h-6.2v.5h.3c1 0 1.4.4 2.3 1.8l2.8 4.3-3.4 5c-.8 1.3-1.2 1.5-2.2 1.6v.4h4.4v-.4c-1 0-1.2-.2-1.2-.6l.6-1.2 2.3-3.7 3 4.3v.5c0 .6-.2.7-1 .8v.4h6zM149.8 625.3c-1.5 2-2.6 3-4.3 3-2.7 0-4.6-2.5-4.6-6 0-3 1.5-5.2 4-5.2 1 0 1.4.4 1.7 1.5l.2.7c0 1 .7 1.4 1.3 1.4.8 0 1.5-.6 1.5-1.3 0-1.7-2-3-4.7-3-1.3 0-2.7.5-4 1.4-1.5 1.4-2.4 3.5-2.4 6 0 3.8 2.3 6.6 5.7 6.6 1.3 0 2.4-.4 3.4-1.2 1-.7 1.5-1.5 2.5-3.4l-.4-.3zM165.3 630v-.4c-1.7-.3-1.8-.6-1.8-2.6v-6c0-3.2-1.3-4.8-3.7-4.8-1.8 0-3 .7-4.4 2.5v-9l-.2-.2c-1 .4-1.7.6-3.4 1l-1 .3v.5h.5c1.3 0 1.5.2 1.5 1.5V627c0 2 0 2.3-2 2.6v.4h6.6v-.4c-1.7-.2-2-.6-2-2.6v-7.3c1.2-1.4 2-2 3.3-2 1.5 0 2.2 1.2 2.2 3.3v6c0 2-.4 2.4-2 2.6v.4h6.3zM179 628c-.6.5-1 .6-1.4.6-.5 0-1-.6-1-2V621c0-2 0-2.6-.8-3.4-.7-1-1.8-1.4-3.5-1.4-1.3 0-2.6.4-3.4 1-1.2.6-1.7 1.5-1.7 2.3 0 .8.7 1.4 1.3 1.4.8 0 1.4-.8 1.4-1.3 0-.7-.2-.8-.2-1.3 0-.8 1-1.5 2-1.5 1.5 0 2.5.8 2.5 2.6v1.7c-3.4 1.2-4.5 1.8-5.4 2.4-1.3.8-2.2 2-2.2 3.5 0 2 1.2 3 3 3 1.4 0 3-.3 4.5-2 0 1.5.8 2 2 2 1 0 1.7-.2 2.6-1.3v-1zm-4.7-1.8c0 1-.2 1.3-1 2-.6.2-1.2.4-1.8.4-1.2 0-2-.7-2-2.3 0-1 .2-1.7 1-2.3.7-.7 2-1.4 3.8-2v4.2zM193.5 630v-.4c-1.5-.2-1.8-.5-1.8-2v-6.8c0-3-1.3-4.6-3.6-4.6-1.3 0-2.6.7-4.2 2.4v-2.3h-.3l-4 1.3v.5h.8c.8 0 1 .4 1 2v7.2c0 1.8-.3 2.2-1.8 2.4v.4h6.3v-.4c-1.5-.2-2-.6-2-1.7v-8.4c1.4-1.4 2.2-1.7 3.2-1.7 1.4 0 2 .8 2 3v6c0 1.8-.2 2.4-1.7 2.6v.4h6.2zM208 618.4v-1.2h-2.3c-.6 0-1 0-1.6-.3l-.6-.3c-.8-.3-1.6-.5-2.4-.5-2.8 0-5 2.2-5 5 0 1.8.8 3 2.8 4l-1.3 1c-1 1-1.4 1.6-1.4 2.2 0 .7.5 1 1.7 1.6-2 1.5-3 2.5-3 3.6 0 1.6 2.4 3 5.3 3 2 0 4.4-.8 6-2 1.2-1 1.8-2 1.8-3 0-2-1.4-3.2-3.7-3.3l-3.7-.2c-1.6 0-2.4-.2-2.4-.7 0-.6 1-1.7 1.7-2l.6.2h1c1.2 0 2.3-.4 3.3-1 1-1 1.5-2 1.5-3.6 0-1 0-1.7-.4-2.6h2.4zm-9.5 1.5c0-2 .8-3 2.2-3 1 0 1.7.6 2.2 1.5.5 1 .8 2.4.8 3.6 0 1.7-1 2.8-2.2 2.8-2 0-3-2-3-4.8zm8.4 12c0 1.7-2.3 2.8-5.8 2.8-2.6 0-4.3-.8-4.3-2 0-.8.2-1.3 1.4-2.7 1 .3 3.3.5 4.8.5 2.7 0 3.7.3 3.7 1.4zM220.7 625c-1.5 2.3-2.6 3.2-4.6 3.2-1.3 0-2.4-.5-3.2-1.6-1-1.4-1.3-2.6-1.4-5h9.2c0-1.5-.4-2.5-1-3.3-1-1.4-2.3-2-4.2-2-3.7 0-6.2 3-6.2 7.2 0 4 2.2 6.8 5.7 6.8 3 0 5-1.7 6.2-5l-.5-.2zm-9.3-4.3c.4-2.2 1.5-3.4 3.2-3.4 2 0 2.6 1 3 3.4h-6.2zM253.7 616.5v1h2.5v9.4c0 2-.4 2.4-2.5 2.6v.4h7.8v-.4c-2.5 0-2.8-.5-2.8-2.7v-9.5h3.6v-1h-3.6V613c0-1.7.5-2.6 1.7-2.6.6 0 1 .3 1.5 1 .4 1 .8 1.2 1.3 1.2.7 0 1.3-.5 1.3-1.2 0-1-1.4-2-3.2-2-2 0-3.4 1-4.2 2.3-.8 1.3-1 2.4-1 4.8h-2.5zM276.3 623c0-4-3-6.8-6.5-6.8-4 0-6.8 2.8-6.8 7 0 4 3 7 6.5 7 4 0 6.8-3 6.8-7zm-2.7 1c0 3.4-1.4 5.5-3.6 5.5-1 0-2-.6-2.7-1.5-1-1.6-1.6-3.8-1.6-6.2 0-3 1.4-4.7 3.5-4.7 1.3 0 2 .7 3 1.6.8 1.2 1.4 3.3 1.4 5.3zM282 616.3h-.2l-4.4 1.5v.5h1c.8 0 1 .4 1 1.7v7.5c0 1.5-.2 1.7-2 2v.5h7v-.4c-2 0-2.4-.6-2.4-2.3v-6.7c0-1 1.2-2.5 2-2.5.2 0 .5.3.8.6.5.4.8.6 1.2.6.8 0 1.2-.6 1.2-1.4 0-1-.6-1.6-1.6-1.6-1.3 0-2 .7-3.6 2.8v-2.7zM339.3 616.5h-3.7v.5c1 .2 1.3.4 1.3 1l-.6 2-2.7 6.5-2.5-6.7c-.4-1-.5-1.3-.5-1.8 0-.6.3-.8 1.7-1v-.5h-6v.5c1 0 1.4.4 2 2l.6 1.7-2.7 6-3-7.8-.2-1c0-.7.4-1 1.5-1v-.5H319v.5c.8 0 1 .2 1.7 2l4 10c.4 1 .6 1.4.8 1.4.2 0 .4-.4.8-1l3.3-7.3 2.8 7c.4 1.3.5 1.4.7 1.4.3 0 .4-.2 1-1.4l4-10.4c.5-1.2.7-1.4 1.3-1.6v-.5zM352 625c-1.6 2.3-2.8 3.2-4.8 3.2-1.3 0-2.5-.5-3.3-1.6-1.2-1.4-1.3-2.6-1.5-5h9.3c-.2-1.5-.5-2.5-1-3.3-1-1.4-2.4-2-4.2-2-3.8 0-6.2 3-6.2 7.2 0 4 2 6.8 5.7 6.8 3 0 5.2-1.7 6.3-5l-.4-.2zm-9.4-4.3c.3-2.2 1.5-3.4 3.2-3.4 2 0 2.6 1 3 3.4h-6.2zM366.2 628c-.5.5-.8.6-1.3.6-.7 0-1-.6-1-2V621c0-2-.2-2.6-1-3.4-.6-1-1.7-1.4-3.4-1.4-1.4 0-2.6.4-3.5 1-1 .6-1.4 1.5-1.4 2.3 0 .8.7 1.4 1.3 1.4.7 0 1.3-.8 1.3-1.3 0-.7-.2-.8-.2-1.3 0-.8 1-1.5 2.2-1.5 1.3 0 2.3.8 2.3 2.6v1.7c-3.4 1.2-4.5 1.8-5.4 2.4-1 .8-2 2-2 3.5 0 2 1.3 3 3.2 3 1.3 0 2.7-.3 4.3-2 .2 1.5 1 2 2 2s1.8-.2 2.7-1.3v-1zm-4.7-1.8c0 1-.2 1.3-1 2-.5.2-1.2.4-1.8.4-1 0-2-.7-2-2.3 0-1 .3-1.7 1-2.3.7-.7 2-1.4 3.8-2v4.2zM371 616.3h-.2c-1.6.5-2.7 1-4.3 1.4v.5h.7c1 0 1.3.3 1.3 1.7v14c0 1.5-.4 1.8-2 2v.5h7v-.5c-2 0-2.5-.4-2.5-2.3V629c1 1 1.8 1.3 3 1.3 3.6 0 6.3-3.3 6.3-7.7 0-3.7-2-6.4-5-6.4-1.7 0-3 .7-4.3 2.4v-2.3zm0 3.7c0-1 1.7-2 3-2 2.3 0 3.7 2.3 3.7 5.8 0 3.3-1.4 5.6-3.6 5.6-1.3 0-3-1-3-2V620zM395.3 623c0-4-2.8-6.8-6.5-6.8-4 0-6.7 2.8-6.7 7 0 4 3 7 6.6 7 4 0 6.7-3 6.7-7zm-2.7 1c0 3.4-1.3 5.5-3.5 5.5-1 0-2-.6-2.6-1.5-1-1.6-1.6-3.8-1.6-6.2 0-3 1.4-4.7 3.5-4.7 1.3 0 2 .7 2.8 1.6 1 1.2 1.6 3.3 1.6 5.3zM410.8 630v-.4c-1.5-.2-2-.5-2-2v-6.8c0-3-1-4.6-3.4-4.6-1.4 0-2.8.7-4.3 2.4v-2.3h-.2l-4 1.3v.5h.8c.8 0 1 .4 1 2v7.2c0 1.8-.3 2.2-1.8 2.4v.4h6.3v-.4c-1.4-.2-2-.6-2-1.7v-8.4c1.5-1.4 2.2-1.7 3.2-1.7 1.5 0 2.2.8 2.2 3v6c0 1.8-.3 2.4-1.8 2.6v.4h6.2zM416 621c-1-.5-1.4-1.4-1.4-2 0-1.5 1-2 2.3-2 1.7 0 2.6 1 3.2 3.6h.5l-.2-4h-.3c-.2.2-.3.2-.5.2s-.5 0-.8-.2c-.7-.3-1.4-.4-2-.4-2.6 0-4.3 1.4-4.3 3.7 0 1.5 1.2 3 3.6 4.3l1.7 1c1 .4 1.6 1.2 1.6 2 0 1.4-1 2.4-2.5 2.4-2 0-3-1.4-3.7-4.3h-.5v4.7h.4c0-.2.3-.2.7-.2l1.3.2c.7.3 1.5.3 2.2.3 2.2 0 4.2-1.7 4.2-3.7 0-1.7-.8-2.6-2.7-3.7l-3-2zM454.8 616.5v1h2.5v9.4c0 2-.4 2.4-2.5 2.6v.4h7.8v-.4c-2.5 0-2.8-.5-2.8-2.7v-9.5h3.6v-1h-3.6V613c0-1.7.5-2.6 1.7-2.6.6 0 1 .3 1.5 1 .5 1 1 1.2 1.4 1.2.7 0 1.3-.5 1.3-1.2 0-1-1.4-2-3.2-2-2 0-3.4 1-4.2 2.3-.8 1.3-1 2.4-1 4.8h-2.5z" style="-inkscape-font-specification:STIX;text-align:justify"/><path d="M469 616.3h-.2c-1.6.5-2.6 1-4.4 1.5v.5h1c.8 0 1 .4 1 1.7v7.5c0 1.5 0 1.7-2 2v.5h7v-.4c-2 0-2.4-.6-2.4-2.3v-6.7c0-1 1.2-2.5 2-2.5.3 0 .5.3 1 .6.3.4.7.6 1 .6.8 0 1.2-.6 1.2-1.4 0-1-.6-1.6-1.6-1.6-1.3 0-2 .7-3.6 2.8v-2.7zM488 623c0-4-2.7-6.8-6.3-6.8-4 0-6.8 2.8-6.8 7 0 4 2.8 7 6.4 7 4 0 6.7-3 6.7-7zm-2.6 1c0 3.4-1.3 5.5-3.5 5.5-1.2 0-2-.6-2.8-1.5-1-1.6-1.6-3.8-1.6-6.2 0-3 1.4-4.7 3.5-4.7 1.4 0 2.2.7 3 1.6 1 1.2 1.4 3.3 1.4 5.3zM512.3 630v-.4h-.8c-1-.2-1.3-.5-1.3-2v-6c0-3.5-1-5.4-3.5-5.4-1.7 0-3.2.8-5 2.5-.4-1.7-1.4-2.5-3-2.5-1.4 0-2.6.3-4.6 2.3v-2.2h-.2l-4.2 1.3v.5h1c.7 0 1 .5 1 2v7.4c0 1.7-.4 2-2 2.2v.4h6.6v-.4c-1.6 0-2-.4-2-1.7v-8.4s0-.3.3-.5c.6-.7 2-1.2 3.2-1.2 1.3 0 2 1.2 2 3.3v6.4c0 2-.4 2-2 2.2v.4h6.6v-.4c-1.7 0-2-.5-2-2.4v-7.6c.8-1.3 1.7-1.8 3-1.8 1.8 0 2.4 1 2.4 3.3v6.3c0 1.8-.3 2-2 2.3v.4h6.6zM125 653.6l-.7-6.4h-.7c0 .7-.4 1-1 1-.2 0-.7 0-1.2-.3-1.2-.6-2-.8-3.2-.8-3 0-5.2 2-5.2 5.3 0 1.8 1 3.7 3.6 5 2 1.2 4 2.5 5 3.6.7.8 1 1.4 1 2.5 0 2-1.5 3.4-3.6 3.4-3 0-4.8-1.8-6.2-5.5h-.7l1 6.4h.7c0-.7.4-1 .8-1 .3 0 1 0 1.4.2 1 .5 2.2.7 3.5.7 3.4 0 6-2.3 6-5.7 0-2.3-1.4-4-4.6-6-3.2-1.7-5.4-3-5.4-5 0-1.6 1-2.8 3-2.8 1.8 0 3.3 1 4.3 2.3.5.7.8 1.5 1.2 2.8h.7zM139.5 662.8c-1.4 2-2.5 3-4.2 3-2.8 0-4.7-2.5-4.7-6 0-3 1.7-5.2 4-5.2 1.2 0 1.6.3 2 1.4v.7c.3 1 .8 1.4 1.5 1.4 1 0 1.5-.5 1.5-1.2 0-1.7-2-3-4.6-3-1.5 0-3 .5-4.2 1.4-1.6 1.4-2.5 3.5-2.5 6 0 3.8 2.4 6.6 5.7 6.6 1.3 0 2.4-.4 3.5-1.2 1-.8 1.5-1.6 2.4-3.5l-.5-.2zM154 665.5c-.4.5-.7.6-1.2.6s-1-.5-1-2v-5.6c0-1.8 0-2.5-.7-3.3-.7-.8-1.8-1.3-3.5-1.3-1.3 0-2.6.4-3.4 1-1 .6-1.5 1.5-1.5 2.3 0 .8.7 1.4 1.3 1.4.8 0 1.4-.7 1.4-1.2 0-.7-.2-.8-.2-1.3 0-1 1-1.6 2-1.6 1.5 0 2.5 1 2.5 2.7v1.8c-3.4 1.2-4.5 1.8-5.4 2.4-1 .8-2 2-2 3.5 0 2 1.3 3 3 3 1.4 0 3-.3 4.5-2 0 1.5.8 2 2 2 1 0 1.7-.2 2.6-1.3v-1zm-4.5-1.8c0 1-.2 1.3-1 2-.6.2-1.2.4-1.8.4-1.2 0-2-.6-2-2.2 0-1 .2-1.7 1-2.3.7-.7 2-1.4 3.8-2v4.2zM168.7 667.5v-.4c-1.5 0-1.8-.4-1.8-2v-6.7c0-3-1.4-4.6-3.7-4.6-1.3 0-2.7.7-4.3 2.4V654h-.2l-4.2 1.3v.6h1c.8 0 1 .3 1 1.8v7.3c0 1.8-.4 2.2-2 2.4v.5h6.4v-.4c-1.5 0-2-.5-2-1.6V657c1.5-1.3 2.2-1.6 3.2-1.6 1.4 0 2.2 1 2.2 3v6c0 2-.4 2.5-2 2.7v.5h6.3zM184 666.3v-.5h-.8c-1 0-1.3-.3-1.3-1.7v-17h-.3l-4.4 1.3v.5h.7c1 0 1.4.3 1.4 1.5v4.7c-1.2-1-2-1.3-3.2-1.3-3.4 0-6.2 3.4-6.2 7.7 0 3.8 2.2 6.4 5.5 6.4 1.7 0 2.8-.6 4-2v2l4.4-1.5zm-4.6-1.8c0 .2-.2.5-.5.8-.6.6-1.4 1-2.3 1-2.5 0-4-2.4-4-6 0-3.5 1.3-5.7 3.6-5.7 1.6 0 3 1.4 3 3v7zM189.6 648.6c0-1-.7-1.6-1.6-1.6-.8 0-1.5.7-1.5 1.6 0 .8.7 1.5 1.5 1.5 1 0 1.6-.6 1.6-1.4zm2.2 19v-.5c-2 0-2.3-.4-2.3-2.6v-10.6l-4.7 1.6v.4h1.2c.8 0 1 .4 1 1.8v6.8c0 2.3-.3 2.5-2.4 2.7v.5h7.2zM207 667.5v-.4c-1.4 0-1.8-.4-1.8-2v-6.7c0-3-1.3-4.6-3.5-4.6-1.4 0-2.8.7-4.4 2.4V654h-.2l-4 1.3v.6h.8c1 0 1 .3 1 1.8v7.3c0 1.8-.2 2.2-1.8 2.4v.5h6.4v-.4c-1.6 0-2-.5-2-1.6V657c1.4-1.3 2-1.6 3-1.6 1.6 0 2.3 1 2.3 3v6c0 2-.4 2.5-2 2.7v.5h6.3zM220.7 665.5c-.5.5-.8.6-1.2.6-.6 0-1-.5-1-2v-5.6c0-1.8 0-2.5-.8-3.3-.7-.8-2-1.3-3.6-1.3-1.2 0-2.5.4-3.3 1-1 .6-1.5 1.5-1.5 2.3 0 .8.6 1.4 1.3 1.4.7 0 1.3-.7 1.3-1.2V656c0-1 .8-1.6 2-1.6 1.3 0 2.3 1 2.3 2.7v1.8c-3.3 1.2-4.4 1.8-5.3 2.4-1.2.8-2 2-2 3.5 0 2 1.2 3 3 3 1.3 0 2.8-.3 4.4-2 .3 1.5 1 2 2 2s1.8-.2 2.7-1.3v-1zm-4.6-1.8c0 1 0 1.3-1 2-.5.2-1 .4-1.7.4-1.2 0-2-.6-2-2.2 0-1 .2-1.7 1-2.3.7-.7 2-1.4 3.8-2v4.2zM234.2 654H230v.5c1 0 1.4.4 1.4 1 0 .2 0 .5-.2.8l-3 7.8-3-7.6-.3-1c0-.6.3-.8 1.3-1v-.4h-6v.5c1.3 0 1.6.3 2.8 3.4l3.7 8.5.3.7c.2.5.3.7.5.7s.4-.5 1-1.6l3.7-9.6c.8-2 1-2.2 2-2.3v-.5zM240.2 648.6c0-1-.6-1.6-1.5-1.6-.8 0-1.5.7-1.5 1.6 0 .8.6 1.5 1.5 1.5 1 0 1.5-.6 1.5-1.4zm2.2 19v-.5c-2 0-2.2-.4-2.2-2.6v-10.6l-4.8 1.6v.4h1.3c.8 0 1 .4 1 1.8v6.8c0 2.3-.3 2.5-2.4 2.7v.5h7zM256.4 665.5c-.5.5-.8.6-1.3.6-.4 0-.8-.5-.8-2v-5.6c0-1.8 0-2.5-.8-3.3-.8-.8-2-1.3-3.6-1.3-1.3 0-2.6.4-3.4 1-1 .6-1.6 1.5-1.6 2.3 0 .8.7 1.4 1.3 1.4 1 0 1.5-.7 1.5-1.2 0-.7-.2-.8-.2-1.3 0-1 1-1.6 2-1.6 1.5 0 2.5 1 2.5 2.7v1.8c-3.4 1.2-4.5 1.8-5.4 2.4-1.2.8-2 2-2 3.5 0 2 1.2 3 3 3 1.3 0 2.8-.3 4.4-2 .2 1.5.8 2 2 2 1 0 1.7-.2 2.6-1.3v-1zm-4.6-1.8c0 1-.2 1.3-1 2-.6.2-1.2.4-1.8.4-1.2 0-2-.6-2-2.2 0-1 .2-1.7 1-2.3.7-.7 2-1.4 3.8-2v4.2zM259 671.7c2-1 3.3-2.8 3.3-4.6 0-1.5-1-2.5-2.4-2.5-1.2 0-2 .6-2 1.7 0 1 .7 1.5 2 1.5h.7c.3 0 .4 0 .4.3 0 1-.7 2-2.3 3.2l.3.5zM303.4 665.5c-.5.5-.8.6-1.3.6s-1-.5-1-2v-5.6c0-1.8 0-2.5-.7-3.3-.7-.8-2-1.3-3.5-1.3-1.4 0-2.6.4-3.5 1-1 .6-1.5 1.5-1.5 2.3 0 .8.6 1.4 1.3 1.4 1 0 1.5-.7 1.5-1.2 0-.7-.2-.8-.2-1.3 0-1 1-1.6 2-1.6 1.4 0 2.4 1 2.4 2.7v1.8c-3.4 1.2-4.5 1.8-5.4 2.4-1.2.8-2 2-2 3.5 0 2 1.2 3 3 3 1.4 0 2.8-.3 4.4-2 .2 1.5 1 2 2 2s1.8-.2 2.7-1.3v-1zm-4.7-1.8c0 1-.2 1.3-1 2-.5.2-1.2.4-1.8.4-1.2 0-2-.6-2-2.2 0-1 .2-1.7 1-2.3.6-.7 2-1.4 3.7-2v4.2zM326.7 667.5v-.4h-.8c-1 0-1.4-.4-1.4-1.8v-6c0-3.6-1-5.5-3.5-5.5-1.6 0-3.2.8-4.8 2.5-.5-1.7-1.5-2.5-3.2-2.5-1.3 0-2.6.3-4.6 2.3v-2.2h-.3l-4 1.3v.6h1c.7 0 1 .4 1 1.8v7.5c0 1.6-.4 2-2 2v.5h6.5v-.4c-1.5 0-2-.3-2-1.6V657l.4-.4c.5-.8 2-1.3 3-1.3 1.4 0 2 1.2 2 3.3v6.3c0 1.8-.3 2-2 2v.5h6.7v-.4c-1.7 0-2.2-.4-2.2-2.3V657c1-1.2 1.8-1.7 3.3-1.7 1.7 0 2.3 1 2.3 3.3v6.2c0 1.8-.2 2-2 2.3v.5h6.7zM331.3 647c-1.4.5-2.2.7-3.6 1l-1 .3v.6l.6-.2c1.3 0 1.5.2 1.5 1.7v15.3c0 1 2.5 2 5 2 4 0 7-3 7-7.5 0-3.7-2.2-6.6-5.4-6.6-2 0-3.5 1-4 2.5v-9zm0 11c0-1.3 1.4-2.4 3-2.4 1 0 2 .5 2.7 1.4.7 1 1 2.8 1 4.6 0 1.7-.3 3-1 4-.6.8-1.6 1.3-2.8 1.3-1.5 0-3-.7-3-1.7V658zM354 662.6c-1.5 2.2-2.6 3-4.7 3-1.3 0-2.4-.4-3.3-1.5-1-1.3-1.2-2.5-1.4-4.8h9.3c-.2-1.6-.5-2.6-1-3.4-1-1.4-2.5-2-4.3-2-3.8 0-6.2 3-6.2 7.2 0 4 2 6.8 5.7 6.8 3 0 5-1.7 6.2-5l-.4-.2zm-9.3-4.4c.3-2.2 1.5-3.4 3.2-3.4 2 0 2.5 1 2.8 3.4h-6zM359.8 653.8l-4.6 1.5v.5h1c.8 0 1 .4 1 1.7v7.5c0 1.5 0 1.7-2 2v.5h7.2v-.4c-2 0-2.6-.5-2.6-2.2V658c0-1 1.3-2.4 2-2.4.3 0 .6.2 1 .5.4.5.7.7 1 .7.8 0 1.3-.6 1.3-1.4 0-1-.6-1.6-1.6-1.6-1.2 0-2 .7-3.6 2.8v-2.7zM391.8 654v1h2.5v9.4c0 2.2-.4 2.5-2.5 2.7v.5h7.8v-.4c-2.5 0-2.8-.4-2.8-2.6V655h3.6v-1h-3.6v-3.5c0-1.7.5-2.6 1.7-2.6.6 0 1 .2 1.6 1 .5.8 1 1 1.4 1 .7 0 1.3-.4 1.3-1 0-1.2-1.4-2-3.2-2-1.8 0-3.4.8-4.2 2.2-.8 1.3-1 2.4-1 4.8h-2.5z" style="-inkscape-font-specification:STIX;text-align:justify"/><path d="M406 653.8h-.2c-1.5.5-2.6 1-4.4 1.5v.5h1c.8 0 1 .4 1 1.7v7.5c0 1.5 0 1.7-2 2v.5h7v-.4c-2 0-2.4-.5-2.4-2.2V658c0-1 1.3-2.4 2-2.4.3 0 .5.2 1 .5.4.5.7.7 1 .7.8 0 1.2-.6 1.2-1.4 0-1-.6-1.6-1.6-1.6-1.3 0-2 .7-3.6 2.8v-2.7zM425 660.6c0-4.2-2.7-7-6.3-7-4 0-6.8 3-6.8 7 0 4.2 2.8 7.2 6.4 7.2 4 0 6.7-3 6.7-7.2zm-2.6.8c0 3.5-1.3 5.6-3.5 5.6-1.2 0-2-.6-2.8-1.5-1-1.6-1.6-3.8-1.6-6.2 0-3 1.4-4.7 3.5-4.7 1.4 0 2.2.6 3 1.5 1 1.3 1.4 3.4 1.4 5.4zM449.3 667.5v-.4h-.8c-1 0-1.3-.4-1.3-1.8v-6c0-3.6-1-5.5-3.5-5.5-1.7 0-3.2.8-4.8 2.5-.7-1.7-1.7-2.5-3.3-2.5-1.4 0-2.6.3-4.6 2.3v-2.2h-.2l-4.2 1.3v.6h1c.8 0 1 .4 1 1.8v7.5c0 1.6-.4 2-2 2v.5h6.6v-.4c-1.6 0-2-.3-2-1.6V657s0-.2.3-.4c.6-.8 2-1.3 3.2-1.3 1.3 0 2 1.2 2 3.3v6.3c0 1.8-.4 2-2 2v.5h6.6v-.4c-1.7 0-2-.4-2-2.3V657c.8-1.2 1.7-1.7 3-1.7 1.8 0 2.4 1 2.4 3.3v6.2c0 1.8-.3 2-2 2.3v.5h6.6zM483.5 665.2c-.7.8-1.2 1-1.8 1-1 0-1.6-.7-1.6-2.6V655h3v-1h-3v-3.5-.4l-.7 1c-1 1.6-2 2.7-3 3.2-.2.2-.4.4-.4.6v.2h1.6v9c0 2.5 1 3.8 2.6 3.8 1.5 0 2.7-.7 3.7-2.3l-.5-.3zM498.7 667.5v-.4c-1.7-.2-1.8-.5-1.8-2.5v-6c0-3.2-1.4-4.8-3.8-4.8-1.8 0-3 .7-4.4 2.5v-9l-.2-.2c-1 .4-1.7.6-3.4 1l-.8.3v.5h.3c1.3 0 1.5.2 1.5 1.5v14.2c0 2 0 2.3-2 2.6v.5h6.6v-.4c-1.7 0-2-.5-2-2.5v-7.3c1.2-1.4 2-2 3.3-2 1.6 0 2.3 1.2 2.3 3.3v6c0 2-.3 2.4-2 2.6v.5h6.4zM511.3 662.6c-1.5 2.2-2.6 3-4.6 3-1.4 0-2.5-.4-3.4-1.5-1-1.3-1.2-2.5-1.3-4.8h9.2c0-1.6-.4-2.6-1-3.4-1-1.4-2.3-2-4.2-2-3.8 0-6.2 3-6.2 7.2 0 4 2.2 6.8 5.7 6.8 3 0 5-1.7 6.3-5l-.5-.2zm-9.3-4.4c.4-2.2 1.5-3.4 3.2-3.4 2 0 2.6 1 3 3.4H502zM123.5 694.5c1.6-.3 2.2-.6 3-1.2.6-.7 1-2 1-3 0-3.3-2.5-5-7.7-5h-8.4v.4c2.4.2 2.8.4 2.8 2.8v13c0 2.4-.5 3-2.8 3v.5h10c4.4 0 7.2-2 7.2-5.3 0-1.3-.5-2.6-1.4-3.5-1-.8-1.7-1.3-3.7-1.6zm-6.2-.5v-6.8c0-.7.2-1 .7-1h1.3c3.5 0 5.3 1.6 5.3 4 0 2.6-1.5 3.8-4.5 3.8h-2.7zm0 1.2c3.5.2 4.7 0 6.5 1.2 1 .7 1.4 1.8 1.4 3.2 0 1.3-.4 2.4-1 3-1.5 1.2-2.5 1.3-5 1.3-1.4 0-2-.4-2-1.4v-7.4zM144.2 703c-.6.5-1 .6-1.3.6-.7 0-1-.6-1-2V696c0-2-.2-2.6-1-3.4-.6-1-1.8-1.4-3.4-1.4-1.4 0-2.7.4-3.5 1-1 .6-1.4 1.5-1.4 2.3 0 .8.6 1.4 1.3 1.4.6 0 1.2-.8 1.2-1.3v-1.3c0-.8.8-1.5 2-1.5 1.3 0 2.3.8 2.3 2.6v1.7c-3.4 1.2-4.5 1.8-5.4 2.4-1 .8-2 2-2 3.5 0 2 1.3 3 3.2 3 1.2 0 2.7-.3 4.3-2 .2 1.5.8 2 2 2 1 0 1.8-.2 2.7-1.3v-1zm-4.7-1.8c0 1-.2 1.3-1 2-.6.2-1.2.4-1.8.4-1.2 0-2-.7-2-2.3 0-1 .2-1.7 1-2.3.7-.7 2-1.4 3.8-2v4.2zM152 705v-.4c-2-.2-2.3-.5-2.3-2.2v-17.8h-.2l-4.7 1.2v.5h1c1 0 1.3.4 1.3 2v14c0 1.6-.3 2-2.2 2.3v.4h7zM160.5 702.7c-.7.8-1 1-1.8 1-1 0-1.6-.7-1.6-2.6v-8.5h3.2v-1h-3V688c0-.3 0-.4-.3-.4l-.7 1c-1 1.5-2 2.6-3 3l-.4.7v.2h1.6v9c0 2.5 1 3.8 2.7 3.8 1.5 0 2.6-.7 3.6-2.3l-.5-.3zM166.2 686c0-.8-.6-1.5-1.5-1.5-.8 0-1.5.7-1.5 1.6 0 1 .6 1.6 1.5 1.6 1 0 1.5-.7 1.5-1.5zm2.2 19v-.4c-2-.2-2.2-.5-2.2-2.7v-10.7l-4.8 1.6v.3h1.3c.7 0 1 .4 1 1.8v7c0 2.2-.3 2.4-2.4 2.6v.4h7zM181 700.3c-1.3 2-2.4 3-4 3-3 0-4.8-2.5-4.8-6 0-3 1.7-5.2 4-5.2 1.2 0 1.6.4 2 1.5v.7c.3 1 .8 1.4 1.5 1.4.8 0 1.4-.6 1.4-1.3 0-1.7-2-3-4.5-3-1.4 0-3 .5-4 1.4-1.7 1.4-2.6 3.5-2.6 6 0 3.8 2.3 6.6 5.6 6.6 1.3 0 2.4-.4 3.5-1.2 1-.7 1.6-1.5 2.5-3.4l-.4-.3zM210 703c-.4.5-.7.6-1.2.6s-1-.6-1-2V696c0-2 0-2.6-.7-3.4-.6-1-1.8-1.4-3.5-1.4-1.3 0-2.6.4-3.4 1-1 .6-1.4 1.5-1.4 2.3 0 .8.6 1.4 1.2 1.4.8 0 1.4-.8 1.4-1.3 0-.7-.2-.8-.2-1.3 0-.8 1-1.5 2-1.5 1.5 0 2.5.8 2.5 2.6v1.7c-3.4 1.2-4.5 1.8-5.4 2.4-1 .8-2 2-2 3.5 0 2 1.3 3 3 3 1.4 0 3-.3 4.5-2 .2 1.5.8 2 2 2 1 0 1.7-.2 2.6-1.3v-1zm-4.5-1.8c0 1-.2 1.3-1 2-.6.2-1.2.4-1.8.4-1.2 0-2-.7-2-2.3 0-1 .2-1.7 1-2.3.7-.7 2-1.4 3.8-2v4.2zM224.7 705v-.4c-1.4-.2-1.8-.5-1.8-2v-6.8c0-3-1.4-4.6-3.6-4.6-1.4 0-2.8.7-4.4 2.4v-2.3h-.2l-4 1.3v.5h.7c1 0 1 .4 1 2v7.2c0 1.8-.3 2.2-1.8 2.4v.4h6.3v-.4c-1.5-.2-2-.6-2-1.7v-8.4c1.5-1.4 2.2-1.7 3.2-1.7 1.5 0 2.2.8 2.2 3v6c0 1.8-.4 2.4-2 2.6v.4h6.3zM240 703.8v-.5h-.8c-1 0-1.3-.3-1.3-1.7v-17h-.3l-4.4 1.2v.5h.7c1 0 1.4.3 1.4 1.5v4.7c-1.2-1-2-1.3-3.2-1.3-3.4 0-6.2 3.4-6.2 7.7 0 3.7 2.2 6.3 5.5 6.3 1.7 0 3-.6 4-2v2l4.4-1.5zm-4.6-1.8c0 .2-.2.5-.5.8-.6.6-1.4 1-2.3 1-2.5 0-4-2.4-4-6 0-3.5 1.3-5.7 3.6-5.7 1.6 0 3 1.5 3 3v7zM275.4 691.5h-3.7v.5c1 .2 1.3.4 1.3 1 0 .3 0 1-.5 2l-2.7 6.5-2.5-6.7c-.3-1-.5-1.3-.5-1.8 0-.6.3-.8 1.7-1v-.5h-6v.5c1 0 1.5.4 2 2l.6 1.7-2.6 6-3-7.8-.2-1c0-.7.4-1 1.4-1v-.5h-5.4v.5c.7 0 1 .2 1.6 2l4 10c.4 1 .7 1.4.8 1.4.2 0 .4-.4.8-1l3.4-7.3 2.7 7c.4 1.3.5 1.4.7 1.4.2 0 .4-.2.8-1.4l4.2-10.4c.5-1.2.6-1.4 1.2-1.6v-.5zM291 705v-.4c-1.7-.3-2-.6-2-2.6v-6c0-3.2-1-4.8-3.6-4.8-1.8 0-3 .7-4.4 2.5v-9l-.2-.2c-1 .4-1.7.6-3.4 1l-.8.3v.5h.3c1.2 0 1.5.2 1.5 1.5V702c0 2-.2 2.3-2 2.6v.4h6.5v-.4c-1.7-.2-2-.6-2-2.6v-7.3c1.2-1.4 2-2 3.3-2 1.5 0 2.3 1.2 2.3 3.3v6c0 2-.3 2.4-2 2.6v.4h6.3zM304.5 703c-.5.5-.8.6-1.3.6s-1-.6-1-2V696c0-2 0-2.6-.7-3.4-.7-1-2-1.4-3.6-1.4-1.4 0-2.7.4-3.5 1-1 .6-1.5 1.5-1.5 2.3 0 .8.6 1.4 1.2 1.4.8 0 1.4-.8 1.4-1.3 0-.7-.2-.8-.2-1.3 0-.8 1-1.5 2-1.5 1.5 0 2.5.8 2.5 2.6v1.7c-3.5 1.2-4.6 1.8-5.5 2.4-1.2.8-2 2-2 3.5 0 2 1.2 3 3 3 1.3 0 2.8-.3 4.4-2 0 1.5.7 2 1.8 2 1 0 1.8-.2 2.7-1.3v-1zm-4.6-1.8c0 1-.3 1.3-1.2 2-.5.2-1 .4-1.7.4-1 0-2-.7-2-2.3 0-1 .3-1.7 1-2.3.8-.7 2-1.4 4-2v4.2zM312.6 702.7c-.7.8-1.2 1-1.8 1-1.2 0-1.6-.7-1.6-2.6v-8.5h3v-1h-3V688c0-.3 0-.4-.2-.4l-.6 1c-1.2 1.5-2 2.6-3 3-.3.3-.4.5-.4.7v.2h1.7v9c0 2.5 1 3.8 2.6 3.8 1.5 0 2.7-.7 3.6-2.3l-.4-.3zM325 700c-1.3 2.3-2.5 3.2-4.5 3.2-1.4 0-2.5-.5-3.3-1.6-1-1.4-1.2-2.6-1.4-5h9.2c0-1.5-.4-2.5-1-3.3-1-1.4-2.3-2-4-2-4 0-6.4 3-6.4 7.2 0 4 2.2 6.8 5.7 6.8 3 0 5-1.7 6.3-5l-.5-.2zm-9-4.3c.2-2.2 1.4-3.4 3-3.4 2 0 2.7 1 3 3.4h-6zM340 691.5h-4.2v.5c1 0 1.4.4 1.4 1 0 .2 0 .5-.2.8l-3 7.8-3-7.7-.3-1.2c0-.5.3-.7 1.4-.8v-.5h-5.8v.5c1 0 1.4.3 2.7 3.4l3.5 8.6c0 .3.2.5.3.7.2.5.3.7.5.7s.4-.4.8-1.5l4-9.7c.8-2 1-2.2 2-2.3v-.5zM352 700c-1.3 2.3-2.5 3.2-4.5 3.2-1.4 0-2.5-.5-3.3-1.6-1-1.4-1.2-2.6-1.4-5h9.3c0-1.5-.4-2.5-1-3.3-1-1.4-2.3-2-4-2-4 0-6.3 3-6.3 7.2 0 4 2 6.8 5.7 6.8 3 0 5-1.7 6.2-5l-.5-.2zm-9-4.3c.2-2.2 1.4-3.4 3-3.4 2 0 2.7 1 3 3.4h-6zM358 691.3l-4.6 1.5v.5h1c.8 0 1 .4 1 1.7v7.5c0 1.5 0 1.7-2 2v.5h7.2v-.4c-2 0-2.6-.6-2.6-2.3v-6.7c0-1 1.3-2.5 2-2.5.3 0 .6.3 1 .6.4.4.7.6 1 .6.8 0 1.3-.6 1.3-1.4 0-1-.7-1.6-1.7-1.6-1.3 0-2 .7-3.6 2.8v-2.7zM385.6 702.7c-.6.8-1 1-1.8 1-1 0-1.5-.7-1.5-2.6v-8.5h3v-1h-3V688c0-.3 0-.4-.2-.4 0 .3-.4.6-.5 1-1.2 1.5-2.2 2.6-3 3-.3.3-.5.5-.5.7l.2.2h1.5v9c0 2.5 1 3.8 2.7 3.8 1.5 0 2.6-.7 3.6-2.3l-.4-.3zM400.8 705v-.4c-1.6-.3-1.8-.6-1.8-2.6v-6c0-3.2-1.2-4.8-3.7-4.8-1.8 0-3 .7-4.4 2.5v-9l-.2-.2c-1 .4-1.8.6-3.5 1l-.8.3v.5h.4c1 0 1.4.2 1.4 1.5V702c0 2-.2 2.3-2 2.6v.4h6.5v-.4c-1.8-.2-2-.6-2-2.6v-7.3c1.2-1.4 2-2 3.3-2 1.4 0 2.2 1.2 2.2 3.3v6c0 2-.3 2.4-2 2.6v.4h6.3zM413.4 700c-1.4 2.3-2.6 3.2-4.6 3.2-1.4 0-2.5-.5-3.3-1.6-1-1.4-1.2-2.6-1.4-5h9.3c0-1.5-.4-2.5-1-3.3-1-1.4-2.3-2-4-2-4 0-6.4 3-6.4 7.2 0 4 2 6.8 5.6 6.8 3 0 5-1.7 6.3-5l-.6-.2zm-9.2-4.3c.3-2.2 1.5-3.4 3-3.4 2 0 2.8 1 3 3.4h-6zM428 691.5h-4v.5c1 0 1.5.2 1.5.7v.5l-3 8.3-3.4-7.5-.3-1.2c0-.6.4-.8 1.7-.8v-.5h-6v.4c.7 0 1.2.3 1.5 1l3.8 8.4c.6 1.2 1.3 2.6 1.3 3 0 .6-.5 2.4-1 3.3-.6.7-1.2 1.3-1.6 1.3-.2 0-.5 0-.8-.2-.5-.3-1-.4-1.6-.4-.7 0-1.2.7-1.2 1.4 0 1 .8 1.8 2 1.8 2.3 0 3.7-1.6 5.3-5.8l4.6-12.3c.4-1 .8-1.4 1.5-1.5v-.5zM444 691.5v1h2.4v9.4c0 2-.4 2.4-2.5 2.6v.4h7.7v-.4c-2.5 0-2.8-.5-2.8-2.7v-9.5h3.5v-1H449V688c0-1.7.4-2.6 1.6-2.6.6 0 1 .3 1.6 1 .4 1 .8 1.2 1.3 1.2.7 0 1.3-.5 1.3-1.2 0-1-1.4-2-3.2-2-1.8 0-3.4 1-4.2 2.3-.8 1.3-1 2.4-1 4.8H444zM466.5 698c0-4-3-6.8-6.5-6.8-4 0-6.8 2.8-6.8 7 0 4 3 7 6.5 7 4 0 6.8-3 6.8-7zm-2.7 1c0 3.4-1.4 5.5-3.6 5.5-1 0-2-.6-2.7-1.5-1-1.6-1.6-3.8-1.6-6.2 0-3 1.3-4.7 3.4-4.7 1.3 0 2 .7 3 1.6.8 1.2 1.4 3.3 1.4 5.3zM481.8 703.5h-.2c-1.4 0-1.7-.3-1.7-1.7v-10.3h-5v.5c2 0 2.3.4 2.3 2v7c0 1-.2 1.2-.6 1.6-.8.7-1.7 1-2.6 1-1 0-2-1-2-2.4v-9.7h-4.4v.4c1.5 0 2 .4 2 2v7.5c0 2.3 1.2 3.8 3.5 3.8 1.3 0 3-.6 4.4-2.6v2.5h.2l4.2-1.3v-.5zM497 705v-.4c-1.6-.2-2-.5-2-2v-6.8c0-3-1.2-4.6-3.5-4.6-1.3 0-2.7.7-4.3 2.4v-2.3h-.3l-4.2 1.3v.5h1c.7 0 1 .4 1 2v7.2c0 1.8-.4 2.2-2 2.4v.4h6.4v-.4c-1.5-.2-2-.6-2-1.7v-8.4c1.5-1.4 2.2-1.7 3.2-1.7 1.4 0 2.2.8 2.2 3v6c0 1.8-.4 2.4-2 2.6v.4h6.3zM512 703.8v-.5h-.6c-1 0-1.3-.3-1.3-1.7v-17l-4.5 1.2v.5h.7c1 0 1.4.3 1.4 1.5v4.7c-1.2-1-2-1.3-3.2-1.3-3.4 0-6.2 3.4-6.2 7.7 0 3.7 2.2 6.3 5.5 6.3 1.7 0 2.8-.6 4-2v2l4.4-1.5zm-4.4-1.8c0 .2-.2.5-.5.8-.4.6-1.2 1-2 1-2.6 0-4.3-2.4-4.3-6 0-3.5 1.5-5.7 3.8-5.7 1.6 0 3 1.5 3 3v7zM125 735.6c0-4.2-3-7-6.5-7-4 0-6.8 3-6.8 7 0 4.2 3 7.2 6.5 7.2 4 0 6.8-3 6.8-7.2zm-2.7.8c0 3.5-1.4 5.6-3.6 5.6-1 0-2-.6-2.7-1.5-1-1.6-1.6-3.8-1.6-6.2 0-3 1.4-4.7 3.5-4.7 1.2 0 2 .6 2.8 1.5 1 1.3 1.5 3.4 1.5 5.4zM140.4 742.5v-.4c-1.5 0-1.8-.4-1.8-2v-6.7c0-3-1.3-4.6-3.6-4.6-1.3 0-2.7.7-4.3 2.4V729h-.3l-4 1.3v.6h.8c.8 0 1 .3 1 1.8v7.3c0 1.8-.3 2.2-1.8 2.4v.5h6.3v-.4c-1.5 0-2-.5-2-1.6V732c1.5-1.3 2.2-1.6 3.2-1.6 1.3 0 2 1 2 3v6c0 2-.3 2.5-1.8 2.7v.5h6.2zM162 740.2c-.6.8-1 1-1.7 1-1 0-1.6-.7-1.6-2.6V730h3v-1h-3v-3.5c0-.3 0-.4-.2-.4 0 .4-.4.7-.6 1-1.2 1.6-2.2 2.7-3 3.2-.3.2-.5.4-.5.6v.2h1.7v9c0 2.5 1 3.8 2.7 3.8 1.4 0 2.5-.7 3.5-2.3l-.4-.3zM177.3 742.5v-.4c-1.6-.2-1.8-.5-1.8-2.5v-6c0-3.2-1.2-4.8-3.7-4.8-1.8 0-3 .7-4.4 2.5v-9l-.2-.2c-1 .4-1.7.6-3.4 1l-.8.3v.5h.3c1.3 0 1.6.2 1.6 1.5v14.2c0 2-.3 2.3-2 2.6v.5h6.4v-.4c-1.7 0-2-.5-2-2.5v-7.3c1.3-1.4 2.2-2 3.4-2 1.4 0 2.2 1.2 2.2 3.3v6c0 2-.3 2.4-2 2.6v.5h6.3zM190 737.6c-1.5 2.2-2.7 3-4.7 3-1.4 0-2.5-.4-3.3-1.5-1-1.3-1.3-2.5-1.4-4.8h9.2c0-1.6-.4-2.6-1-3.4-1-1.4-2.3-2-4.2-2-3.7 0-6.2 3-6.2 7.2 0 4 2.2 6.8 5.7 6.8 3 0 5.2-1.7 6.4-5l-.5-.2zm-9.3-4.4c.3-2.2 1.5-3.4 3-3.4 2 0 2.7 1 3 3.4h-6zM225 729h-3.6v.5c1 .2 1.3.4 1.3 1l-.5 2-2.7 6.5-2.5-6.7c-.4-1-.5-1.3-.5-1.8 0-.6.3-.8 1.7-1v-.5h-6v.5c1 0 1.4.4 2 2l.6 1.7-2.8 6-3-7.8v-1c0-.6.2-.8 1.3-1v-.4H205v.5c.6 0 .8.2 1.5 2l4 10c.4 1 .6 1.4.8 1.4l.8-1.2 3.4-7.2 2.7 7c.6 1.2.7 1.3 1 1.3l.7-1.5 4-10.4c.6-1 .8-1.3 1.4-1.5v-.5zM238.4 740.5c-.5.5-.8.6-1.3.6s-1-.5-1-2v-5.6c0-1.8 0-2.5-.7-3.3-.7-.8-2-1.3-3.5-1.3-1.4 0-2.6.4-3.5 1-1 .6-1.5 1.5-1.5 2.3 0 .8.6 1.4 1.3 1.4 1 0 1.5-.7 1.5-1.2 0-.7-.2-.8-.2-1.3 0-1 1-1.6 2-1.6 1.4 0 2.4 1 2.4 2.7v1.8c-3.4 1.2-4.5 1.8-5.4 2.4-1.2.8-2 2-2 3.5 0 2 1.2 3 3 3 1.4 0 2.8-.3 4.4-2 .2 1.5 1 2 2 2s1.8-.2 2.7-1.3v-1zm-4.7-1.8c0 1-.2 1.3-1 2-.5.2-1.2.4-1.8.4-1.2 0-2-.6-2-2.2 0-1 .2-1.7 1-2.3.6-.7 2-1.4 3.7-2v4.2z" style="-inkscape-font-specification:STIX;text-align:justify"/><path d="M251.8 729h-4v.5c1 0 1.4.2 1.4.7v.5l-3 8.3-3.4-7.5c0-.4-.4-1-.4-1.2 0-.6.5-.8 1.8-.8v-.5H238v.4c.8.2 1.3.4 1.6 1l4 8.5c.5 1 1.2 2.5 1.2 3s-.6 2.3-1.2 3.2c-.5.7-1 1.3-1.5 1.3l-.7-.2c-.5-.3-1-.4-1.5-.4-.7 0-1.3.6-1.3 1.3 0 1 .8 1.8 2 1.8 2.4 0 3.8-1.5 5.3-5.7l4.5-12.3c.5-1 .8-1.4 1.5-1.5v-.5zM258 730.4c0-1-.6-1.7-1.5-1.7-1 0-1.7.8-1.7 1.7 0 1 .8 1.7 1.7 1.7 1 0 1.6-.7 1.6-1.6zm0 10.8c0-1-.6-1.7-1.5-1.7-1 0-1.7.7-1.7 1.7s.8 1.6 1.7 1.6c1 0 1.6-.7 1.6-1.6zM282 740.2c-.7.8-1.2 1-2 1-1 0-1.4-.7-1.4-2.6V730h3v-1h-3v-3.5c0-.3 0-.4-.2-.4l-.6 1c-1.2 1.6-2.2 2.7-3 3.2-.3.2-.5.4-.5.6l.2.2h1.5v9c0 2.5 1 3.8 2.7 3.8 1.5 0 2.6-.7 3.6-2.3l-.4-.3zM287.7 723.6c0-1-.7-1.6-1.6-1.6-.7 0-1.4.7-1.4 1.6 0 .8.7 1.5 1.5 1.5 1 0 1.7-.6 1.7-1.4zm2.2 19v-.5c-2 0-2.4-.4-2.4-2.6v-10.6l-4.7 1.6v.4h1c1 0 1 .4 1 1.8v6.8c0 2.3-.2 2.5-2.3 2.7v.5h7.2zM313.8 742.5v-.4h-.7c-.8 0-1.2-.4-1.2-1.8v-6c0-3.6-1-5.5-3.5-5.5-1.8 0-3.3.8-5 2.5-.4-1.7-1.5-2.5-3-2.5-1.4 0-2.7.3-4.7 2.3v-2.2h-.3l-4 1.3v.6h.8c1 0 1.2.4 1.2 1.8v7.5c0 1.6-.5 2-2 2v.5h6.5v-.4c-1.6 0-2-.3-2-1.6V732l.4-.4c.7-.8 2-1.3 3.3-1.3 1.2 0 2 1.2 2 3.3v6.3c0 1.8-.4 2-2 2v.5h6.6v-.4c-1.8 0-2.3-.4-2.3-2.3V732c1-1.2 1.8-1.7 3.2-1.7 1.6 0 2.2 1 2.2 3.3v6.2c0 1.8-.2 2-2 2.3v.5h6.6zM318.5 722h-.2c-1.2.5-2 .7-3.4 1l-1 .3v.6c0-.2.3-.2.5-.2 1.2 0 1.5.2 1.5 1.7v15.3c0 1 2.5 2 5 2 4 0 7-3 7-7.5 0-3.7-2.2-6.6-5.5-6.6-1.8 0-3.4 1-4 2.5v-9zm0 11c0-1.3 1.4-2.4 3-2.4 1 0 2 .5 2.6 1.4 1 1 1.3 2.8 1.3 4.6 0 1.7-.4 3-1 4-.8.8-1.7 1.3-3 1.3-1.5 0-2.8-.7-2.8-1.7V733zM341 737.6c-1.3 2.2-2.5 3-4.5 3-1.4 0-2.5-.4-3.3-1.5-1-1.3-1.2-2.5-1.4-4.8h9.3c0-1.6-.4-2.6-1-3.4-1-1.4-2.3-2-4-2-4 0-6.3 3-6.3 7.2 0 4 2 6.8 5.7 6.8 3 0 5-1.7 6.2-5l-.5-.2zm-9-4.4c.2-2.2 1.4-3.4 3-3.4 2 0 2.7 1 3 3.4h-6zM347 728.8l-4.6 1.5v.5h1c.8 0 1 .4 1 1.7v7.5c0 1.5 0 1.7-2 2v.5h7.2v-.4c-2 0-2.6-.5-2.6-2.2V733c0-1 1.3-2.4 2-2.4.3 0 .6.2 1 .5.4.5.7.7 1 .7.8 0 1.3-.6 1.3-1.4 0-1-.7-1.6-1.7-1.6-1.3 0-2 .7-3.6 2.8v-2.7zM354 746.7c2-1 3.3-2.8 3.3-4.6 0-1.5-1-2.5-2.4-2.5-1.2 0-2 .6-2 1.7 0 1 .7 1.5 2 1.5h.7c.3 0 .4 0 .4.3 0 1-.7 2-2.3 3.2l.3.5zM373 729v1h2.3v9.4c0 2.2-.3 2.5-2.5 2.7v.5h7.8v-.4c-2.4 0-2.8-.4-2.8-2.6V730h3.7v-1h-3.7v-3.5c0-1.7.6-2.6 1.7-2.6.7 0 1 .2 1.6 1 .6.8 1 1 1.5 1 .7 0 1.2-.4 1.2-1 0-1.2-1.3-2-3-2-2 0-3.5.8-4.3 2.2-.8 1.3-1 2.4-1 4.8h-2.5z" style="-inkscape-font-specification:STIX;text-align:justify"/><path d="M396.6 741c-1.5 0-1.8-.3-1.8-1.7V729H390v.5c1.8 0 2.2.4 2.2 2v7c0 1-.2 1.2-.6 1.6-.8.8-1.7 1-2.6 1-1 0-2-1-2-2.3V729h-4.5v.4c1.5 0 2 .5 2 2v7.6c0 2.3 1.2 3.8 3.5 3.8 1.2 0 3-.6 4.3-2.6v2.5h.2l4.2-1.3v-.4zM402 728.8l-4.5 1.5v.5h1c.8 0 1 .4 1 1.7v7.5c0 1.5-.2 1.7-2 2v.5h7v-.4c-2 0-2.4-.5-2.4-2.2V733c0-1 1.3-2.4 2.2-2.4l.7.5c.4.5.7.7 1 .7.8 0 1.3-.6 1.3-1.4 0-1-.6-1.6-1.6-1.6-1.3 0-2 .7-3.6 2.8v-2.7zM412 733.5c-1-.5-1.3-1.4-1.3-2 0-1.5 1-2 2.2-2 1.7 0 2.6 1 3.3 3.6h.4v-4h-.4c-.3.3-.4.3-.5.3l-1-.2c-.5-.2-1-.3-2-.3-2.3 0-4 1.4-4 3.7 0 1.6 1 3 3.6 4.4l1.6 1c1 .4 1.6 1.2 1.6 2 0 1.4-1 2.4-2.5 2.4-2 0-3-1.4-3.7-4.3h-.5v4.6h.4c.2-.3.4-.3.7-.3l1.3.2c.7.3 1.6.3 2.2.3 2.3 0 4.2-1.7 4.2-3.7 0-1.6-.7-2.5-2.6-3.6l-3-2zM421.4 746.7c2-1 3.4-2.8 3.4-4.6 0-1.5-1-2.5-2.4-2.5-1 0-1.8.6-1.8 1.7 0 1 .6 1.5 1.7 1.5h1s.3 0 .3.3c0 1-.8 2-2.5 3.2l.4.5zM454.3 742.5v-.4c-1.6-.2-1.8-.5-1.8-2.5v-6c0-3.2-1.2-4.8-3.7-4.8-1.8 0-3 .7-4.4 2.5V722l-3.6 1-.8.3v.5h.4c1.2 0 1.5.2 1.5 1.5v14.2c0 2-.3 2.3-2 2.6v.5h6.4v-.4c-1.7 0-2-.5-2-2.5v-7.3c1.3-1.4 2.2-2 3.4-2 1.4 0 2.2 1.2 2.2 3.3v6c0 2-.3 2.4-2 2.6v.5h6.3zM468.8 735.6c0-4.2-2.8-7-6.5-7-4 0-6.7 3-6.7 7 0 4.2 2.8 7.2 6.4 7.2 4 0 6.8-3 6.8-7.2zm-2.7.8c0 3.5-1.2 5.6-3.4 5.6-1 0-2-.6-2.7-1.5-1.3-1.6-1.7-3.8-1.7-6.2 0-3 1.4-4.7 3.4-4.7 1.3 0 2.2.6 3 1.5 1 1.3 1.4 3.4 1.4 5.4zM484.2 742.5v-.4c-1.4 0-1.8-.4-1.8-2v-6.7c0-3-1.2-4.6-3.5-4.6-1.5 0-3 .7-4.4 2.4V729h-.3l-4 1.3v.6h.7c1 0 1 .3 1 1.8v7.3c0 1.8-.2 2.2-1.8 2.4v.5h6.4v-.4c-1.6 0-2-.5-2-1.6V732c1.4-1.3 2-1.6 3-1.6 1.6 0 2.3 1 2.3 3v6c0 2-.5 2.5-2 2.7v.5h6.2zM497 737.6c-1.5 2.2-2.7 3-4.7 3-1.4 0-2.5-.4-3.3-1.5-1-1.3-1.2-2.5-1.4-4.8h9.2c0-1.6-.4-2.6-1-3.4-1-1.4-2.3-2-4-2-4 0-6.4 3-6.4 7.2 0 4 2.2 6.8 5.7 6.8 3 0 5.2-1.7 6.4-5l-.5-.2zm-9.3-4.4c.3-2.2 1.5-3.4 3-3.4 2 0 2.8 1 3 3.4h-6zM511.6 729h-4v.5c1 0 1.4.2 1.4.7v.5l-3 8.3-3.4-7.5-.4-1.2c0-.6.4-.8 1.7-.8v-.5h-6.2v.4c.8.2 1.3.4 1.6 1l4 8.5c.5 1 1.2 2.5 1.2 3s-.6 2.3-1.2 3.2c-.5.7-1 1.3-1.5 1.3-.3 0-.6 0-1-.2-.4-.3-1-.4-1.5-.4-.7 0-1.2.6-1.2 1.3 0 1 .8 1.8 2 1.8 2.3 0 3.7-1.5 5.3-5.7L510 731c.5-1 1-1.4 1.6-1.5v-.5zM124 778c-.4.5-.7.6-1.2.6s-1-.6-1-2V771c0-2 0-2.6-.7-3.4-.7-1-1.8-1.4-3.5-1.4-1.3 0-2.6.4-3.4 1-1 .6-1.5 1.5-1.5 2.3 0 .8.7 1.4 1.3 1.4.8 0 1.4-.8 1.4-1.3 0-.7-.2-.8-.2-1.3 0-.8 1-1.5 2-1.5 1.5 0 2.5.8 2.5 2.6v1.7c-3.4 1.2-4.5 1.8-5.4 2.4-1 .8-2 2-2 3.5 0 2 1.3 3 3 3 1.4 0 3-.3 4.5-2 0 1.5.8 2 2 2 1 0 1.7-.2 2.6-1.3v-1zm-4.5-1.8c0 1-.2 1.3-1 2-.6.2-1.2.4-1.8.4-1.2 0-2-.7-2-2.3 0-1 .2-1.7 1-2.3.7-.7 2-1.4 3.8-2v4.2zM138.7 780v-.4c-1.5-.2-1.8-.5-1.8-2v-6.8c0-3-1.4-4.6-3.7-4.6-1.3 0-2.7.7-4.3 2.4v-2.3h-.2l-4.2 1.3v.5h1c.8 0 1 .4 1 2v7.2c0 1.8-.4 2.2-2 2.4v.4h6.4v-.4c-1.5-.2-2-.6-2-1.7v-8.4c1.5-1.4 2.2-1.7 3.2-1.7 1.4 0 2.2.8 2.2 3v6c0 1.8-.4 2.4-2 2.6v.4h6.3zM154 778.8v-.5h-.8c-1 0-1.3-.3-1.3-1.7v-17h-.3l-4.4 1.2v.5h.7c1 0 1.4.3 1.4 1.5v4.7c-1.2-1-2-1.3-3.2-1.3-3.4 0-6.2 3.4-6.2 7.7 0 3.7 2.2 6.3 5.5 6.3 1.7 0 2.8-.6 4-2v2l4.4-1.5zm-4.6-1.8c0 .2-.2.5-.5.8-.6.6-1.4 1-2.3 1-2.5 0-4-2.4-4-6 0-3.5 1.3-5.7 3.6-5.7 1.6 0 3 1.5 3 3v7zM185.3 771c-.8-.5-1.3-1.4-1.3-2 0-1.5 1-2 2.3-2 1.8 0 2.7 1 3.4 3.6h.4v-4h-.4l-.4.2-1-.2c-.5-.3-1.2-.4-2-.4-2.3 0-4 1.4-4 3.7 0 1.5 1 3 3.6 4.3l1.6 1c1 .4 1.6 1.2 1.6 2 0 1.4-1 2.4-2.5 2.4-2 0-3.2-1.4-3.8-4.3h-.5v4.7h.4c.2-.2.4-.2.7-.2l1.4.2c.7.3 1.6.3 2.2.3 2.2 0 4-1.7 4-3.7 0-1.7-.6-2.6-2.6-3.7l-3-2zM200 780v-.4c-2-.2-2.2-.5-2.2-2.2v-17.8h-.2l-4.7 1.2v.5h1c1 0 1.2.4 1.2 2v14c0 1.6-.4 2-2.3 2.3v.4h7zM214 778c-.6.5-1 .6-1.4.6-.5 0-1-.6-1-2V771c0-2 0-2.6-.8-3.4-.7-1-1.8-1.4-3.5-1.4-1.4 0-2.6.4-3.5 1-1 .6-1.5 1.5-1.5 2.3 0 .8.7 1.4 1.3 1.4.8 0 1.4-.8 1.4-1.3 0-.7-.2-.8-.2-1.3 0-.8 1-1.5 2-1.5 1.4 0 2.4.8 2.4 2.6v1.7c-3.4 1.2-4.5 1.8-5.4 2.4-1 .8-2 2-2 3.5 0 2 1.2 3 3 3 1.4 0 2.8-.3 4.4-2 .2 1.5 1 2 2 2s1.8-.2 2.7-1.3v-1zm-4.8-1.8c0 1 0 1.3-1 2-.5.2-1.2.4-1.8.4-1 0-2-.7-2-2.3 0-1 .3-1.7 1-2.3.7-.7 2-1.4 3.8-2v4.2zM227.3 766.5H223v.5c1 0 1.5.4 1.5 1v.8l-3 7.8-3.2-7.7-.2-1.2c0-.5.4-.7 1.4-.8v-.5h-5.8v.5c1 0 1.4.3 2.7 3.4l3.6 8.6v.7c.3.5.5.7.7.7.2 0 .4-.4.8-1.5l4-9.7c.7-2 1-2.2 1.8-2.3v-.5zM239.5 775c-1.4 2.3-2.6 3.2-4.6 3.2-1.5 0-2.6-.5-3.4-1.6-1-1.4-1.3-2.6-1.4-5h9.2c0-1.5-.4-2.5-1-3.3-1-1.4-2.3-2-4.2-2-3.7 0-6.2 3-6.2 7.2 0 4 2.2 6.8 5.7 6.8 3 0 5-1.7 6.3-5l-.5-.2zm-9.2-4.3c.3-2.2 1.5-3.4 3-3.4 2 0 2.7 1 3 3.4h-6zM245.3 771c-1-.5-1.3-1.4-1.3-2 0-1.5 1-2 2.2-2 1.8 0 2.7 1 3.4 3.6h.5v-4h-.4l-.5.2s-.4 0-.7-.2c-.7-.3-1.3-.4-2-.4-2.5 0-4.2 1.4-4.2 3.7 0 1.5 1.2 3 3.7 4.3l1.6 1c1 .4 1.6 1.2 1.6 2 0 1.4-1 2.4-2.6 2.4-2 0-3-1.4-3.8-4.3h-.5v4.7h.5c.2-.2.4-.2.8-.2l1.3.2c.7.3 1.6.3 2.2.3 2.3 0 4.2-1.7 4.2-3.7 0-1.7-.7-2.6-2.6-3.7l-3-2zM288 784.8c-4.3-3.5-5.2-7-5.2-12.4 0-5.8 1-8.6 5-12.2l-.2-.5c-4.8 3-7.4 7.2-7.4 12.8 0 5 2.6 10 7.3 12.8l.4-.5zM296.5 780v-.4c-2-.2-2.3-.5-2.3-2.2v-17.8l-5 1.2v.5h1.2c1 0 1.3.4 1.3 2v14c0 1.6-.4 2-2.3 2.3v.4h7zM311.2 773c0-4-2.8-6.8-6.5-6.8-4 0-6.8 2.8-6.8 7 0 4 2.8 7 6.4 7 4 0 6.8-3 6.8-7zm-2.7 1c0 3.4-1.3 5.5-3.6 5.5-1 0-2-.6-2.8-1.5-1-1.6-1.6-3.8-1.6-6.2 0-3 1.5-4.7 3.5-4.7 1.4 0 2.3.7 3 1.6 1 1.2 1.5 3.3 1.5 5.3zM324 775.3c-1.4 2-2.5 3-4.2 3-2.8 0-4.7-2.5-4.7-6 0-3 1.8-5.2 4.2-5.2 1 0 1.5.4 1.8 1.5l.2.7c.2 1 .7 1.4 1.4 1.4.8 0 1.4-.6 1.4-1.3 0-1.7-2-3-4.6-3-1.4 0-3 .5-4 1.4-1.7 1.4-2.6 3.5-2.6 6 0 3.8 2.4 6.6 5.7 6.6 1.3 0 2.5-.4 3.5-1.2 1-.7 1.5-1.5 2.4-3.4l-.4-.3zM338.6 778c-.5.5-.8.6-1.3.6s-1-.6-1-2V771c0-2 0-2.6-.7-3.4-.7-1-2-1.4-3.6-1.4-1.3 0-2.6.4-3.4 1-1 .6-1.5 1.5-1.5 2.3 0 .8.7 1.4 1.3 1.4.8 0 1.4-.8 1.4-1.3 0-.7-.2-.8-.2-1.3 0-.8 1-1.5 2-1.5 1.5 0 2.5.8 2.5 2.6v1.7c-3.4 1.2-4.5 1.8-5.4 2.4-1.2.8-2 2-2 3.5 0 2 1.2 3 3 3 1.3 0 2.8-.3 4.4-2 .2 1.5.8 2 2 2 1 0 1.7-.2 2.6-1.3v-1zm-4.6-1.8c0 1-.2 1.3-1 2-.6.2-1.2.4-1.8.4-1.2 0-2-.7-2-2.3 0-1 .2-1.7 1-2.3.7-.7 2-1.4 3.8-2v4.2zM346.4 780v-.4c-2-.2-2.3-.5-2.3-2.2v-17.8l-4.8 1.2v.5h1.2c1 0 1.2.4 1.2 2v14c0 1.6-.4 2-2.3 2.3v.4h7zM381.5 777.7c-.7.8-1.2 1-1.8 1-1 0-1.6-.7-1.6-2.6v-8.5h3v-1h-3V763v-.4l-.7 1c-1 1.5-2 2.6-3 3l-.4.7v.2h1.6v9c0 2.5 1 3.8 2.6 3.8 1.5 0 2.7-.7 3.7-2.3l-.5-.3zM386.6 766.3l-4.6 1.5v.5h1c.8 0 1 .4 1 1.7v7.5c0 1.5 0 1.7-2 2v.5h7.2v-.4c-2 0-2.6-.6-2.6-2.3v-6.7c0-1 1.3-2.5 2-2.5.3 0 .6.3 1 .6.4.4.7.6 1 .6.8 0 1.3-.6 1.3-1.4 0-1-.8-1.6-1.8-1.6-1.3 0-2 .7-3.6 2.8v-2.7zM397.8 761c0-.8-.7-1.5-1.5-1.5-1 0-1.6.7-1.6 1.6 0 1 .7 1.6 1.5 1.6 1 0 1.6-.7 1.6-1.5zm2.2 19v-.4c-2-.2-2.2-.5-2.2-2.7v-10.7l-4.8 1.6v.3h1.3c.7 0 1 .4 1 1.8v7c0 2.2-.3 2.4-2.4 2.6v.4h7zM405.3 759.6l-3.6 1-1 .2v.6h.6c1.3 0 1.5 0 1.5 1.6v15.3c0 1 2.5 2 5 2 4 0 7-3 7-7.5 0-3.7-2.2-6.6-5.4-6.6-2 0-3.5 1-4 2.5v-9zm0 11c0-1.4 1.4-2.5 3-2.5 1 0 2 .6 2.7 1.5.7 1 1 2.8 1 4.6 0 1.8-.3 3.2-1 4-.6 1-1.6 1.4-2.8 1.4-1.5 0-3-.6-3-1.6v-7.3zM428 775c-1.5 2.3-2.6 3.2-4.7 3.2-1.3 0-2.4-.5-3.3-1.6-1-1.4-1.2-2.6-1.4-5h9.3c-.2-1.5-.5-2.5-1-3.3-1-1.4-2.5-2-4.3-2-3.8 0-6.2 3-6.2 7.2 0 4 2 6.8 5.7 6.8 3 0 5-1.7 6.2-5l-.4-.2zm-9.3-4.3c.3-2.2 1.5-3.4 3.2-3.4 2 0 2.5 1 2.8 3.4h-6zM433.7 771c-.8-.5-1.3-1.4-1.3-2 0-1.5 1-2 2.3-2 1.8 0 2.7 1 3.4 3.6h.5v-4h-.5l-.4.2c-.3 0-.6 0-1-.2-.5-.3-1.2-.4-2-.4-2.4 0-4 1.4-4 3.7 0 1.5 1 3 3.6 4.3l1.6 1c1 .4 1.6 1.2 1.6 2 0 1.4-1 2.4-2.5 2.4-2.2 0-3.3-1.4-4-4.3h-.4v4.7h.4c.2-.2.3-.2.7-.2l1.4.2c.8.3 1.6.3 2.3.3 2.3 0 4.2-1.7 4.2-3.7 0-1.7-.7-2.6-2.7-3.7l-3-2zM475.2 777.7c-.7.8-1.2 1-1.8 1-1.2 0-1.6-.7-1.6-2.6v-8.5h3v-1h-3V763c0-.3 0-.4-.2-.4l-.6 1c-1.2 1.5-2 2.6-3 3-.3.3-.4.5-.4.7v.2h1.7v9c0 2.5 1 3.8 2.6 3.8 1.4 0 2.6-.7 3.5-2.3l-.3-.3zM490.3 780v-.4c-1.6-.3-1.8-.6-1.8-2.6v-6c0-3.2-1.2-4.8-3.6-4.8-2 0-3.2.7-4.6 2.5v-9.2l-3.6 1-.8.3v.5h.4c1.3 0 1.5.2 1.5 1.5V777c0 2-.3 2.3-2 2.6v.4h6.5v-.4c-1.8-.2-2-.6-2-2.6v-7.3c1.2-1.4 2-2 3.3-2 1.5 0 2.2 1.2 2.2 3.3v6c0 2-.3 2.4-2 2.6v.4h6.3zM504 778c-.5.5-.8.6-1.3.6s-1-.6-1-2V771c0-2 0-2.6-.8-3.4-.8-1-2-1.4-3.6-1.4-1.4 0-2.6.4-3.5 1-1 .6-1.6 1.5-1.6 2.3 0 .8.7 1.4 1.3 1.4.8 0 1.4-.8 1.4-1.3v-1.3c0-.8.8-1.5 2-1.5 1.4 0 2.3.8 2.3 2.6v1.7c-3.3 1.2-4.5 1.8-5.4 2.4-1.2.8-2.2 2-2.2 3.5 0 2 1.3 3 3.2 3 1.3 0 2.8-.3 4.3-2 .2 1.5 1 2 2 2s1.8-.2 2.7-1.3v-1zm-4.7-1.8c0 1 0 1.3-1 2-.5.2-1 .4-1.7.4-1.2 0-2-.7-2-2.3 0-1 .2-1.7 1-2.3.7-.7 2-1.4 3.7-2v4.2zM512 777.7c-.6.8-1 1-1.8 1-1 0-1.5-.7-1.5-2.6v-8.5h3v-1h-3V763c0-.3 0-.4-.3-.4 0 .3-.4.6-.6 1-1 1.5-2 2.6-3 3l-.4.7v.2h1.7v9c0 2.5 1 3.8 2.8 3.8 1.5 0 2.6-.7 3.6-2.3l-.4-.3zM115.4 797c-1.4.5-2 .7-3.6 1l-1 .3v.6c.3-.2.4-.2.7-.2 1.2 0 1.4.2 1.4 1.7v15.3c0 1 2.4 2 5 2 3.8 0 7-3 7-7.5 0-3.7-2.3-6.6-5.5-6.6-1.8 0-3.4 1-4 2.5v-9zm0 11c0-1.3 1.4-2.4 3-2.4 1 0 2 .5 2.7 1.4.8 1 1.3 2.8 1.3 4.6 0 1.7-.4 3-1.2 4-.5.8-1.5 1.3-2.6 1.3-1.6 0-3-.7-3-1.7V808zM138 812.6c-1.4 2.2-2.5 3-4.5 3-1.4 0-2.5-.4-3.4-1.5-1-1.3-1-2.5-1.2-4.8h9.2c0-1.6-.4-2.6-1-3.4-1-1.4-2.3-2-4.2-2-3.8 0-6.2 3-6.2 7.2 0 4 2.2 6.8 5.7 6.8 3 0 5-1.7 6.3-5l-.5-.2zm-9.2-4.4c.4-2.2 1.5-3.4 3.2-3.4 2 0 2.6 1 3 3.4h-6.2zM151 812.8c-1.3 2-2.4 3-4 3-3 0-4.8-2.5-4.8-6 0-3 1.7-5.2 4-5.2 1.2 0 1.6.3 2 1.4v.7c.3 1 .8 1.4 1.5 1.4.8 0 1.4-.5 1.4-1.2 0-1.7-2-3-4.5-3-1.4 0-3 .5-4 1.4-1.7 1.4-2.6 3.5-2.6 6 0 3.8 2.3 6.6 5.6 6.6 1.3 0 2.4-.4 3.5-1.2 1-.8 1.6-1.6 2.5-3.5l-.4-.2zM165.7 815.5c-.5.5-.8.6-1.3.6s-1-.5-1-2v-5.6c0-1.8 0-2.5-.7-3.3-.8-.8-2-1.3-3.6-1.3-1.2 0-2.5.4-3.3 1-1 .6-1.6 1.5-1.6 2.3 0 .8.8 1.4 1.4 1.4.8 0 1.4-.7 1.4-1.2 0-.7-.2-.8-.2-1.3 0-1 1-1.6 2-1.6 1.5 0 2.5 1 2.5 2.7v1.8c-3.3 1.2-4.4 1.8-5.3 2.4-1.2.8-2 2-2 3.5 0 2 1.2 3 3 3 1.3 0 2.8-.3 4.4-2 .3 1.5 1 2 2 2s1.8-.2 2.7-1.3v-1zm-4.6-1.8c0 1 0 1.3-1 2-.5.2-1 .4-1.7.4-1.2 0-2-.6-2-2.2 0-1 .2-1.7 1-2.3.7-.7 2-1.4 3.8-2v4.2zM189 817.5v-.4h-.8c-1 0-1.3-.4-1.3-1.8v-6c0-3.6-1-5.5-3.5-5.5-1.8 0-3.3.8-5 2.5-.5-1.7-1.5-2.5-3-2.5s-2.7.3-4.7 2.3v-2.2h-.3l-4.2 1.3v.6h1c.8 0 1 .4 1 1.8v7.5c0 1.6-.4 2-2 2v.5h6.6v-.4c-1.7 0-2-.3-2-1.6V807s0-.2.3-.4c.6-.8 2-1.3 3-1.3 1.4 0 2 1.2 2 3.3v6.3c0 1.8-.2 2-2 2v.5h6.8v-.4c-1.6 0-2-.4-2-2.3V807c.8-1.2 1.7-1.7 3-1.7 1.8 0 2.4 1 2.4 3.3v6.2c0 1.8-.2 2-2 2.3v.5h6.6zM201.3 812.6c-1.4 2.2-2.6 3-4.6 3-1.4 0-2.5-.4-3.3-1.5-1-1.3-1.3-2.5-1.4-4.8h9.2c0-1.6-.4-2.6-1-3.4-1-1.4-2.3-2-4.2-2-3.7 0-6.2 3-6.2 7.2 0 4 2.2 6.8 5.7 6.8 3 0 5-1.7 6.3-5l-.5-.2zm-9.2-4.4c.4-2.2 1.6-3.4 3.2-3.4 2 0 2.6 1 3 3.4h-6zM225 817.5v-.4c-1.3 0-2.2-.6-3.5-2l-4.6-6 .8-.8c3.7-3.4 4.6-3.7 6.5-3.7v-.5h-6v.4c1 0 1.4.2 1.4.6 0 .2-.3.6-.7 1l-4 3.7V797h-.3c-1 .4-2 .6-3.7 1l-1 .3v.5h1c1 0 1.3.4 1.3 1.8V815c0 1.6 0 1.7-2.2 2v.5h7v-.4h-.5c-1.2 0-1.6-.4-1.6-1.5V810l4.4 6 .3.6c0 .3-.3.5-.6.5h-.5v.5h6.5zM239.4 817.5v-.4c-1.4 0-1.8-.4-1.8-2v-6.7c0-3-1.3-4.6-3.5-4.6-1.3 0-2.7.7-4.3 2.4V804h-.2l-4 1.3v.6h.7c1 0 1 .3 1 1.8v7.3c0 1.8-.2 2.2-1.8 2.4v.5h6.4v-.4c-1.6 0-2-.5-2-1.6V807c1.4-1.3 2-1.6 3-1.6 1.6 0 2.3 1 2.3 3v6c0 2-.3 2.5-1.8 2.7v.5h6.2zM254 810.6c0-4.2-2.8-7-6.5-7-4 0-6.7 3-6.7 7 0 4.2 2.8 7.2 6.4 7.2 4 0 6.8-3 6.8-7.2zm-2.7.8c0 3.5-1.3 5.6-3.6 5.6-1 0-2-.6-2.7-1.5-1-1.6-1.5-3.8-1.5-6.2 0-3 1.4-4.7 3.4-4.7 1.2 0 2 .6 2.8 1.5 1 1.3 1.5 3.4 1.5 5.4zM275 804h-3.6v.5c1 .2 1.3.4 1.3 1l-.5 2-2.7 6.5-2.5-6.7c-.4-1-.6-1.3-.6-1.8 0-.6.4-.8 1.8-1v-.5h-6v.5c1 0 1.4.4 2 2l.6 1.7-2.8 6-3-7.8v-1c0-.6.2-.8 1.3-1v-.4H255v.5c.6 0 .8.2 1.5 2l4 10c.4 1 .6 1.4.8 1.4l.7-1.2 3.4-7.2 2.7 7c.6 1.2.6 1.3.8 1.3.3 0 .4-.3 1-1.5l4-10.4c.5-1 .7-1.3 1.3-1.5v-.5zM290.5 817.5v-.4c-1.5 0-2-.4-2-2v-6.7c0-3-1-4.6-3.4-4.6-1.3 0-2.7.7-4.2 2.4V804h-.3l-4 1.3v.6h.8c.8 0 1 .3 1 1.8v7.3c0 1.8-.3 2.2-1.8 2.4v.5h6.3v-.4c-1.5 0-2-.5-2-1.6V807c1.4-1.3 2-1.6 3-1.6 1.6 0 2.3 1 2.3 3v6c0 2-.2 2.5-1.7 2.7v.5h6.2zM311.7 815.5c-.5.5-.8.6-1.3.6-.6 0-1-.5-1-2v-5.6c0-1.8 0-2.5-.8-3.3-.7-.8-1.8-1.3-3.5-1.3-1.3 0-2.5.4-3.4 1-1 .6-1.5 1.5-1.5 2.3 0 .8.8 1.4 1.4 1.4.8 0 1.4-.7 1.4-1.2 0-.7-.2-.8-.2-1.3 0-1 1-1.6 2-1.6 1.4 0 2.4 1 2.4 2.7v1.8c-3.4 1.2-4.5 1.8-5.4 2.4-1 .8-2 2-2 3.5 0 2 1.2 3 3 3 1.4 0 2.8-.3 4.4-2 .2 1.5 1 2 2 2s1.8-.2 2.7-1.3v-1zm-4.7-1.8c0 1-.2 1.3-1 2-.5.2-1.2.4-1.8.4-1 0-2-.6-2-2.2 0-1 .3-1.7 1-2.3.7-.7 2-1.4 3.8-2v4.2zM316.4 808.5c-.8-.5-1.3-1.4-1.3-2 0-1.5 1-2 2.4-2 1.8 0 2.7 1 3.3 3.6h.5l-.2-4h-.3c-.2.3-.3.3-.5.3s-.5 0-.8-.2c-.6-.2-1.3-.3-2-.3-2.5 0-4.2 1.4-4.2 3.7 0 1.6 1.2 3 3.6 4.4l1.7 1c1 .4 1.6 1.2 1.6 2 0 1.4-1 2.4-2.4 2.4-2 0-3.2-1.4-3.8-4.3h-.5v4.6h.4c0-.3.3-.3.7-.3l1.4.2c.7.3 1.5.3 2.2.3 2.2 0 4.2-1.7 4.2-3.7 0-1.6-.8-2.5-2.7-3.6l-3-2zM339.8 804.6c.5-3 1-5.2 1-6 0-.8-.5-1.4-1.3-1.4-.7 0-1.2.6-1.2 1.3l1 6h.5zm-5 0c.6-3 1-5.2 1-6 0-1-.6-1.4-1.3-1.4-.8 0-1.3.5-1.3 1.3l1 6h.6zM347.8 808.5c-.8-.5-1.3-1.4-1.3-2 0-1.5 1-2 2.3-2 1.8 0 2.7 1 3.4 3.6h.4v-4h-.5c0 .3-.2.3-.4.3s-.5 0-.8-.2c-.6-.2-1.3-.3-2-.3-2.5 0-4 1.4-4 3.7 0 1.6 1 3 3.5 4.4l1.6 1c1 .4 1.5 1.2 1.5 2 0 1.4-1 2.4-2.5 2.4-2 0-3.2-1.4-3.8-4.3h-.5v4.6h.4c.3-.3.4-.3.8-.3l1.4.2c.7.3 1.5.3 2.2.3 2.2 0 4.2-1.7 4.2-3.7 0-1.6-.8-2.5-2.7-3.6l-3.2-2zM362.5 817.5v-.4c-2 0-2.3-.4-2.3-2v-18l-4.8 1.3v.5h1c1 0 1.3.4 1.3 2v14c0 1.6-.4 2-2.3 2.3v.5h7zM376.4 815.5c-.5.5-.8.6-1.3.6s-1-.5-1-2v-5.6c0-1.8 0-2.5-.7-3.3-.7-.8-2-1.3-3.5-1.3-1.4 0-2.6.4-3.5 1-1 .6-1.5 1.5-1.5 2.3 0 .8.6 1.4 1.3 1.4 1 0 1.5-.7 1.5-1.2 0-.7-.2-.8-.2-1.3 0-1 1-1.6 2-1.6 1.4 0 2.4 1 2.4 2.7v1.8c-3.4 1.2-4.5 1.8-5.4 2.4-1.2.8-2 2-2 3.5 0 2 1.2 3 3 3 1.4 0 2.8-.3 4.4-2 .2 1.5 1 2 2 2s1.8-.2 2.7-1.3v-1zm-4.7-1.8c0 1-.2 1.3-1 2-.5.2-1.2.4-1.8.4-1.2 0-2-.6-2-2.2 0-1 .2-1.7 1-2.3.6-.7 2-1.4 3.7-2v4.2zM389.8 804h-4.2v.5c1 0 1.4.4 1.4 1 0 .2 0 .5-.2.8l-3 7.8-3-7.6-.3-1c0-.6.4-.8 1.4-1v-.4h-6v.5c1.2 0 1.5.3 2.8 3.4l3.6 8.5c0 .3 0 .5.2.7.2.5.4.7.5.7.3 0 .5-.5 1-1.6l3.8-9.6c.8-2 1-2.2 2-2.3v-.5zM394.7 808.5c-.8-.5-1.3-1.4-1.3-2 0-1.5 1-2 2.3-2 1.8 0 2.7 1 3.4 3.6h.5v-4h-.4c-.2.3-.3.3-.4.3l-1-.2c-.5-.2-1.2-.3-2-.3-2.3 0-4 1.4-4 3.7 0 1.6 1 3 3.6 4.4l1.6 1c1 .4 1.6 1.2 1.6 2 0 1.4-1 2.4-2.5 2.4-2.2 0-3.3-1.4-4-4.3h-.4v4.6h.4c.2-.3.4-.3.7-.3l1.4.2c.8.3 1.7.3 2.3.3 2.3 0 4.2-1.7 4.2-3.7 0-1.6-.7-2.5-2.6-3.6l-3.3-2zM410.7 804.6c.4-3 1-5.2 1-6 0-.8-.6-1.4-1.3-1.4-.8 0-1.3.6-1.3 1.3l1 6h.7zm-5 0c.5-3 1-5.2 1-6 0-1-.7-1.4-1.4-1.4s-1.3.5-1.3 1.3l1 6h.6zM414.8 797.7c4.4 3.4 5 7 5 12.5 0 5.8-.7 8.6-5 12l.3.6c5-3 7.5-7 7.5-12.7 0-5-2.7-10-7.3-12.8l-.4.5zM429.4 816.2c0-1-.8-1.7-1.6-1.7-1 0-1.7.8-1.7 1.7 0 1 .8 1.6 1.7 1.6 1 0 1.7-.7 1.7-1.6z" style="-inkscape-font-specification:STIX;text-align:justify"/></g></svg>