<svg xmlns="http://www.w3.org/2000/svg" viewBox="0 0 744.09448819 1052.3622047" height="297mm" width="210mm"><path fill="#ff0" d="M0 0h50v50H0z"/><path d="M18.302 8.858c-.354 0-3.348 1.688-3.807 2.147-.275.275-.32.62-.318 2.392.001 1.14.072 2.181.157 2.316.085.134.937.703 1.892 1.263.956.56 1.851 1.024 1.99 1.033.395.024 3.671-1.892 3.973-2.323.348-.497.388-4.139.05-4.58-.295-.383-3.56-2.248-3.937-2.248zm9.307 0c-.338 0-3.604 1.827-3.897 2.18-.14.17-.191.974-.157 2.516l.05 2.267 1.85 1.1c1.018.605 1.97 1.102 2.116 1.102.146 0 1.098-.494 2.115-1.1l1.85-1.102.05-2.304c.042-2.026.01-2.336-.265-2.574-.547-.471-3.42-2.085-3.712-2.085zm-4.642 8.109c-.653 0-3.854 1.904-4.045 2.406-.214.565-.215 3.61 0 4.175.111.292.733.757 1.895 1.42.951.541 1.914.987 2.14.987.41.001 2.44-1.086 3.512-1.883l.572-.425v-4.371l-.572-.425c-1.057-.786-3.099-1.884-3.501-1.884zm9.27 0c-.52 0-3.732 1.862-3.966 2.299-.261.489-.219 4.091.053 4.463.124.17.937.734 1.807 1.254.87.52 1.793.953 2.052.96.445.013 3.218-1.452 3.892-2.056.262-.235.309-.602.309-2.425 0-1.824-.047-2.191-.309-2.426-.615-.55-3.431-2.07-3.838-2.07zm-13.943 7.932c-.418 0-3.147 1.484-3.812 2.073-.262.232-.308.597-.308 2.422 0 2.49-.136 2.259 2.115 3.583.824.485 1.71.888 1.967.896.51.017 3.39-1.567 3.894-2.14.254-.29.308-.695.308-2.283 0-1.062-.077-2.076-.172-2.253-.24-.448-3.453-2.298-3.992-2.298zm9.297.003c-.42-.005-3.316 1.553-3.812 2.05-.205.204-.262.739-.26 2.41.001 1.18.06 2.236.132 2.346.071.11.883.645 1.804 1.187.921.543 1.866.988 2.1.99.622.005 3.886-1.932 3.994-2.37.05-.198.066-1.308.038-2.467l-.05-2.107-1.763-1.017c-.97-.56-1.952-1.02-2.183-1.022zm9.3 0c-.23.002-1.212.462-2.182 1.022l-1.763 1.018v4.902l1.763 1.017c.97.56 1.954 1.02 2.188 1.023.428.005 3.694-1.8 3.935-2.175.07-.11.13-1.167.132-2.348.002-1.67-.056-2.205-.26-2.41-.497-.496-3.393-2.053-3.813-2.049zM22.964 32.83c-.39 0-3.66 1.941-3.938 2.338-.322.459-.383 3.744-.083 4.396.106.228.933.843 1.895 1.408.94.552 1.855 1.009 2.035 1.014.45.013 3.787-1.9 3.997-2.292.259-.483.218-4.27-.049-4.603-.27-.337-3.553-2.26-3.857-2.26zm9.319 0c-.373 0-3.647 1.955-3.915 2.338-.348.497-.387 4.139-.049 4.58.122.158.974.724 1.895 1.259.921.535 1.826.976 2.012.98.395.01 3.615-1.823 3.937-2.24.148-.192.22-.965.22-2.334 0-1.372-.072-2.14-.22-2.326-.252-.318-3.585-2.257-3.88-2.257zm-18.659.002c-.134 0-1.076.496-2.094 1.101l-1.851 1.1-.049 2.304c-.057 2.682-.218 2.402 2.164 3.756.873.495 1.723.902 1.89.902.307.002 3.142-1.587 3.707-2.077.263-.229.308-.594.308-2.505 0-1.912-.045-2.275-.308-2.5-.492-.422-3.499-2.083-3.767-2.081z"/></svg>