<svg xmlns="http://www.w3.org/2000/svg" viewBox="0 0 744.09448819 1052.3622047" height="297mm" width="210mm"><path fill="#ff0" d="M0 0h50v50H0z"/><path d="M21.005 35.357l-6.848-8.567-3.4-4.256 4.187-.02c2.303-.01 4.196-.007 4.207.006.016.02 5.024 16.082 5.26 16.873.045.152.073.276.062.276-.011 0-1.572-1.94-3.468-4.312zm5.277 4.201c.04-.134.951-3.062 4.15-13.343.626-2.01 1.15-3.67 1.164-3.688.014-.017 1.908-.023 4.21-.012l4.183.018-6.477 8.11c-7.133 8.929-7.293 9.126-7.23 8.915zm-.96-.55c-.02-.06-1.178-3.79-2.576-8.287-1.399-4.498-2.534-8.188-2.523-8.201.01-.013 2.336-.016 5.168-.005l5.15.018-.683 2.202c-2.27 7.32-4.409 14.178-4.453 14.273-.045.098-.054.098-.084 0zM10.586 21.255c.042-.139 5.167-9.47 5.202-9.471.033-.001 2.867 9.045 2.941 9.39.033.148.027.149-4.065.149-2.47 0-4.09-.027-4.078-.068zm9.856-.005c0-.087 4.883-9.027 4.93-9.027.046 0 4.937 8.948 4.937 9.032 0 .04-1.958.068-4.934.068-3.202 0-4.933-.026-4.933-.073zm11.562-.012c0-.047.643-2.152 1.43-4.678l1.469-4.725c.03-.097.713 1.097 2.641 4.617 1.43 2.61 2.61 4.775 2.62 4.809.012.034-1.82.062-4.07.062-3.056 0-4.09-.022-4.09-.085zm-3.436-5.343c-1.406-2.571-2.557-4.697-2.557-4.724 0-.027 1.811-.049 4.025-.049 2.214 0 4.026.022 4.026.048 0 .06-2.843 9.205-2.897 9.317-.022.045-1.19-2.021-2.597-4.592zm-10.442-.023c-.791-2.552-1.438-4.664-1.438-4.695.001-.06 8.052-.078 8.052-.019 0 .07-5.099 9.357-5.137 9.356-.02-.001-.686-2.09-1.477-4.642z"/></svg>