<svg xmlns="http://www.w3.org/2000/svg" viewBox="0 0 744.09448819 1052.3622047" height="297mm" width="210mm"><path fill="#ff0" d="M0 0h50v50H0z"/><path d="M25.164 3.791a4.72 4.72 0 0 0-.752.05c-1.906.277-3.456 1.71-3.904 3.61-.272 1.154-.027 2.567.619 3.575.338.527.847 1.015 1.424 1.392v-.233h5.376v.032a4.764 4.764 0 0 0 1.74-2.671c.694-2.94-1.593-5.71-4.503-5.755zm-2.428 8.64v1.828h5.009v-1.827h-5.01zm-.185 1.623c-1.407.012-1.722.048-2.037.144a4.807 4.807 0 0 0-2.027 1.21c-1.007.994-1.35 1.599-4.048 7.149l-.731 1.508 3.623 1.654.764-1.473 2.254-4.359.026 7.78a34.545 34.545 0 0 1-3.408-1.189l.245-.52-3.628-1.707-.86 1.83 3.627 1.707.296-.63-.168-.072.413-.59.051.021-.282.598c1.24.54 2.483 1.013 3.731 1.38l-.002-.777c3.14.895 6.28 1.165 9.42.184l.027-8.025 2.214 4.303.754 1.46 3.633-1.657c-.19-.394-.405-.835-.65-1.34-2.73-5.617-3.084-6.244-4.089-7.235a4.807 4.807 0 0 0-2.027-1.21c-.293-.09-.578-.127-1.745-.142v.463H22.55v-.465zM36.571 24.2l-3.628 1.707.199.423a14.55 14.55 0 0 1-3.318 1.53l-.003.797a15.598 15.598 0 0 0 3.643-1.716l-.283-.6.034-.021.354.589-.12.075.355.753 3.627-1.707-.86-1.83zm.952 2.081L34 27.89c.334.593.5.818.67.98.318.304.502.408.867.49.874.195 1.712-.2 2.123-1 .201-.393.228-.525.198-.99-.016-.253-.056-.453-.335-1.089zm-24.897.084c-.246.57-.284.764-.3 1.005-.028.464 0 .598.2.99.578 1.127 2 1.402 2.947.568.155-.137.317-.354.66-.962l-3.507-1.601zm7.752 2.173l.012 3.65.042 12.301.178.33c.262.485.7.867 1.198 1.044 1 .357 2.117-.106 2.6-1.076.139-.278.15-.733.17-6.753l.023-6.456h.987v6.342c0 6.872-.01 6.695.45 7.3.115.15.404.382.643.514.364.2.526.239 1.01.237.86-.003 1.534-.415 1.907-1.167.15-.304.158-.747.198-12.621l.011-3.483c-3.196 1.01-6.329.75-9.429-.162z" fill-rule="evenodd"/></svg>