<svg xmlns="http://www.w3.org/2000/svg" viewBox="0 0 744.09448819 1052.3622047" height="297mm" width="210mm"><path fill="#ff0" d="M0 0h50v50H0z"/><path d="M24.688 11.29c-.594 0-1.166.01-1.703.029-4.61.16-10.31.912-10.085 1.33.319.588 9.152 1.256 11.423.863.336-.058-.677-.106-2.252-.106-2.44-.001-2.937-.042-3.362-.28-.783-.436-.62-.789.54-1.17.983-.324 1.308-.342 6.052-.342 4.858 0 5.05.011 6.236.376l1.222.377.063 12.598.062 12.599 1.894.253c1.042.14 2.059.32 2.26.4 1.002.4.979.706.979-12.725V12.615l-1.406-.326c-2.493-.576-7.764-1.002-11.923-.999zm.266.903c-2.28-.006-4.348.11-4.493.381-.091.17.393.197 2.67.15l2.781-.055.073.388c.072.378.106.385 1.345.276 1.968-.173 3.84-.452 3.84-.571 0-.35-3.284-.562-6.216-.57zm-12.124 1.49V39.566l1.33.24c.733.13 2.026.298 2.874.372 3.375.294 11.577-.03 13.744-.542.355-.084.392-1.295.392-12.964 0-7.08-.05-12.872-.11-12.872-.061 0-.749.108-1.529.24-.973.165-2.954.265-6.309.32-4.935.08-7.412-.043-9.42-.469l-.972-.206z"/></svg>