<svg xmlns="http://www.w3.org/2000/svg" viewBox="0 0 744.09448819 1052.3622047" height="297mm" width="210mm"><path fill="#ff0" d="M0 0h50v50H0z"/><path d="M27.114 10.697c-7.389-.006-8.168.136-9.975 1.826-1.58 1.477-2.241 3.07-2.238 5.388.002 1.115.149 2.15.387 2.706l.385.902-.65.144c-2.777.62-3.434.907-4.36 1.912-1.01 1.095-1.708 2.917-1.697 4.428.021 3.173 2.196 6.813 4.694 7.856 1.39.581 3.123.436 4.977-.419l1.652-.762 1.134 1.216c1.18 1.264 2.532 2.08 4.08 2.464 1.286.32 3.074.08 4.368-.587.7-.36 2.73-2.203 5.492-4.981 4.527-4.556 5.348-5.689 5.36-7.39.011-1.857-1.161-3.955-2.639-4.72-.632-.326-.81-.89-2.847-.008-2.563 1.112-6.33 3.068-6.47 2.928-.13-.13.927-.754 4.14-2.447 3.782-1.994 3.903-2.096 4.358-3.659.538-1.851.166-3.566-1.073-4.94-1.602-1.777-1.967-1.85-9.078-1.857zm-5.773 1.947c1.15-.002 2.31.465 3.332 1.386 2.635 2.372 2.565 6.646-.143 8.796-.78.619-1.156.737-2.527.798-1.74.076-2.493-.195-3.74-1.349-1.198-1.11-1.707-2.369-1.715-4.243-.009-2.053.674-3.463 2.192-4.528.817-.574 1.706-.858 2.601-.86zm.038 1.512c-.89-.017-1.693.337-2.382 1.057-.663.691-1.373 2.39-1.373 3.283 0 .962 1.85 3.416 2.888 3.83.63.252 2.222-.03 2.867-.508.82-.607 1.644-1.84 1.935-2.892.188-.685.136-1.084-.273-2.074-.603-1.464-1.36-2.168-2.742-2.555a3.667 3.667 0 0 0-.92-.141zm0 .678a3.355 3.355 0 0 1 1.897.526c.575.377 1.568 2.268 1.568 2.988 0 .764-1.053 2.513-1.778 2.955-1.677 1.023-3.444.313-4.463-1.792-.422-.872-.46-1.167-.24-1.86.457-1.432.773-1.908 1.608-2.425.404-.25.898-.38 1.408-.392zm.3 1.268c-.222-.012-.456.03-.697.13-1.557.644-1.992 2.666-.771 3.577.802.599 1.456.636 2.187.124.773-.541 1.02-1.335.735-2.364-.25-.906-.792-1.43-1.455-1.467zm-.155.63c.258.008.511.147.755.416.562.622.494 1.552-.158 2.165-.682.64-.675.64-1.457.025-.764-.6-.8-1.15-.135-1.996.328-.417.665-.622.995-.61zm-7.5 7.168c1.099.032 2.264.647 3.314 1.84 2.325 2.642 2.237 6.603-.184 8.235-1.42.957-3.621.542-4.983-.939-1.173-1.275-1.647-2.62-1.647-4.673 0-1.668.083-2.065.59-2.805.78-1.14 1.812-1.69 2.91-1.658zm-.082 1.472c-1.326 0-2.335 1.456-2.335 3.367 0 1.481.607 2.769 1.799 3.816 1.559 1.369 3.22.851 4.11-1.281.544-1.3.431-2.449-.378-3.863-.742-1.298-1.904-2.04-3.196-2.04zm11.749.543a5.09 5.09 0 0 1 2.307.51c4.089 1.944 4.705 7.64 1.05 9.71-1.108.627-3.155.725-4.344.207-2.004-.873-3.444-2.92-3.64-5.177-.1-1.146-.017-1.532.576-2.656.86-1.633 2.386-2.555 4.051-2.594zm-11.539.073c.265.004.555.054.872.15.746.223 1.132.545 1.66 1.387 1.068 1.7.812 3.653-.628 4.786-.365.287-.838.52-1.052.515-.682-.01-1.61-.745-2.39-1.89-.7-1.027-.743-1.204-.564-2.315.29-1.801.955-2.65 2.102-2.633zm.42 1.2c-.225-.008-.463.066-.706.225-1.301.853-1.307 2.72-.01 3.511.965.588 1.023.584 1.733-.126.675-.675.734-1.247.25-2.406-.324-.776-.768-1.188-1.266-1.205zm10.95.256c-.791.009-1.07.148-1.646.696-1.075 1.02-1.44 1.84-1.44 3.236 0 1.065.112 1.338.903 2.217.497.55 1.228 1.2 1.625 1.443 1.32.808 3.15.48 4.155-.748.991-1.21 1.367-3.755.642-4.357-.207-.172-.534-.616-.726-.988-.472-.913-1.62-1.46-3.139-1.495-.137-.003-.26-.005-.373-.004zm-11.116.35c.34-.034.7.271 1.036.91.232.441.234.714.006 1.263-.342.826-.984.91-1.676.218-.578-.578-.59-.774-.114-1.696.226-.438.482-.669.747-.695zm11.445.262c.224-.01.457 0 .7.032 1.135.153 1.721.62 2.55 2.032.46.787.558 1.198.43 1.805-.256 1.207-1 2.26-1.9 2.687-.448.213-1.015.386-1.26.386-.652-.003-1.775-.753-2.7-1.805-.746-.851-.8-1.016-.671-2.094.22-1.856 1.286-2.968 2.851-3.043zm.169 1.189c-.353.023-.708.209-1.058.559-1.2 1.2-1.01 2.743.416 3.367 1.11.485 1.335.462 2.003-.207.805-.805.792-2.021-.032-3-.428-.509-.876-.749-1.33-.72zm.13.729c.408.004.811.248 1.093.753.33.594.33.729 0 1.323-.492.883-1.407.982-2.115.228-.433-.461-.496-.693-.317-1.164.285-.752.816-1.145 1.34-1.14z"/></svg>