<svg xmlns="http://www.w3.org/2000/svg" viewBox="0 0 744.09448819 1052.3622047" height="297mm" width="210mm"><path fill="#ff0" d="M0 0h50v50H0z"/><path d="M25.355 7.861c-6.18 0-7.734.288-6.31 1.167.777.48.523 1.167-.434 1.167-.495 0-1.253.353-1.684.784-1.007 1.007-.738 4.424.552 7.032l.914 1.849-1.292 1.548c-1.824 2.185-2.512 5.608-1.81 8.995.586 2.822 2.922 6.77 4.948 8.364 1.085.853 1.125 1.003.462 1.736-.399.44-.584.942-.413 1.113.47.47 9.396.376 9.69-.102.142-.227-.02-.642-.356-.921-.486-.403-.15-1.002 1.616-2.882 2.646-2.819 4.14-6.432 4.14-10.012 0-2.725-.533-4.32-2.193-6.57l-1.058-1.434.925-1.816c1.041-2.042 1.256-6.233.366-7.124-.308-.308-1.067-.56-1.687-.56-1.095 0-1.106-.034-.363-1.167l.765-1.167h-6.778zm-6.57 3.267c1.92 0 2.886 2.398 2.105 5.228-.254.92-.76 1.919-1.124 2.221-.535.445-.796.294-1.353-.782-1.685-3.26-1.495-6.667.372-6.667zm12.617.077c.134-.01.273-.006.417.015 1.208.172 1.572 2.51.795 5.103-.28.932-.808 1.945-1.176 2.25-.544.451-.805.291-1.398-.855-1.47-2.844-.65-6.356 1.362-6.513z"/></svg>