<svg xmlns="http://www.w3.org/2000/svg" viewBox="0 0 744.09448819 1052.3622047" height="297mm" width="210mm"><path fill="#ff0" d="M0 0h50v50H0z"/><path d="M30.088 7.524c-.775.021-2.626.792-7.395 2.853-8.195 3.543-8.25 3.569-8.774 4.236-.405.515-.406.554-.354 12.164l.052 11.648.463.493c.602.64 1.95 1.289 3.276 1.577 1.428.31 2.792.312 3.936.006.99-.265 15.15-6.35 15.57-6.69.187-.152.24-2.72.24-11.66 0-10.168-.035-11.5-.302-11.767-.165-.166-.39-.301-.5-.301-.108 0-3.617 1.486-7.798 3.303-7.599 3.303-7.6 3.304-9.038 3.307-2.378.004-4.232-.72-3.129-1.223.281-.128 3.214-1.404 6.518-2.834l6.009-2.601.908.394.91.395.057-1.18c.032-.648.01-1.375-.05-1.614-.081-.322-.192-.517-.599-.506z"/></svg>