<?xml version="1.0" encoding="UTF-8" standalone="no"?>
<svg
   xmlns:dc="http://purl.org/dc/elements/1.1/"
   xmlns:cc="http://creativecommons.org/ns#"
   xmlns:rdf="http://www.w3.org/1999/02/22-rdf-syntax-ns#"
   xmlns:svg="http://www.w3.org/2000/svg"
   xmlns="http://www.w3.org/2000/svg"
   version="1.1"
   id="svg5315"
   viewBox="0 0 744.09448819 1052.3622047"
   height="297mm"
   width="210mm">
  <defs
     id="defs5317" />
  <metadata
     id="metadata5320">
    <rdf:RDF>
      <cc:Work
         rdf:about="">
        <dc:format>image/svg+xml</dc:format>
        <dc:type
           rdf:resource="http://purl.org/dc/dcmitype/StillImage" />
        <dc:title></dc:title>
      </cc:Work>
    </rdf:RDF>
  </metadata>
  <g
     id="layer1">
    <rect
       y="0"
       x="0"
       height="50"
       width="50"
       id="rect5865"
       style="opacity:1;fill:#ffff00;fill-opacity:1;stroke:none;stroke-width:10;stroke-linecap:round;stroke-linejoin:round;stroke-miterlimit:4;stroke-dasharray:none;stroke-dashoffset:0;stroke-opacity:1" />
    <path
       id="path5118"
       d="m 30.088202,7.5241513 c -0.775698,0.02113 -2.626698,0.791944 -7.395088,2.8531867 -8.194673,3.54234 -8.249598,3.568677 -8.774481,4.235972 -0.404529,0.514278 -0.40589,0.553341 -0.35384,12.163865 l 0.05241,11.647531 0.463191,0.493113 c 0.601126,0.639757 1.949827,1.289216 3.275159,1.577121 l 0,-3.81e-4 c 1.428107,0.310283 2.792278,0.312509 3.93606,0.0066 0.990777,-0.265192 15.149653,-6.349343 15.570457,-6.690753 0.186879,-0.151608 0.239637,-2.719014 0.239637,-11.659876 0,-10.167519 -0.03426,-11.499436 -0.301406,-11.766591 -0.165696,-0.165694 -0.390495,-0.301418 -0.499501,-0.301418 -0.109006,0 -3.618149,1.486551 -7.798333,3.303631 -7.599183,3.303075 -7.600486,3.30387 -9.038102,3.306401 -2.378031,0.0042 -4.232061,-0.720376 -3.129133,-1.222903 0.280759,-0.127922 3.213811,-1.403156 6.518148,-2.833716 l 6.00816,-2.601194 0.908764,0.394279 0.90911,0.394655 0.05805,-1.1794687 c 0.032,-0.648696 0.009,-1.374921 -0.05092,-1.613811 -0.08096,-0.32256 -0.192036,-0.517305 -0.598346,-0.506234 z"
       style="fill:#000000" />
  </g>
</svg>
