<?xml version="1.0" encoding="UTF-8" standalone="no"?>
<svg
   xmlns:dc="http://purl.org/dc/elements/1.1/"
   xmlns:cc="http://creativecommons.org/ns#"
   xmlns:rdf="http://www.w3.org/1999/02/22-rdf-syntax-ns#"
   xmlns:svg="http://www.w3.org/2000/svg"
   xmlns="http://www.w3.org/2000/svg"
   version="1.1"
   id="svg5315"
   viewBox="0 0 744.09448819 1052.3622047"
   height="297mm"
   width="210mm">
  <defs
     id="defs5317" />
  <metadata
     id="metadata5320">
    <rdf:RDF>
      <cc:Work
         rdf:about="">
        <dc:format>image/svg+xml</dc:format>
        <dc:type
           rdf:resource="http://purl.org/dc/dcmitype/StillImage" />
        <dc:title></dc:title>
      </cc:Work>
    </rdf:RDF>
  </metadata>
  <g
     id="layer1">
    <rect
       y="0"
       x="0"
       height="50"
       width="50"
       id="rect5865"
       style="opacity:1;fill:#ffff00;fill-opacity:1;stroke:none;stroke-width:10;stroke-linecap:round;stroke-linejoin:round;stroke-miterlimit:4;stroke-dasharray:none;stroke-dashoffset:0;stroke-opacity:1" />
    <path
       id="path5041"
       d="m 21.00523,35.357192 c -1.896203,-2.371186 -4.977791,-6.226544 -6.847991,-8.567463 l -3.40034,-4.256201 4.187066,-0.01891 c 2.302877,-0.0103 4.195852,-0.008 4.206614,0.005 0.01659,0.02011 5.024245,16.082284 5.260658,16.873729 0.04522,0.151354 0.0731,0.275188 0.0619,0.275188 -0.0112,0 -1.571734,-1.940066 -3.46792,-4.311252 z m 5.276979,4.201169 c 0.04016,-0.133892 0.951113,-3.062606 4.150136,-13.343139 0.625806,-2.011132 1.149493,-3.670729 1.163739,-3.688 0.01427,-0.0173 1.908391,-0.02294 4.209203,-0.01257 l 4.183291,0.0188 -6.476992,8.108813 c -7.132502,8.929478 -7.292708,9.127073 -7.229377,8.91603 z m -0.96107,-0.550366 c -0.01825,-0.06056 -1.177254,-3.789905 -2.575507,-8.287467 -1.398236,-4.497571 -2.533508,-8.188005 -2.522813,-8.200961 0.0107,-0.01297 2.336472,-0.01508 5.16843,-0.005 l 5.14899,0.01871 -0.682491,2.201484 c -2.269482,7.320697 -4.408719,14.178238 -4.452511,14.272992 -0.04522,0.09787 -0.05451,0.09787 -0.0841,0 z M 10.587068,21.255169 c 0.04148,-0.138881 5.166713,-9.471054 5.201809,-9.471637 0.03344,-6.13e-4 2.867195,9.045205 2.941519,9.389809 0.03219,0.149141 0.02614,0.149362 -4.06564,0.149362 -2.469763,0 -4.089834,-0.02685 -4.077688,-0.06749 z m 9.856259,-0.005 c 0,-0.08671 4.882434,-9.027118 4.929785,-9.027118 0.04572,0 4.936563,8.948087 4.936563,9.031736 0,0.04083 -1.957874,0.0678 -4.933178,0.0678 -3.202691,0 -4.93317,-0.02535 -4.93317,-0.07243 z m 11.561183,-0.01247 c 0,-0.04668 0.643296,-2.151854 1.429541,-4.678165 0.786244,-2.526313 1.447752,-4.652286 1.469987,-4.724387 0.03003,-0.09717 0.712925,1.096517 2.641095,4.616536 1.430345,2.611188 2.609708,4.775365 2.620801,4.809262 0.01103,0.0339 -1.820684,0.06156 -4.070635,0.06156 -3.056001,0 -4.090789,-0.02153 -4.090789,-0.0849 z m -3.435063,-5.34282 c -1.406558,-2.570953 -2.557379,-4.696523 -2.557379,-4.723501 0,-0.02696 1.811342,-0.04909 4.025226,-0.04909 2.213868,0 4.025226,0.02163 4.025226,0.04799 0,0.05995 -2.843009,9.204474 -2.896608,9.316971 -0.02149,0.04516 -1.189907,-2.021482 -2.596465,-4.592434 z M 18.127,15.872179 c -0.791264,-2.551932 -1.438169,-4.664627 -1.43758,-4.694904 8.3e-4,-0.05935 8.051513,-0.07866 8.051513,-0.01922 0,0.07061 -5.098602,9.357197 -5.136519,9.355619 -0.02132,-6.34e-4 -0.686167,-2.089551 -1.477414,-4.641472 z"
       style="fill:#000000" />
  </g>
</svg>
