<?xml version="1.0" encoding="UTF-8" standalone="no"?>
<svg
   xmlns:dc="http://purl.org/dc/elements/1.1/"
   xmlns:cc="http://creativecommons.org/ns#"
   xmlns:rdf="http://www.w3.org/1999/02/22-rdf-syntax-ns#"
   xmlns:svg="http://www.w3.org/2000/svg"
   xmlns="http://www.w3.org/2000/svg"
   version="1.1"
   id="svg5315"
   viewBox="0 0 744.09448819 1052.3622047"
   height="297mm"
   width="210mm">
  <defs
     id="defs5317" />
  <metadata
     id="metadata5320">
    <rdf:RDF>
      <cc:Work
         rdf:about="">
        <dc:format>image/svg+xml</dc:format>
        <dc:type
           rdf:resource="http://purl.org/dc/dcmitype/StillImage" />
        <dc:title></dc:title>
      </cc:Work>
    </rdf:RDF>
  </metadata>
  <g
     id="layer1">
    <rect
       y="0"
       x="0"
       height="50"
       width="50"
       id="rect5865"
       style="opacity:1;fill:#ffff00;fill-opacity:1;stroke:none;stroke-width:10;stroke-linecap:round;stroke-linejoin:round;stroke-miterlimit:4;stroke-dasharray:none;stroke-dashoffset:0;stroke-opacity:1" />
    <path
       id="path5272"
       d="m 25.16418,3.7913671 c -0.246602,-0.00378 -0.497729,0.012189 -0.75185,0.049145 -1.906096,0.2774423 -3.456764,1.71143 -3.904627,3.6110352 -0.272001,1.1536445 -0.02706,2.5669227 0.619241,3.5741357 0.338208,0.527048 0.847289,1.015411 1.424433,1.392046 l 0,-0.232359 5.37547,0 0,0.03142 c 0.85783,-0.658749 1.488361,-1.599823 1.740897,-2.6711383 0.692861,-2.9395653 -1.593682,-5.710234 -4.503564,-5.7542946 z m -2.428462,8.6403789 0,1.826785 5.009041,0 0,-1.826785 -5.009041,0 z m -0.184341,1.621983 c -1.407798,0.01274 -1.722187,0.0478 -2.037224,0.144378 -0.787351,0.241286 -1.44227,0.631955 -2.027243,1.209481 -1.007272,0.994388 -1.349687,1.599184 -4.047558,7.149085 -0.283761,0.583734 -0.519395,1.069479 -0.731388,1.507894 l 3.62312,1.654045 c 0.225402,-0.432912 0.471842,-0.907963 0.7641,-1.473087 l 2.253965,-4.358219 0.02611,7.779925 c -1.135946,-0.324958 -2.27189,-0.731005 -3.407847,-1.189187 l 0.244606,-0.519817 -3.627955,-1.706898 -0.860784,1.829679 3.62779,1.706911 0.296172,-0.62956 c -0.05603,-0.02438 -0.112062,-0.04806 -0.168064,-0.07267 l 0.412507,-0.589262 c 0.01719,0.0069 0.03436,0.0137 0.05156,0.02061 l -0.281831,0.598453 c 1.239661,0.539296 2.482673,1.012024 3.730922,1.379482 l -0.0026,-0.776838 c 3.140032,0.894453 6.280084,1.164973 9.420118,0.184337 l 0.02691,-8.025811 2.214636,4.303751 c 0.288448,0.560556 0.531637,1.031447 0.753954,1.460526 l 3.632342,-1.658236 c -0.190272,-0.39322 -0.404569,-0.834811 -0.650175,-1.340157 -2.72988,-5.616871 -3.083778,-6.243258 -4.08832,-7.234965 -0.584965,-0.577507 -1.240049,-0.968195 -2.027399,-1.20948 -0.29283,-0.08973 -0.577896,-0.126614 -1.744932,-0.141641 l 0,0.462299 -5.375469,0 0,-0.465037 z m 14.019074,10.146673 -3.627798,1.706898 0.199,0.422986 c -1.105869,0.683048 -2.211732,1.183972 -3.317602,1.529333 l -0.0028,0.797623 c 1.204533,-0.380686 2.418092,-0.941886 3.642293,-1.715934 l -0.28279,-0.600706 c 0.01146,-0.0069 0.0229,-0.01382 0.03432,-0.02093 l 0.353525,0.58927 c -0.03977,0.0256 -0.07948,0.05011 -0.119241,0.07525 l 0.354177,0.75282 3.62779,-1.706904 -0.86094,-1.829685 z m 0.952467,2.081062 -3.523055,1.60845 c 0.334411,0.592635 0.500345,0.817852 0.67,0.979854 0.318183,0.303854 0.502235,0.4078 0.86674,0.489375 0.874159,0.195631 1.711982,-0.198787 2.122962,-0.999361 0.201714,-0.392896 0.228172,-0.524699 0.198835,-0.989524 -0.016,-0.25356 -0.05658,-0.453396 -0.335482,-1.088794 z m -24.896817,0.08331 c -0.246125,0.570289 -0.284306,0.764449 -0.299222,1.005485 -0.02873,0.46407 -0.0018,0.597282 0.199478,0.99001 0.57789,1.12696 1.999929,1.401248 2.946356,0.568164 0.155655,-0.137018 0.317232,-0.354255 0.660494,-0.962461 l -3.507106,-1.6012 z m 7.752047,2.173061 0.01224,3.650354 0.04125,12.301054 0.178377,0.330008 c 0.261982,0.484587 0.70087,0.86716 1.198032,1.044151 1.000416,0.356143 2.117307,-0.106346 2.600402,-1.076546 0.138213,-0.277557 0.149714,-0.733 0.170316,-6.753327 l 0.02209,-6.455715 0.493554,0 0.493564,0 0,6.342277 c 0,6.871667 -0.01085,6.695215 0.450208,7.299734 0.115012,0.150772 0.404181,0.381908 0.642602,0.513706 0.36411,0.201269 0.525886,0.239398 1.010968,0.237829 0.858755,-0.0032 1.53293,-0.415607 1.906066,-1.166936 0.151034,-0.304116 0.157915,-0.74783 0.197713,-12.621386 L 29.80711,28.7001 c -3.196186,1.010131 -6.328926,0.7503 -9.428982,-0.162265 z"
       style="fill:#000000;fill-rule:evenodd;stroke:none;stroke-width:1px;stroke-linecap:butt;stroke-linejoin:miter;stroke-opacity:1" />
  </g>
</svg>
