<?xml version="1.0" encoding="UTF-8" standalone="no"?>
<svg
   xmlns:dc="http://purl.org/dc/elements/1.1/"
   xmlns:cc="http://creativecommons.org/ns#"
   xmlns:rdf="http://www.w3.org/1999/02/22-rdf-syntax-ns#"
   xmlns:svg="http://www.w3.org/2000/svg"
   xmlns="http://www.w3.org/2000/svg"
   version="1.1"
   id="svg5315"
   viewBox="0 0 744.09448819 1052.3622047"
   height="297mm"
   width="210mm">
  <defs
     id="defs5317" />
  <metadata
     id="metadata5320">
    <rdf:RDF>
      <cc:Work
         rdf:about="">
        <dc:format>image/svg+xml</dc:format>
        <dc:type
           rdf:resource="http://purl.org/dc/dcmitype/StillImage" />
        <dc:title></dc:title>
      </cc:Work>
    </rdf:RDF>
  </metadata>
  <g
     id="layer1">
    <rect
       y="0"
       x="0"
       height="50"
       width="50"
       id="rect5865"
       style="opacity:1;fill:#ffff00;fill-opacity:1;stroke:none;stroke-width:10;stroke-linecap:round;stroke-linejoin:round;stroke-miterlimit:4;stroke-dasharray:none;stroke-dashoffset:0;stroke-opacity:1" />
    <path
       id="path5204"
       d="m 18.302373,8.8583447 c -0.35467,0 -3.348634,1.6878773 -3.806967,2.1461953 -0.2751,0.275117 -0.321089,0.620794 -0.318798,2.3927 0.0016,1.139133 0.07213,2.181055 0.157318,2.315591 0.08518,0.134518 0.936987,0.702861 1.892484,1.262796 0.955513,0.559918 1.850989,1.024701 1.990241,1.033161 0.394171,0.02395 3.670535,-1.891783 3.972219,-2.322475 0.348551,-0.497635 0.387735,-4.138893 0.04924,-4.58019 -0.293909,-0.383201 -3.558763,-2.2477783 -3.935729,-2.2477783 z m 9.306402,0 c -0.338062,0 -3.603955,1.8267013 -3.896825,2.1795813 -0.140733,0.16953 -0.191004,0.973692 -0.157335,2.515978 l 0.04957,2.267026 1.850813,1.100304 c 1.017948,0.605181 1.970305,1.101676 2.116255,1.101676 0.14596,0 1.097799,-0.494385 2.115217,-1.100303 l 1.849775,-1.101677 0.0489,-2.30388 c 0.04305,-2.026536 0.01122,-2.336263 -0.264402,-2.57379 -0.547207,-0.4715 -3.41974,-2.0849153 -3.711957,-2.0849153 z m -4.641838,8.1083373 c -0.653233,0 -3.853892,1.904464 -4.044877,2.406805 -0.21413,0.564792 -0.214571,3.609949 0,4.174306 0.111066,0.292137 0.73257,0.75769 1.894883,1.419796 l 0,0 c 0.951282,0.541892 1.914217,0.987026 2.139662,0.987026 0.411286,0.0016 2.440008,-1.085645 3.511929,-1.882134 l 0.572871,-0.425534 0,-2.185444 0,-2.185428 -0.572871,-0.425534 c -1.056832,-0.785315 -3.098316,-1.883859 -3.50091,-1.883859 z m 9.270248,0 c -0.520024,0 -3.732155,1.862048 -3.966028,2.299057 -0.261652,0.488922 -0.218873,4.091651 0.05302,4.463494 0.123914,0.169479 0.936952,0.733836 1.806748,1.254203 0.869775,0.52035 1.793262,0.952065 2.052217,0.959469 0.445306,0.0134 3.217438,-1.451977 3.891997,-2.056338 0.261794,-0.234544 0.30847,-0.601462 0.30847,-2.425064 0,-1.823603 -0.04667,-2.190521 -0.30847,-2.425049 -0.614894,-0.550889 -3.431409,-2.069772 -3.837954,-2.069772 z m -13.942727,7.932056 c -0.418126,0 -3.14767,1.484225 -3.812148,2.072871 -0.261969,0.232066 -0.308469,0.597175 -0.308469,2.42195 0,2.489644 -0.136009,2.25912 2.115216,3.583564 0.824052,0.484802 1.709006,0.888022 1.966497,0.896129 0.510685,0.01676 3.391276,-1.566927 3.894415,-2.140331 0.253614,-0.289038 0.308468,-0.694921 0.308468,-2.28254 0,-1.062057 -0.07773,-2.075904 -0.172478,-2.252938 -0.240129,-0.448668 -3.452614,-2.298705 -3.991501,-2.298705 z m 9.296762,0.0034 c -0.419483,-0.005 -3.315723,1.55269 -3.812481,2.049469 -0.204525,0.204525 -0.262042,0.739281 -0.259926,2.409569 0.0016,1.180663 0.06096,2.237058 0.132207,2.347252 0.07123,0.110229 0.88298,0.644081 1.803981,1.186693 0.921,0.542647 1.86569,0.987679 2.099387,0.989456 0.623036,0.005 3.886233,-1.931268 3.994955,-2.369634 0.049,-0.19764 0.06596,-1.307758 0.03786,-2.466726 l -0.05096,-2.107298 -1.762678,-1.017313 C 28.804094,25.364022 27.822089,24.904414 27.59123,24.902119 Z m 9.3002,0 c -0.230859,0.0016 -1.212883,0.462036 -2.182356,1.021803 l -1.762681,1.017682 0,2.451214 0,2.450881 1.762681,1.017665 c 0.969473,0.559783 1.954035,1.019876 2.187872,1.022171 0.428509,0.005 3.693996,-1.800468 3.934691,-2.174455 0.07123,-0.110731 0.13043,-1.16726 0.132205,-2.347923 0.0022,-1.670288 -0.05573,-2.205044 -0.26026,-2.409569 -0.496757,-0.496779 -3.392665,-2.053707 -3.812148,-2.049469 z m -13.927234,7.927936 c -0.390063,0 -3.660506,1.941234 -3.938145,2.337603 -0.321549,0.45907 -0.383314,3.744583 -0.08264,4.396369 0.105218,0.228095 0.932635,0.843059 1.894881,1.408438 0.939439,0.551978 1.854975,1.008067 2.034327,1.013545 0.450789,0.0134 3.787612,-1.899288 3.997689,-2.291837 0.258424,-0.482876 0.217955,-4.27078 -0.04924,-4.603625 -0.270114,-0.33648 -3.552946,-2.260493 -3.856885,-2.260493 z m 9.318442,0 c -0.372525,0 -3.646456,1.955088 -3.914383,2.337603 -0.34857,0.497667 -0.387419,4.13931 -0.0489,4.580222 0.121184,0.157803 0.97388,0.724238 1.89488,1.25901 0.921,0.534774 1.826241,0.976255 2.011605,0.980829 0.394735,0.01 3.614833,-1.823552 3.937439,-2.241565 0.147233,-0.190805 0.220336,-0.964645 0.220336,-2.33313 0,-1.372471 -0.07265,-2.139562 -0.220336,-2.32591 -0.252292,-0.318421 -3.585518,-2.257059 -3.880645,-2.257059 z m -18.658584,0.0016 c -0.133914,0 -1.076275,0.496495 -2.094223,1.101676 l -1.8508139,1.100304 -0.048888,2.303529 c -0.056994,2.681487 -0.2185196,2.401327 2.1640959,3.755321 0.872526,0.495842 1.722702,0.902681 1.889381,0.902681 0.307552,0.0016 3.142012,-1.587618 3.707127,-2.07768 0.263522,-0.22853 0.30847,-0.593338 0.30847,-2.504235 0,-1.912187 -0.04476,-2.275336 -0.30847,-2.501169 -0.491805,-0.421195 -3.498656,-2.082203 -3.766687,-2.080427 z"
       style="fill:#000000" />
  </g>
</svg>
