<?xml version="1.0" encoding="UTF-8" standalone="no"?>
<svg
   xmlns:dc="http://purl.org/dc/elements/1.1/"
   xmlns:cc="http://creativecommons.org/ns#"
   xmlns:rdf="http://www.w3.org/1999/02/22-rdf-syntax-ns#"
   xmlns:svg="http://www.w3.org/2000/svg"
   xmlns="http://www.w3.org/2000/svg"
   version="1.1"
   id="svg5315"
   viewBox="0 0 744.09448819 1052.3622047"
   height="297mm"
   width="210mm">
  <defs
     id="defs5317" />
  <metadata
     id="metadata5320">
    <rdf:RDF>
      <cc:Work
         rdf:about="">
        <dc:format>image/svg+xml</dc:format>
        <dc:type
           rdf:resource="http://purl.org/dc/dcmitype/StillImage" />
        <dc:title></dc:title>
      </cc:Work>
    </rdf:RDF>
  </metadata>
  <g
     id="layer1">
    <rect
       y="0"
       x="0"
       height="50"
       width="50"
       id="rect5865"
       style="opacity:1;fill:#ffff00;fill-opacity:1;stroke:none;stroke-width:10;stroke-linecap:round;stroke-linejoin:round;stroke-miterlimit:4;stroke-dasharray:none;stroke-dashoffset:0;stroke-opacity:1" />
    <path
       id="path5091"
       d="m 24.687755,11.290276 c -0.594146,0 -1.165756,0.0098 -1.703151,0.02855 -4.610529,0.160935 -10.309708,0.912369 -10.084133,1.329504 0.318425,0.588907 9.151625,1.257031 11.422404,0.864068 0.336222,-0.05817 -0.677144,-0.106578 -2.251912,-0.106578 -2.439791,-0.0013 -2.937,-0.04213 -3.362342,-0.27938 -0.782132,-0.436297 -0.619387,-0.789008 0.540163,-1.170829 0.983452,-0.323834 1.308501,-0.342087 6.052217,-0.342087 4.858074,0 5.050714,0.01162 6.235609,0.376832 l 1.222674,0.376831 0.06259,12.598204 0.06254,12.598488 1.893716,0.253484 c 1.041543,0.139442 2.058767,0.319526 2.260506,0.400088 1.001607,0.399986 0.978126,0.705396 0.978126,-12.725676 l 0,-12.876996 -1.406068,-0.325312 C 34.118272,11.71264 28.846742,11.287099 24.687761,11.290276 Z m 0.266498,0.902325 c -2.280485,-0.0056 -4.348079,0.111347 -4.493318,0.38155 -0.09103,0.169366 0.392679,0.196689 2.669831,0.150734 l 2.781571,-0.05622 0.07306,0.388314 c 0.07141,0.378323 0.105827,0.385378 1.344937,0.276141 1.968054,-0.173492 3.839466,-0.452076 3.839466,-0.571424 0,-0.350645 -3.283516,-0.561508 -6.215547,-0.569075 z m -12.124474,1.491138 0,12.940877 0,12.941176 1.331101,0.238458 c 0.732005,0.131186 2.024972,0.299163 2.873268,0.373005 3.374921,0.293806 11.576825,-0.03007 13.743559,-0.542579 0.355365,-0.08404 0.392094,-1.294379 0.392094,-12.964135 0,-7.079296 -0.04963,-12.871406 -0.110334,-12.871406 -0.06069,0 -0.748444,0.107986 -1.528334,0.239935 -0.972696,0.164573 -2.953812,0.265106 -6.308669,0.320018 -4.935034,0.08078 -7.41273,-0.04276 -9.419799,-0.468983 l -0.972886,-0.206366 z"
       style="fill:#000000" />
  </g>
</svg>
