<?xml version="1.0" encoding="UTF-8" standalone="no"?>
<svg
   xmlns:dc="http://purl.org/dc/elements/1.1/"
   xmlns:cc="http://creativecommons.org/ns#"
   xmlns:rdf="http://www.w3.org/1999/02/22-rdf-syntax-ns#"
   xmlns:svg="http://www.w3.org/2000/svg"
   xmlns="http://www.w3.org/2000/svg"
   version="1.1"
   id="svg5315"
   viewBox="0 0 744.09448819 1052.3622047"
   height="297mm"
   width="210mm">
  <defs
     id="defs5317" />
  <metadata
     id="metadata5320">
    <rdf:RDF>
      <cc:Work
         rdf:about="">
        <dc:format>image/svg+xml</dc:format>
        <dc:type
           rdf:resource="http://purl.org/dc/dcmitype/StillImage" />
        <dc:title></dc:title>
      </cc:Work>
    </rdf:RDF>
  </metadata>
  <g
     id="layer1">
    <rect
       y="0"
       x="0"
       height="50"
       width="50"
       id="rect5865"
       style="opacity:1;fill:#ffff00;fill-opacity:1;stroke:none;stroke-width:10;stroke-linecap:round;stroke-linejoin:round;stroke-miterlimit:4;stroke-dasharray:none;stroke-dashoffset:0;stroke-opacity:1" />
    <path
       id="path5172"
       d="M 20.795826,7.5946961 C 19.426382,11.187756 16.36755,12.27942 12.327499,12.240119 L 10.314886,18.1267 c 9.471098,5.33791 5.112387,11.029042 0.06945,16.737771 l 3.955776,5.532086 c 4.166261,-1.871328 8.115294,-2.431259 10.81569,2.438863 l 0,0.0018 c 0,-3.97e-4 0,-6.29e-4 0,-0.0012 0,0.0012 0,0.0018 0.002,0.0032 l 0,-0.0056 C 27.85819,37.96346 31.8258,38.561002 35.99206,40.43229 l 3.955776,-5.532067 c -5.042968,-5.708775 -9.401679,-11.399907 0.06942,-16.737818 l -2.012612,-5.886977 c -4.053304,0.03944 -7.119189,-1.059353 -8.481988,-4.6807125 l -8.727158,0 z"
       style="fill:#000000;fill-rule:evenodd;stroke:none;stroke-width:1px;stroke-linecap:butt;stroke-linejoin:miter;stroke-opacity:1" />
  </g>
</svg>
