<?xml version="1.0" encoding="UTF-8" standalone="no"?>
<svg
   xmlns:dc="http://purl.org/dc/elements/1.1/"
   xmlns:cc="http://creativecommons.org/ns#"
   xmlns:rdf="http://www.w3.org/1999/02/22-rdf-syntax-ns#"
   xmlns:svg="http://www.w3.org/2000/svg"
   xmlns="http://www.w3.org/2000/svg"
   version="1.1"
   id="svg5315"
   viewBox="0 0 744.09448819 1052.3622047"
   height="297mm"
   width="210mm">
  <defs
     id="defs5317" />
  <metadata
     id="metadata5320">
    <rdf:RDF>
      <cc:Work
         rdf:about="">
        <dc:format>image/svg+xml</dc:format>
        <dc:type
           rdf:resource="http://purl.org/dc/dcmitype/StillImage" />
        <dc:title></dc:title>
      </cc:Work>
    </rdf:RDF>
  </metadata>
  <g
     id="layer1">
    <rect
       y="0"
       x="0"
       height="50"
       width="50"
       id="rect5865"
       style="opacity:1;fill:#ffff00;fill-opacity:1;stroke:none;stroke-width:10;stroke-linecap:round;stroke-linejoin:round;stroke-miterlimit:4;stroke-dasharray:none;stroke-dashoffset:0;stroke-opacity:1" />
    <path
       id="path5154"
       d="m 27.113874,10.697016 c -7.388487,-0.0062 -8.168146,0.136144 -9.974914,1.826142 -1.579027,1.477009 -2.241024,3.069802 -2.238377,5.388176 0.0024,1.11476 0.149453,2.149523 0.387327,2.70606 l 0.384967,0.901556 -0.649145,0.144303 c -2.778068,0.619158 -3.434819,0.907235 -4.361113,1.912155 -1.0088922,1.094496 -1.7072292,2.916403 -1.6968812,4.427393 0.02166,3.173529 2.1960672,6.81272 4.6939292,7.856387 1.391116,0.581254 3.122965,0.4357 4.976855,-0.418805 l 1.652695,-0.761945 1.134229,1.215069 c 1.180366,1.264141 2.531964,2.08103 4.078622,2.464939 1.286571,0.319362 3.075073,0.0787 4.368623,-0.58756 0.699541,-0.360323 2.731018,-2.20271 5.492047,-4.981114 4.527341,-4.555788 5.348441,-5.688333 5.359512,-7.389642 0.01203,-1.857308 -1.160294,-3.955161 -2.637929,-4.719272 -0.632636,-0.327136 -0.811234,-0.891471 -2.847066,-0.0084 -2.56313,1.111679 -6.32985,3.067395 -6.469772,2.927473 -0.129719,-0.129743 0.92668,-0.754124 4.138787,-2.447081 3.782868,-1.993789 3.904115,-2.096024 4.358298,-3.658397 0.538295,-1.851676 0.166131,-3.566246 -1.072187,-4.939745 -1.602347,-1.777286 -1.966906,-1.851604 -9.078507,-1.857621 z m -5.772687,1.947413 c 1.150595,-0.0024 2.309758,0.464339 3.332175,1.385219 2.634175,2.372548 2.564261,6.646324 -0.143821,8.79604 -0.779731,0.618967 -1.15577,0.737783 -2.526982,0.798141 -1.740104,0.0766 -2.492592,-0.194649 -3.738779,-1.348565 -1.198897,-1.110116 -1.707734,-2.36901 -1.715676,-4.243598 -0.0087,-2.052632 0.673982,-3.462375 2.191832,-4.527991 0.8166,-0.573288 1.706363,-0.857898 2.601251,-0.859246 z m 0.03807,1.511208 c -0.891086,-0.01685 -1.693102,0.337388 -2.382679,1.057145 -0.662527,0.691527 -1.372537,2.39014 -1.372537,3.283271 0,0.962203 1.849992,3.416095 2.88798,3.830448 0.630109,0.251567 2.221602,-0.03086 2.866825,-0.508597 0.819344,-0.606668 1.644007,-1.839234 1.93473,-2.892215 0.188922,-0.684235 0.136361,-1.083474 -0.272168,-2.073858 -0.603756,-1.463701 -1.359637,-2.168079 -2.742257,-2.555189 -0.315945,-0.08844 -0.622865,-0.135374 -0.919894,-0.141005 z m 0,0.678266 c 0.656101,-0.01612 1.339734,0.161582 1.896633,0.526455 0.575454,0.377073 1.567619,2.267593 1.567619,2.987157 0,0.764015 -1.052235,2.513288 -1.77772,2.955679 -1.67705,1.022609 -3.443338,0.313297 -4.46265,-1.792304 -0.422247,-0.872267 -0.460368,-1.166961 -0.239727,-1.859498 0.456446,-1.432583 0.772415,-1.908835 1.60757,-2.424989 0.404341,-0.249883 0.897969,-0.379865 1.408275,-0.3925 z m 0.298954,1.268208 c -0.220906,-0.01228 -0.45529,0.02929 -0.696629,0.129261 -1.556163,0.644597 -1.991767,2.66664 -0.770874,3.577533 0.80269,0.59887 1.456481,0.636198 2.187621,0.124087 0.77251,-0.541087 1.019024,-1.334559 0.734678,-2.364341 -0.250003,-0.905358 -0.792125,-1.429574 -1.454796,-1.46654 z m -0.153712,0.629387 c 0.257174,0.0084 0.510594,0.147503 0.754436,0.416928 0.56241,0.621445 0.494494,1.551663 -0.158406,2.165046 -0.681081,0.639832 -0.674078,0.639688 -1.456215,0.02445 -0.763895,-0.600867 -0.801126,-1.149464 -0.135374,-1.995834 0.328459,-0.417578 0.664909,-0.621589 0.995559,-0.610591 z m -7.500108,7.168254 c 1.098299,0.03203 2.263623,0.647149 3.313379,1.839763 2.325714,2.642141 2.237126,6.603968 -0.184253,8.235724 -1.419706,0.956764 -3.620901,0.541738 -4.982992,-0.939146 -1.172496,-1.27473 -1.646581,-2.620505 -1.646581,-4.673233 0,-1.668241 0.08322,-2.065146 0.590374,-2.805263 0.780597,-1.139212 1.811799,-1.689902 2.910073,-1.657845 z m -0.08272,1.472196 c -1.325366,-2.4e-5 -2.33474,1.455831 -2.33474,3.366951 0,1.481582 0.606669,2.769091 1.798875,3.815864 1.559124,1.368926 3.219592,0.851569 4.110582,-1.280892 0.543446,-1.300625 0.431007,-2.448525 -0.377916,-3.862384 -0.742933,-1.298507 -1.90443,-2.039539 -3.196801,-2.039539 z m 11.749336,0.542892 c 0.756747,-0.01757 1.542277,0.147456 2.30699,0.510956 4.088513,1.943393 4.704567,7.638562 1.050094,9.708376 -1.107805,0.627462 -3.155022,0.725365 -4.343714,0.207766 -2.004378,-0.872771 -3.444542,-2.920517 -3.640997,-5.176655 -0.0998,-1.145998 -0.01613,-1.532193 0.576273,-2.656243 0.860594,-1.632888 2.386506,-2.555308 4.051354,-2.5942 z m -11.538754,0.07333 c 0.264683,0.0038 0.554757,0.05398 0.871929,0.148995 0.746109,0.22353 1.131727,0.545612 1.660684,1.387603 1.067566,1.699407 0.810777,3.653558 -0.628929,4.786031 -0.364801,0.286945 -0.838164,0.519259 -1.051971,0.515649 -0.681539,-0.01131 -1.609856,-0.74558 -2.390188,-1.890543 -0.699565,-1.026437 -0.742572,-1.203951 -0.564047,-2.314981 0.289424,-1.801257 0.955489,-2.649673 2.102522,-2.632754 z m 0.420682,1.199089 c -0.22637,-0.0075 -0.463665,0.067 -0.706472,0.226104 -1.301709,0.852893 -1.307196,2.72002 -0.01035,3.510797 0.964705,0.588234 1.022585,0.584022 1.732595,-0.125988 0.675065,-0.675089 0.734461,-1.246861 0.250075,-2.406169 -0.324224,-0.775999 -0.767818,-1.188283 -1.26585,-1.204744 z m 10.949799,0.256645 c -0.792101,0.0089 -1.070694,0.14825 -1.647063,0.69569 -1.07481,1.020829 -1.438816,1.840148 -1.438816,3.23627 0,1.064967 0.111164,1.338386 0.902494,2.216765 0.496372,0.550955 1.227391,1.200388 1.624489,1.443508 1.320312,0.808345 3.149678,0.478923 4.155225,-0.748323 0.991419,-1.210015 1.366568,-3.75512 0.642094,-4.356397 -0.207285,-0.172027 -0.534156,-0.616656 -0.726231,-0.98805 -0.47216,-0.913083 -1.620228,-1.459898 -3.138969,-1.495684 -0.136505,-0.0031 -0.260062,-0.005 -0.373223,-0.0038 z m -11.117131,0.350192 c 0.341336,-0.03369 0.699758,0.270964 1.035991,0.909063 0.232723,0.441813 0.234022,0.714366 0.0065,1.263491 l 0,0 c -0.342201,0.826155 -0.984536,0.909787 -1.675726,0.218596 -0.577957,-0.577981 -0.591242,-0.773978 -0.11422,-1.696423 0.226322,-0.437649 0.481427,-0.668519 0.746904,-0.694727 z m 11.44569,0.261819 c 0.223553,-0.01059 0.457047,-1.45e-4 0.699902,0.03244 1.134976,0.152245 1.72126,0.619423 2.549075,2.032007 0.460849,0.786348 0.558607,1.1975 0.430092,1.804987 -0.255273,1.206814 -0.999529,2.259771 -1.899472,2.686808 -0.448094,0.21265 -1.015005,0.385424 -1.259713,0.385424 -0.65213,-0.0024 -1.775409,-0.752511 -2.699491,-1.804986 -0.747048,-0.850847 -0.799946,-1.015318 -0.672177,-2.09405 0.219703,-1.855046 1.28686,-2.967953 2.851784,-3.042632 z m 0.168273,1.18874 c -0.352358,0.0231 -0.707435,0.209211 -1.057145,0.558897 -1.200341,1.200364 -1.009927,2.743917 0.415532,3.366951 1.10973,0.485012 1.334848,0.462125 2.003343,-0.206346 0.804712,-0.804712 0.791523,-2.021586 -0.03242,-3.000779 -0.427661,-0.508237 -0.876285,-0.748396 -1.329313,-0.718723 z m 0.131162,0.729047 c 0.407253,0.0038 0.81056,0.248462 1.091921,0.75304 0.330987,0.594419 0.331035,0.729215 0,1.323658 l 0,0 c -0.491726,0.882952 -1.406205,0.981672 -2.114266,0.227958 -0.433846,-0.461812 -0.496828,-0.693356 -0.317774,-1.164313 0.285886,-0.751886 0.816047,-1.145204 1.339662,-1.140343 z"
       style="fill:#000000" />
  </g>
</svg>
