<?xml version="1.0" encoding="UTF-8" standalone="no"?>
<svg
   xmlns:dc="http://purl.org/dc/elements/1.1/"
   xmlns:cc="http://creativecommons.org/ns#"
   xmlns:rdf="http://www.w3.org/1999/02/22-rdf-syntax-ns#"
   xmlns:svg="http://www.w3.org/2000/svg"
   xmlns="http://www.w3.org/2000/svg"
   version="1.1"
   id="svg5315"
   viewBox="0 0 744.09448819 1052.3622047"
   height="297mm"
   width="210mm">
  <defs
     id="defs5317" />
  <metadata
     id="metadata5320">
    <rdf:RDF>
      <cc:Work
         rdf:about="">
        <dc:format>image/svg+xml</dc:format>
        <dc:type
           rdf:resource="http://purl.org/dc/dcmitype/StillImage" />
        <dc:title></dc:title>
      </cc:Work>
    </rdf:RDF>
  </metadata>
  <g
     id="layer1">
    <rect
       y="0"
       x="0"
       height="50"
       width="50"
       id="rect5865"
       style="opacity:1;fill:#ffff00;fill-opacity:1;stroke:none;stroke-width:10;stroke-linecap:round;stroke-linejoin:round;stroke-miterlimit:4;stroke-dasharray:none;stroke-dashoffset:0;stroke-opacity:1" />
    <path
       id="path4986"
       d="m 25.355093,7.8613321 c -6.179199,0 -7.733731,0.287352 -6.310963,1.166671 0.778073,0.480875 0.523741,1.1666719 -0.432941,1.1666719 -0.495006,0 -1.252861,0.353248 -1.684384,0.784767 -1.006507,1.006511 -0.738274,4.423346 0.552348,7.031928 l 0.914194,1.848447 -1.292451,1.54857 c -1.82368,2.184474 -2.512348,5.607501 -1.809251,8.994307 0.585819,2.821865 2.921751,6.7711 4.947413,8.36448 1.084813,0.853314 1.124873,1.003084 0.462115,1.735428 -0.39896,0.440829 -0.584564,0.942136 -0.412894,1.113807 0.469229,0.469227 9.395696,0.375156 9.690664,-0.102081 0.140653,-0.227592 -0.0204,-0.641902 -0.357295,-0.921489 -0.485312,-0.402778 -0.149507,-1.001525 1.61602,-2.882046 2.64638,-2.818753 4.139859,-6.431409 4.139859,-10.011497 0,-2.725311 -0.532654,-4.320626 -2.192973,-6.570724 l -1.057299,-1.433732 0.925133,-1.815635 c 1.040956,-2.041776 1.256072,-6.233411 0.365501,-7.123982 -0.308003,-0.308001 -1.067263,-0.560548 -1.687119,-0.560548 -1.09488,0 -1.105398,-0.03327 -0.36276,-1.1666719 l 0.764715,-1.166671 -6.777632,0 z M 18.78528,11.128012 c 1.920532,0 2.885937,2.398233 2.104562,5.228142 -0.25377,0.919084 -0.759204,1.918618 -1.123831,2.221234 -0.53526,0.444226 -0.796272,0.2938 -1.35261,-0.782034 -1.685696,-3.25978 -1.495664,-6.667342 0.371879,-6.667342 z m 12.616451,0.07747 c 0.134082,-0.0104 0.273118,-0.006 0.41745,0.01457 1.20747,0.172265 1.571375,2.509566 0.794797,5.103276 -0.279069,0.932052 -0.807948,1.94421 -1.175786,2.249485 -0.543907,0.451405 -0.805266,0.291631 -1.398185,-0.85495 -1.470823,-2.84426 -0.649492,-6.35601 1.361724,-6.512395 z"
       style="fill:#000000" />
  </g>
</svg>
