<svg xmlns="http://www.w3.org/2000/svg" viewBox="0 0 1000 1000" version="1.1"><g fill="none" stroke="#000"><path d="M-2000-2000h5000v5000h-5000z"/><path d="M0 0h1000v1000H0z"/></g><flowRoot xml:space="preserve" style="line-height:125%;-inkscape-font-specification:STIX;text-align:start" fill="#000" stroke="none" stroke-opacity="1" stroke-width="1" stroke-linejoin="miter" stroke-linecap="butt" fill-opacity="1" font-family="STIX" font-style="normal" font-weight="normal" font-size="15" letter-spacing="0" word-spacing="0" font-stretch="normal" font-variant="normal" text-anchor="start" writing-mode="lr"><flowRegion><path style="-inkscape-font-specification:STIX" font-family="STIX" font-weight="normal" font-style="normal" font-stretch="normal" font-variant="normal" d="M63.6 813.6H911v245.8H63.7z"/></flowRegion><flowPara/></flowRoot><flowRoot xml:space="preserve" style="line-height:125%;-inkscape-font-specification:'arial, Normal';text-align:start" fill="#000" stroke="none" stroke-opacity="1" stroke-width="1" stroke-linejoin="miter" stroke-linecap="butt" fill-opacity="1" font-family="arial" font-style="normal" font-weight="normal" font-size="15" letter-spacing="0" word-spacing="0" font-stretch="normal" font-variant="normal" text-anchor="start" writing-mode="lr"><flowRegion><path d="M-385.6 839h1144v377h-1144z"/></flowRegion><flowPara/></flowRoot><text xml:space="preserve" style="line-height:125%;-inkscape-font-specification:'arial, Normal';text-align:start" x="178" y="855.9" font-style="normal" font-variant="normal" font-weight="normal" font-stretch="normal" font-size="15" font-family="arial" letter-spacing="0" word-spacing="0" writing-mode="lr-tb" text-anchor="start" fill="#000" fill-opacity="1" stroke="none" stroke-width="1" stroke-linecap="butt" stroke-linejoin="miter" stroke-opacity="1"/><g style="line-height:125%;-inkscape-font-specification:'arial, Normal';text-align:start" font-style="normal" font-variant="normal" font-weight="normal" font-stretch="normal" font-size="30" font-family="STIX" letter-spacing="0" word-spacing="0" writing-mode="lr-tb" text-anchor="start" fill="#000" fill-opacity="1" stroke="none" stroke-width="1" stroke-linecap="butt" stroke-linejoin="miter" stroke-opacity="1"><path d="M82 806l-.8-6.4h-.6c0 .7-.5 1-1 1-.3 0-.8 0-1.3-.3-1-.5-2-.7-3.2-.7-2.8 0-5 2-5 5.3 0 1.7 1 3.6 3.6 5 2 1 4 2.4 5 3.5.6.7 1 1.3 1 2.4 0 2-1.6 3.3-3.7 3.3-3 0-5-1.7-6.3-5.4H69l1 6.3h.6c0-.6.4-1 1-1 .2 0 .7 0 1.3.3 1 .5 2 .7 3.4.7 3.5 0 6-2.2 6-5.6 0-2.3-1.3-4-4.5-6-3.3-1.7-5.5-3-5.5-5 0-1.6 1.2-2.8 3-2.8s3.3 1 4.4 2.2c.4.7.8 1.5 1 2.8h1zM98.6 813c0-4.2-2.8-7-6.5-7-4 0-6.6 3-6.6 7 0 4.2 2.8 7.2 6.4 7.2 4 0 6.8-3 6.8-7.2zm-2.7.8c0 3.5-1.4 5.6-3.6 5.6-1 0-2-.6-2.7-1.5-1.2-1.7-1.6-4-1.6-6.3 0-3 1.5-4.7 3.5-4.7 1.3 0 2.2.6 3 1.5 1 1.2 1.4 3.3 1.4 5.3zM122.7 820v-.5h-.7c-1-.2-1.3-.5-1.3-2v-6c0-3.5-1-5.4-3.5-5.4-1.7 0-3.3 1-5 2.6-.4-1.7-1.5-2.5-3-2.5-1.4 0-2.7.4-4.7 2.4v-2.2h-.3l-4 1.3v.5h.8c.8 0 1 .4 1 1.8v7.5c0 1.7-.3 2-2 2.2v.4h6.6v-.5c-1.6 0-2-.4-2-1.7v-8.3l.4-.5c.6-.8 2-1.3 3.2-1.3 1.3 0 2 1.2 2 3.3v6.3c0 2-.4 2-2 2.2v.4h6.6v-.5c-1.7 0-2.2-.5-2.2-2.4v-7.5c1-1.3 1.8-1.8 3.2-1.8 1.8 0 2.4 1 2.4 3.3v6.2c0 1.8-.3 2-2 2.3v.4h6.5zM135 815c-1.4 2.2-2.6 3-4.6 3-1.3 0-2.5-.4-3.3-1.5-1-1.4-1-2.6-1.3-5h9.3c-.2-1.5-.5-2.5-1-3.3-1-1.4-2.4-2-4.2-2-3.8 0-6.2 3-6.2 7.2 0 4 2 6.8 5.7 6.8 3 0 5-1.7 6.2-5l-.4-.2zm-9.2-4.4c.3-2.2 1.5-3.4 3.2-3.4 2 0 2.6 1 3 3.4h-6.2zM151 811c-1-.6-1.4-1.5-1.4-2.2 0-1.4 1-2 2.2-2 1.8 0 2.7 1 3.4 3.7h.5l-.2-4h-.3c-.2.2-.4.2-.5.2-.2 0-.5 0-.8-.2-.8-.3-1.4-.4-2-.4-2.6 0-4.3 1.5-4.3 3.8 0 1.6 1 3 3.6 4.4l1.6 1c1 .4 1.5 1.2 1.5 2 0 1.4-1 2.4-2.5 2.4-2 0-3-1.4-3.8-4.3h-.4v4.7h.3c.3-.3.5-.3 1-.3l1.2.2c.7.2 1.6.2 2.2.2 2.3 0 4.2-1.7 4.2-3.7 0-1.7-.7-2.6-2.6-3.7l-3-2zM170 815c-1.4 2.2-2.5 3-4.5 3-1.4 0-2.5-.4-3.4-1.5-1-1.4-1-2.6-1.2-5h9.2c0-1.5-.4-2.5-1-3.3-1-1.4-2.3-2-4.2-2-3.8 0-6.2 3-6.2 7.2 0 4 2.2 6.8 5.7 6.8 3 0 5-1.7 6.3-5l-.5-.2zm-9.2-4.4c.4-2.2 1.5-3.4 3.2-3.4 2 0 2.6 1 3 3.4h-6.2zM178.8 817.6c-.6.8-1 1-1.8 1-1 0-1.5-.7-1.5-2.6v-8.6h3v-1h-3V803c0-.4 0-.5-.2-.5l-.6 1c-1.2 1.5-2.2 2.6-3 3-.3.3-.4.5-.4.7v.2h1.7v9c0 2.5 1 3.8 2.6 3.8 1.5 0 2.6-.7 3.6-2.3l-.4-.4zM187.2 817.6c-.7.8-1.2 1-1.8 1-1 0-1.6-.7-1.6-2.6v-8.6h3v-1h-3V803c0-.4 0-.5-.2-.5l-.6 1c-1 1.5-2 2.6-3 3l-.4.7v.2h1.7v9c0 2.5 1 3.8 2.6 3.8 1.4 0 2.6-.7 3.6-2.3l-.4-.4zM195.2 820v-.5c-2-.2-2.2-.5-2.2-2.2v-17.8h-.2l-4.7 1.2v.5h1.2c1 0 1.2.4 1.2 2v14c0 1.6-.4 2-2.3 2.3v.4h7.2zM208 815c-1.4 2.2-2.5 3-4.6 3-1.3 0-2.4-.4-3.3-1.5-1-1.4-1-2.6-1.3-5h9.3c0-1.5-.4-2.5-1-3.3-1-1.4-2.4-2-4.2-2-3.8 0-6.2 3-6.2 7.2 0 4 2 6.8 5.7 6.8 3 0 5-1.7 6.2-5l-.4-.2zm-9.2-4.4c.3-2.2 1.5-3.4 3.2-3.4 2 0 2.6 1 3 3.4h-6.2zM224 818.7v-.5h-.8c-1 0-1.4-.3-1.4-1.7v-17l-4.5 1.2v.5h.6c1 0 1.3.3 1.3 1.5v4.7c-1-1-2-1.3-3-1.3-3.6 0-6.4 3.5-6.4 7.8 0 3.8 2.2 6.4 5.5 6.4 1.7 0 2.8-.6 3.8-2v2l4.6-1.5zm-4.7-1.8l-.4.7c-.7.6-1.4 1-2.3 1-2.6 0-4.2-2.4-4.2-6 0-3.5 1.5-5.7 3.8-5.7 1.6 0 3 1.4 3 3v7zM247.5 818c-.5.4-.8.5-1.3.5-.6 0-1-.6-1-2v-5.7c0-1.8 0-2.5-.8-3.3-.7-1-2-1.4-3.5-1.4s-2.7.5-3.6 1c-1 .7-1.5 1.6-1.5 2.4 0 .8.5 1.4 1.2 1.4.8 0 1.4-.7 1.4-1.2 0-.7-.2-.8-.2-1.3 0-.8 1-1.5 2-1.5 1.4 0 2.4 1 2.4 2.7v1.7c-3.4 1.2-4.5 1.8-5.4 2.4-1.2.8-2 2-2 3.5 0 2 1.2 3.2 3 3.2 1.4 0 2.8-.4 4.4-2.2.2 1.6 1 2.2 2 2.2s1.8-.3 2.7-1.4v-1zm-4.7-2c0 1-.2 1.4-1 2-.5.3-1.2.5-1.8.5-1 0-2-.7-2-2.3 0-1 .3-1.7 1-2.3.7-.8 2-1.5 3.8-2v4zM255.2 820v-.5c-2-.2-2.2-.5-2.2-2.2v-17.8h-.2l-4.7 1.2v.5h1.2c1 0 1.2.4 1.2 2v14c0 1.6-.4 2-2.3 2.3v.4h7.2zM270 813c0-4.2-3-7-6.6-7-4 0-6.7 3-6.7 7 0 4.2 2.8 7.2 6.5 7.2 4 0 6.7-3 6.7-7.2zm-2.8.8c0 3.5-1.3 5.6-3.5 5.6-1 0-2-.6-2.7-1.5-1-1.7-1.6-4-1.6-6.3 0-3 1.4-4.7 3.5-4.7 1.2 0 2 .6 2.7 1.5 1 1.2 1.5 3.3 1.5 5.3zM285.4 820v-.5c-1.5-.2-2-.5-2-2v-6.8c0-3-1-4.6-3.4-4.6-1.4 0-2.8.8-4.3 2.5v-2.3h-.3l-4 1.3v.5h.8c.8 0 1 .3 1 1.8v7.3c0 2-.3 2.3-1.8 2.5v.4h6.3v-.5c-1.5-.2-2-.6-2-1.7v-8.3c1.4-1.4 2-1.7 3-1.7 1.6 0 2.3 1 2.3 3v6c0 2-.3 2.5-1.8 2.7v.4h6.2zM300 808.3V807h-2.4c-.6 0-1 0-1.6-.2l-.7-.2c-.8-.3-1.6-.5-2.4-.5-3 0-5 2.3-5 5 0 2 .7 3 2.7 4l-1.3 1.2c-1 1-1.4 1.5-1.4 2 0 .8.3 1 1.6 1.7-2.2 1.4-3 2.4-3 3.5 0 1.6 2.4 3 5.3 3 2 0 4.3-.8 6-2 1-1 1.7-2 1.7-3 0-2-1.5-3.2-3.7-3.3l-3.8-.2c-1.7 0-2.4-.3-2.4-.8 0-.6 1-1.7 1.8-2l.6.2h1c1.2 0 2.3-.4 3.2-1 1-1 1.6-2 1.6-3.6 0-1 0-1.6-.6-2.5h2.5zm-9.6 1.5c0-1.8.8-2.8 2.2-2.8 1 0 1.7.5 2.2 1.4.6 1 1 2.4 1 3.6 0 1.6-1 2.7-2.3 2.7-2 0-3-2-3-4.8v-.2zm8.4 12c0 1.8-2.3 3-5.7 3-2.5 0-4.2-1-4.2-2.2 0-.7.2-1.2 1.4-2.6 1 .2 3.4.4 5 .4 2.6 0 3.6.3 3.6 1.4zM319 817.6c-.8.8-1.3 1-2 1-1 0-1.5-.7-1.5-2.6v-8.6h3v-1h-3V803c0-.4 0-.5-.2-.5l-.6 1c-1 1.5-2 2.6-3 3l-.4.7v.2h1.7v9c0 2.5 1 3.8 2.6 3.8 1.5 0 2.7-.7 3.7-2.3l-.4-.4zM334 820v-.5c-1.6-.3-1.7-.6-1.7-2.6v-6c0-3.3-1.3-5-3.7-5-1.8 0-3 .8-4.4 2.6v-9l-.2-.2c-1 .4-1.7.6-3.4 1l-.8.3v.5h.3c1.4 0 1.6.2 1.6 1.5V817c0 2 0 2.2-2 2.5v.4h6.6v-.5c-1.7-.2-2-.6-2-2.6v-7.4c1.2-1.4 2-2 3.3-2 1.5 0 2.2 1.2 2.2 3.3v6c0 2-.3 2.3-2 2.5v.4h6.4zM346.7 815c-1.5 2.2-2.6 3-4.6 3-1.3 0-2.4-.4-3.3-1.5-1-1.4-1.2-2.6-1.3-5h9.2c0-1.5-.4-2.5-1-3.3-1-1.4-2.3-2-4.2-2-3.8 0-6.2 3-6.2 7.2 0 4 2.2 6.8 5.7 6.8 3 0 5-1.7 6.2-5l-.5-.2zm-9.3-4.4c.4-2.2 1.5-3.4 3.2-3.4 2 0 2.6 1 3 3.4h-6.2zM362.6 806.2l-4.6 1.5v.5h1c.8 0 1 .4 1 1.7v7.4c0 1.5 0 1.7-2 2v.5h7.2v-.5c-2 0-2.6-.6-2.6-2.3v-6.7c0-1 1.3-2.5 2-2.5.3 0 .6.2 1 .5.4.4.7.6 1 .6.8 0 1.3-.5 1.3-1.3 0-1-.7-1.6-1.8-1.6-1.2 0-2 .8-3.6 3V806zM373.8 801c0-1-.6-1.6-1.5-1.6-.8 0-1.5.7-1.5 1.6 0 .8.6 1.5 1.5 1.5 1 0 1.5-.7 1.5-1.5zm2.2 19v-.5c-2-.2-2.2-.5-2.2-2.7v-10.6l-4.8 1.6v.4h1.3c.7 0 1 .4 1 1.8v6.8c0 2.3-.3 2.5-2.4 2.7v.4h7zM391 806.4h-4v.5c1 0 1.3.3 1.3.8 0 .3 0 .6-.2 1l-2.8 7.7-3-7.7c-.3-.4-.4-.8-.4-1 0-.6.4-.8 1.4-1v-.4h-6v.5c1.3 0 1.6.2 3 3.3l3.5 8.6c0 .2 0 .4.2.6 0 .5.3.7.4.7.2 0 .4-.4 1-1.5l3.7-9.6c1-2 1.2-2.2 2-2.3v-.6zM403.3 815c-1.5 2.2-2.6 3-4.6 3-1.4 0-2.5-.4-3.4-1.5-1-1.4-1.2-2.6-1.3-5h9.2c0-1.5-.4-2.5-1-3.3-1-1.4-2.3-2-4.2-2-3.8 0-6.2 3-6.2 7.2 0 4 2.2 6.8 5.7 6.8 3 0 5-1.7 6.3-5l-.5-.2zm-9.3-4.4c.4-2.2 1.5-3.4 3.2-3.4 2 0 2.6 1 3 3.4H394zM409.2 806.2h-.2l-4.4 1.5v.5h1c.8 0 1 .4 1 1.7v7.4c0 1.5-.2 1.7-2 2v.5h7v-.5c-2 0-2.4-.6-2.4-2.3v-6.7c0-1 1.2-2.5 2-2.5.2 0 .5.2.8.5.5.4.8.6 1.2.6.8 0 1.2-.5 1.2-1.3 0-1-.6-1.6-1.6-1.6-1.3 0-2 .8-3.6 3V806zM419 811c-.8-.6-1.2-1.5-1.2-2.2 0-1.4 1-2 2.2-2 1.8 0 2.7 1 3.4 3.7h.5l-.3-4h-.3l-.5.2c-.3 0-.6 0-1-.2-.6-.3-1.2-.4-2-.4-2.4 0-4 1.5-4 3.8 0 1.6 1 3 3.5 4.4l1.6 1c1 .4 1.7 1.2 1.7 2 0 1.4-1 2.4-2.5 2.4-2 0-3.2-1.4-3.8-4.3h-.5v4.7h.3c.2-.3.4-.3.7-.3l1.4.2c.7.2 1.6.2 2.2.2 2.3 0 4.2-1.7 4.2-3.7 0-1.7-.7-2.6-2.6-3.7l-3-2zM449.4 818c-.5.4-.8.5-1.3.5s-.8-.6-.8-2v-5.7c0-1.8-.2-2.5-1-3.3-.6-1-1.7-1.4-3.4-1.4-1.4 0-2.6.5-3.5 1-1 .7-1.5 1.6-1.5 2.4 0 .8.7 1.4 1.3 1.4 1 0 1.5-.7 1.5-1.2 0-.7-.2-.8-.2-1.3 0-.8 1-1.5 2-1.5 1.4 0 2.4 1 2.4 2.7v1.7c-3.4 1.2-4.5 1.8-5.4 2.4-1 .8-2 2-2 3.5 0 2 1.2 3.2 3 3.2 1.4 0 2.8-.4 4.4-2.2.2 1.6 1 2.2 2 2.2s1.8-.3 2.7-1.4v-1zm-4.7-2c0 1-.2 1.4-1 2-.5.3-1.2.5-1.8.5-1.2 0-2-.7-2-2.3 0-1 .2-1.7 1-2.3.6-.8 2-1.5 3.7-2v4zM464 820v-.5c-1.5-.2-2-.5-2-2v-6.8c0-3-1-4.6-3.4-4.6-1.4 0-2.8.8-4.3 2.5v-2.3h-.3l-4 1.3v.5h.8c.8 0 1 .3 1 1.8v7.3c0 2-.3 2.3-1.8 2.5v.4h6.3v-.5c-1.5-.2-2-.6-2-1.7v-8.3c1.4-1.4 2-1.7 3-1.7 1.6 0 2.3 1 2.3 3v6c0 2-.3 2.5-1.8 2.7v.4h6.2zM479 818.7v-.5h-.5c-1 0-1.4-.3-1.4-1.7v-17l-4.4 1.2v.5h.6c1 0 1.4.3 1.4 1.5v4.7c-1-1-2-1.3-3-1.3-3.6 0-6.4 3.5-6.4 7.8 0 3.8 2.2 6.4 5.6 6.4 1.7 0 2.8-.6 3.8-2v2l4.5-1.5zm-4.4-1.8l-.4.7c-.6.6-1.3 1-2.3 1-2.6 0-4.2-2.4-4.2-6 0-3.5 1.5-5.7 3.8-5.7 1.6 0 3 1.4 3 3v7zM490 806.4v1h2.6v9.4c0 2.2-.3 2.5-2.5 2.7v.4h8v-.5c-2.6 0-3-.5-3-2.7v-9.4h3.8v-1H495V803c0-1.8.6-2.7 1.8-2.7.6 0 1 .3 1.6 1 .5 1 .8 1.2 1.3 1.2.7 0 1.3-.5 1.3-1.2 0-1-1.3-2-3-2-2 0-3.6 1-4.4 2.3-.7 1.3-1 2.4-1 4.8H490z" style="-inkscape-font-specification:STIX;text-align:justify"/><path d="M512.7 813c0-4.2-2.8-7-6.5-7-4 0-6.8 3-6.8 7 0 4.2 3 7.2 6.5 7.2 4 0 6.7-3 6.7-7.2zm-2.7.8c0 3.5-1.3 5.6-3.6 5.6-1 0-2-.6-2.7-1.5-1-1.7-1.6-4-1.6-6.3 0-3 1.6-4.7 3.6-4.7 1.3 0 2.2.6 3 1.5.8 1.2 1.4 3.3 1.4 5.3zM528 818.4h-.2c-1.4 0-1.7-.3-1.7-1.7v-10.3h-4.7v.5c1.8 0 2.3.3 2.3 2v6.8c0 1-.2 1.3-.7 1.7-1 .7-1.8 1-2.6 1-1.2 0-2.2-1-2.2-2.4v-9.6h-4.4v.4c1.5 0 2 .5 2 2v7.6c0 2.3 1.3 3.8 3.6 3.8 1 0 2.8-.6 4.3-2.6v2.5l.2.2c1.4-.6 2.4-1 4-1.4v-.4zM543 820v-.5c-1.3-.2-1.7-.5-1.7-2v-6.8c0-3-1.3-4.6-3.5-4.6-1.4 0-2.8.8-4.4 2.5v-2.3h-.2l-4 1.3v.5h.7c.8 0 1 .3 1 1.8v7.3c0 2-.4 2.3-2 2.5v.4h6.4v-.5c-1.5-.2-2-.6-2-1.7v-8.3c1.5-1.4 2.2-1.7 3.2-1.7 1.5 0 2.2 1 2.2 3v6c0 2-.4 2.5-2 2.7v.4h6.3zM558.3 818.7v-.5h-.7c-1 0-1.3-.3-1.3-1.7v-17h-.2l-4.3 1.2v.5h.7c1 0 1.4.3 1.4 1.5v4.7c-1.2-1-2-1.3-3.2-1.3-3.4 0-6.2 3.5-6.2 7.8 0 3.8 2.2 6.4 5.5 6.4 1.6 0 2.8-.6 3.8-2v2l4.5-1.5zm-4.5-1.8l-.5.7c-.5.6-1.3 1-2.2 1-2.4 0-4-2.4-4-6 0-3.5 1.4-5.7 3.7-5.7 1.6 0 3 1.4 3 3v7zM570.8 815c-1.5 2.2-2.6 3-4.6 3-1.4 0-2.5-.4-3.3-1.5-1.2-1.4-1.4-2.6-1.5-5h9.2c0-1.5-.4-2.5-1-3.3-1-1.4-2.3-2-4.2-2-3.7 0-6.2 3-6.2 7.2 0 4 2.2 6.8 5.7 6.8 3 0 5-1.7 6.3-5l-.5-.2zm-9.3-4.4c.4-2.2 1.5-3.4 3.2-3.4 2 0 2.6 1 3 3.4h-6.2zM586.6 818.7v-.5h-.7c-1.2 0-1.4-.3-1.4-1.7v-17h-.2l-4.4 1.2v.5h.7c1 0 1.4.3 1.4 1.5v4.7c-1-1-2-1.3-3-1.3-3.5 0-6.3 3.5-6.3 7.8 0 3.8 2.2 6.4 5.5 6.4 1.7 0 3-.6 4-2v2l4.4-1.5zM582 817s0 .4-.4.7c-.5.6-1.3 1-2.2 1-2.5 0-4-2.4-4-6 0-3.5 1.3-5.7 3.6-5.7 1.6 0 3 1.4 3 3v7zM605 817.6c-.7.8-1.2 1-2 1-1 0-1.4-.7-1.4-2.6v-8.6h3v-1h-3V803c0-.4 0-.5-.2-.5-.2.3-.5.6-.6 1-1.2 1.5-2.2 2.6-3 3-.3.3-.5.5-.5.7l.2.2h1.6v9c0 2.5 1 3.8 2.7 3.8 1.5 0 2.6-.7 3.6-2.3l-.4-.4zM620 820v-.5c-1.5-.3-1.7-.6-1.7-2.6v-6c0-3.3-1.2-5-3.7-5-1.7 0-3 .8-4.4 2.6v-9.2l-3.6 1-.8.3v.5h.4c1.3 0 1.5.2 1.5 1.5V817c0 2-.2 2.2-2 2.5v.4h6.6v-.5c-1.8-.2-2-.6-2-2.6v-7.4c1.2-1.4 2-2 3.3-2 1.4 0 2.2 1.2 2.2 3.3v6c0 2-.3 2.3-2 2.5v.4h6.3zM632.7 815c-1.4 2.2-2.6 3-4.6 3-1.3 0-2.4-.4-3.2-1.5-1-1.4-1.2-2.6-1.4-5h9.3c-.2-1.5-.5-2.5-1-3.3-1-1.4-2.4-2-4.2-2-3.8 0-6.2 3-6.2 7.2 0 4 2 6.8 5.7 6.8 3 0 5-1.7 6.2-5l-.5-.2zm-9.2-4.4c.3-2.2 1.5-3.4 3.2-3.4 2 0 2.6 1 3 3.4h-6.2zM663.7 820v-.7c-1.3 0-2-.3-2.8-1.4l-6-7.7c3.6-.5 5.3-2.3 5.3-5 0-1.2-.5-2.7-1.5-3.5-1.3-1-3.4-1.7-6.2-1.7h-8.2v.6c2.3.2 2.5.6 2.5 2.8v12.8c0 2.6-.4 3-2.6 3v.7h8.3v-.7c-2.3 0-2.7-.5-2.7-2.7v-6h1.7l7 9.3h5zM650 802.3c0-1 .5-1.2 1.5-1.2 3.8 0 5.5 1.3 5.5 4 0 1.5-.6 2.8-1.7 3.4-1.4.8-2.4 1-5.3 1v-7.2zM678 818.4h-.3c-1.3 0-1.7-.3-1.7-1.7v-10.3h-4.7v.5c1.8 0 2.2.3 2.2 2v6.8c0 1-.2 1.3-.7 1.7-.7.7-1.6 1-2.5 1-1.2 0-2-1-2-2.4v-9.6h-4.5v.4c1.4 0 1.8.5 1.8 2v7.6c0 2.3 1.4 3.8 3.7 3.8 1 0 2.8-.6 4.3-2.6v2.5l.2.2 4-1.4v-.4zM683.2 811c-.8-.6-1.3-1.5-1.3-2.2 0-1.4 1-2 2.2-2 1.8 0 2.7 1 3.3 3.7h.5l-.2-4h-.3c-.2.2-.3.2-.5.2s-.5 0-.8-.2c-.6-.3-1.3-.4-2-.4-2.5 0-4.2 1.5-4.2 3.8 0 1.6 1.2 3 3.6 4.4l1.7 1c1 .4 1.6 1.2 1.6 2 0 1.4-1 2.4-2.6 2.4-2 0-3.2-1.4-3.8-4.3h-.5v4.7h.5c0-.3.3-.3.7-.3l1.4.2c.7.2 1.5.2 2.2.2 2.2 0 4.2-1.7 4.2-3.7 0-1.7-.8-2.6-2.7-3.7l-3-2zM705 811c-1-.6-1.4-1.5-1.4-2.2 0-1.4 1-2 2.3-2 1.7 0 2.6 1 3.3 3.7h.4v-4h-.4l-.5.2-1-.2c-.5-.3-1.2-.4-2-.4-2.3 0-4 1.5-4 3.8 0 1.6 1 3 3.6 4.4l1.6 1c1 .4 1.6 1.2 1.6 2 0 1.4-1 2.4-2.5 2.4-2 0-3-1.4-3.7-4.3h-.5v4.7h.4c.2-.3.4-.3.7-.3l1.3.2c.7.2 1.6.2 2.2.2 2.3 0 4.2-1.7 4.2-3.7 0-1.7-.7-2.6-2.6-3.7l-3-2zM719.7 817.6c-.7.8-1.2 1-1.8 1-1.3 0-1.7-.7-1.7-2.6v-8.6h3v-1h-3V803c0-.4 0-.5-.2-.5 0 .3-.3.6-.5 1-1.2 1.5-2 2.6-3 3-.3.3-.4.5-.4.7l.2.2h1.6v9c0 2.5 1 3.8 2.6 3.8 1.5 0 2.7-.7 3.6-2.3l-.3-.4zM733.6 818c-.6.4-1 .5-1.3.5-.6 0-1-.6-1-2v-5.7c0-1.8 0-2.5-.8-3.3-.7-1-2-1.4-3.5-1.4-1.4 0-2.7.5-3.5 1-1 .7-1.5 1.6-1.5 2.4 0 .8.6 1.4 1.3 1.4.7 0 1.3-.7 1.3-1.2v-1.3c0-.8.8-1.5 2-1.5 1.3 0 2.3 1 2.3 2.7v1.7c-3.5 1.2-4.6 1.8-5.5 2.4-1.2.8-2 2-2 3.5 0 2 1.2 3.2 3 3.2 1.3 0 2.8-.4 4.4-2.2 0 1.6.7 2.2 2 2.2 1 0 1.7-.3 2.6-1.4v-1zm-4.7-2c0 1-.3 1.4-1 2-.7.3-1.3.5-2 .5-1 0-2-.7-2-2.3 0-1 .3-1.7 1-2.3.8-.8 2-1.5 4-2v4zM741.6 817.6c-.7.8-1.2 1-1.8 1-1 0-1.6-.7-1.6-2.6v-8.6h3v-1h-3V803c0-.4 0-.5-.2-.5l-.6 1c-1 1.5-2 2.6-3 3l-.4.7v.2h1.7v9c0 2.5 1 3.8 2.6 3.8 1.5 0 2.7-.7 3.7-2.3l-.4-.4zM754.2 815c-1.5 2.2-2.7 3-4.7 3-1.3 0-2.5-.4-3.3-1.5-1-1.4-1.2-2.6-1.4-5h9.3c0-1.5-.4-2.5-1-3.3-1-1.4-2.3-2-4-2-4 0-6.3 3-6.3 7.2 0 4 2 6.8 5.7 6.8 3 0 5-1.7 6.2-5l-.4-.2zm-9.3-4.4c.2-2.2 1.4-3.4 3-3.4 2 0 2.7 1 3 3.4h-6zM760.6 818.6c0-1-.7-1.7-1.6-1.7-1 0-1.7.7-1.7 1.6 0 1 .7 1.6 1.7 1.6s1.6-.7 1.6-1.6zM87.6 857.4v-.6c-1.3 0-2-.3-2.8-1.4l-6-7.6c3.7-.5 5.4-2.3 5.4-5 0-1.2-.5-2.7-1.5-3.5-1.3-1-3.4-1.7-6.2-1.7h-8.2v.5c2.3.3 2.6.7 2.6 3v12.7c0 2.6-.4 3-2.7 3v.7h8.3v-.6c-2.3 0-2.7-.5-2.7-2.7v-5.8h1.6l7 9.2h5zM74 840c0-1 .4-1.3 1.4-1.3 3.8 0 5.5 1.3 5.5 4 0 1.5-.7 2.8-1.8 3.4-1.4 1-2.4 1-5.3 1v-7zM101.8 856h-.2c-1.3 0-1.7-.4-1.7-1.8V844H95v.4c1.8 0 2.2.4 2.2 2v7c0 1-.2 1.2-.7 1.6-.7.7-1.6 1-2.5 1-1.2 0-2-1-2-2.4V844h-4.5v.3c1.4 0 2 .5 2 2v7.6c0 2.2 1.2 3.7 3.5 3.7 1 0 2.8-.6 4.3-2.6v2.6h.2l4-1.3v-.4zM107.2 843.7l-4.6 1.5v.5h1c.8 0 1 .4 1 1.7v7.5c0 1.4 0 1.6-2 2v.4h7.2v-.4c-2 0-2.6-.6-2.6-2.3V848c0-1 1.3-2.5 2-2.5.3 0 .6.2 1 .5.4.4.7.6 1 .6.8 0 1.3-.6 1.3-1.4 0-1-.7-1.6-1.7-1.6-1.2 0-2 .7-3.6 2.8v-2.7zM118.4 838.5c0-1-.6-1.6-1.5-1.6-1 0-1.6.6-1.6 1.5 0 .8.6 1.5 1.5 1.5.8 0 1.4-.7 1.4-1.5zm2.2 19v-.5c-2-.2-2.2-.5-2.2-2.7v-10.6l-4.8 1.6v.4h1.3c.6 0 1 .4 1 1.8v6.8c0 2.3-.4 2.5-2.5 2.7v.4h7zM136.5 857.4v-.4c-1.3 0-2.3-.7-3.5-2.2l-4.6-5.8 1-1c3.6-3.3 4.4-3.6 6.4-3.6v-.5h-6.2v.3c1.2 0 1.5.2 1.5.6 0 0 0 .5-.6 1l-4 3.6V837h-.2l-3.7 1-1 .2v.5h1c1 0 1.3.4 1.3 1.8V855c0 1.5 0 1.6-2.2 2v.4h7v-.4h-.6c-1.2 0-1.7-.5-1.7-1.6V850l4.5 5.8c.3.3.4.6.4.7 0 .3-.3.5-.7.5h-.5v.4h6.5zM139 861.6c2-1 3.4-2.8 3.4-4.6 0-1.6-1-2.6-2.4-2.6-1 0-1.8.6-1.8 1.7 0 1 .6 1.6 1.7 1.6h.8c.2 0 .4 0 .4.3 0 1-.8 2-2.5 3l.3.6zM165 855c-.8 1-1.3 1.2-2 1.2-1 0-1.5-.8-1.5-2.7V845h3v-1h-3v-3.6c0-.3 0-.4-.2-.4l-.6 1c-1 1.5-2 2.6-3 3l-.4.7v.2h1.7v9c0 2.4 1 3.7 2.6 3.7 1.5 0 2.7-.7 3.7-2.3l-.4-.3zM180 857.4v-.4c-1.6-.3-1.8-.6-1.8-2.6v-6c0-3.2-1.2-4.8-3.6-4.8-1.8 0-3 .7-4.5 2.5v-9l-3.5 1-.8.2v.5h.4c1.4 0 1.6.2 1.6 1.5v14.2c0 2-.2 2.3-2 2.6v.4h6.6v-.4c-1.8-.2-2-.6-2-2.6V847c1.2-1.3 2-1.8 3.3-1.8 1.5 0 2.2 1 2.2 3.2v6c0 2-.3 2.4-2 2.6v.4h6.3zM192.7 852.5c-1.5 2.2-2.6 3-4.6 3-1.3 0-2.4-.4-3.3-1.5-1-1.4-1.2-2.6-1.4-5h9.3c0-1.5-.4-2.5-1-3.3-1-1.4-2.3-2-4.2-2-3.8 0-6.2 3-6.2 7.2 0 4 2 6.7 5.7 6.7 3 0 5-1.7 6.2-5l-.5-.2zm-9.3-4.4c.3-2 1.5-3.3 3.2-3.3 2 0 2.6 1 3 3.4h-6.2zM199 838.5c0-1-.5-1.6-1.4-1.6-.8 0-1.5.6-1.5 1.5 0 .8.7 1.5 1.6 1.5 1 0 1.5-.7 1.5-1.5zm2.3 19v-.5c-2-.2-2.2-.5-2.2-2.7v-10.6l-4.7 1.6v.4h1.3c.7 0 1 .4 1 1.8v6.8c0 2.3-.3 2.5-2.4 2.7v.4h7zM207 843.7h-.3l-4.4 1.5v.5h1c.8 0 1 .4 1 1.7v7.5c0 1.4-.2 1.6-2 2v.4h7v-.4c-2 0-2.4-.6-2.4-2.3V848c0-1 1-2.5 2-2.5l.7.5c.5.4.8.6 1.2.6.7 0 1-.6 1-1.4 0-1-.5-1.6-1.5-1.6-1.3 0-2 .7-3.6 2.8v-2.7zM240.6 857.4v-.4c-1.5-.2-2-.6-2-2.6v-7.7-3l-3.5.2h-4.5v-1.4c0-2 0-3 1-4 .4-.6 1.3-1 2-1 2 0 2.5 2.6 3.7 2.6.8 0 1-.5 1-1.2 0-1.3-1.3-2-3.7-2-1.8 0-3.3.4-4.4 1.3-1.5 1.5-1.7 2.8-2 5.6h-2v1h2v9.5c0 2-.4 2.4-2 2.5v.4h6.5v-.4c-1.7-.2-2-.6-2-2.3V845h2.5c2.8 0 3 0 3 1.6v7.8c0 2 0 2.4-2 2.6v.4h6.6zM246.5 843.7h-.2c-1.5.5-2.6 1-4.4 1.5v.5h1c.7 0 1 .4 1 1.7v7.5c0 1.4-.2 1.6-2.2 2v.4h7.2v-.4c-2 0-2.5-.6-2.5-2.3V848c0-1 1.3-2.5 2-2.5.3 0 .5.2 1 .5.4.4.7.6 1 .6.8 0 1.2-.6 1.2-1.4 0-1-.6-1.6-1.6-1.6-1.2 0-2 .7-3.5 2.8v-2.7zM256.4 848.4c-.8-.5-1.3-1.4-1.3-2 0-1.5 1-2 2.4-2 1.8 0 2.7 1 3.3 3.6h.5l-.2-4h-.3c-.2.2-.3.2-.5.2s-.5 0-.8-.2c-.6-.3-1.3-.4-2-.4-2.5 0-4.2 1.4-4.2 3.7 0 1.6 1.2 3 3.6 4.4l1.7 1c1 .4 1.6 1.2 1.6 2 0 1.4-1 2.4-2.4 2.4-2 0-3.2-1.3-3.8-4.2h-.5v4.7h.4c0-.3.3-.3.7-.3l1.4.2c.7.3 1.5.3 2.2.3 2.2 0 4.2-1.7 4.2-3.7 0-1.7-.8-2.6-2.7-3.7l-3-2zM271 855c-.5 1-1 1.2-1.7 1.2-1 0-1.5-.8-1.5-2.7V845h3v-1h-3v-3.6c0-.3 0-.4-.3-.4 0 .3-.4.6-.6 1-1.2 1.5-2.2 2.6-3 3-.3.3-.5.5-.5.7v.2h1.7v9c0 2.4 1 3.7 2.7 3.7 1.4 0 2.5-.7 3.5-2.3l-.4-.3zM299.5 857.4v-.4c-1.4 0-2.3-.7-3.5-2.2l-4.6-5.8.8-1c3.7-3.3 4.6-3.6 6.5-3.6v-.5h-6v.3c1 0 1.4.2 1.4.6l-.6 1-4 3.6V837h-.2l-3.8 1-1 .2v.5h1c1 0 1.4.4 1.4 1.8V855c0 1.5 0 1.6-2.3 2v.4h7v-.4h-.6c-1.3 0-1.7-.5-1.7-1.6V850l4.5 5.8.3.7c0 .3 0 .5-.5.5h-.6v.4h6.5zM304.7 838.5c0-1-.6-1.6-1.5-1.6-1 0-1.5.6-1.5 1.5 0 .8.6 1.5 1.5 1.5 1 0 1.5-.7 1.5-1.5zm2.2 19v-.5c-2-.2-2.3-.5-2.3-2.7v-10.6l-4.8 1.6v.4h1.2c.7 0 1 .4 1 1.8v6.8c0 2.3-.3 2.5-2.4 2.7v.4h7zM322.2 857.4v-.4c-1.5-.2-1.8-.5-1.8-2V848c0-3-1.3-4.6-3.6-4.6-1.4 0-2.7.7-4.3 2.4v-2.3h-.3l-4 1.3v.5h.8c.8 0 1 .3 1 1.8v7.3c0 1.8-.3 2.2-1.8 2.4v.4h6.3v-.4c-1.5-.2-2-.6-2-1.7V847c1.4-1.4 2.2-1.7 3-1.7 1.6 0 2.3 1 2.3 3v6c0 2-.3 2.5-1.8 2.7v.4h6.2zM336.7 845.8v-1.2h-2.3c-.6 0-1 0-1.6-.3l-.7-.2c-.7-.2-1.5-.4-2.3-.4-2.8 0-5 2.2-5 5 0 1.8.8 3 2.8 4l-1.3 1c-1 1-1.4 1.6-1.4 2.2 0 .7.4 1 1.6 1.6-2 1.5-3 2.5-3 3.6 0 1.6 2.4 3 5.3 3 2 0 4.4-.8 6-2 1.2-1 1.8-2 1.8-3 0-2-1.4-3.2-3.7-3.3l-3.8-.2c-1.7 0-2.4-.3-2.4-.8 0-.6 1-1.7 1.8-2l.6.2h1c1.2 0 2.3-.5 3.3-1.2 1-.8 1.5-2 1.5-3.5 0-1 0-1.6-.6-2.5h2.5zm-9.5 1.5c0-1.8.8-2.8 2.2-2.8 1 0 1.7.5 2.2 1.4.6 1 1 2.3 1 3.5 0 1.6-1 2.7-2.3 2.7-2 0-3-2-3-4.8zm8.4 12c0 1.8-2.3 3-5.7 3-2.7 0-4.4-1-4.4-2.2 0-.6.2-1 1.4-2.5 1 .2 3.4.4 5 .4 2.6 0 3.6.2 3.6 1.3zM340 861.6c2.2-1 3.5-2.8 3.5-4.6 0-1.6-1-2.6-2.4-2.6-1 0-1.7.6-1.7 1.7 0 1 .6 1.6 1.7 1.6h1s.3 0 .3.3c0 1-.8 2-2.5 3l.3.6zM362.8 843.7h-.2c-1.5.5-2.6 1-4.4 1.5v.5h1c.8 0 1 .4 1 1.7v7.5c0 1.4 0 1.6-2 2v.4h7v-.4c-2 0-2.4-.6-2.4-2.3V848c0-1 1.3-2.5 2-2.5.3 0 .5.2 1 .5.4.4.7.6 1 .6.8 0 1.2-.6 1.2-1.4 0-1-.6-1.6-1.6-1.6-1.3 0-2 .7-3.6 2.8v-2.7zM383 856c-1.4 0-1.8-.4-1.8-1.8V844h-4.7v.4c1.8 0 2.2.4 2.2 2v7c0 1-.2 1.2-.7 1.6-.7.7-1.6 1-2.5 1-1.2 0-2-1-2-2.4V844H369v.3c1.4 0 1.8.5 1.8 2v7.6c0 2.2 1.4 3.7 3.7 3.7 1 0 2.8-.6 4.3-2.6v2.6h.2l4-1.3v-.4zM391.4 857.4v-.4c-2-.2-2.2-.5-2.2-2.2V837h-.2l-4.7 1.2v.5h1c1 0 1.4.4 1.4 2v14c0 1.6-.5 2-2.4 2.3v.4h7zM404.3 852.5c-1.5 2.2-2.6 3-4.6 3-1.4 0-2.5-.4-3.4-1.5-1-1.4-1.2-2.6-1.4-5h9.2c0-1.5-.4-2.5-1-3.3-1-1.4-2.3-2-4.2-2-3.8 0-6.2 3-6.2 7.2 0 4 2 6.7 5.7 6.7 3 0 5-1.7 6.3-5l-.5-.2zM395 848c.3-2 1.5-3.3 3.2-3.3 2 0 2.6 1 3 3.4H395zM420 856.2v-.5h-.6c-1 0-1.3-.3-1.3-1.7v-17l-4.5 1.2v.5h.7c1 0 1.3.3 1.3 1.5v4.7c-1-1-2-1.4-3-1.4-3.6 0-6.4 3.4-6.4 7.7 0 3.8 2.4 6.4 5.7 6.4 1.7 0 2.8-.6 3.8-2v2h.2l4.4-1.5zm-4.5-1.8c0 .2 0 .5-.4.8-.5.6-1.2 1-2 1-2.7 0-4.3-2.4-4.3-6 0-3.5 1.5-5.7 3.8-5.7 1.6 0 3 1.4 3 3v7zM433.8 844v1h2.5v9.3c0 2.2-.3 2.5-2.5 2.7v.4h7.8v-.4c-2.5 0-2.8-.5-2.8-2.7V845h3.7v-1h-3.7v-3.6c0-1.7.5-2.6 1.7-2.6.6 0 1 .3 1.6 1 .6 1 1 1.2 1.4 1.2.7 0 1.3-.5 1.3-1.2 0-1-1.3-2-3-2-2 0-3.6 1-4.4 2.3-.7 1.4-1 2.5-1 5h-2.5z" style="-inkscape-font-specification:STIX;text-align:justify"/><path d="M448 843.7l-4.6 1.5v.5h1c.8 0 1 .4 1 1.7v7.5c0 1.4 0 1.6-2 2v.4h7.2v-.4c-2 0-2.6-.6-2.6-2.3V848c0-1 1.3-2.5 2-2.5.3 0 .6.2 1 .5.4.4.7.6 1 .6.8 0 1.3-.6 1.3-1.4 0-1-.7-1.6-1.7-1.6-1.2 0-2 .7-3.6 2.8v-2.7zM467.2 850.5c0-4.2-3-7-6.5-7-4 0-6.8 3-6.8 7 0 4.2 2.8 7.2 6.4 7.2 4 0 6.8-3 6.8-7.2zm-2.7.8c0 3.5-1.4 5.6-3.6 5.6-1.2 0-2-.7-2.8-1.6-1-1.6-1.6-3.8-1.6-6.2 0-3 1.4-4.7 3.5-4.7 1.4 0 2.2.6 3 1.5 1 1.2 1.5 3.3 1.5 5.3zM491.3 857.4v-.4h-.8c-1-.2-1.3-.5-1.3-2v-6c0-3.5-1-5.4-3.4-5.4-1.8 0-3.3.8-5 2.5-.5-1.6-1.5-2.4-3-2.4s-2.7.3-4.7 2.3v-2.3h-.2l-4.2 1.3v.5h1c.8 0 1 .4 1 1.8v7.5c0 1.7-.4 2-2 2.2v.4h6.6v-.4c-1.6 0-2-.4-2-1.7V847s0-.3.3-.5c.6-.8 2-1.3 3.2-1.3 1.3 0 2 1.2 2 3.3v6.3c0 2-.4 2-2 2.2v.4h6.7v-.4c-1.8 0-2.2-.5-2.2-2.4V847c1-1.3 1.8-1.8 3.2-1.8 1.7 0 2.3 1 2.3 3.3v6.2c0 1.8-.3 2-2 2.3v.4h6.6zM525.4 857.4v-.6c-1.5 0-2-.8-2.8-2.7l-7.4-16.8h-.6l-6 14.6c-2 4.2-2.2 5-4 5v.6h6v-.6c-1.4 0-2-.3-2-1.2 0-.3 0-1 .2-1.2l1.4-3.5h8l1 2.8c.5.8.7 1.6.7 2 0 .3-.3.7-.6.8-.3.2-.5.2-1.6.2v.6h7.6zm-7.8-7.7h-7l3.6-8.2 3.4 8.2zM533.6 857.4v-.4c-2-.2-2.2-.5-2.2-2.2V837h-.2l-4.7 1.2v.5h1c1 0 1.4.4 1.4 2v14c0 1.6-.6 2-2.5 2.3v.4h7zM549 856.2v-.5h-.7c-1 0-1.3-.3-1.3-1.7v-17h-.2l-4.4 1.2v.5h.7c1.2 0 1.4.3 1.4 1.5v4.7c-1-1-2-1.4-3-1.4-3.6 0-6.4 3.4-6.4 7.7 0 3.8 2.3 6.4 5.6 6.4 1.7 0 2.8-.6 3.8-2v2h.2l4.4-1.5zm-4.6-1.8c0 .2 0 .5-.4.8-.6.6-1.3 1-2.2 1-2.6 0-4.2-2.4-4.2-6 0-3.5 1.5-5.7 3.8-5.7 1.6 0 3 1.4 3 3v7zM561.5 852.5c-1.5 2.2-2.6 3-4.6 3-1.5 0-2.6-.4-3.5-1.5-1-1.4-1.2-2.6-1.4-5h9.4c0-1.5-.4-2.5-1-3.3-1-1.4-2.3-2-4.2-2-3.8 0-6.2 3-6.2 7.2 0 4 2 6.7 5.7 6.7 3 0 5-1.7 6.3-5l-.5-.2zm-9.3-4.4c.3-2 1.5-3.3 3.2-3.3 2 0 2.6 1 3 3.4H552zM568 838.5c0-1-.7-1.6-1.6-1.6-.8 0-1.5.6-1.5 1.5 0 .8.5 1.5 1.4 1.5 1 0 1.5-.7 1.5-1.5zm2 19v-.5c-2-.2-2-.5-2-2.7v-10.6h-.2l-4.7 1.6v.4h1.4c.7 0 1 .4 1 1.8v6.8c0 2.3-.3 2.5-2.4 2.7v.4h7zM585 845.8v-1.2h-2.4c-.6 0-1 0-1.6-.3l-.7-.2c-.8-.2-1.6-.4-2.4-.4-3 0-5 2.2-5 5 0 1.8.7 3 2.7 4l-1.3 1c-1 1-1.4 1.6-1.4 2.2 0 .7.4 1 1.6 1.6-2 1.5-3 2.5-3 3.6 0 1.6 2.4 3 5.3 3 2 0 4.3-.8 6-2 1-1 1.7-2 1.7-3 0-2-1.4-3.2-3.6-3.3l-3.8-.2c-1.6 0-2.4-.3-2.4-.8 0-.6 1-1.7 1.8-2l.6.2h1.2c1 0 2-.5 3-1.2 1.2-.8 1.6-2 1.6-3.5 0-1 0-1.6-.5-2.5h2.5zm-9.6 1.5c0-1.8 1-2.8 2.2-2.8 1 0 1.7.5 2.2 1.4.6 1 1 2.3 1 3.5 0 1.6-1 2.7-2.3 2.7-2 0-3-2-3-4.8zm8.4 12c0 1.8-2.2 3-5.7 3-2.5 0-4.2-1-4.2-2.2 0-.6.3-1 1.5-2.5 1 .2 3.4.4 4.8.4 3 0 3.8.2 3.8 1.3z" style="-inkscape-font-specification:STIX;text-align:justify"/><path d="M591.7 838.5c0-1-.7-1.6-1.6-1.6-.7 0-1.4.6-1.4 1.5 0 .8.7 1.5 1.5 1.5 1 0 1.7-.7 1.7-1.5zm0 5.2h-.2l-4.7 1.5v.5h1.4c.7 0 1 .4 1 1.7v11.4c0 2.2-.2 3-.5 3.6-.2.3-.6.5-1 .5-.5 0-.8-.3-1.3-1-.5-.6-1-1-1.4-1-.7 0-1.2.6-1.2 1.3 0 1 1 1.7 2.7 1.7 3.4 0 5-2.3 5-6.6v-13.7zM608.6 856h-.2c-1.4 0-1.7-.4-1.7-1.8V844H602v.4c1.7 0 2.2.4 2.2 2v7c0 1-.2 1.2-.7 1.6-.8.7-1.7 1-2.5 1-1.2 0-2.2-1-2.2-2.4V844h-4.4v.3c1.5 0 2 .5 2 2v7.6c0 2.2 1.3 3.7 3.6 3.7 1 0 2.8-.6 4.3-2.6v2.6h.2l4-1.3v-.4zM613.8 837h-.2l-3.4 1-1 .2v.6h.6c1.2 0 1.4 0 1.4 1.6v15.3c0 1 2.6 2 5 2 4 0 7-3 7-7.5 0-3.7-2.2-6.6-5.4-6.6-1.8 0-3.4 1-4 2.5v-9zm0 11c0-1.4 1.3-2.5 3-2.5 1 0 2 .5 2.6 1.4.8 1 1.2 2.7 1.2 4.5 0 1.7-.4 3-1 4-.8.8-1.8 1.3-3 1.3-1.5 0-2.8-.6-2.8-1.6V848zM638.3 850.5c0-4.2-2.8-7-6.5-7-4 0-6.8 3-6.8 7 0 4.2 3 7.2 6.5 7.2 4 0 6.8-3 6.8-7.2zm-2.7.8c0 3.5-1.3 5.6-3.6 5.6-1 0-2-.7-2.7-1.6-1-1.6-1.6-3.8-1.6-6.2 0-3 1.5-4.7 3.5-4.7 1.3 0 2.2.6 3 1.5.8 1.2 1.4 3.3 1.4 5.3zM644 843.7h-.2c-1.6.5-2.6 1-4.4 1.5v.5h1c.8 0 1 .4 1 1.7v7.5c0 1.4-.2 1.6-2 2v.4h7v-.4c-2 0-2.4-.6-2.4-2.3V848c0-1 1.2-2.5 2-2.5.3 0 .5.2 1 .5.3.4.7.6 1 .6.8 0 1.2-.6 1.2-1.4 0-1-.6-1.6-1.6-1.6-1.3 0-2 .7-3.6 2.8v-2.7zM662.8 845.8v-1.2h-2.3c-.6 0-1 0-1.6-.3l-.8-.2c-.8-.2-1.6-.4-2.4-.4-2.8 0-5 2.2-5 5 0 1.8.8 3 2.8 4l-1.3 1c-1 1-1.4 1.6-1.4 2.2 0 .7.2 1 1.5 1.6-2.2 1.5-3 2.5-3 3.6 0 1.6 2.4 3 5.3 3 2 0 4.4-.8 6-2 1.2-1 1.8-2 1.8-3 0-2-1.5-3.2-3.7-3.3l-4-.2c-1.6 0-2.3-.3-2.3-.8 0-.6 1-1.7 1.8-2l.6.2h1.2c1 0 2.2-.5 3-1.2 1.2-.8 1.7-2 1.7-3.5 0-1-.2-1.6-.7-2.5h2.5zm-9.5 1.5c0-1.8.8-2.8 2.2-2.8 1 0 1.7.5 2.2 1.4.6 1 1 2.3 1 3.5 0 1.6-1 2.7-2.3 2.7-2 0-3-2-3-4.8zm8.4 12c0 1.8-2.3 3-5.7 3-2.6 0-4.3-1-4.3-2.2 0-.6.2-1 1.4-2.5 1.2.2 3.5.4 5 .4 2.7 0 3.7.2 3.7 1.3zM669.2 856c0-.8-.8-1.6-1.7-1.6-1 0-1.7.8-1.7 1.7 0 1 .7 1.7 1.7 1.7s1.7-.7 1.7-1.6zM705.2 857.4v-.6c-2.3 0-2.7-.6-2.7-2.7v-13c0-2.3.4-2.7 2.7-3v-.4h-8.4v.5c2.2.3 2.6.6 2.6 3v5.6h-9V841c0-2.4.4-2.7 2.6-3v-.4h-8.4v.5c2.3.3 2.7.6 2.7 3v12.8c0 2.5-.3 3-2.7 3v.6h8.4v-.6c-2.3 0-2.7-.6-2.7-2.8v-6h9v5.7c0 2.5-.2 3-2.5 3v.7h8.4zM718 852.5c-1.5 2.2-2.6 3-4.6 3-1.4 0-2.5-.4-3.4-1.5-1-1.4-1.2-2.6-1.3-5h9.2c-.2-1.5-.5-2.5-1-3.3-1-1.4-2.4-2-4.3-2-3.8 0-6.2 3-6.2 7.2 0 4 2.2 6.7 5.7 6.7 3 0 5-1.7 6.3-5l-.5-.2zm-9.3-4.4c.4-2 1.5-3.3 3.2-3.3 2 0 2.5 1 2.8 3.4h-6zM726.8 857.4v-.4c-2-.2-2.3-.5-2.3-2.2V837l-5 1.2v.5h1.2c1 0 1.3.4 1.3 2v14c0 1.6-.4 2-2.3 2.3v.4h7zM741.5 845.8v-1.2h-2.3c-.6 0-1 0-1.7-.3l-.6-.2c-1-.2-1.8-.4-2.5-.4-2.8 0-5 2.2-5 5 0 1.8.7 3 2.7 4l-1.2 1c-1 1-1.4 1.6-1.4 2.2 0 .7.3 1 1.6 1.6-2.2 1.5-3 2.5-3 3.6 0 1.6 2.3 3 5.2 3 2.2 0 4.5-.8 6-2 1.2-1 1.8-2 1.8-3 0-2-1.4-3.2-3.6-3.3l-4-.2c-1.5 0-2.2-.3-2.2-.8 0-.6 1-1.7 1.8-2l.5.2h1.2c1 0 2-.5 3-1.2 1-.8 1.6-2 1.6-3.5 0-1-.2-1.6-.6-2.5h2.5zm-9.6 1.5c0-1.8.8-2.8 2.2-2.8 1 0 1.7.5 2.2 1.4.5 1 1 2.3 1 3.5 0 1.6-1 2.7-2.4 2.7-1.8 0-3-2-3-4.8zm8.4 12c0 1.8-2.3 3-5.7 3-2.7 0-4.4-1-4.4-2.2 0-.6.3-1 1.5-2.5 1 .2 3.4.4 5 .4 2.6 0 3.6.2 3.6 1.3zM754.2 852.5c-1.5 2.2-2.7 3-4.7 3-1.3 0-2.5-.4-3.3-1.5-1-1.4-1.2-2.6-1.4-5h9.3c0-1.5-.4-2.5-1-3.3-1-1.4-2.3-2-4-2-4 0-6.3 3-6.3 7.2 0 4 2 6.7 5.7 6.7 3 0 5-1.7 6.2-5l-.4-.2zM745 848c.2-2 1.4-3.3 3-3.3 2 0 2.7 1 3 3.4h-6zM757.7 861.6c2-1 3.4-2.8 3.4-4.6 0-1.6-1-2.6-2.3-2.6-1 0-1.8.6-1.8 1.7 0 1 .5 1.6 1.6 1.6h1s.3 0 .3.3c0 1-1 2-2.6 3l.3.6zM82.4 895v-.5c-1.6-.3-1.8-.6-1.8-2.6v-6c0-3.3-1.2-5-3.7-5-2 0-3 .8-4.5 2.6v-9.2l-3.6 1-1 .3v.5h.5c1.2 0 1.5.2 1.5 1.5V892c0 2-.2 2.2-2 2.5v.4h6.5v-.5c-1.7-.2-2-.6-2-2.6v-7.4c1.3-1.4 2.2-2 3.4-2 1.3 0 2 1.2 2 3.3v6c0 2-.2 2.3-2 2.5v.4h6.4zM88.2 876c0-1-.7-1.6-1.5-1.6-1 0-1.6.7-1.6 1.6 0 .8.8 1.5 1.6 1.5 1 0 1.6-.7 1.6-1.5zm2.2 19v-.5c-2-.2-2.2-.5-2.2-2.7v-10.6H88l-4.6 1.6v.4h1.3c.7 0 1 .4 1 1.8v6.8c0 2.3-.4 2.5-2.4 2.7v.4h7zM95.8 886c-.8-.6-1.3-1.5-1.3-2.2 0-1.4 1-2 2.3-2 1.8 0 2.7 1 3.3 3.7h.6l-.2-4h-.3c0 .2-.2.2-.4.2s-.5 0-.8-.2c-.6-.3-1.3-.4-2-.4-2.5 0-4.2 1.5-4.2 3.8 0 1.6 1.2 3 3.6 4.4l1.7 1c1 .4 1.5 1.2 1.5 2 0 1.4-1 2.4-2.5 2.4-2 0-3.2-1.4-3.8-4.3h-.5v4.7h.4c.2-.3.4-.3.8-.3l1.4.2c.7.2 1.5.2 2.2.2 2.2 0 4.2-1.7 4.2-3.7 0-1.7-.8-2.6-2.7-3.7l-3.2-2zM115 874.5h-.3l-3.4 1-1 .2v.6h.6c1 0 1.3 0 1.3 1.6V893c0 1 2.6 2 5 2 4 0 7-3 7-7.5 0-3.7-2.2-6.6-5.4-6.6-2 0-3.5 1-4 2.6v-9zm0 11c0-1.4 1.2-2.5 2.8-2.5 1 0 2 .5 2.7 1.4.8 1 1.2 2.8 1.2 4.6 0 1.7-.4 3-1 4-.8.8-1.8 1.3-3 1.3-1.5 0-2.8-.6-2.8-1.6v-7.3zM130 881.2l-4.5 1.5v.5h1c.8 0 1 .4 1 1.7v7.4c0 1.5-.2 1.7-2 2v.5h7v-.5c-2 0-2.4-.6-2.4-2.3v-6.7c0-1 1.3-2.5 2.2-2.5.2 0 .4.2.8.5.4.4.8.6 1.2.6.7 0 1-.5 1-1.3 0-1-.5-1.6-1.5-1.6-1.3 0-2 .8-3.6 3V881zM149.2 888c0-4.2-2.8-7-6.5-7-4 0-6.7 3-6.7 7 0 4.2 2.8 7.2 6.5 7.2 4 0 6.7-3 6.7-7.2zm-2.7.8c0 3.5-1.3 5.6-3.5 5.6-1 0-2-.6-2.7-1.5-1-1.7-1.6-4-1.6-6.3 0-3 1.4-4.7 3.5-4.7 1.3 0 2 .6 2.8 1.5 1 1.2 1.5 3.3 1.5 5.3zM158 892.6c-.8.8-1.3 1-2 1-1 0-1.5-.7-1.5-2.6v-8.6h3v-1h-3V878c0-.4 0-.5-.2-.5l-.6 1c-1 1.5-2 2.6-3 3l-.4.7v.2h1.7v9c0 2.5 1 3.8 2.6 3.8 1.5 0 2.7-.7 3.7-2.3l-.4-.4zM173 895v-.5c-1.6-.3-1.7-.6-1.7-2.6v-6c0-3.3-1.3-5-3.7-5-1.8 0-3 .8-4.4 2.6v-9l-.2-.2c-1 .4-1.7.6-3.4 1l-1 .3v.5h.5c1.4 0 1.6.2 1.6 1.5V892c0 2 0 2.2-2 2.5v.4h6.6v-.5c-1.7-.2-2-.6-2-2.6v-7.4c1.2-1.4 2-2 3.3-2 1.5 0 2.2 1.2 2.2 3.3v6c0 2-.3 2.3-2 2.5v.4h6.4zM185.7 890c-1.5 2.2-2.6 3-4.6 3-1.3 0-2.4-.4-3.3-1.5-1-1.4-1.2-2.6-1.3-5h9.2c0-1.5-.4-2.5-1-3.3-1-1.4-2.3-2-4.2-2-3.8 0-6.2 3-6.2 7.2 0 4 2.2 6.8 5.7 6.8 3 0 5-1.7 6.2-5l-.5-.2zm-9.3-4.4c.3-2.2 1.5-3.4 3.2-3.4 2 0 2.6 1 3 3.4h-6.2zM191.5 881.2l-4.5 1.5v.5h1c.8 0 1 .4 1 1.7v7.4c0 1.5-.2 1.7-2 2v.5h7v-.5c-2 0-2.5-.6-2.5-2.3v-6.7c0-1 1.3-2.5 2-2.5.3 0 .6.2 1 .5.4.4.7.6 1 .6.8 0 1.3-.5 1.3-1.3 0-1-.6-1.6-1.7-1.6-1 0-2 .8-3.5 3V881zM204.4 889v-1.8H197v2h7.4zM211.3 876c0-1-.7-1.6-1.5-1.6-1 0-1.6.7-1.6 1.6 0 .8.7 1.5 1.5 1.5 1 0 1.6-.7 1.6-1.5zm2.2 19v-.5c-2-.2-2.2-.5-2.2-2.7v-10.6l-4.8 1.6v.4h1.3c.7 0 1 .4 1 1.8v6.8c0 2.3-.3 2.5-2.4 2.7v.4h7zM228.8 895v-.5c-1.5-.2-2-.5-2-2v-6.8c0-3-1-4.6-3.4-4.6-1.4 0-2.8.8-4.3 2.5v-2.3h-.2l-4 1.3v.5h.8c.8 0 1 .3 1 1.8v7.3c0 2-.3 2.3-1.8 2.5v.4h6.3v-.5c-1.4-.2-2-.6-2-1.7v-8.3c1.5-1.4 2.2-1.7 3.2-1.7 1.5 0 2.2 1 2.2 3v6c0 2-.3 2.5-1.8 2.7v.4h6.2zM237.8 889v-1.8h-7.4v2h7.4zM247 895v-.5c-2-.2-2.3-.5-2.3-2.2v-17.8l-5 1.2v.5h1.2c1 0 1.2.4 1.2 2v14c0 1.6-.4 2-2.3 2.3v.4h7zM260.8 893c-.5.4-.8.5-1.3.5s-1-.6-1-2v-5.7c0-1.8 0-2.5-.7-3.3-.8-1-2-1.4-3.6-1.4-1.3 0-2.6.5-3.4 1-1 .7-1.6 1.6-1.6 2.4 0 .8.7 1.4 1.3 1.4.8 0 1.4-.7 1.4-1.2 0-.7-.3-.8-.3-1.3 0-.8 1-1.5 2-1.5 1.5 0 2.5 1 2.5 2.7v1.7c-3.4 1.2-4.5 1.8-5.4 2.4-1.2.8-2 2-2 3.5 0 2 1.2 3.2 3 3.2 1.3 0 2.8-.4 4.4-2.2.2 1.6.8 2.2 2 2.2 1 0 1.7-.3 2.6-1.4v-1zm-4.6-2c0 1-.2 1.4-1 2-.6.3-1.2.5-1.8.5-1.2 0-2-.7-2-2.3 0-1 .2-1.7 1-2.3.7-.8 2-1.5 3.8-2v4zM280.7 881.4H277v.5c1 0 1.3.3 1.3.8l-.5 2-2.7 6.6-2.4-6.7c-.4-1-.5-1.3-.5-1.8 0-.7.4-1 1.8-1v-.6h-6v.5c1 0 1.4.3 2 2l.6 1.6-2.7 6-3-7.8-.2-1c0-.6.3-.8 1.4-1v-.4h-5.5v.5c.7 0 1 0 1.6 1.8l4 10.2c.5 1 .7 1.3 1 1.3l.7-1 3.3-7.3 2.8 7c.4 1.2.5 1.3.7 1.3.2 0 .3-.2.8-1.4l4.2-10.5c.4-1.2.6-1.4 1.2-1.6v-.6zM282.5 899c2-.8 3.4-2.7 3.4-4.5 0-1.6-1.2-2.6-2.5-2.6-1 0-1.8.5-1.8 1.6 0 1 .6 1.5 1.7 1.5h1s.3.2.3.4c0 1-.8 2-2.5 3.2l.3.5zM318.3 895v-.5h-.8c-1-.2-1.3-.5-1.3-2v-6c0-3.5-1-5.4-3.5-5.4-1.7 0-3.2 1-5 2.6-.4-1.7-1.4-2.5-3-2.5-1.4 0-2.7.4-4.6 2.4v-2.2h-.2l-4.2 1.3v.5h1c.7 0 1 .4 1 1.8v7.5c0 1.7-.4 2-2 2.2v.4h6.6v-.5c-1.6 0-2-.4-2-1.7v-8.3s0-.3.3-.5c.6-.8 2-1.3 3.2-1.3 1.3 0 2 1.2 2 3.3v6.3c0 2-.4 2-2 2.2v.4h6.6v-.5c-1.7 0-2-.5-2-2.4v-7.5c.8-1.3 1.7-1.8 3-1.8 1.8 0 2.4 1 2.4 3.3v6.2c0 1.8-.3 2-2 2.3v.4h6.6zM332.4 888c0-4.2-2.8-7-6.4-7-4 0-6.8 3-6.8 7 0 4.2 3 7.2 6.5 7.2 4 0 6.7-3 6.7-7.2zm-2.7.8c0 3.5-1.3 5.6-3.5 5.6-1 0-2-.6-2.7-1.5-1-1.7-1.6-4-1.6-6.3 0-3 1.3-4.7 3.4-4.7 1.3 0 2 .6 2.8 1.5 1 1.2 1.5 3.3 1.5 5.3zM347 881.4h-4.2v.5c1 0 1.4.3 1.4.8v1l-3 7.7-3.2-7.7-.2-1c0-.6.3-.8 1.3-1v-.4h-5.7v.5c1 0 1.4.2 2.7 3.3l3.6 8.6c0 .2 0 .4.2.6.2.5.4.7.6.7.2 0 .4-.4.8-1.5l4-9.6c.7-2 1-2.2 1.8-2.3v-.6zM359.2 890c-1.4 2.2-2.6 3-4.6 3-1.4 0-2.5-.4-3.3-1.5-1-1.4-1.2-2.6-1.4-5h9c0-1.5-.3-2.5-1-3.3-.8-1.4-2.2-2-4-2-3.8 0-6.3 3-6.3 7.2 0 4 2.2 6.8 5.7 6.8 3 0 5-1.7 6.3-5l-.5-.2zm-9.2-4.4c.3-2.2 1.5-3.4 3-3.4 2 0 2.8 1 3 3.4h-6zM375 893.7v-.5h-.7c-1 0-1.3-.3-1.3-1.7v-17l-4.5 1.2v.5h.6c1.2 0 1.5.3 1.5 1.5v4.7c-1-1-2-1.3-3.2-1.3-3.4 0-6.2 3.5-6.2 7.8 0 3.8 2.3 6.4 5.7 6.4 1.6 0 2.8-.6 3.8-2v2l4.5-1.5zm-4.5-1.8l-.5.7c-.5.6-1.2 1-2.2 1-2.5 0-4-2.4-4-6 0-3.5 1.4-5.7 3.6-5.7 1.7 0 3 1.4 3 3v7zM390.8 892.6c-.7.8-1.2 1-1.8 1-1 0-1.6-.7-1.6-2.6v-8.6h3v-1h-3V878c0-.4 0-.5-.2-.5l-.6 1c-1 1.5-2 2.6-3 3l-.4.7v.2h1.7v9c0 2.5.8 3.8 2.5 3.8 1.5 0 2.7-.7 3.7-2.3l-.4-.4zM406 895v-.5c-1.7-.3-1.8-.6-1.8-2.6v-6c0-3.3-1.3-5-3.7-5-1.8 0-3 .8-4.4 2.6v-9.2c-1 .4-1.8.6-3.5 1l-.8.3v.5h.3c1.3 0 1.5.2 1.5 1.5V892c0 2 0 2.2-2 2.5v.4h6.6v-.5c-1.6-.2-2-.6-2-2.6v-7.4c1.3-1.4 2.2-2 3.4-2 1.5 0 2.2 1.2 2.2 3.3v6c0 2-.3 2.3-2 2.5v.4h6.4zM418.6 890c-1.5 2.2-2.6 3-4.6 3-1.4 0-2.5-.4-3.4-1.5-1-1.4-1.2-2.6-1.3-5h9.2c0-1.5-.4-2.5-1-3.3-1-1.4-2.3-2-4.2-2-3.8 0-6.2 3-6.2 7.2 0 4 2.3 6.8 5.8 6.8 3 0 5-1.7 6.3-5l-.4-.2zm-9.3-4.4c.4-2.2 1.5-3.4 3.2-3.4 2 0 2.6 1 3 3.4h-6.2zM435 892.6c-.5.8-1 1-1.7 1-1 0-1.5-.7-1.5-2.6v-8.6h3v-1h-3V878c0-.4 0-.5-.2-.5-.2.3-.5.6-.6 1-1.2 1.5-2.2 2.6-3 3-.3.3-.5.5-.5.7l.2.2h1.6v9c0 2.5 1 3.8 2.6 3.8 1.4 0 2.5-.7 3.5-2.3l-.4-.4zM450.3 895v-.5c-1.6-.3-1.8-.6-1.8-2.6v-6c0-3.3-1.2-5-3.7-5-1.7 0-3 .8-4.4 2.6v-9.2l-3.6 1-.8.3v.5h.4c1.3 0 1.5.2 1.5 1.5V892c0 2-.3 2.2-2 2.5v.4h6.5v-.5c-1.8-.2-2-.6-2-2.6v-7.4c1.2-1.4 2-2 3.3-2 1.4 0 2.2 1.2 2.2 3.3v6c0 2-.3 2.3-2 2.5v.4h6.3zM455.5 881.2l-4.6 1.5v.5h1c.7 0 1 .4 1 1.7v7.4c0 1.5-.2 1.7-2 2v.5h7v-.5c-2 0-2.5-.6-2.5-2.3v-6.7c0-1 1.3-2.5 2-2.5.3 0 .6.2 1 .5.4.4.7.6 1 .6.8 0 1.3-.5 1.3-1.3 0-1-.7-1.6-1.7-1.6-1.2 0-2 .8-3.5 3V881zM474.7 888c0-4.2-3-7-6.5-7-4 0-6.8 3-6.8 7 0 4.2 3 7.2 6.5 7.2 4 0 6.7-3 6.7-7.2zm-2.7.8c0 3.5-1.4 5.6-3.6 5.6-1 0-2-.6-2.7-1.5-1-1.7-1.6-4-1.6-6.3 0-3 1.5-4.7 3.6-4.7 1.3 0 2 .6 3 1.5.8 1.2 1.4 3.3 1.4 5.3zM490 895v-.5c-1.4-.2-1.7-.5-1.7-2v-6.8c0-3-1.3-4.6-3.6-4.6-1.3 0-2.7.8-4.3 2.5v-2.3h-.3l-4 1.3v.5h1c.7 0 1 .3 1 1.8v7.3c0 2-.4 2.3-2 2.5v.4h6.4v-.5c-1.5-.2-2-.6-2-1.7v-8.3c1.5-1.4 2.2-1.7 3.2-1.7 1.4 0 2.2 1 2.2 3v6c0 2-.4 2.5-2 2.7v.4h6.3zM502.8 890c-1.5 2.2-2.6 3-4.6 3-1.4 0-2.5-.4-3.4-1.5-1-1.4-1.2-2.6-1.3-5h9.2c0-1.5-.4-2.5-1-3.3-1-1.4-2.3-2-4.2-2-3.8 0-6.2 3-6.2 7.2 0 4 2.2 6.8 5.7 6.8 3 0 5-1.7 6.3-5l-.5-.2zm-9.3-4.4c.4-2.2 1.5-3.4 3.2-3.4 2 0 2.6 1 3 3.4h-6.2zM519.3 892.6c-.6.8-1 1-1.8 1-1 0-1.5-.7-1.5-2.6v-8.6h3v-1h-3V878c0-.4 0-.5-.2-.5-.2.3-.5.6-.6 1-1.2 1.5-2.2 2.6-3 3-.3.3-.5.5-.5.7l.2.2h1.5v9c0 2.5 1 3.8 2.6 3.8s2.7-.7 3.7-2.3l-.4-.4zM533.7 888c0-4.2-2.8-7-6.5-7-4 0-6.7 3-6.7 7 0 4.2 2.8 7.2 6.5 7.2 4 0 6.7-3 6.7-7.2zm-2.7.8c0 3.5-1.3 5.6-3.5 5.6-1 0-2-.6-2.7-1.5-1-1.7-1.6-4-1.6-6.3 0-3 1.4-4.7 3.5-4.7 1.3 0 2 .6 2.8 1.5 1 1.2 1.5 3.3 1.5 5.3zM563.8 895v-.7c-1.4 0-2.2-.5-4.7-3.2l-7-7.6 5.7-5.3c2-2 2.6-2.2 4.7-2.4v-.5h-7.8v.6h.7c1 0 1.3.4 1.3 1 0 .7-1 1.6-2.4 3l-5.3 5v-6c0-2.4 0-2.8 2.6-3v-.5H543v.6c2.5.2 2.8.6 2.8 2.8v12.8c0 2.6-.3 3-2.7 3v.7h8.6v-.7c-2.2 0-2.7-.4-2.7-2.7V886l.7-.6 3 3c2.3 2.6 4 4.4 4 5.2 0 .4-.3.7-1.2.7h-.8v.6h9zM577.4 888c0-4.2-2.8-7-6.5-7-4 0-6.8 3-6.8 7 0 4.2 2.8 7.2 6.5 7.2 4 0 6.7-3 6.7-7.2zm-2.7.8c0 3.5-1.3 5.6-3.5 5.6-1 0-2-.6-2.7-1.5-1-1.7-1.6-4-1.6-6.3 0-3 1.3-4.7 3.4-4.7 1.3 0 2 .6 2.8 1.5 1 1.2 1.5 3.3 1.5 5.3zM590.6 890c-1.5 2.2-2.6 3-4.7 3-1.4 0-2.5-.4-3.4-1.5-1-1.4-1.2-2.6-1.4-5h9.3c0-1.5-.4-2.5-1-3.3-1-1.4-2.4-2-4.2-2-3.8 0-6.2 3-6.2 7.2 0 4 2.2 6.8 5.8 6.8 3 0 5-1.7 6.2-5l-.4-.2zm-9.3-4.4c.3-2.2 1.5-3.4 3.2-3.4 2 0 2.6 1 3 3.4h-6.2zM606.2 895v-.5c-1.5-.2-2-.5-2-2v-6.8c0-3-1-4.6-3.4-4.6-1.4 0-2.8.8-4.3 2.5v-2.3h-.3l-4 1.3v.5h.8c.8 0 1 .3 1 1.8v7.3c0 2-.3 2.3-1.8 2.5v.4h6.3v-.5c-1.5-.2-2-.6-2-1.7v-8.3c1.4-1.4 2-1.7 3-1.7 1.6 0 2.3 1 2.3 3v6c0 2-.3 2.5-1.8 2.7v.4h6.2zM621 893.4h-.2c-1.3 0-1.7-.3-1.7-1.7v-10.3h-4.6v.5c1.8 0 2.2.3 2.2 2v6.8c0 1-.2 1.3-.7 1.7-.8.7-1.7 1-2.6 1-1.2 0-2-1-2-2.4v-9.6h-4.5v.4c1.3 0 1.8.5 1.8 2v7.6c0 2.3 1.3 3.8 3.6 3.8 1 0 2.8-.6 4.3-2.6v2.5l.2.2c1.4-.6 2.5-1 4-1.4v-.4zM635.7 883.3V882h-2.3c-.6 0-1 0-1.6-.2l-.7-.2c-.7-.3-1.5-.5-2.3-.5-2.8 0-5 2.3-5 5 0 2 .8 3 2.8 4l-1.3 1.2c-1 1-1.4 1.5-1.4 2 0 .8.3 1 1.6 1.7-2.2 1.4-3 2.4-3 3.5 0 1.6 2.4 3 5.3 3 2 0 4.4-.8 6-2 1.2-1 1.8-2 1.8-3 0-2-1.5-3.2-3.7-3.3l-3.8-.2c-1.7 0-2.4-.3-2.4-.8 0-.6 1-1.7 1.8-2l.6.2h1c1.2 0 2.3-.4 3.2-1 1-1 1.6-2 1.6-3.6 0-1 0-1.6-.6-2.5h2.5zm-9.5 1.5c0-1.8.8-2.8 2.2-2.8 1 0 1.7.5 2.2 1.4.6 1 1 2.4 1 3.6 0 1.6-1 2.7-2.3 2.7-2 0-3-2-3-4.8v-.2zm8.4 12c0 1.8-2.3 3-5.7 3-2.7 0-4.4-1-4.4-2.2 0-.7.2-1.2 1.4-2.6 1 .2 3.4.4 5 .4 2.6 0 3.6.3 3.6 1.4zM649.5 893c-.5.4-.8.5-1.3.5s-1-.6-1-2v-5.7c0-1.8 0-2.5-.7-3.3-.7-1-2-1.4-3.6-1.4-1.4 0-2.7.5-3.5 1-1 .7-1.5 1.6-1.5 2.4 0 .8.6 1.4 1.2 1.4.8 0 1.4-.7 1.4-1.2 0-.7-.2-.8-.2-1.3 0-.8 1-1.5 2-1.5 1.5 0 2.5 1 2.5 2.7v1.7c-3.5 1.2-4.6 1.8-5.5 2.4-1.2.8-2 2-2 3.5 0 2 1.2 3.2 3 3.2 1.3 0 2.8-.4 4.4-2.2 0 1.6.7 2.2 1.8 2.2 1 0 1.8-.3 2.7-1.4v-1zm-4.6-2c0 1-.3 1.4-1.2 2-.5.3-1 .5-1.7.5-1 0-2-.7-2-2.3 0-1 .3-1.7 1-2.3.8-.8 2-1.5 4-2v4zM654.4 881.2h-.2c-1.6.5-2.6 1-4.4 1.5v.5h1c.8 0 1 .4 1 1.7v7.4c0 1.5-.2 1.7-2 2v.5h7v-.5c-2 0-2.4-.6-2.4-2.3v-6.7c0-1 1.2-2.5 2-2.5.3 0 .5.2 1 .5.3.4.7.6 1 .6.8 0 1.2-.5 1.2-1.3 0-1-.6-1.6-1.6-1.6-1.3 0-2 .8-3.6 3V881zM674.3 893.7v-.5h-.7c-1 0-1.3-.3-1.3-1.7v-17h-.2l-4.3 1.2v.5h.7c1 0 1.3.3 1.3 1.5v4.7c-1-1-2-1.3-3-1.3-3.6 0-6.4 3.5-6.4 7.8 0 3.8 2.3 6.4 5.6 6.4 1.6 0 2.7-.6 3.7-2v2h.2l4.3-1.5zm-4.6-1.8s0 .4-.4.7c-.6.6-1.3 1-2.2 1-2.5 0-4-2.4-4-6 0-3.5 1.4-5.7 3.7-5.7 1.6 0 3 1.4 3 3v7zM679.3 881.2l-4.6 1.5v.5h1c.8 0 1 .4 1 1.7v7.4c0 1.5 0 1.7-2 2v.5h7.2v-.5c-2.2 0-2.7-.6-2.7-2.3v-6.7c0-1 1.3-2.5 2-2.5.3 0 .6.2 1 .5.4.4.7.6 1 .6.8 0 1.3-.5 1.3-1.3 0-1-.6-1.6-1.7-1.6-1.3 0-2.2.8-3.7 3V881zM688.5 893.6c0-1-.8-1.7-1.6-1.7-1 0-1.8.7-1.8 1.6 0 1 .7 1.6 1.6 1.6 1 0 1.7-.7 1.7-1.6z" style="-inkscape-font-specification:STIX;text-align:justify"/></g></svg>