<svg viewBox="0 0 1000 1000" xmlns="http://www.w3.org/2000/svg" xmlns:xlink="http://www.w3.org/1999/xlink"><defs><clipPath id="land-clippath-2"><path d="M295,130L301,131L307,135L297,142L287,147L282,142L285,135Z"></path><path d="M955,-332L955,-322L940,-322L939,-329L929,-330L921,-349L930,-359L941,-346Z"></path><path d="M316,736L322,734L324,739L331,738L345,741L349,740L349,744L359,741L358,746L333,749L331,745L327,744L311,741L311,736Z"></path><path d="M309,661L310,663L317,667L321,667L324,677L329,679L328,683L323,679L320,673L315,673L306,664Z"></path><path d="M501,734L492,741L494,747L488,748L485,751L478,754L475,756L466,753L464,748L470,743L474,743L475,739L484,740Z"></path><path d="M233,156L228,160L226,176L219,181L216,175L217,165L224,156L229,154Z"></path><path d="M119,222L119,225L113,231L117,237L111,240L110,251L105,248L103,240L97,240L95,232L92,224L98,223L100,217L107,216L113,211L120,213Z"></path><path d="M86,227L89,236L88,242L82,244L74,241L72,230L80,227Z"></path><path d="M-45,642L-40,644L-43,651L-46,653L-52,650L-54,647L-59,646L-51,640L-45,638Z"></path><path d="M1083,-715L1057,-696L1011,-674L971,-649L959,-631L951,-614L934,-607L932,-595L922,-594L924,-581L920,-570L908,-563L910,-553L894,-523L885,-519L860,-528L848,-522L846,-534L838,-548L854,-560L870,-603L886,-625L896,-654L909,-662L928,-687L948,-696L952,-704L966,-706L968,-718L999,-715L1025,-725L1050,-743L1053,-753L1079,-773L1095,-767L1102,-756L1103,-740L1090,-718Z"></path><path d="M866,-519L885,-513L879,-488L873,-487L866,-469L869,-455L865,-439L878,-406L893,-384L906,-373L897,-366L872,-371L853,-371L838,-378L835,-391L840,-398L832,-406L831,-417L804,-414L798,-430L800,-447L812,-450L818,-460L824,-481L817,-485L829,-499L828,-510L838,-518L857,-524Z"></path><path d="M68,617L71,626L68,631L69,635L68,652L67,656L58,654L57,659L55,662L51,661L47,655L48,643L47,639L48,630L43,622L43,617L48,618L54,615L57,612L62,609L68,614Z"></path><path d="M65,572L67,588L64,593L64,597L60,605L54,600L52,596L52,589L50,586L52,578Z"></path><path d="M172,677L166,687L164,694L167,704L164,706L164,711L158,710L153,708L151,705L147,702L143,702L126,691L122,691L117,686L119,681L122,678L125,681L130,678L133,678L139,682L153,681L159,678L164,679L171,676Z"></path><path d="M-154,134L-156,140L-170,152L-168,164L-159,160L-154,162L-136,161L-131,167L-135,175L-139,188L-145,197L-146,205L-155,212L-153,216L-145,214L-137,218L-129,228L-123,253L-120,256L-112,261L-101,272L-104,275L-94,301L-99,308L-95,311L-90,306L-82,306L-71,312L-70,320L-73,331L-78,338L-83,339L-84,346L-88,351L-75,352L-76,357L-82,361L-83,364L-96,368L-104,367L-114,368L-122,366L-126,369L-135,369L-136,373L-144,372L-152,370L-159,372L-163,381L-166,383L-173,379L-183,381L-191,389L-193,383L-180,368L-179,363L-175,361L-173,357L-167,355L-155,356L-145,345L-152,347L-157,351L-162,350L-169,345L-172,346L-177,341L-186,344L-189,342L-189,334L-177,328L-172,325L-169,318L-172,308L-181,308L-172,299L-158,295L-153,293L-151,284L-153,279L-150,272L-155,272L-162,262L-160,247L-169,252L-175,251L-179,253L-190,250L-182,233L-185,224L-185,213L-192,217L-197,234L-201,235L-198,221L-198,213L-194,199L-204,196L-205,191L-200,188L-197,176L-202,169L-198,155L-194,149L-193,143L-187,142L-188,134L-182,134L-153,130Z"></path><path d="M-225,244L-221,240L-213,238L-207,239L-200,251L-195,261L-198,268L-204,273L-211,276L-207,288L-207,296L-205,307L-209,318L-215,328L-218,328L-231,331L-234,334L-254,346L-262,348L-272,348L-267,343L-271,340L-280,340L-281,338L-274,330L-273,322L-267,318L-262,302L-271,294L-272,288L-272,276L-274,268L-263,267L-250,269L-251,265L-244,261L-253,255L-246,249L-244,241L-236,240L-226,235L-222,239Z"></path><path d="M-371,-158L-357,-151L-358,-138L-350,-133L-343,-132L-338,-127L-341,-121L-337,-109L-347,-95L-352,-92L-354,-84L-362,-78L-370,-76L-380,-70L-390,-61L-411,-55L-413,-48L-426,-43L-436,-44L-453,-48L-471,-63L-474,-60L-495,-59L-493,-66L-485,-69L-481,-74L-483,-87L-489,-90L-492,-98L-507,-99L-517,-96L-519,-101L-496,-108L-482,-108L-492,-116L-482,-123L-484,-127L-500,-131L-517,-123L-523,-127L-517,-139L-514,-152L-511,-156L-495,-149L-501,-163L-491,-167L-477,-152L-472,-143L-475,-133L-471,-124L-462,-134L-455,-137L-455,-150L-450,-151L-442,-139L-438,-152L-428,-156L-413,-155L-407,-147L-399,-157L-392,-154L-387,-161L-389,-168L-379,-171Z"></path><path d="M300,123L293,128L291,122L294,115L300,118Z"></path><path d="M386,727L384,722L387,718L392,717L391,721Z"></path><path d="M355,677L351,671L354,669L356,672Z"></path><path d="M361,652L364,657L362,660L357,659L352,657L352,653L357,651Z"></path><path d="M344,637L343,641L337,640L337,637Z"></path><path d="M-201,204L-208,206L-207,195L-201,200Z"></path><path d="M-123,64L-119,70L-121,79L-126,73Z"></path><path d="M-208,139L-212,150L-220,153L-224,145L-209,134Z"></path><path d="M-207,167L-207,173L-218,169L-209,162Z"></path><path d="M249,71L254,74L245,80L244,74Z"></path><path d="M163,245L156,243L158,237L164,241Z"></path><path d="M139,264L133,269L130,266L130,260L134,255L139,260Z"></path><path d="M98,249L105,252L100,257L93,253Z"></path><path d="M250,650L247,649L243,643L248,643L248,649Z"></path><path d="M214,106L223,104L219,114L205,122L196,129L195,135L191,136L193,144L191,154L189,157L191,167L188,175L188,181L185,193L179,208L167,210L158,210L148,220L150,230L147,234L141,233L133,235L125,233L127,224L120,211L123,207L125,196L117,186L105,160L104,152L100,147L100,140L97,135L95,115L89,111L86,104L78,117L68,119L49,141L43,146L30,150L22,150L16,142L12,142L0,133L-4,127L-3,118L2,119L4,111L2,105L-6,112L-10,110L-7,95L1,95L0,88L-11,89L-9,80L-8,63L-12,58L-13,32L-14,22L-3,-1L7,-6L11,-12L27,-12L26,-17L18,-15L22,-25L32,-31L41,-30L44,-38L50,-39L47,-48L54,-52L63,-49L69,-51L76,-44L88,-45L87,-51L73,-47L69,-61L84,-83L96,-93L98,-103L112,-114L114,-130L126,-149L129,-158L129,-172L138,-183L158,-215L158,-229L167,-241L180,-247L189,-260L191,-267L204,-276L209,-290L216,-293L219,-309L231,-313L235,-323L250,-329L269,-330L274,-344L296,-355L302,-341L313,-356L320,-360L326,-372L323,-378L330,-388L350,-380L341,-364L345,-353L363,-383L367,-380L364,-359L371,-362L375,-385L382,-393L396,-386L399,-375L408,-380L427,-364L434,-362L440,-350L422,-340L417,-334L420,-322L432,-325L449,-320L458,-333L475,-323L465,-309L484,-307L488,-301L497,-301L508,-297L516,-299L526,-295L559,-271L571,-255L578,-253L591,-241L599,-239L605,-230L615,-225L618,-204L622,-202L619,-185L607,-168L600,-161L586,-154L570,-151L557,-154L551,-158L520,-166L508,-175L484,-182L473,-193L467,-189L480,-172L487,-168L486,-162L500,-154L507,-143L504,-128L501,-123L507,-106L509,-88L511,-84L522,-81L531,-73L535,-66L553,-59L564,-67L562,-79L549,-82L538,-100L544,-114L555,-111L563,-101L594,-89L599,-97L606,-97L603,-106L595,-121L595,-131L604,-138L610,-147L624,-154L637,-171L644,-167L655,-167L670,-149L670,-159L676,-178L673,-197L664,-204L672,-238L669,-264L687,-265L701,-261L715,-237L715,-231L695,-227L684,-214L684,-208L695,-201L703,-186L715,-185L729,-189L733,-194L736,-219L753,-225L758,-232L771,-241L787,-254L817,-266L820,-273L839,-285L842,-278L838,-268L842,-249L852,-251L867,-265L878,-269L897,-264L915,-280L928,-286L936,-273L931,-259L940,-254L945,-258L945,-271L956,-272L963,-285L959,-291L950,-315L965,-328L978,-323L1006,-319L1020,-312L1035,-299L1059,-283L1069,-279L1082,-262L1096,-254L1101,-265L1107,-283L1096,-284L1089,-297L1087,-309L1070,-320L1068,-336L1072,-347L1074,-374L1064,-382L1068,-403L1079,-410L1092,-425L1097,-443L1105,-481L1116,-495L1148,-496L1171,-483L1168,-447L1162,-426L1155,-418L1158,-404L1167,-396L1169,-378L1169,-359L1166,-344L1167,-309L1166,-289L1171,-277L1184,-265L1177,-246L1177,-232L1167,-219L1154,-193L1146,-191L1149,-182L1138,-172L1128,-175L1120,-185L1105,-183L1108,-174L1128,-163L1142,-164L1155,-159L1162,-163L1164,-173L1180,-184L1188,-192L1193,-211L1205,-227L1205,-241L1198,-258L1202,-274L1211,-279L1234,-285L1248,-260L1247,-228L1256,-219L1253,-238L1256,-247L1261,-250L1255,-281L1226,-297L1216,-297L1206,-290L1188,-295L1190,-306L1184,-321L1189,-344L1195,-358L1197,-369L1183,-402L1176,-412L1186,-434L1209,-451L1211,-467L1205,-490L1215,-489L1222,-460L1213,-432L1218,-423L1215,-406L1228,-399L1254,-397L1263,-387L1265,-402L1252,-405L1232,-420L1227,-438L1242,-445L1254,-434L1265,-440L1252,-454L1270,-465L1286,-464L1295,-455L1310,-448L1311,-441L1323,-428L1333,-426L1348,-429L1353,-424L1347,-410L1337,-402L1337,-377L1346,-385L1349,-365L1343,-347L1357,-353L1361,-364L1351,-393L1359,-420L1352,-436L1342,-439L1334,-456L1319,-463L1311,-471L1308,-484L1311,-498L1305,-506L1303,-522L1306,-535L1328,-541L1358,-541L1411,-556L1422,-555L1411,-578L1401,-582L1413,-596L1397,-604L1404,-615L1412,-606L1426,-624L1430,-636L1459,-660L1474,-668L1497,-672L1503,-678L1533,-687L1526,-694L1551,-708L1574,-706L1575,-698L1591,-692L1622,-715L1639,-715L1624,-733L1651,-732L1660,-736L1665,-749L1663,-771L1672,-788L1700,-822L1715,-830L1748,-811L1751,-803L1731,-786L1745,-772L1766,-775L1775,-766L1761,-740L1778,-735L1785,-751L1809,-753L1839,-751L1866,-725L1869,-707L1880,-705L1887,-687L1883,-668L1883,-648L1871,-629L1852,-610L1843,-605L1817,-583L1817,-573L1804,-564L1788,-543L1772,-539L1762,-521L1753,-519L1744,-498L1751,-498L1758,-509L1781,-511L1817,-529L1827,-539L1816,-545L1818,-558L1824,-563L1838,-558L1857,-544L1869,-546L1891,-536L1904,-538L1913,-544L1919,-543L1919,435L1919,990L1918,990L1916,993L1911,991L1905,995L1901,992L1898,996L1894,996L1894,1001L1888,998L1887,995L1883,990L1882,987L1878,989L1882,995L1882,1002L1877,1005L1872,1004L1872,1007L1869,1007L1865,1010L1860,1011L1854,1009L1848,1015L1839,1016L1833,1018L1830,1021L1828,1021L1823,1024L1823,1028L1829,1034L1828,1037L1822,1039L1819,1038L1819,1035L1814,1027L1814,1023L1819,1016L1812,1015L1805,1017L1803,1013L1791,1012L1789,1015L1782,1016L1775,1020L1774,1024L1762,1026L1763,1030L1760,1034L1759,1038L1753,1044L1750,1045L1747,1051L1746,1057L1743,1063L1748,1071L1754,1076L1759,1082L1758,1086L1763,1092L1770,1098L1771,1101L1780,1108L1782,1111L1785,1111L1790,1115L1790,1117L1797,1126L1799,1128L1801,1135L1804,1140L1804,1143L1808,1156L1807,1156L1807,1166L1810,1172L1806,1177L1806,1194L1803,1196L1802,1201L1799,1201L1790,1208L1787,1209L1785,1212L1782,1212L1772,1218L1769,1216L1764,1217L1764,1223L1760,1227L1760,1231L1757,1232L1754,1230L1753,1235L1741,1241L1738,1246L1735,1249L1731,1250L1729,1246L1730,1232L1731,1228L1734,1226L1733,1223L1729,1221L1727,1222L1720,1215L1714,1214L1709,1216L1707,1214L1710,1209L1707,1204L1704,1208L1700,1208L1699,1203L1700,1199L1696,1193L1694,1189L1690,1187L1684,1183L1681,1180L1675,1177L1671,1178L1660,1176L1662,1163L1657,1162L1649,1162L1646,1165L1647,1170L1645,1177L1645,1186L1642,1190L1642,1193L1639,1199L1636,1209L1631,1219L1631,1221L1631,1229L1635,1238L1641,1237L1644,1240L1645,1248L1650,1255L1653,1270L1649,1269L1653,1274L1656,1274L1663,1280L1668,1279L1671,1280L1677,1287L1682,1291L1686,1292L1690,1298L1697,1303L1701,1308L1705,1315L1706,1323L1704,1334L1706,1339L1705,1349L1707,1352L1712,1355L1719,1370L1720,1374L1718,1376L1715,1375L1710,1375L1706,1377L1704,1373L1693,1368L1690,1364L1683,1361L1676,1355L1672,1353L1668,1350L1669,1347L1668,1343L1663,1337L1658,1331L1659,1330L1656,1324L1656,1319L1654,1312L1651,1302L1651,1295L1647,1287L1643,1282L1640,1280L1640,1276L1637,1272L1634,1271L1633,1268L1629,1262L1624,1259L1621,1254L1618,1257L1616,1256L1615,1252L1615,1246L1616,1243L1617,1237L1620,1227L1619,1221L1620,1218L1619,1213L1622,1207L1623,1203L1623,1196L1622,1194L1623,1185L1620,1168L1618,1162L1615,1158L1612,1158L1612,1150L1610,1147L1607,1138L1607,1132L1605,1119L1603,1117L1604,1112L1604,1107L1600,1108L1596,1098L1592,1093L1590,1095L1591,1098L1590,1103L1586,1107L1581,1109L1576,1112L1571,1114L1570,1117L1565,1122L1561,1120L1557,1120L1556,1117L1552,1119L1552,1115L1551,1112L1546,1117L1544,1115L1545,1108L1547,1105L1549,1096L1550,1093L1551,1088L1549,1084L1548,1077L1545,1069L1542,1064L1535,1062L1532,1055L1533,1055L1538,1058L1541,1054L1534,1048L1533,1045L1529,1043L1523,1042L1520,1040L1521,1037L1519,1033L1516,1035L1511,1029L1507,1022L1506,1012L1503,1003L1500,997L1497,991L1491,995L1487,995L1485,993L1482,986L1479,986L1478,992L1481,998L1481,1001L1474,1010L1472,1006L1468,1007L1463,1011L1461,1010L1454,1013L1446,1013L1440,1013L1435,1010L1430,1013L1420,1016L1416,1021L1416,1023L1418,1031L1414,1036L1414,1038L1410,1040L1406,1045L1394,1049L1392,1046L1388,1048L1391,1051L1387,1053L1380,1060L1374,1068L1368,1075L1360,1079L1352,1088L1342,1094L1337,1097L1336,1100L1337,1103L1336,1107L1327,1111L1321,1110L1318,1112L1316,1118L1313,1121L1311,1121L1308,1119L1301,1122L1298,1129L1297,1134L1299,1143L1298,1149L1301,1157L1297,1160L1302,1165L1300,1177L1299,1181L1294,1189L1292,1197L1294,1203L1293,1219L1286,1219L1283,1221L1283,1224L1279,1230L1277,1234L1278,1238L1269,1240L1265,1244L1264,1251L1262,1253L1257,1257L1253,1259L1249,1257L1243,1253L1236,1244L1232,1234L1234,1233L1232,1226L1225,1211L1222,1200L1218,1194L1212,1188L1208,1179L1205,1170L1203,1159L1200,1152L1198,1144L1191,1134L1190,1128L1188,1125L1182,1116L1180,1109L1178,1095L1177,1087L1174,1079L1172,1068L1174,1062L1171,1063L1171,1057L1168,1047L1169,1042L1172,1033L1171,1023L1169,1022L1167,1016L1171,1012L1166,1012L1166,1007L1167,1001L1162,1001L1161,1006L1157,1010L1161,1013L1161,1015L1157,1022L1146,1027L1140,1030L1134,1030L1130,1028L1124,1023L1117,1016L1108,1006L1104,1003L1104,999L1107,998L1109,1001L1114,999L1125,995L1127,991L1126,988L1119,990L1116,992L1108,990L1101,986L1098,984L1094,976L1091,976L1087,971L1081,972L1075,965L1072,954L1064,952L1064,945L1059,938L1046,942L1042,942L1031,943L1029,946L1020,943L1012,942L1008,945L992,944L988,947L978,946L974,945L972,947L959,944L956,941L954,943L948,942L940,941L938,940L931,941L926,938L918,938L909,937L908,935L901,934L898,929L897,923L896,917L895,912L892,909L884,906L876,910L871,911L867,915L865,914L858,919L854,920L847,916L837,916L833,911L825,908L820,904L816,898L808,894L802,894L795,888L792,880L791,876L788,873L788,869L784,868L784,862L776,852L772,846L765,850L754,843L754,848L746,852L740,850L737,850L737,858L733,862L739,864L741,871L744,875L749,888L751,891L754,898L758,902L762,907L765,907L768,911L772,914L773,920L776,924L773,928L778,938L781,941L782,947L787,951L786,941L790,930L795,927L800,932L799,939L801,946L800,950L796,962L804,963L806,969L812,968L819,965L831,966L841,967L849,963L856,953L862,948L869,940L876,934L880,926L885,923L884,934L884,949L889,959L893,965L899,970L906,972L914,974L918,975L922,975L926,978L930,985L939,995L944,997L944,1002L936,1016L928,1023L921,1036L916,1036L914,1033L910,1039L907,1051L909,1062L907,1063L898,1064L892,1067L889,1070L887,1077L882,1081L871,1083L868,1083L864,1088L865,1092L861,1098L856,1099L852,1098L844,1099L836,1103L830,1104L818,1108L813,1112L811,1118L811,1123L801,1129L790,1133L782,1134L776,1138L771,1138L761,1142L756,1145L755,1147L749,1152L743,1153L738,1152L731,1156L727,1159L717,1163L712,1164L706,1164L697,1165L692,1170L688,1171L686,1174L681,1175L679,1174L674,1177L667,1178L659,1174L655,1166L655,1160L655,1156L652,1153L651,1143L648,1133L645,1131L647,1128L646,1123L648,1116L647,1109L645,1104L640,1097L638,1091L634,1087L629,1083L624,1076L623,1072L620,1068L618,1061L611,1048L607,1044L600,1039L596,1038L591,1034L589,1030L585,1025L582,1019L583,1015L580,1008L582,999L580,990L577,986L576,982L571,974L568,970L562,965L555,963L549,953L550,950L548,944L544,937L542,935L540,929L537,928L533,918L526,909L524,905L521,902L518,896L514,890L504,888L507,881L507,876L511,861L506,865L504,876L501,884L500,890L497,895L494,894L489,890L486,886L480,879L477,869L471,860L468,851L465,858L468,863L470,871L474,879L479,886L486,893L486,898L492,909L493,917L494,919L499,929L503,936L514,959L519,965L522,967L520,973L520,979L523,988L527,992L532,994L536,999L543,1004L544,1014L549,1022L548,1023L550,1033L549,1041L550,1047L550,1051L552,1060L554,1065L562,1070L567,1076L573,1079L579,1091L583,1104L585,1114L586,1118L588,1121L590,1126L592,1127L593,1131L596,1127L599,1129L602,1135L609,1137L612,1140L619,1142L627,1153L637,1161L640,1167L642,1167L646,1171L647,1174L652,1174L653,1177L656,1181L658,1186L655,1190L647,1194L644,1197L653,1197L658,1201L662,1206L665,1211L671,1215L675,1217L684,1217L691,1213L700,1210L713,1211L720,1208L727,1204L733,1205L738,1204L745,1202L750,1201L754,1202L762,1201L766,1199L775,1197L781,1194L784,1190L786,1189L795,1192L792,1201L793,1213L791,1217L788,1220L787,1235L784,1240L780,1245L778,1251L774,1256L770,1261L768,1266L765,1272L761,1278L757,1288L756,1292L749,1304L742,1313L737,1321L729,1331L718,1343L704,1357L700,1360L684,1368L674,1376L669,1381L659,1389L643,1406L637,1413L633,1417L628,1425L622,1433L617,1435L616,1434L614,1440L609,1444L605,1445L602,1447L602,1453L600,1457L596,1462L595,1466L589,1478L585,1482L580,1496L578,1503L577,1506L578,1511L585,1517L586,1519L589,1520L590,1525L586,1532L588,1540L586,1548L589,1557L592,1561L592,1565L594,1574L598,1578L600,1578L605,1582L609,1587L607,1589L608,1594L605,1599L606,1605L607,1611L607,1613L608,1622L608,1626L608,1636L608,1637L609,1654L612,1655L613,1661L609,1667L609,1670L608,1673L600,1683L599,1686L476,1692L352,1694L229,1692L106,1686L106,1683L105,1680L109,1676L114,1658L116,1648L118,1642L119,1637L125,1629L127,1625L134,1620L139,1613L141,1608L141,1602L142,1594L139,1587L136,1583L131,1570L130,1565L127,1559L133,1552L133,1547L128,1536L124,1527L124,1522L119,1515L115,1507L117,1505L112,1498L113,1496L110,1488L106,1482L106,1480L93,1467L91,1464L86,1459L81,1453L70,1444L66,1438L62,1432L63,1427L58,1423L54,1416L54,1412L59,1410L62,1406L64,1397L70,1399L71,1397L65,1394L63,1389L68,1386L66,1381L64,1380L66,1375L68,1373L71,1366L71,1364L71,1356L74,1346L72,1342L69,1338L67,1334L65,1331L57,1329L55,1323L53,1320L50,1321L47,1317L45,1320L33,1321L30,1320L25,1321L22,1323L18,1324L6,1325L1,1322L-2,1319L-6,1310L-6,1306L-9,1304L-15,1295L-23,1289L-28,1288L-39,1288L-52,1288L-68,1291L-77,1293L-81,1294L-83,1298L-87,1299L-95,1299L-106,1304L-114,1309L-119,1309L-129,1313L-135,1317L-142,1314L-157,1311L-170,1309L-186,1310L-197,1311L-203,1312L-214,1317L-219,1318L-230,1324L-234,1324L-244,1320L-259,1312L-279,1294L-288,1290L-289,1287L-297,1283L-302,1278L-308,1274L-318,1271L-318,1266L-322,1265L-325,1262L-326,1257L-329,1256L-332,1252L-330,1250L-332,1239L-337,1233L-339,1233L-339,1227L-344,1225L-345,1222L-347,1222L-352,1220L-355,1215L-358,1208L-363,1208L-366,1204L-369,1203L-370,1200L-369,1196L-371,1194L-369,1190L-376,1193L-379,1190L-382,1190L-387,1185L-392,1183L-393,1168L-394,1165L-391,1163L-390,1159L-392,1156L-393,1152L-396,1146L-400,1142L-404,1139L-399,1137L-394,1130L-389,1120L-389,1112L-385,1100L-381,1089L-380,1083L-381,1071L-383,1062L-388,1055L-384,1048L-383,1039L-387,1031L-390,1032L-395,1023L-397,1024L-395,1008L-393,1003L-388,1000L-386,995L-383,985L-376,973L-377,971L-372,967L-365,959L-362,958L-359,952L-358,941L-353,931L-352,925L-344,920L-337,915L-330,897L-326,892L-309,888L-299,883L-293,876L-283,869L-272,855L-269,848L-268,842L-272,836L-272,834L-271,822L-269,816L-263,808L-261,798L-254,791L-250,785L-245,781L-232,776L-220,769L-218,766L-211,752L-203,730L-198,729L-194,727L-193,731L-189,737L-184,741L-176,744L-164,741L-159,743L-156,742L-152,738L-150,744L-135,745L-129,743L-123,739L-116,733L-107,729L-103,730L-99,728L-97,724L-91,720L-78,714L-55,713L-48,709L-39,708L-34,706L-17,706L-9,711L-5,711L0,708L6,707L13,702L15,704L21,706L33,704L38,707L50,705L54,704L60,700L69,697L78,700L78,703L82,710L85,707L93,702L94,707L88,715L84,719L83,722L85,728L92,734L94,742L90,750L84,757L78,761L75,767L77,771L82,775L87,775L87,779L93,778L95,782L99,785L106,787L114,792L123,793L132,791L138,793L148,796L153,799L165,802L168,807L168,811L170,817L174,822L181,825L193,826L203,829L217,835L226,842L231,845L237,845L244,841L249,834L252,829L251,824L248,819L248,814L251,805L260,798L268,794L274,793L278,791L287,791L303,797L303,803L306,806L315,807L321,810L331,810L337,812L340,820L343,820L352,818L376,823L381,826L386,826L388,828L398,829L407,834L416,830L422,826L427,825L430,821L436,822L441,821L444,818L450,821L457,819L455,824L459,826L460,829L464,825L469,829L478,827L488,828L496,824L502,818L505,812L510,797L515,781L522,768L522,763L528,757L527,750L527,742L527,738L524,735L526,729L528,726L525,719L532,711L529,706L522,710L520,713L514,712L508,708L504,709L499,713L494,718L488,722L472,725L465,722L459,714L447,708L435,707L432,719L428,719L418,722L412,720L409,717L407,711L401,711L397,708L385,710L391,703L377,704L380,699L375,695L373,689L375,688L375,682L366,678L364,679L359,676L361,672L369,674L370,671L367,666L371,662L368,661L369,657L366,653L368,647L356,649L357,637L359,637L367,628L376,627L380,630L394,628L406,628L402,625L413,619L407,614L408,610L412,609L422,611L430,610L438,612L446,612L449,607L460,600L464,597L483,590L497,592L507,592L511,589L516,597L521,599L529,598L531,604L537,608L542,606L547,610L559,612L562,614L570,616L588,612L595,615L603,615L615,609L623,604L628,598L629,592L624,575L618,571L613,566L607,564L596,556L586,546L576,536L566,533L561,526L553,525L549,519L539,514L545,511L557,509L556,505L560,499L562,494L566,491L572,491L565,484L563,478L571,473L577,471L586,466L584,461L579,464L572,464L566,466L555,466L552,470L533,477L525,478L518,484L515,483L512,487L508,489L508,494L511,501L517,510L521,511L531,507L538,509L535,517L526,518L519,516L512,523L506,523L502,525L498,530L492,534L484,530L487,521L486,516L479,514L475,510L467,509L478,500L488,495L479,489L467,492L459,487L459,483L465,482L458,476L437,480L433,491L427,497L417,502L419,510L416,522L407,525L400,536L400,543L398,555L397,558L391,558L387,563L387,573L380,580L384,583L388,590L388,594L392,601L395,603L407,609L405,614L402,615L392,612L387,614L380,615L376,621L367,626L360,634L358,630L368,623L356,623L351,618L341,616L338,614L333,617L326,616L320,621L315,620L317,625L314,631L318,634L316,637L313,632L307,632L295,626L294,636L299,642L300,646L306,653L301,652L299,654L301,659L297,664L306,667L308,670L311,671L313,674L318,676L320,688L317,687L312,682L305,683L305,690L310,694L304,697L303,694L297,691L297,695L301,704L303,709L301,714L298,709L295,709L293,713L285,703L283,704L282,710L277,702L279,697L276,692L272,689L269,684L274,678L278,678L281,675L294,680L298,682L304,680L291,672L288,674L283,673L275,675L273,673L268,673L266,667L263,664L268,662L269,659L263,660L254,652L252,647L249,644L246,636L239,631L239,626L238,623L240,616L239,604L242,596L235,592L230,585L211,572L207,571L206,568L195,558L186,554L179,555L178,551L171,545L164,537L167,534L160,526L159,517L151,510L144,523L142,523L138,516L136,507L141,503L130,499L127,503L118,507L114,508L113,513L119,519L114,525L116,538L122,543L125,545L137,553L141,563L145,575L148,579L159,590L165,592L179,592L182,596L178,600L179,604L189,609L199,613L205,618L213,622L220,629L223,635L220,641L216,639L212,631L205,630L200,626L195,627L191,634L189,640L190,645L194,647L199,651L200,660L192,662L189,666L189,673L184,676L180,683L174,683L173,678L176,675L179,666L183,665L180,652L174,637L167,635L161,632L162,628L158,622L152,623L150,618L146,618L140,609L131,607L128,608L120,603L111,592L106,589L103,584L95,580L95,578L87,569L84,568L84,564L80,555L79,547L75,543L70,541L62,535L53,533L49,535L41,545L25,551L13,563L7,565L1,565L-6,562L-12,557L-19,558L-27,555L-29,553L-43,563L-47,569L-46,577L-42,584L-45,585L-43,592L-48,596L-60,603L-64,607L-82,613L-88,618L-94,630L-101,640L-106,648L-104,658L-96,665L-107,672L-111,679L-114,688L-114,691L-123,692L-129,696L-131,699L-134,705L-137,709L-145,708L-149,710L-157,709L-160,710L-167,709L-176,710L-182,715L-190,717L-194,723L-198,725L-205,722L-209,713L-211,712L-213,705L-220,700L-231,700L-237,704L-250,701L-257,703L-254,695L-253,688L-255,683L-254,678L-256,671L-261,672L-261,667L-265,666L-264,652L-260,647L-254,634L-255,633L-251,613L-254,599L-255,596L-255,588L-252,584L-257,577L-258,572L-261,568L-260,563L-255,559L-249,559L-244,557L-244,553L-234,549L-227,553L-199,553L-179,557L-175,557L-163,555L-153,558L-150,556L-141,559L-135,559L-128,557L-126,554L-123,543L-122,529L-121,515L-119,505L-119,499L-120,486L-124,485L-131,481L-136,473L-135,467L-144,460L-142,456L-148,455L-155,450L-168,447L-175,447L-181,440L-177,433L-182,433L-182,428L-171,424L-165,424L-156,420L-152,422L-147,428L-143,426L-125,426L-127,421L-128,411L-133,400L-132,398L-122,398L-120,406L-103,408L-95,404L-97,397L-89,393L-78,389L-73,381L-72,369L-67,362L-57,360L-37,349L-35,345L-27,345L-31,339L-22,325L-18,311L-6,302L-3,297L6,293L19,292L27,285L40,285L49,289L50,280L55,281L55,268L51,264L56,260L52,252L50,233L42,227L43,215L42,211L42,196L49,197L45,188L50,180L62,179L67,176L74,165L79,163L84,169L84,176L80,183L79,195L83,199L89,199L89,206L80,208L78,219L67,231L68,245L78,264L81,263L92,270L89,274L99,277L106,271L111,271L119,262L127,264L135,272L140,271L142,280L153,286L157,275L183,267L189,259L201,254L211,251L220,251L226,263L231,265L239,264L245,260L249,248L258,246L265,249L270,248L271,232L268,221L267,207L268,189L273,183L275,173L279,165L294,160L295,164L304,173L306,180L313,184L318,183L324,178L326,173L324,158L328,139L321,142L315,139L310,129L309,120L310,111L320,107L326,101L344,100L345,96L365,99L371,102L387,103L397,90L405,89L409,83L426,87L419,76L407,76L400,70L400,62L379,67L375,64L363,69L348,71L339,76L325,82L314,84L298,80L292,82L294,70L274,62L273,49L275,41L275,28L277,26L271,11L273,3L268,-12L270,-19L278,-28L276,-35L286,-36L288,-44L306,-62L324,-87L329,-98L343,-107L341,-112L342,-126L329,-138L313,-141L303,-137L297,-143L290,-142L288,-131L282,-124L276,-123L277,-112L269,-99L275,-81L267,-73L262,-61L244,-45L238,-45L232,-36L225,-34L222,-23L212,-20L211,-8L203,-5L207,3L203,16L204,21L199,27L201,58L213,62L219,70L224,74L230,85L231,91ZM785,470L780,471L773,478L761,481L757,489L750,492L741,500L729,504L729,507L722,521L716,527L716,533L721,535L724,538L728,548L731,548L729,555L728,566L733,572L735,576L742,587L744,592L749,596L757,607L759,614L765,621L769,624L773,624L778,628L765,633L761,646L762,652L759,658L755,657L753,664L753,673L755,684L757,689L763,693L775,695L779,701L782,704L792,710L803,712L811,712L832,707L843,705L840,689L839,684L840,661L836,655L827,650L829,646L833,645L832,638L825,637L821,632L820,628L824,613L828,618L836,618L840,622L846,621L848,618L855,617L853,610L844,602L840,589L836,588L828,589L825,591L822,606L818,602L816,596L816,588L818,581L818,573L805,569L801,563L795,563L795,556L793,552L787,538L778,535L777,533L780,528L788,528L793,531L797,530L791,523L791,519L794,516L797,510L803,509L817,509L826,511L827,509L821,504L826,495L827,489L826,480L828,477L824,470L816,469L811,472L803,470L801,468L793,466Z"></path></clipPath><g id="land-def-2"><path d="M295,130L301,131L307,135L297,142L287,147L282,142L285,135Z"></path><path d="M955,-332L955,-322L940,-322L939,-329L929,-330L921,-349L930,-359L941,-346Z"></path><path d="M316,736L322,734L324,739L331,738L345,741L349,740L349,744L359,741L358,746L333,749L331,745L327,744L311,741L311,736Z"></path><path d="M309,661L310,663L317,667L321,667L324,677L329,679L328,683L323,679L320,673L315,673L306,664Z"></path><path d="M501,734L492,741L494,747L488,748L485,751L478,754L475,756L466,753L464,748L470,743L474,743L475,739L484,740Z"></path><path d="M233,156L228,160L226,176L219,181L216,175L217,165L224,156L229,154Z"></path><path d="M119,222L119,225L113,231L117,237L111,240L110,251L105,248L103,240L97,240L95,232L92,224L98,223L100,217L107,216L113,211L120,213Z"></path><path d="M86,227L89,236L88,242L82,244L74,241L72,230L80,227Z"></path><path d="M-45,642L-40,644L-43,651L-46,653L-52,650L-54,647L-59,646L-51,640L-45,638Z"></path><path d="M1083,-715L1057,-696L1011,-674L971,-649L959,-631L951,-614L934,-607L932,-595L922,-594L924,-581L920,-570L908,-563L910,-553L894,-523L885,-519L860,-528L848,-522L846,-534L838,-548L854,-560L870,-603L886,-625L896,-654L909,-662L928,-687L948,-696L952,-704L966,-706L968,-718L999,-715L1025,-725L1050,-743L1053,-753L1079,-773L1095,-767L1102,-756L1103,-740L1090,-718Z"></path><path d="M866,-519L885,-513L879,-488L873,-487L866,-469L869,-455L865,-439L878,-406L893,-384L906,-373L897,-366L872,-371L853,-371L838,-378L835,-391L840,-398L832,-406L831,-417L804,-414L798,-430L800,-447L812,-450L818,-460L824,-481L817,-485L829,-499L828,-510L838,-518L857,-524Z"></path><path d="M68,617L71,626L68,631L69,635L68,652L67,656L58,654L57,659L55,662L51,661L47,655L48,643L47,639L48,630L43,622L43,617L48,618L54,615L57,612L62,609L68,614Z"></path><path d="M65,572L67,588L64,593L64,597L60,605L54,600L52,596L52,589L50,586L52,578Z"></path><path d="M172,677L166,687L164,694L167,704L164,706L164,711L158,710L153,708L151,705L147,702L143,702L126,691L122,691L117,686L119,681L122,678L125,681L130,678L133,678L139,682L153,681L159,678L164,679L171,676Z"></path><path d="M-154,134L-156,140L-170,152L-168,164L-159,160L-154,162L-136,161L-131,167L-135,175L-139,188L-145,197L-146,205L-155,212L-153,216L-145,214L-137,218L-129,228L-123,253L-120,256L-112,261L-101,272L-104,275L-94,301L-99,308L-95,311L-90,306L-82,306L-71,312L-70,320L-73,331L-78,338L-83,339L-84,346L-88,351L-75,352L-76,357L-82,361L-83,364L-96,368L-104,367L-114,368L-122,366L-126,369L-135,369L-136,373L-144,372L-152,370L-159,372L-163,381L-166,383L-173,379L-183,381L-191,389L-193,383L-180,368L-179,363L-175,361L-173,357L-167,355L-155,356L-145,345L-152,347L-157,351L-162,350L-169,345L-172,346L-177,341L-186,344L-189,342L-189,334L-177,328L-172,325L-169,318L-172,308L-181,308L-172,299L-158,295L-153,293L-151,284L-153,279L-150,272L-155,272L-162,262L-160,247L-169,252L-175,251L-179,253L-190,250L-182,233L-185,224L-185,213L-192,217L-197,234L-201,235L-198,221L-198,213L-194,199L-204,196L-205,191L-200,188L-197,176L-202,169L-198,155L-194,149L-193,143L-187,142L-188,134L-182,134L-153,130Z"></path><path d="M-225,244L-221,240L-213,238L-207,239L-200,251L-195,261L-198,268L-204,273L-211,276L-207,288L-207,296L-205,307L-209,318L-215,328L-218,328L-231,331L-234,334L-254,346L-262,348L-272,348L-267,343L-271,340L-280,340L-281,338L-274,330L-273,322L-267,318L-262,302L-271,294L-272,288L-272,276L-274,268L-263,267L-250,269L-251,265L-244,261L-253,255L-246,249L-244,241L-236,240L-226,235L-222,239Z"></path><path d="M-371,-158L-357,-151L-358,-138L-350,-133L-343,-132L-338,-127L-341,-121L-337,-109L-347,-95L-352,-92L-354,-84L-362,-78L-370,-76L-380,-70L-390,-61L-411,-55L-413,-48L-426,-43L-436,-44L-453,-48L-471,-63L-474,-60L-495,-59L-493,-66L-485,-69L-481,-74L-483,-87L-489,-90L-492,-98L-507,-99L-517,-96L-519,-101L-496,-108L-482,-108L-492,-116L-482,-123L-484,-127L-500,-131L-517,-123L-523,-127L-517,-139L-514,-152L-511,-156L-495,-149L-501,-163L-491,-167L-477,-152L-472,-143L-475,-133L-471,-124L-462,-134L-455,-137L-455,-150L-450,-151L-442,-139L-438,-152L-428,-156L-413,-155L-407,-147L-399,-157L-392,-154L-387,-161L-389,-168L-379,-171Z"></path><path d="M300,123L293,128L291,122L294,115L300,118Z"></path><path d="M386,727L384,722L387,718L392,717L391,721Z"></path><path d="M355,677L351,671L354,669L356,672Z"></path><path d="M361,652L364,657L362,660L357,659L352,657L352,653L357,651Z"></path><path d="M344,637L343,641L337,640L337,637Z"></path><path d="M-201,204L-208,206L-207,195L-201,200Z"></path><path d="M-123,64L-119,70L-121,79L-126,73Z"></path><path d="M-208,139L-212,150L-220,153L-224,145L-209,134Z"></path><path d="M-207,167L-207,173L-218,169L-209,162Z"></path><path d="M249,71L254,74L245,80L244,74Z"></path><path d="M163,245L156,243L158,237L164,241Z"></path><path d="M139,264L133,269L130,266L130,260L134,255L139,260Z"></path><path d="M98,249L105,252L100,257L93,253Z"></path><path d="M250,650L247,649L243,643L248,643L248,649Z"></path><path d="M214,106L223,104L219,114L205,122L196,129L195,135L191,136L193,144L191,154L189,157L191,167L188,175L188,181L185,193L179,208L167,210L158,210L148,220L150,230L147,234L141,233L133,235L125,233L127,224L120,211L123,207L125,196L117,186L105,160L104,152L100,147L100,140L97,135L95,115L89,111L86,104L78,117L68,119L49,141L43,146L30,150L22,150L16,142L12,142L0,133L-4,127L-3,118L2,119L4,111L2,105L-6,112L-10,110L-7,95L1,95L0,88L-11,89L-9,80L-8,63L-12,58L-13,32L-14,22L-3,-1L7,-6L11,-12L27,-12L26,-17L18,-15L22,-25L32,-31L41,-30L44,-38L50,-39L47,-48L54,-52L63,-49L69,-51L76,-44L88,-45L87,-51L73,-47L69,-61L84,-83L96,-93L98,-103L112,-114L114,-130L126,-149L129,-158L129,-172L138,-183L158,-215L158,-229L167,-241L180,-247L189,-260L191,-267L204,-276L209,-290L216,-293L219,-309L231,-313L235,-323L250,-329L269,-330L274,-344L296,-355L302,-341L313,-356L320,-360L326,-372L323,-378L330,-388L350,-380L341,-364L345,-353L363,-383L367,-380L364,-359L371,-362L375,-385L382,-393L396,-386L399,-375L408,-380L427,-364L434,-362L440,-350L422,-340L417,-334L420,-322L432,-325L449,-320L458,-333L475,-323L465,-309L484,-307L488,-301L497,-301L508,-297L516,-299L526,-295L559,-271L571,-255L578,-253L591,-241L599,-239L605,-230L615,-225L618,-204L622,-202L619,-185L607,-168L600,-161L586,-154L570,-151L557,-154L551,-158L520,-166L508,-175L484,-182L473,-193L467,-189L480,-172L487,-168L486,-162L500,-154L507,-143L504,-128L501,-123L507,-106L509,-88L511,-84L522,-81L531,-73L535,-66L553,-59L564,-67L562,-79L549,-82L538,-100L544,-114L555,-111L563,-101L594,-89L599,-97L606,-97L603,-106L595,-121L595,-131L604,-138L610,-147L624,-154L637,-171L644,-167L655,-167L670,-149L670,-159L676,-178L673,-197L664,-204L672,-238L669,-264L687,-265L701,-261L715,-237L715,-231L695,-227L684,-214L684,-208L695,-201L703,-186L715,-185L729,-189L733,-194L736,-219L753,-225L758,-232L771,-241L787,-254L817,-266L820,-273L839,-285L842,-278L838,-268L842,-249L852,-251L867,-265L878,-269L897,-264L915,-280L928,-286L936,-273L931,-259L940,-254L945,-258L945,-271L956,-272L963,-285L959,-291L950,-315L965,-328L978,-323L1006,-319L1020,-312L1035,-299L1059,-283L1069,-279L1082,-262L1096,-254L1101,-265L1107,-283L1096,-284L1089,-297L1087,-309L1070,-320L1068,-336L1072,-347L1074,-374L1064,-382L1068,-403L1079,-410L1092,-425L1097,-443L1105,-481L1116,-495L1148,-496L1171,-483L1168,-447L1162,-426L1155,-418L1158,-404L1167,-396L1169,-378L1169,-359L1166,-344L1167,-309L1166,-289L1171,-277L1184,-265L1177,-246L1177,-232L1167,-219L1154,-193L1146,-191L1149,-182L1138,-172L1128,-175L1120,-185L1105,-183L1108,-174L1128,-163L1142,-164L1155,-159L1162,-163L1164,-173L1180,-184L1188,-192L1193,-211L1205,-227L1205,-241L1198,-258L1202,-274L1211,-279L1234,-285L1248,-260L1247,-228L1256,-219L1253,-238L1256,-247L1261,-250L1255,-281L1226,-297L1216,-297L1206,-290L1188,-295L1190,-306L1184,-321L1189,-344L1195,-358L1197,-369L1183,-402L1176,-412L1186,-434L1209,-451L1211,-467L1205,-490L1215,-489L1222,-460L1213,-432L1218,-423L1215,-406L1228,-399L1254,-397L1263,-387L1265,-402L1252,-405L1232,-420L1227,-438L1242,-445L1254,-434L1265,-440L1252,-454L1270,-465L1286,-464L1295,-455L1310,-448L1311,-441L1323,-428L1333,-426L1348,-429L1353,-424L1347,-410L1337,-402L1337,-377L1346,-385L1349,-365L1343,-347L1357,-353L1361,-364L1351,-393L1359,-420L1352,-436L1342,-439L1334,-456L1319,-463L1311,-471L1308,-484L1311,-498L1305,-506L1303,-522L1306,-535L1328,-541L1358,-541L1411,-556L1422,-555L1411,-578L1401,-582L1413,-596L1397,-604L1404,-615L1412,-606L1426,-624L1430,-636L1459,-660L1474,-668L1497,-672L1503,-678L1533,-687L1526,-694L1551,-708L1574,-706L1575,-698L1591,-692L1622,-715L1639,-715L1624,-733L1651,-732L1660,-736L1665,-749L1663,-771L1672,-788L1700,-822L1715,-830L1748,-811L1751,-803L1731,-786L1745,-772L1766,-775L1775,-766L1761,-740L1778,-735L1785,-751L1809,-753L1839,-751L1866,-725L1869,-707L1880,-705L1887,-687L1883,-668L1883,-648L1871,-629L1852,-610L1843,-605L1817,-583L1817,-573L1804,-564L1788,-543L1772,-539L1762,-521L1753,-519L1744,-498L1751,-498L1758,-509L1781,-511L1817,-529L1827,-539L1816,-545L1818,-558L1824,-563L1838,-558L1857,-544L1869,-546L1891,-536L1904,-538L1913,-544L1919,-543L1919,435L1919,990L1918,990L1916,993L1911,991L1905,995L1901,992L1898,996L1894,996L1894,1001L1888,998L1887,995L1883,990L1882,987L1878,989L1882,995L1882,1002L1877,1005L1872,1004L1872,1007L1869,1007L1865,1010L1860,1011L1854,1009L1848,1015L1839,1016L1833,1018L1830,1021L1828,1021L1823,1024L1823,1028L1829,1034L1828,1037L1822,1039L1819,1038L1819,1035L1814,1027L1814,1023L1819,1016L1812,1015L1805,1017L1803,1013L1791,1012L1789,1015L1782,1016L1775,1020L1774,1024L1762,1026L1763,1030L1760,1034L1759,1038L1753,1044L1750,1045L1747,1051L1746,1057L1743,1063L1748,1071L1754,1076L1759,1082L1758,1086L1763,1092L1770,1098L1771,1101L1780,1108L1782,1111L1785,1111L1790,1115L1790,1117L1797,1126L1799,1128L1801,1135L1804,1140L1804,1143L1808,1156L1807,1156L1807,1166L1810,1172L1806,1177L1806,1194L1803,1196L1802,1201L1799,1201L1790,1208L1787,1209L1785,1212L1782,1212L1772,1218L1769,1216L1764,1217L1764,1223L1760,1227L1760,1231L1757,1232L1754,1230L1753,1235L1741,1241L1738,1246L1735,1249L1731,1250L1729,1246L1730,1232L1731,1228L1734,1226L1733,1223L1729,1221L1727,1222L1720,1215L1714,1214L1709,1216L1707,1214L1710,1209L1707,1204L1704,1208L1700,1208L1699,1203L1700,1199L1696,1193L1694,1189L1690,1187L1684,1183L1681,1180L1675,1177L1671,1178L1660,1176L1662,1163L1657,1162L1649,1162L1646,1165L1647,1170L1645,1177L1645,1186L1642,1190L1642,1193L1639,1199L1636,1209L1631,1219L1631,1221L1631,1229L1635,1238L1641,1237L1644,1240L1645,1248L1650,1255L1653,1270L1649,1269L1653,1274L1656,1274L1663,1280L1668,1279L1671,1280L1677,1287L1682,1291L1686,1292L1690,1298L1697,1303L1701,1308L1705,1315L1706,1323L1704,1334L1706,1339L1705,1349L1707,1352L1712,1355L1719,1370L1720,1374L1718,1376L1715,1375L1710,1375L1706,1377L1704,1373L1693,1368L1690,1364L1683,1361L1676,1355L1672,1353L1668,1350L1669,1347L1668,1343L1663,1337L1658,1331L1659,1330L1656,1324L1656,1319L1654,1312L1651,1302L1651,1295L1647,1287L1643,1282L1640,1280L1640,1276L1637,1272L1634,1271L1633,1268L1629,1262L1624,1259L1621,1254L1618,1257L1616,1256L1615,1252L1615,1246L1616,1243L1617,1237L1620,1227L1619,1221L1620,1218L1619,1213L1622,1207L1623,1203L1623,1196L1622,1194L1623,1185L1620,1168L1618,1162L1615,1158L1612,1158L1612,1150L1610,1147L1607,1138L1607,1132L1605,1119L1603,1117L1604,1112L1604,1107L1600,1108L1596,1098L1592,1093L1590,1095L1591,1098L1590,1103L1586,1107L1581,1109L1576,1112L1571,1114L1570,1117L1565,1122L1561,1120L1557,1120L1556,1117L1552,1119L1552,1115L1551,1112L1546,1117L1544,1115L1545,1108L1547,1105L1549,1096L1550,1093L1551,1088L1549,1084L1548,1077L1545,1069L1542,1064L1535,1062L1532,1055L1533,1055L1538,1058L1541,1054L1534,1048L1533,1045L1529,1043L1523,1042L1520,1040L1521,1037L1519,1033L1516,1035L1511,1029L1507,1022L1506,1012L1503,1003L1500,997L1497,991L1491,995L1487,995L1485,993L1482,986L1479,986L1478,992L1481,998L1481,1001L1474,1010L1472,1006L1468,1007L1463,1011L1461,1010L1454,1013L1446,1013L1440,1013L1435,1010L1430,1013L1420,1016L1416,1021L1416,1023L1418,1031L1414,1036L1414,1038L1410,1040L1406,1045L1394,1049L1392,1046L1388,1048L1391,1051L1387,1053L1380,1060L1374,1068L1368,1075L1360,1079L1352,1088L1342,1094L1337,1097L1336,1100L1337,1103L1336,1107L1327,1111L1321,1110L1318,1112L1316,1118L1313,1121L1311,1121L1308,1119L1301,1122L1298,1129L1297,1134L1299,1143L1298,1149L1301,1157L1297,1160L1302,1165L1300,1177L1299,1181L1294,1189L1292,1197L1294,1203L1293,1219L1286,1219L1283,1221L1283,1224L1279,1230L1277,1234L1278,1238L1269,1240L1265,1244L1264,1251L1262,1253L1257,1257L1253,1259L1249,1257L1243,1253L1236,1244L1232,1234L1234,1233L1232,1226L1225,1211L1222,1200L1218,1194L1212,1188L1208,1179L1205,1170L1203,1159L1200,1152L1198,1144L1191,1134L1190,1128L1188,1125L1182,1116L1180,1109L1178,1095L1177,1087L1174,1079L1172,1068L1174,1062L1171,1063L1171,1057L1168,1047L1169,1042L1172,1033L1171,1023L1169,1022L1167,1016L1171,1012L1166,1012L1166,1007L1167,1001L1162,1001L1161,1006L1157,1010L1161,1013L1161,1015L1157,1022L1146,1027L1140,1030L1134,1030L1130,1028L1124,1023L1117,1016L1108,1006L1104,1003L1104,999L1107,998L1109,1001L1114,999L1125,995L1127,991L1126,988L1119,990L1116,992L1108,990L1101,986L1098,984L1094,976L1091,976L1087,971L1081,972L1075,965L1072,954L1064,952L1064,945L1059,938L1046,942L1042,942L1031,943L1029,946L1020,943L1012,942L1008,945L992,944L988,947L978,946L974,945L972,947L959,944L956,941L954,943L948,942L940,941L938,940L931,941L926,938L918,938L909,937L908,935L901,934L898,929L897,923L896,917L895,912L892,909L884,906L876,910L871,911L867,915L865,914L858,919L854,920L847,916L837,916L833,911L825,908L820,904L816,898L808,894L802,894L795,888L792,880L791,876L788,873L788,869L784,868L784,862L776,852L772,846L765,850L754,843L754,848L746,852L740,850L737,850L737,858L733,862L739,864L741,871L744,875L749,888L751,891L754,898L758,902L762,907L765,907L768,911L772,914L773,920L776,924L773,928L778,938L781,941L782,947L787,951L786,941L790,930L795,927L800,932L799,939L801,946L800,950L796,962L804,963L806,969L812,968L819,965L831,966L841,967L849,963L856,953L862,948L869,940L876,934L880,926L885,923L884,934L884,949L889,959L893,965L899,970L906,972L914,974L918,975L922,975L926,978L930,985L939,995L944,997L944,1002L936,1016L928,1023L921,1036L916,1036L914,1033L910,1039L907,1051L909,1062L907,1063L898,1064L892,1067L889,1070L887,1077L882,1081L871,1083L868,1083L864,1088L865,1092L861,1098L856,1099L852,1098L844,1099L836,1103L830,1104L818,1108L813,1112L811,1118L811,1123L801,1129L790,1133L782,1134L776,1138L771,1138L761,1142L756,1145L755,1147L749,1152L743,1153L738,1152L731,1156L727,1159L717,1163L712,1164L706,1164L697,1165L692,1170L688,1171L686,1174L681,1175L679,1174L674,1177L667,1178L659,1174L655,1166L655,1160L655,1156L652,1153L651,1143L648,1133L645,1131L647,1128L646,1123L648,1116L647,1109L645,1104L640,1097L638,1091L634,1087L629,1083L624,1076L623,1072L620,1068L618,1061L611,1048L607,1044L600,1039L596,1038L591,1034L589,1030L585,1025L582,1019L583,1015L580,1008L582,999L580,990L577,986L576,982L571,974L568,970L562,965L555,963L549,953L550,950L548,944L544,937L542,935L540,929L537,928L533,918L526,909L524,905L521,902L518,896L514,890L504,888L507,881L507,876L511,861L506,865L504,876L501,884L500,890L497,895L494,894L489,890L486,886L480,879L477,869L471,860L468,851L465,858L468,863L470,871L474,879L479,886L486,893L486,898L492,909L493,917L494,919L499,929L503,936L514,959L519,965L522,967L520,973L520,979L523,988L527,992L532,994L536,999L543,1004L544,1014L549,1022L548,1023L550,1033L549,1041L550,1047L550,1051L552,1060L554,1065L562,1070L567,1076L573,1079L579,1091L583,1104L585,1114L586,1118L588,1121L590,1126L592,1127L593,1131L596,1127L599,1129L602,1135L609,1137L612,1140L619,1142L627,1153L637,1161L640,1167L642,1167L646,1171L647,1174L652,1174L653,1177L656,1181L658,1186L655,1190L647,1194L644,1197L653,1197L658,1201L662,1206L665,1211L671,1215L675,1217L684,1217L691,1213L700,1210L713,1211L720,1208L727,1204L733,1205L738,1204L745,1202L750,1201L754,1202L762,1201L766,1199L775,1197L781,1194L784,1190L786,1189L795,1192L792,1201L793,1213L791,1217L788,1220L787,1235L784,1240L780,1245L778,1251L774,1256L770,1261L768,1266L765,1272L761,1278L757,1288L756,1292L749,1304L742,1313L737,1321L729,1331L718,1343L704,1357L700,1360L684,1368L674,1376L669,1381L659,1389L643,1406L637,1413L633,1417L628,1425L622,1433L617,1435L616,1434L614,1440L609,1444L605,1445L602,1447L602,1453L600,1457L596,1462L595,1466L589,1478L585,1482L580,1496L578,1503L577,1506L578,1511L585,1517L586,1519L589,1520L590,1525L586,1532L588,1540L586,1548L589,1557L592,1561L592,1565L594,1574L598,1578L600,1578L605,1582L609,1587L607,1589L608,1594L605,1599L606,1605L607,1611L607,1613L608,1622L608,1626L608,1636L608,1637L609,1654L612,1655L613,1661L609,1667L609,1670L608,1673L600,1683L599,1686L476,1692L352,1694L229,1692L106,1686L106,1683L105,1680L109,1676L114,1658L116,1648L118,1642L119,1637L125,1629L127,1625L134,1620L139,1613L141,1608L141,1602L142,1594L139,1587L136,1583L131,1570L130,1565L127,1559L133,1552L133,1547L128,1536L124,1527L124,1522L119,1515L115,1507L117,1505L112,1498L113,1496L110,1488L106,1482L106,1480L93,1467L91,1464L86,1459L81,1453L70,1444L66,1438L62,1432L63,1427L58,1423L54,1416L54,1412L59,1410L62,1406L64,1397L70,1399L71,1397L65,1394L63,1389L68,1386L66,1381L64,1380L66,1375L68,1373L71,1366L71,1364L71,1356L74,1346L72,1342L69,1338L67,1334L65,1331L57,1329L55,1323L53,1320L50,1321L47,1317L45,1320L33,1321L30,1320L25,1321L22,1323L18,1324L6,1325L1,1322L-2,1319L-6,1310L-6,1306L-9,1304L-15,1295L-23,1289L-28,1288L-39,1288L-52,1288L-68,1291L-77,1293L-81,1294L-83,1298L-87,1299L-95,1299L-106,1304L-114,1309L-119,1309L-129,1313L-135,1317L-142,1314L-157,1311L-170,1309L-186,1310L-197,1311L-203,1312L-214,1317L-219,1318L-230,1324L-234,1324L-244,1320L-259,1312L-279,1294L-288,1290L-289,1287L-297,1283L-302,1278L-308,1274L-318,1271L-318,1266L-322,1265L-325,1262L-326,1257L-329,1256L-332,1252L-330,1250L-332,1239L-337,1233L-339,1233L-339,1227L-344,1225L-345,1222L-347,1222L-352,1220L-355,1215L-358,1208L-363,1208L-366,1204L-369,1203L-370,1200L-369,1196L-371,1194L-369,1190L-376,1193L-379,1190L-382,1190L-387,1185L-392,1183L-393,1168L-394,1165L-391,1163L-390,1159L-392,1156L-393,1152L-396,1146L-400,1142L-404,1139L-399,1137L-394,1130L-389,1120L-389,1112L-385,1100L-381,1089L-380,1083L-381,1071L-383,1062L-388,1055L-384,1048L-383,1039L-387,1031L-390,1032L-395,1023L-397,1024L-395,1008L-393,1003L-388,1000L-386,995L-383,985L-376,973L-377,971L-372,967L-365,959L-362,958L-359,952L-358,941L-353,931L-352,925L-344,920L-337,915L-330,897L-326,892L-309,888L-299,883L-293,876L-283,869L-272,855L-269,848L-268,842L-272,836L-272,834L-271,822L-269,816L-263,808L-261,798L-254,791L-250,785L-245,781L-232,776L-220,769L-218,766L-211,752L-203,730L-198,729L-194,727L-193,731L-189,737L-184,741L-176,744L-164,741L-159,743L-156,742L-152,738L-150,744L-135,745L-129,743L-123,739L-116,733L-107,729L-103,730L-99,728L-97,724L-91,720L-78,714L-55,713L-48,709L-39,708L-34,706L-17,706L-9,711L-5,711L0,708L6,707L13,702L15,704L21,706L33,704L38,707L50,705L54,704L60,700L69,697L78,700L78,703L82,710L85,707L93,702L94,707L88,715L84,719L83,722L85,728L92,734L94,742L90,750L84,757L78,761L75,767L77,771L82,775L87,775L87,779L93,778L95,782L99,785L106,787L114,792L123,793L132,791L138,793L148,796L153,799L165,802L168,807L168,811L170,817L174,822L181,825L193,826L203,829L217,835L226,842L231,845L237,845L244,841L249,834L252,829L251,824L248,819L248,814L251,805L260,798L268,794L274,793L278,791L287,791L303,797L303,803L306,806L315,807L321,810L331,810L337,812L340,820L343,820L352,818L376,823L381,826L386,826L388,828L398,829L407,834L416,830L422,826L427,825L430,821L436,822L441,821L444,818L450,821L457,819L455,824L459,826L460,829L464,825L469,829L478,827L488,828L496,824L502,818L505,812L510,797L515,781L522,768L522,763L528,757L527,750L527,742L527,738L524,735L526,729L528,726L525,719L532,711L529,706L522,710L520,713L514,712L508,708L504,709L499,713L494,718L488,722L472,725L465,722L459,714L447,708L435,707L432,719L428,719L418,722L412,720L409,717L407,711L401,711L397,708L385,710L391,703L377,704L380,699L375,695L373,689L375,688L375,682L366,678L364,679L359,676L361,672L369,674L370,671L367,666L371,662L368,661L369,657L366,653L368,647L356,649L357,637L359,637L367,628L376,627L380,630L394,628L406,628L402,625L413,619L407,614L408,610L412,609L422,611L430,610L438,612L446,612L449,607L460,600L464,597L483,590L497,592L507,592L511,589L516,597L521,599L529,598L531,604L537,608L542,606L547,610L559,612L562,614L570,616L588,612L595,615L603,615L615,609L623,604L628,598L629,592L624,575L618,571L613,566L607,564L596,556L586,546L576,536L566,533L561,526L553,525L549,519L539,514L545,511L557,509L556,505L560,499L562,494L566,491L572,491L565,484L563,478L571,473L577,471L586,466L584,461L579,464L572,464L566,466L555,466L552,470L533,477L525,478L518,484L515,483L512,487L508,489L508,494L511,501L517,510L521,511L531,507L538,509L535,517L526,518L519,516L512,523L506,523L502,525L498,530L492,534L484,530L487,521L486,516L479,514L475,510L467,509L478,500L488,495L479,489L467,492L459,487L459,483L465,482L458,476L437,480L433,491L427,497L417,502L419,510L416,522L407,525L400,536L400,543L398,555L397,558L391,558L387,563L387,573L380,580L384,583L388,590L388,594L392,601L395,603L407,609L405,614L402,615L392,612L387,614L380,615L376,621L367,626L360,634L358,630L368,623L356,623L351,618L341,616L338,614L333,617L326,616L320,621L315,620L317,625L314,631L318,634L316,637L313,632L307,632L295,626L294,636L299,642L300,646L306,653L301,652L299,654L301,659L297,664L306,667L308,670L311,671L313,674L318,676L320,688L317,687L312,682L305,683L305,690L310,694L304,697L303,694L297,691L297,695L301,704L303,709L301,714L298,709L295,709L293,713L285,703L283,704L282,710L277,702L279,697L276,692L272,689L269,684L274,678L278,678L281,675L294,680L298,682L304,680L291,672L288,674L283,673L275,675L273,673L268,673L266,667L263,664L268,662L269,659L263,660L254,652L252,647L249,644L246,636L239,631L239,626L238,623L240,616L239,604L242,596L235,592L230,585L211,572L207,571L206,568L195,558L186,554L179,555L178,551L171,545L164,537L167,534L160,526L159,517L151,510L144,523L142,523L138,516L136,507L141,503L130,499L127,503L118,507L114,508L113,513L119,519L114,525L116,538L122,543L125,545L137,553L141,563L145,575L148,579L159,590L165,592L179,592L182,596L178,600L179,604L189,609L199,613L205,618L213,622L220,629L223,635L220,641L216,639L212,631L205,630L200,626L195,627L191,634L189,640L190,645L194,647L199,651L200,660L192,662L189,666L189,673L184,676L180,683L174,683L173,678L176,675L179,666L183,665L180,652L174,637L167,635L161,632L162,628L158,622L152,623L150,618L146,618L140,609L131,607L128,608L120,603L111,592L106,589L103,584L95,580L95,578L87,569L84,568L84,564L80,555L79,547L75,543L70,541L62,535L53,533L49,535L41,545L25,551L13,563L7,565L1,565L-6,562L-12,557L-19,558L-27,555L-29,553L-43,563L-47,569L-46,577L-42,584L-45,585L-43,592L-48,596L-60,603L-64,607L-82,613L-88,618L-94,630L-101,640L-106,648L-104,658L-96,665L-107,672L-111,679L-114,688L-114,691L-123,692L-129,696L-131,699L-134,705L-137,709L-145,708L-149,710L-157,709L-160,710L-167,709L-176,710L-182,715L-190,717L-194,723L-198,725L-205,722L-209,713L-211,712L-213,705L-220,700L-231,700L-237,704L-250,701L-257,703L-254,695L-253,688L-255,683L-254,678L-256,671L-261,672L-261,667L-265,666L-264,652L-260,647L-254,634L-255,633L-251,613L-254,599L-255,596L-255,588L-252,584L-257,577L-258,572L-261,568L-260,563L-255,559L-249,559L-244,557L-244,553L-234,549L-227,553L-199,553L-179,557L-175,557L-163,555L-153,558L-150,556L-141,559L-135,559L-128,557L-126,554L-123,543L-122,529L-121,515L-119,505L-119,499L-120,486L-124,485L-131,481L-136,473L-135,467L-144,460L-142,456L-148,455L-155,450L-168,447L-175,447L-181,440L-177,433L-182,433L-182,428L-171,424L-165,424L-156,420L-152,422L-147,428L-143,426L-125,426L-127,421L-128,411L-133,400L-132,398L-122,398L-120,406L-103,408L-95,404L-97,397L-89,393L-78,389L-73,381L-72,369L-67,362L-57,360L-37,349L-35,345L-27,345L-31,339L-22,325L-18,311L-6,302L-3,297L6,293L19,292L27,285L40,285L49,289L50,280L55,281L55,268L51,264L56,260L52,252L50,233L42,227L43,215L42,211L42,196L49,197L45,188L50,180L62,179L67,176L74,165L79,163L84,169L84,176L80,183L79,195L83,199L89,199L89,206L80,208L78,219L67,231L68,245L78,264L81,263L92,270L89,274L99,277L106,271L111,271L119,262L127,264L135,272L140,271L142,280L153,286L157,275L183,267L189,259L201,254L211,251L220,251L226,263L231,265L239,264L245,260L249,248L258,246L265,249L270,248L271,232L268,221L267,207L268,189L273,183L275,173L279,165L294,160L295,164L304,173L306,180L313,184L318,183L324,178L326,173L324,158L328,139L321,142L315,139L310,129L309,120L310,111L320,107L326,101L344,100L345,96L365,99L371,102L387,103L397,90L405,89L409,83L426,87L419,76L407,76L400,70L400,62L379,67L375,64L363,69L348,71L339,76L325,82L314,84L298,80L292,82L294,70L274,62L273,49L275,41L275,28L277,26L271,11L273,3L268,-12L270,-19L278,-28L276,-35L286,-36L288,-44L306,-62L324,-87L329,-98L343,-107L341,-112L342,-126L329,-138L313,-141L303,-137L297,-143L290,-142L288,-131L282,-124L276,-123L277,-112L269,-99L275,-81L267,-73L262,-61L244,-45L238,-45L232,-36L225,-34L222,-23L212,-20L211,-8L203,-5L207,3L203,16L204,21L199,27L201,58L213,62L219,70L224,74L230,85L231,91ZM785,470L780,471L773,478L761,481L757,489L750,492L741,500L729,504L729,507L722,521L716,527L716,533L721,535L724,538L728,548L731,548L729,555L728,566L733,572L735,576L742,587L744,592L749,596L757,607L759,614L765,621L769,624L773,624L778,628L765,633L761,646L762,652L759,658L755,657L753,664L753,673L755,684L757,689L763,693L775,695L779,701L782,704L792,710L803,712L811,712L832,707L843,705L840,689L839,684L840,661L836,655L827,650L829,646L833,645L832,638L825,637L821,632L820,628L824,613L828,618L836,618L840,622L846,621L848,618L855,617L853,610L844,602L840,589L836,588L828,589L825,591L822,606L818,602L816,596L816,588L818,581L818,573L805,569L801,563L795,563L795,556L793,552L787,538L778,535L777,533L780,528L788,528L793,531L797,530L791,523L791,519L794,516L797,510L803,509L817,509L826,511L827,509L821,504L826,495L827,489L826,480L828,477L824,470L816,469L811,472L803,470L801,468L793,466Z"></path></g></defs><g id="body"><rect x="-2000" y="-2000" width="5000" height="5000" fill="#d7eef4"></rect><use id="coast-1" fill="none" xlink:href="#land-def-2" stroke="white" stroke-width="22" stroke-linejoin="round"></use><use id="coast-2" stroke="#d7eef4" xlink:href="#land-def-2" stroke-width="20" stroke-linejoin="round"></use><use id="coast-3" fill="none" xlink:href="#land-def-2" stroke="white" stroke-width="11" stroke-linejoin="round"></use><use id="coast-4" stroke="#d7eef4" xlink:href="#land-def-2" stroke-width="9" stroke-linejoin="round"></use><use id="land-0" fill="none" xlink:href="#land-def-2" stroke="white" stroke-width="2" stroke-linejoin="round"></use><use id="land" fill="#afe9af" xlink:href="#land-def-2" stroke-linejoin="round"></use><g id="map-areas"><path d="m 630.70329,647.94472 c 40.52826,-9.2154 63.8831,-20.31471 104.86754,-34.45648 40.98444,-14.14177 75.24634,-37.21746 140.82211,-50.93566 65.57577,-13.7182 183.10916,-66.3509 251.68206,-16.47918 68.5729,49.87172 81.923,175.13836 62.9205,248.68586 -19.0025,73.5475 -87.1594,89.28463 -136.3278,145.31644 -49.1684,56.03181 -88.20728,148.8909 -157.30125,191.7578 -69.09397,42.8669 -174.23584,73.8823 -224.70055,52.8725 -50.46471,-21.0098 -8.81941,-34.2821 -55.44557,-73.846 -46.62616,-39.5639 -178.55066,-76.5573 -240.72536,-169.92502 -62.17469,-93.36776 -149.41855,-39.31937 -183.23909,-74.26656 -33.82054,-34.94719 -44.27896,-39.3616 -46.44134,-59.9243 -2.16238,-20.5627 -15.37989,-22.26801 20.97351,-43.44512 36.3534,-21.17711 155.15611,26.78944 203.74263,13.48297 48.58652,-13.30647 60.96435,-36.07969 80.89781,-55.42998 19.93346,-19.35029 10.68267,-37.78696 40.44891,-55.42998 29.76624,-17.64302 97.29763,-8.76189 137.82589,-17.97729 z" fill="#ffb380" clip-path="url(#land-clippath-2)"></path><path d="m 172.27225,677.56886 c -2.92927,-11.3162 -0.4248,-15.82161 2.25728,-29.24962 2.68208,-13.42801 3.83812,-38.49127 16.47919,-50.1866 12.64107,-11.69533 38.34024,-13.19121 49.06302,-11.98486 10.72278,1.20635 8.07218,-0.25037 12.73392,6.36696 4.66174,6.61733 0.57728,27.43027 4.11979,34.08194 3.54251,6.65167 3.84781,5.48206 8.23959,7.11601 4.39178,1.63395 12.00294,3.38175 17.22824,0 5.2253,-3.38175 0.4687,-8.96734 8.23959,-18.35181 7.77089,-9.38447 23.03684,-22.54105 43.44512,-30.33668 20.40828,-7.79563 36.20806,-4.46159 77.52707,-9.36317 41.31901,-4.90158 135.67483,-17.13615 170.40974,-19.84993 34.73491,-2.71378 19.20407,-7.50772 37.45269,-1.49811 18.24862,6.00961 59.02993,26.24257 60.67336,48.6885 1.64343,22.44593 -17.7871,28.16849 -38.9508,41.94701 -21.1637,13.77852 -65.75465,23.07472 -89.1374,30.71121 -23.38275,7.63649 -42.25144,3.95933 -50.93566,15.73013 -8.68422,11.7708 11.42401,20.18357 0,34.45647 -11.42401,14.2729 -50.44038,16.15615 -73.40727,16.47918 -22.96689,0.32303 -44.33214,-7.24145 -61.42241,-11.98486 -17.09027,-4.74341 -28.76067,-14.81303 -41.19796,-14.98107 -12.43729,-0.16804 -7.17699,7.64685 -29.2131,9.7377 -22.03611,2.09085 -80.95369,-0.84203 -101.12226,-13.48297 -20.16857,-12.64094 -19.55247,-22.72923 -22.48174,-34.04543 z" fill="#ffe680" clip-path="url(#land-clippath-2)"></path><path d="m 89.886455,-162.53149 c 46.090665,4.3272 29.934885,31.77308 38.950795,71.909166 9.01591,40.136083 -24.61394,135.351712 -8.98864,164.791835 15.6253,29.440119 12.48971,23.576598 29.96215,17.977291 17.47244,-5.599307 20.47577,-45.936654 29.96215,-68.912949 9.48638,-22.97629512 6.59868,-64.652557 26.96594,-68.912949 20.36726,-4.260392 30.12611,20.539599 35.95458,35.9545819 5.82847,15.4149832 -7.71664,30.8789481 -2.99622,47.9394431 4.72042,17.060495 28.5882,18.668158 32.95837,47.939443 4.37017,29.271288 -15.80941,85.051788 -35.95458,113.856178 -20.14517,28.80439 -51.79316,52.01294 -72.50608,55.81572 -20.71292,3.80278 -20.91924,-11.49838 -33.36865,-10.06356 -12.44941,1.43482 -23.5678,16.8712 -34.957626,20.12712 -11.389829,3.25592 -17.723984,2.96219 -30.720339,1.05932 C 52.15195,265.04628 33.323303,260.53647 19.597458,251.58898 5.8716128,242.64149 -4.1812482,234.51822 -14.300847,214.51271 -24.420446,194.5072 -26.593642,169.41412 -30.711206,131.84665 -34.82877,94.279181 -52.21122,42.760586 -33.898305,-10.593221 -15.58539,-63.947028 43.795787,-166.85869 89.886455,-162.53149 Z" fill="#d35f5f" clip-path="url(#land-clippath-2)"></path></g><g font-family="arial,helvetica,sans-serif" font-size="40" stroke="white" text-anchor="middle" fill="white" stroke-width="2"><text x="420" y="660">Bysantine Empire</text><text x="750" y="800">Abbasid Caliphate</text></g><g font-family="arial,helvetica,sans-serif" font-size="40" text-anchor="middle" fill="#333333"><text x="420" y="660">Bysantine Empire</text><text x="750" y="800">Abbasid Caliphate</text></g><rect x="305" y="305" width="500" height="75" fill="white"></rect><g fill="#333333" transform="translate(0,70)"><path d="m 322.76742,250.91731 c 1.56,-0.39 2.16,-0.63 2.88,-1.26 0.75,-0.66 1.23,-1.89 1.23,-3.12 0,-3.18 -2.67,-5.01 -7.86,-5.01 l -8.4,0 0,0.57 c 2.43,0.15 2.88,0.42 2.88,2.79 l 0,13.11 c 0,2.28 -0.51,2.76 -2.88,2.82 l 0,0.57 10.11,0 c 4.35,0 7.17,-2.01 7.17,-5.34 0,-1.32 -0.51,-2.58 -1.47,-3.45 -0.87,-0.78 -1.68,-1.32 -3.66,-1.65 l 0,-0.03 z m -6.21,-0.51 0,-6.81 c 0,-0.69 0.21,-0.96 0.72,-0.96 l 1.23,0 c 3.57,0 5.31,1.53 5.31,4.05 0,2.49 -1.47,3.72 -4.5,3.72 l -2.76,0 z m 0,1.2 c 3.54,0.12 4.68,0 6.48,1.2 0.99,0.66 1.41,1.77 1.41,3.21 0,1.29 -0.39,2.31 -1.14,2.97 -1.32,1.17 -2.37,1.29 -4.89,1.29 -1.38,0 -1.86,-0.33 -1.86,-1.35 l 0,-7.32 z"></path><path d="m 344.54648,259.88731 -0.18,0 c -1.38,0 -1.71,-0.33 -1.71,-1.71 l 0,-10.29 -4.74,0 0,0.51 c 1.8,0.12 2.22,0.36 2.22,1.95 l 0,6.93 c 0,1.05 -0.21,1.32 -0.69,1.74 -0.75,0.66 -1.65,0.93 -2.52,0.93 -1.17,0 -2.13,-0.99 -2.13,-2.37 l 0,-9.69 -4.38,0 0,0.42 c 1.44,0.09 1.86,0.51 1.86,2.01 l 0,7.53 c 0,2.31 1.35,3.84 3.66,3.84 1.11,0 2.82,-0.57 4.29,-2.58 l 0.06,0 0,2.46 0.15,0.09 c 1.5,-0.6 2.58,-0.93 4.11,-1.35 l 0,-0.42 z"></path><path d="m 353.12648,259.07731 c -0.66,0.78 -1.14,1.05 -1.8,1.05 -1.11,0 -1.56,-0.78 -1.56,-2.7 l 0,-8.58 3.03,0 0,-0.96 -3.03,0 0,-3.48 c 0,-0.3 -0.06,-0.39 -0.21,-0.39 -0.18,0.3 -0.42,0.57 -0.6,0.84 -1.14,1.65 -2.13,2.76 -2.91,3.21 -0.33,0.21 -0.51,0.39 -0.51,0.57 0,0.09 0.03,0.15 0.12,0.21 l 1.59,0 0,9.03 c 0,2.52 0.9,3.81 2.64,3.81 1.5,0 2.64,-0.72 3.63,-2.28 l -0.39,-0.33 z"></path><path d="m 369.64016,259.07731 c -0.66,0.78 -1.14,1.05 -1.8,1.05 -1.11,0 -1.56,-0.78 -1.56,-2.7 l 0,-8.58 3.03,0 0,-0.96 -3.03,0 0,-3.48 c 0,-0.3 -0.06,-0.39 -0.21,-0.39 -0.18,0.3 -0.42,0.57 -0.6,0.84 -1.14,1.65 -2.13,2.76 -2.91,3.21 -0.33,0.21 -0.51,0.39 -0.51,0.57 0,0.09 0.03,0.15 0.12,0.21 l 1.59,0 0,9.03 c 0,2.52 0.9,3.81 2.64,3.81 1.5,0 2.64,-0.72 3.63,-2.28 l -0.39,-0.33 z"></path><path d="m 384.82484,261.38731 0,-0.45 c -1.62,-0.3 -1.8,-0.54 -1.8,-2.61 l 0,-5.97 c 0,-3.15 -1.23,-4.77 -3.69,-4.77 -1.77,0 -3.03,0.72 -4.41,2.52 l 0,-9.12 -0.15,-0.09 c -1.05,0.36 -1.74,0.57 -3.45,1.08 l -0.81,0.24 0,0.48 c 0.09,-0.03 0.24,-0.03 0.36,-0.03 1.29,0 1.53,0.24 1.53,1.53 l 0,14.13 c 0,2.1 -0.18,2.37 -1.92,2.61 l 0,0.45 6.48,0 0,-0.45 c -1.74,-0.18 -2.04,-0.54 -2.04,-2.61 l 0,-7.23 c 1.26,-1.38 2.16,-1.89 3.36,-1.89 1.47,0 2.22,1.08 2.22,3.18 l 0,5.94 c 0,2.07 -0.3,2.43 -2.04,2.61 l 0,0.45 6.36,0 z"></path><path d="m 397.45484,256.46731 c -1.47,2.22 -2.61,3.15 -4.62,3.15 -1.38,0 -2.49,-0.54 -3.33,-1.65 -1.08,-1.44 -1.23,-2.61 -1.38,-4.89 l 9.24,0 c -0.12,-1.62 -0.42,-2.58 -1.02,-3.42 -0.96,-1.35 -2.31,-2.07 -4.17,-2.07 -3.78,0 -6.21,3.06 -6.21,7.29 0,4.14 2.16,6.81 5.7,6.81 3,0 5.1,-1.74 6.27,-5.01 l -0.48,-0.21 z m -9.27,-4.35 c 0.33,-2.25 1.5,-3.45 3.18,-3.45 1.98,0 2.61,1.02 2.94,3.45 l -6.12,0 z"></path><path d="m 414.68898,259.07731 c -0.66,0.78 -1.14,1.05 -1.8,1.05 -1.11,0 -1.56,-0.78 -1.56,-2.7 l 0,-8.58 3.03,0 0,-0.96 -3.03,0 0,-3.48 c 0,-0.3 -0.06,-0.39 -0.21,-0.39 -0.18,0.3 -0.42,0.57 -0.6,0.84 -1.14,1.65 -2.13,2.76 -2.91,3.21 -0.33,0.21 -0.51,0.39 -0.51,0.57 0,0.09 0.03,0.15 0.12,0.21 l 1.59,0 0,9.03 c 0,2.52 0.9,3.81 2.64,3.81 1.5,0 2.64,-0.72 3.63,-2.28 l -0.39,-0.33 z"></path><path d="m 419.8293,247.64731 -0.15,-0.06 c -1.59,0.63 -2.67,1.05 -4.44,1.62 l 0,0.48 c 0.42,-0.09 0.69,-0.12 1.05,-0.12 0.75,0 1.02,0.48 1.02,1.8 l 0,7.5 c 0,1.5 -0.21,1.71 -2.13,2.07 l 0,0.45 7.2,0 0,-0.45 c -2.04,-0.09 -2.55,-0.54 -2.55,-2.25 l 0,-6.75 c 0,-0.96 1.26,-2.46 2.1,-2.46 0.18,0 0.45,0.15 0.78,0.45 0.48,0.45 0.81,0.6 1.2,0.6 0.72,0 1.17,-0.51 1.17,-1.35 0,-0.99 -0.63,-1.59 -1.65,-1.59 -1.26,0 -2.1,0.66 -3.6,2.82 l 0,-2.76 z"></path><path d="m 440.15195,259.88731 -0.18,0 c -1.38,0 -1.71,-0.33 -1.71,-1.71 l 0,-10.29 -4.74,0 0,0.51 c 1.8,0.12 2.22,0.36 2.22,1.95 l 0,6.93 c 0,1.05 -0.21,1.32 -0.69,1.74 -0.75,0.66 -1.65,0.93 -2.52,0.93 -1.17,0 -2.13,-0.99 -2.13,-2.37 l 0,-9.69 -4.38,0 0,0.42 c 1.44,0.09 1.86,0.51 1.86,2.01 l 0,7.53 c 0,2.31 1.35,3.84 3.66,3.84 1.11,0 2.82,-0.57 4.29,-2.58 l 0.06,0 0,2.46 0.15,0.09 c 1.5,-0.6 2.58,-0.93 4.11,-1.35 l 0,-0.42 z"></path><path d="m 452.99195,256.46731 c -1.47,2.22 -2.61,3.15 -4.62,3.15 -1.38,0 -2.49,-0.54 -3.33,-1.65 -1.08,-1.44 -1.23,-2.61 -1.38,-4.89 l 9.24,0 c -0.12,-1.62 -0.42,-2.58 -1.02,-3.42 -0.96,-1.35 -2.31,-2.07 -4.17,-2.07 -3.78,0 -6.21,3.06 -6.21,7.29 0,4.14 2.16,6.81 5.7,6.81 3,0 5.1,-1.74 6.27,-5.01 l -0.48,-0.21 z m -9.27,-4.35 c 0.33,-2.25 1.5,-3.45 3.18,-3.45 1.98,0 2.61,1.02 2.94,3.45 l -6.12,0 z"></path><path d="m 467.04609,247.64731 -0.15,-0.06 c -1.59,0.63 -2.67,1.05 -4.44,1.62 l 0,0.48 c 0.42,-0.09 0.69,-0.12 1.05,-0.12 0.75,0 1.02,0.48 1.02,1.8 l 0,7.5 c 0,1.5 -0.21,1.71 -2.13,2.07 l 0,0.45 7.2,0 0,-0.45 c -2.04,-0.09 -2.55,-0.54 -2.55,-2.25 l 0,-6.75 c 0,-0.96 1.26,-2.46 2.1,-2.46 0.18,0 0.45,0.15 0.78,0.45 0.48,0.45 0.81,0.6 1.2,0.6 0.72,0 1.17,-0.51 1.17,-1.35 0,-0.99 -0.63,-1.59 -1.65,-1.59 -1.26,0 -2.1,0.66 -3.6,2.82 l 0,-2.76 z"></path><path d="m 478.25156,242.42731 c 0,-0.84 -0.66,-1.53 -1.53,-1.53 -0.84,0 -1.53,0.69 -1.53,1.53 0,0.87 0.66,1.53 1.5,1.53 0.9,0 1.56,-0.66 1.56,-1.53 z m 2.19,18.96 0,-0.45 c -1.98,-0.15 -2.22,-0.48 -2.22,-2.7 l 0,-10.53 -0.12,-0.12 -4.65,1.65 0,0.48 c 0.54,-0.15 0.99,-0.15 1.26,-0.15 0.75,0 0.99,0.48 0.99,1.89 l 0,6.81 c 0,2.28 -0.3,2.55 -2.37,2.67 l 0,0.45 7.11,0 z"></path><path d="m 493.11187,256.70731 c -1.44,2.1 -2.51999,2.82 -4.23,2.82 -2.76,0 -4.65,-2.4 -4.65,-5.85 0,-3.12 1.65,-5.22 4.08,-5.22 1.08001,0 1.47001,0.33 1.77001,1.44 l 0.17999,0.66 c 0.24,0.87 0.78,1.38 1.44,1.38 0.78,0 1.41,-0.57 1.41,-1.26 0,-1.68 -2.1,-3.09 -4.62,-3.09 -1.40999,0 -2.84999,0.54 -4.05,1.53 -1.62,1.35 -2.52,3.42 -2.52,5.91 0,3.87 2.37,6.66 5.7,6.66 1.29,0 2.43,-0.42 3.45,-1.26 0.9,-0.72 1.5,-1.59 2.46001,-3.45 l -0.42001,-0.27 z"></path><path d="m 508.61391,261.38731 0,-0.45 c -1.62,-0.3 -1.8,-0.54 -1.8,-2.61 l 0,-5.97 c 0,-3.15 -1.23,-4.77 -3.69,-4.77 -1.77,0 -3.03,0.72 -4.41,2.52 l 0,-9.12 -0.15,-0.09 c -1.05,0.36 -1.74,0.57 -3.45,1.08 l -0.81,0.24 0,0.48 c 0.09,-0.03 0.24,-0.03 0.36,-0.03 1.29,0 1.53,0.24 1.53,1.53 l 0,14.13 c 0,2.1 -0.18,2.37 -1.92,2.61 l 0,0.45 6.48,0 0,-0.45 c -1.74,-0.18 -2.04,-0.54 -2.04,-2.61 l 0,-7.23 c 1.26,-1.38 2.16,-1.89 3.36,-1.89 1.47,0 2.22,1.08 2.22,3.18 l 0,5.94 c 0,2.07 -0.3,2.43 -2.04,2.61 l 0,0.45 6.36,0 z"></path><path d="m 521.24391,256.46731 c -1.47,2.22 -2.61,3.15 -4.62,3.15 -1.38,0 -2.49,-0.54 -3.33,-1.65 -1.08,-1.44 -1.23,-2.61 -1.38,-4.89 l 9.24,0 c -0.12,-1.62 -0.42,-2.58 -1.02,-3.42 -0.96,-1.35 -2.31,-2.07 -4.17,-2.07 -3.78,0 -6.21,3.06 -6.21,7.29 0,4.14 2.16,6.81 5.7,6.81 3,0 5.1,-1.74 6.27,-5.01 l -0.48,-0.21 z m -9.27,-4.35 c 0.33,-2.25 1.5,-3.45 3.18,-3.45 1.98,0 2.61,1.02 2.94,3.45 l -6.12,0 z"></path><path d="m 526.98469,252.35731 c -0.84,-0.51 -1.29,-1.38 -1.29,-2.04 0,-1.41 0.96,-2.04 2.25,-2.04 1.8,0 2.7,0.99 3.39,3.69 l 0.45,0 -0.15,-4.08 -0.33,0 c -0.24,0.27 -0.36,0.3 -0.48,0.3 -0.21,0 -0.51,-0.09 -0.84,-0.24 -0.63,-0.3 -1.29,-0.33 -2.01,-0.33 -2.46,0 -4.14,1.32 -4.14,3.69 0,1.53 1.11,2.97 3.6,4.35 l 1.62,0.9 c 0.99,0.54 1.59,1.32 1.59,2.25 0,1.23 -0.96,2.22 -2.49,2.22 -2.07,0 -3.18,-1.32 -3.81,-4.23 l -0.48,0 0,4.71 0.39,0 c 0.18,-0.3 0.36,-0.36 0.72,-0.36 0.33,0 0.66,0.03 1.38,0.27 0.69,0.24 1.56,0.27 2.19,0.27 2.28,0 4.2,-1.74 4.2,-3.75 0,-1.71 -0.72,-2.52 -2.64,-3.69 l -3.12,-1.89 z"></path><path d="m 549.8682,261.38731 0,-0.45 c -1.92,-0.12 -2.25,-0.51 -2.25,-2.16 l 0,-17.76 -0.15,-0.12 c -1.56,0.51 -2.67,0.81 -4.74,1.32 l 0,0.48 c 0.48,-0.06 0.87,-0.06 1.11,-0.06 0.96,0 1.26,0.48 1.26,1.92 l 0,14.07 c 0,1.65 -0.42,2.16 -2.31,2.31 l 0,0.45 7.08,0 z"></path><path d="m 563.73852,259.40731 c -0.51,0.42 -0.81,0.57 -1.29,0.57 -0.54,0 -0.93,-0.6 -0.93,-1.98 l 0,-5.73 c 0,-1.83 -0.12,-2.46 -0.84,-3.33 -0.72,-0.87 -1.86,-1.35 -3.54,-1.35 -1.35,0 -2.61,0.36 -3.45,0.9 -1.05,0.66 -1.53,1.62 -1.53,2.4 0,0.81 0.66,1.38 1.29,1.38 0.78,0 1.38,-0.66 1.38,-1.23 0,-0.63 -0.18,-0.72 -0.18,-1.26 0,-0.81 0.9,-1.47 2.1,-1.47 1.35,0 2.34,0.84 2.34,2.7 l 0,1.62 c -3.39,1.26 -4.5,1.83 -5.4,2.43 -1.17,0.78 -2.1,1.95 -2.1,3.51 0,1.98 1.29,3.12 3.15,3.12 1.29,0 2.76,-0.39 4.35,-2.19 l 0.03,0 c 0.15,1.59 0.81,2.19 1.92,2.19 1.02,0 1.8,-0.3 2.7,-1.44 l 0,-0.84 z m -4.65,-1.83 c 0,0.87 -0.18,1.29 -1.05,1.89 -0.51,0.33 -1.14,0.48 -1.74,0.48 -1.17,0 -2.07,-0.72 -2.07,-2.31 0,-0.93 0.3,-1.65 1.02,-2.31 0.75,-0.69 1.98,-1.32 3.84,-1.98 l 0,4.23 z"></path><path d="m 577.20898,247.88731 -3.99,0 0,0.45 c 0.93,0 1.38,0.24 1.38,0.72 0,0.12 -0.03,0.33 -0.12,0.54 l -2.91,8.28 -3.36,-7.5 c -0.18,-0.42 -0.39,-0.9 -0.39,-1.23 0,-0.54 0.42,-0.75 1.71,-0.81 l 0,-0.45 -6.15,0 0,0.42 c 0.78,0.12 1.29,0.39 1.59,1.05 l 3.96,8.46 c 0.57,1.2 1.26,2.58 1.26,3.03 0,0.48 -0.6,2.37 -1.2,3.24 -0.48,0.72 -1.08,1.32 -1.5,1.32 -0.18,0 -0.45,-0.03 -0.78,-0.21 -0.54,-0.3 -1.02,-0.39 -1.56,-0.39 -0.72,0 -1.29,0.63 -1.29,1.38 0,0.99 0.81,1.74 2.1,1.74 2.28,0 3.69,-1.53 5.25,-5.79 l 4.5,-12.27 c 0.42,-1.11 0.78,-1.44 1.5,-1.53 l 0,-0.45 z"></path><path d="m 594.13234,259.07731 c -0.66,0.78 -1.14,1.05 -1.8,1.05 -1.11,0 -1.56,-0.78 -1.56,-2.7 l 0,-8.58 3.03,0 0,-0.96 -3.03,0 0,-3.48 c 0,-0.3 -0.06,-0.39 -0.21,-0.39 -0.18,0.3 -0.42,0.57 -0.6,0.84 -1.14,1.65 -2.13,2.76 -2.91,3.21 -0.33,0.21 -0.51,0.39 -0.51,0.57 0,0.09 0.03,0.15 0.12,0.21 l 1.59,0 0,9.03 c 0,2.52 0.9,3.81 2.64,3.81 1.5,0 2.64,-0.72 3.63,-2.28 l -0.39,-0.33 z"></path><path d="m 608.51406,254.45731 c 0,-4.14 -2.82,-6.87 -6.48,-6.87 -4.05,0 -6.75,2.79 -6.75,6.96 0,4.17 2.85,7.14 6.48,7.14 4.05,0 6.75,-3.06 6.75,-7.23 z m -2.7,0.81 c 0,3.48 -1.32,5.58 -3.54,5.58 -1.08,0 -2.04,-0.54 -2.7,-1.5 -1.11,-1.62 -1.59,-3.78 -1.59,-6.15 0,-3 1.41,-4.77 3.48,-4.77 1.29,0 2.13,0.6 2.85,1.5 0.96,1.23 1.5,3.3 1.5,5.34 z"></path><path d="m 625.58742,259.07731 c -0.66,0.78 -1.14,1.05 -1.8,1.05 -1.11,0 -1.56,-0.78 -1.56,-2.7 l 0,-8.58 3.03,0 0,-0.96 -3.03,0 0,-3.48 c 0,-0.3 -0.06,-0.39 -0.21,-0.39 -0.18,0.3 -0.42,0.57 -0.6,0.84 -1.14,1.65 -2.13,2.76 -2.91,3.21 -0.33,0.21 -0.51,0.39 -0.51,0.57 0,0.09 0.03,0.15 0.12,0.21 l 1.59,0 0,9.03 c 0,2.52 0.9,3.81 2.64,3.81 1.5,0 2.64,-0.72 3.63,-2.28 l -0.39,-0.33 z"></path><path d="m 640.77211,261.38731 0,-0.45 c -1.62,-0.3 -1.8,-0.54 -1.8,-2.61 l 0,-5.97 c 0,-3.15 -1.23,-4.77 -3.69,-4.77 -1.77,0 -3.03,0.72 -4.41,2.52 l 0,-9.12 -0.15,-0.09 c -1.05,0.36 -1.74,0.57 -3.45,1.08 l -0.81,0.24 0,0.48 c 0.09,-0.03 0.24,-0.03 0.36,-0.03 1.29,0 1.53,0.24 1.53,1.53 l 0,14.13 c 0,2.1 -0.18,2.37 -1.92,2.61 l 0,0.45 6.48,0 0,-0.45 c -1.74,-0.18 -2.04,-0.54 -2.04,-2.61 l 0,-7.23 c 1.26,-1.38 2.16,-1.89 3.36,-1.89 1.47,0 2.22,1.08 2.22,3.18 l 0,5.94 c 0,2.07 -0.3,2.43 -2.04,2.61 l 0,0.45 6.36,0 z"></path><path d="m 653.40211,256.46731 c -1.47,2.22 -2.61,3.15 -4.62,3.15 -1.38,0 -2.49,-0.54 -3.33,-1.65 -1.08,-1.44 -1.23,-2.61 -1.38,-4.89 l 9.24,0 c -0.12,-1.62 -0.42,-2.58 -1.02,-3.42 -0.96,-1.35 -2.31,-2.07 -4.17,-2.07 -3.78,0 -6.21,3.06 -6.21,7.29 0,4.14 2.16,6.81 5.7,6.81 3,0 5.1,-1.74 6.27,-5.01 l -0.48,-0.21 z m -9.27,-4.35 c 0.33,-2.25 1.5,-3.45 3.18,-3.45 1.98,0 2.61,1.02 2.94,3.45 l -6.12,0 z"></path><path d="m 676.72625,247.49731 -0.66,-6.39 -0.63,0 c -0.12,0.66 -0.45,1.02 -0.96,1.02 -0.3,0 -0.78,-0.12 -1.32,-0.36 -1.14,-0.48 -1.92,-0.66 -3.15,-0.66 -2.97,0 -5.22,1.98 -5.22,5.25 0,1.86 0.96,3.72 3.66,5.16 1.92,1.02 3.99,2.34 5.04,3.48 0.57,0.63 0.87,1.32 0.87,2.37 0,1.98 -1.47,3.36 -3.57,3.36 -2.85,0 -4.8,-1.68 -6.18,-5.31 l -0.66,0 0.87,6.36 0.66,0 c 0,-0.63 0.39,-0.99 0.84,-0.99 0.33,0 0.84,0.09 1.41,0.33 1.11,0.48 2.28,0.69 3.54,0.69 3.48,0 6.12,-2.25 6.12,-5.61 0,-2.28 -1.47,-4.02 -4.65,-5.88 -3.15,-1.83 -5.37,-3.09 -5.37,-5.13 0,-1.65 1.17,-2.85 3.03,-2.85 1.8,0 3.3,0.99 4.35,2.34 0.54,0.72 0.87,1.5 1.23,2.82 l 0.75,0 z"></path><path d="m 693.45547,254.45731 c 0,-4.14 -2.82,-6.87 -6.48,-6.87 -4.05,0 -6.75,2.79 -6.75,6.96 0,4.17 2.85,7.14 6.48,7.14 4.05,0 6.75,-3.06 6.75,-7.23 z m -2.7,0.81 c 0,3.48 -1.32,5.58 -3.54,5.58 -1.08,0 -2.04,-0.54 -2.7,-1.5 -1.11,-1.62 -1.59,-3.78 -1.59,-6.15 0,-3 1.41,-4.77 3.48,-4.77 1.29,0 2.13,0.6 2.85,1.5 0.96,1.23 1.5,3.3 1.5,5.34 z"></path><path d="m 708.75547,259.88731 -0.18,0 c -1.38,0 -1.71,-0.33 -1.71,-1.71 l 0,-10.29 -4.74,0 0,0.51 c 1.8,0.12 2.22,0.36 2.22,1.95 l 0,6.93 c 0,1.05 -0.21,1.32 -0.69,1.74 -0.75,0.66 -1.65,0.93 -2.52,0.93 -1.17,0 -2.13,-0.99 -2.13,-2.37 l 0,-9.69 -4.38,0 0,0.42 c 1.44,0.09 1.86,0.51 1.86,2.01 l 0,7.53 c 0,2.31 1.35,3.84 3.66,3.84 1.11,0 2.82,-0.57 4.29,-2.58 l 0.06,0 0,2.46 0.15,0.09 c 1.5,-0.6 2.58,-0.93 4.11,-1.35 l 0,-0.42 z"></path><path d="m 717.33547,259.07731 c -0.66,0.78 -1.14,1.05 -1.8,1.05 -1.11,0 -1.56,-0.78 -1.56,-2.7 l 0,-8.58 3.03,0 0,-0.96 -3.03,0 0,-3.48 c 0,-0.3 -0.06,-0.39 -0.21,-0.39 -0.18,0.3 -0.42,0.57 -0.6,0.84 -1.14,1.65 -2.13,2.76 -2.91,3.21 -0.33,0.21 -0.51,0.39 -0.51,0.57 0,0.09 0.03,0.15 0.12,0.21 l 1.59,0 0,9.03 c 0,2.52 0.9,3.81 2.64,3.81 1.5,0 2.64,-0.72 3.63,-2.28 l -0.39,-0.33 z"></path><path d="m 732.52016,261.38731 0,-0.45 c -1.62,-0.3 -1.8,-0.54 -1.8,-2.61 l 0,-5.97 c 0,-3.15 -1.23,-4.77 -3.69,-4.77 -1.77,0 -3.03,0.72 -4.41,2.52 l 0,-9.12 -0.15,-0.09 c -1.05,0.36 -1.74,0.57 -3.45,1.08 l -0.81,0.24 0,0.48 c 0.09,-0.03 0.24,-0.03 0.36,-0.03 1.29,0 1.53,0.24 1.53,1.53 l 0,14.13 c 0,2.1 -0.18,2.37 -1.92,2.61 l 0,0.45 6.48,0 0,-0.45 c -1.74,-0.18 -2.04,-0.54 -2.04,-2.61 l 0,-7.23 c 1.26,-1.38 2.16,-1.89 3.36,-1.89 1.47,0 2.22,1.08 2.22,3.18 l 0,5.94 c 0,2.07 -0.3,2.43 -2.04,2.61 l 0,0.45 6.36,0 z"></path><path d="m 759.01352,256.31731 -0.84,0 c -1.35,3.18 -2.64,3.96 -6.93,3.96 l -1.08,0 c -2.22,0 -3.03,-0.15 -3.03,-1.41 l 0,-7.29 4.53,0 c 2.58,0 3.03,0.39 3.39,2.91 l 0.69,0 0,-7.02 -0.69,0 c -0.36,2.37 -0.81,2.88 -3.39,2.88 l -4.53,0 0,-6.6 c 0,-0.96 0.21,-1.08 1.05,-1.08 l 3.93,0 c 3.48,0 4.17,0.45 4.62,3.15 l 0.75,0 -0.12,-4.29 -15.9,0 0,0.57 c 2.25,0.12 2.61,0.57 2.61,2.79 l 0,13.08 c 0,2.31 -0.3,2.7 -2.61,2.85 l 0,0.57 16.17,0 1.38,-5.07 z"></path><path d="m 772.70336,259.40731 c -0.51,0.42 -0.81,0.57 -1.29,0.57 -0.54,0 -0.93,-0.6 -0.93,-1.98 l 0,-5.73 c 0,-1.83 -0.12,-2.46 -0.84,-3.33 -0.72,-0.87 -1.86,-1.35 -3.54,-1.35 -1.35,0 -2.61,0.36 -3.45,0.9 -1.05,0.66 -1.53,1.62 -1.53,2.4 0,0.81 0.66,1.38 1.29,1.38 0.78,0 1.38,-0.66 1.38,-1.23 0,-0.63 -0.18,-0.72 -0.18,-1.26 0,-0.81 0.9,-1.47 2.1,-1.47 1.35,0 2.34,0.84 2.34,2.7 l 0,1.62 c -3.39,1.26 -4.5,1.83 -5.4,2.43 -1.17,0.78 -2.1,1.95 -2.1,3.51 0,1.98 1.29,3.12 3.15,3.12 1.29,0 2.76,-0.39 4.35,-2.19 l 0.03,0 c 0.15,1.59 0.81,2.19 1.92,2.19 1.02,0 1.8,-0.3 2.7,-1.44 l 0,-0.84 z m -4.65,-1.83 c 0,0.87 -0.18,1.29 -1.05,1.89 -0.51,0.33 -1.14,0.48 -1.74,0.48 -1.17,0 -2.07,-0.72 -2.07,-2.31 0,-0.93 0.3,-1.65 1.02,-2.31 0.75,-0.69 1.98,-1.32 3.84,-1.98 l 0,4.23 z"></path><path d="m 777.42414,252.35731 c -0.84,-0.51 -1.29,-1.38 -1.29,-2.04 0,-1.41 0.96,-2.04 2.25,-2.04 1.8,0 2.7,0.99 3.39,3.69 l 0.45,0 -0.15,-4.08 -0.33,0 c -0.24,0.27 -0.36,0.3 -0.48,0.3 -0.21,0 -0.51,-0.09 -0.84,-0.24 -0.63,-0.3 -1.29,-0.33 -2.01,-0.33 -2.46,0 -4.14,1.32 -4.14,3.69 0,1.53 1.11,2.97 3.6,4.35 l 1.62,0.9 c 0.99,0.54 1.59,1.32 1.59,2.25 0,1.23 -0.96,2.22 -2.49,2.22 -2.07,0 -3.18,-1.32 -3.81,-4.23 l -0.48,0 0,4.71 0.39,0 c 0.18,-0.3 0.36,-0.36 0.72,-0.36 0.33,0 0.66,0.03 1.38,0.27 0.69,0.24 1.56,0.27 2.19,0.27 2.28,0 4.2,-1.74 4.2,-3.75 0,-1.71 -0.72,-2.52 -2.64,-3.69 l -3.12,-1.89 z"></path><path d="m 792.14992,259.07731 c -0.66,0.78 -1.14,1.05 -1.8,1.05 -1.11,0 -1.56,-0.78 -1.56,-2.7 l 0,-8.58 3.03,0 0,-0.96 -3.03,0 0,-3.48 c 0,-0.3 -0.06,-0.39 -0.21,-0.39 -0.18,0.3 -0.42,0.57 -0.6,0.84 -1.14,1.65 -2.13,2.76 -2.91,3.21 -0.33,0.21 -0.51,0.39 -0.51,0.57 0,0.09 0.03,0.15 0.12,0.21 l 1.59,0 0,9.03 c 0,2.52 0.9,3.81 2.64,3.81 1.5,0 2.64,-0.72 3.63,-2.28 l -0.39,-0.33 z"></path><path d="m 794.98023,265.61731 c 2.07,-0.99 3.36,-2.88 3.36,-4.68 0,-1.56 -1.05,-2.61 -2.4,-2.61 -1.08,0 -1.8,0.69 -1.8,1.71 0,1.02 0.63,1.53 1.74,1.53 0.33,0 0.63,-0.12 0.87,-0.12 0.24,0 0.42,0.18 0.42,0.39 0,0.99 -0.84,2.1 -2.49,3.21 l 0.3,0.57 z"></path><path d="m 315.50742,279.92731 c 0,-0.84 -0.66,-1.53 -1.53,-1.53 -0.84,0 -1.53,0.69 -1.53,1.53 0,0.87 0.66,1.53 1.5,1.53 0.9,0 1.56,-0.66 1.56,-1.53 z m 2.19,18.96 0,-0.45 c -1.98,-0.15 -2.22,-0.48 -2.22,-2.7 l 0,-10.53 -0.12,-0.12 -4.65,1.65 0,0.48 c 0.54,-0.15 0.99,-0.15 1.26,-0.15 0.75,0 0.99,0.48 0.99,1.89 l 0,6.81 c 0,2.28 -0.3,2.55 -2.37,2.67 l 0,0.45 7.11,0 z"></path><path d="m 332.97773,298.88731 0,-0.45 c -1.47,-0.15 -1.83,-0.48 -1.83,-2.1 l 0,-6.63 c 0,-2.97 -1.26,-4.62 -3.54,-4.62 -1.38,0 -2.76,0.66 -4.32,2.43 l -0.03,0 0,-2.34 -0.24,-0.09 c -1.47,0.54 -2.46,0.87 -4.11,1.35 l 0,0.51 c 0.21,-0.09 0.54,-0.12 0.87,-0.12 0.84,0 1.05,0.48 1.05,1.95 l 0,7.29 c 0,1.77 -0.33,2.25 -1.86,2.37 l 0,0.45 6.33,0 0,-0.45 c -1.53,-0.12 -1.95,-0.54 -1.95,-1.71 l 0,-8.28 c 1.38,-1.35 2.1,-1.71 3.09,-1.71 1.47,0 2.19,0.9 2.19,3.03 l 0,5.97 c 0,1.98 -0.36,2.58 -1.86,2.7 l -0.03,0.45 6.24,0 z"></path><path d="m 348.90773,296.57731 c -0.66,0.78 -1.14,1.05 -1.8,1.05 -1.11,0 -1.56,-0.78 -1.56,-2.7 l 0,-8.58 3.03,0 0,-0.96 -3.03,0 0,-3.48 c 0,-0.3 -0.06,-0.39 -0.21,-0.39 -0.18,0.3 -0.42,0.57 -0.6,0.84 -1.14,1.65 -2.13,2.76 -2.91,3.21 -0.33,0.21 -0.51,0.39 -0.51,0.57 0,0.09 0.03,0.15 0.12,0.21 l 1.59,0 0,9.03 c 0,2.52 0.9,3.81 2.64,3.81 1.5,0 2.64,-0.72 3.63,-2.28 l -0.39,-0.33 z"></path><path d="m 364.09242,298.88731 0,-0.45 c -1.62,-0.3 -1.8,-0.54 -1.8,-2.61 l 0,-5.97 c 0,-3.15 -1.23,-4.77 -3.69,-4.77 -1.77,0 -3.03,0.72 -4.41,2.52 l 0,-9.12 -0.15,-0.09 c -1.05,0.36 -1.74,0.57 -3.45,1.08 l -0.81,0.24 0,0.48 c 0.09,-0.03 0.24,-0.03 0.36,-0.03 1.29,0 1.53,0.24 1.53,1.53 l 0,14.13 c 0,2.1 -0.18,2.37 -1.92,2.61 l 0,0.45 6.48,0 0,-0.45 c -1.74,-0.18 -2.04,-0.54 -2.04,-2.61 l 0,-7.23 c 1.26,-1.38 2.16,-1.89 3.36,-1.89 1.47,0 2.22,1.08 2.22,3.18 l 0,5.94 c 0,2.07 -0.3,2.43 -2.04,2.61 l 0,0.45 6.36,0 z"></path><path d="m 376.72242,293.96731 c -1.47,2.22 -2.61,3.15 -4.62,3.15 -1.38,0 -2.49,-0.54 -3.33,-1.65 -1.08,-1.44 -1.23,-2.61 -1.38,-4.89 l 9.24,0 c -0.12,-1.62 -0.42,-2.58 -1.02,-3.42 -0.96,-1.35 -2.31,-2.07 -4.17,-2.07 -3.78,0 -6.21,3.06 -6.21,7.29 0,4.14 2.16,6.81 5.7,6.81 3,0 5.1,-1.74 6.27,-5.01 l -0.48,-0.21 z m -9.27,-4.35 c 0.33,-2.25 1.5,-3.45 3.18,-3.45 1.98,0 2.61,1.02 2.94,3.45 l -6.12,0 z"></path><path d="m 393.2632,296.57731 c -0.66,0.78 -1.14,1.05 -1.8,1.05 -1.11,0 -1.56,-0.78 -1.56,-2.7 l 0,-8.58 3.03,0 0,-0.96 -3.03,0 0,-3.48 c 0,-0.3 -0.06,-0.39 -0.21,-0.39 -0.18,0.3 -0.42,0.57 -0.6,0.84 -1.14,1.65 -2.13,2.76 -2.91,3.21 -0.33,0.21 -0.51,0.39 -0.51,0.57 0,0.09 0.03,0.15 0.12,0.21 l 1.59,0 0,9.03 c 0,2.52 0.9,3.81 2.64,3.81 1.5,0 2.64,-0.72 3.63,-2.28 l -0.39,-0.33 z"></path><path d="m 414.42352,285.38731 -3.69,0 0,0.45 c 1.02,0.21 1.32,0.42 1.32,0.9 0,0.48 -0.18,1.2 -0.51,2.01 l -2.7,6.66 -2.52,-6.72 c -0.36,-0.93 -0.51,-1.29 -0.51,-1.8 0,-0.63 0.33,-0.84 1.74,-1.05 l 0,-0.45 -6.09,0 0,0.45 c 1.11,0.12 1.5,0.45 2.07,2.07 l 0.6,1.68 -2.73,5.97 -2.97,-7.83 c -0.12,-0.3 -0.18,-0.6 -0.18,-0.9 0,-0.63 0.33,-0.87 1.38,-0.99 l 0,-0.45 -5.4,0 0,0.45 c 0.69,0.06 0.96,0.27 1.59,1.89 l 4.05,10.26 c 0.36,0.93 0.6,1.32 0.78,1.32 0.15,0 0.39,-0.39 0.75,-1.17 l 3.36,-7.2 2.73,7.08 c 0.45,1.14 0.51,1.29 0.72,1.29 0.21,0 0.36,-0.27 0.84,-1.47 l 4.14,-10.38 c 0.48,-1.2 0.63,-1.41 1.23,-1.62 l 0,-0.45 z"></path><path d="m 428.62148,291.95731 c 0,-4.14 -2.82,-6.87 -6.48,-6.87 -4.05,0 -6.75,2.79 -6.75,6.96 0,4.17 2.85,7.14 6.48,7.14 4.05,0 6.75,-3.06 6.75,-7.23 z m -2.7,0.81 c 0,3.48 -1.32,5.58 -3.54,5.58 -1.08,0 -2.04,-0.54 -2.7,-1.5 -1.11,-1.62 -1.59,-3.78 -1.59,-6.15 0,-3 1.41,-4.77 3.48,-4.77 1.29,0 2.13,0.6 2.85,1.5 0.96,1.23 1.5,3.3 1.5,5.34 z"></path><path d="m 451.12148,287.24731 0,-1.17 -2.31,0 c -0.6,0 -1.05,-0.09 -1.65,-0.3 l -0.66,-0.24 c -0.81,-0.3 -1.62,-0.45 -2.4,-0.45 -2.79,0 -5.01,2.16 -5.01,4.89 0,1.89 0.78,3.03 2.79,4.02 -0.42,0.42 -0.84,0.81 -1.29,1.2 -0.99,0.87 -1.38,1.47 -1.38,2.07 0,0.66 0.33,0.99 1.59,1.59 -2.16,1.56 -2.94,2.55 -2.94,3.66 0,1.59 2.31,2.91 5.19,2.91 2.16,0 4.44,-0.72 6,-1.92 1.23,-0.96 1.8,-1.95 1.8,-3.15 0,-1.86 -1.41,-3.12 -3.63,-3.21 l -3.87,-0.18 c -1.62,-0.09 -2.34,-0.33 -2.34,-0.81 0,-0.6 0.99,-1.65 1.8,-1.89 l 0.57,0.06 c 0.54,0.06 0.96,0.09 1.14,0.09 1.05,0 2.16,-0.45 3.12,-1.17 1.08,-0.81 1.56,-1.92 1.56,-3.48 0,-0.87 -0.15,-1.56 -0.57,-2.52 l 2.49,0 z m -9.54,1.5 c 0,-1.77 0.84,-2.82 2.22,-2.82 0.93,0 1.71,0.51 2.19,1.41 0.57,1.05 0.9,2.4 0.9,3.63 0,1.65 -0.87,2.7 -2.22,2.7 -1.86,0 -3.09,-1.95 -3.09,-4.83 l 0,-0.09 z m 8.43,12.06 c 0,1.74 -2.28,2.91 -5.7,2.91 -2.64,0 -4.35,-0.87 -4.35,-2.19 0,-0.69 0.27,-1.14 1.47,-2.58 1.02,0.21 3.39,0.39 4.86,0.39 2.73,0 3.72,0.36 3.72,1.47 z"></path><path d="m 457.11445,285.14731 -0.15,-0.06 c -1.59,0.63 -2.67,1.05 -4.44,1.62 l 0,0.48 c 0.42,-0.09 0.69,-0.12 1.05,-0.12 0.75,0 1.02,0.48 1.02,1.8 l 0,7.5 c 0,1.5 -0.21,1.71 -2.13,2.07 l 0,0.45 7.2,0 0,-0.45 c -2.04,-0.09 -2.55,-0.54 -2.55,-2.25 l 0,-6.75 c 0,-0.96 1.26,-2.46 2.1,-2.46 0.18,0 0.45,0.15 0.78,0.45 0.48,0.45 0.81,0.6 1.2,0.6 0.72,0 1.17,-0.51 1.17,-1.35 0,-0.99 -0.63,-1.59 -1.65,-1.59 -1.26,0 -2.1,0.66 -3.6,2.82 l 0,-2.76 z"></path><path d="m 474.51539,293.96731 c -1.47,2.22 -2.61,3.15 -4.62,3.15 -1.38,0 -2.49,-0.54 -3.33,-1.65 -1.08,-1.44 -1.23,-2.61 -1.38,-4.89 l 9.24,0 c -0.12,-1.62 -0.42,-2.58 -1.02,-3.42 -0.96,-1.35 -2.31,-2.07 -4.17,-2.07 -3.78,0 -6.21,3.06 -6.21,7.29 0,4.14 2.16,6.81 5.7,6.81 3,0 5.1,-1.74 6.27,-5.01 l -0.48,-0.21 z m -9.27,-4.35 c 0.33,-2.25 1.5,-3.45 3.18,-3.45 1.98,0 2.61,1.02 2.94,3.45 l -6.12,0 z"></path><path d="m 488.83617,296.90731 c -0.51,0.42 -0.81,0.57 -1.29,0.57 -0.54,0 -0.93,-0.6 -0.93,-1.98 l 0,-5.73 c 0,-1.83 -0.12,-2.46 -0.84,-3.33 -0.72,-0.87 -1.86,-1.35 -3.54,-1.35 -1.35,0 -2.61,0.36 -3.45,0.9 -1.05,0.66 -1.53,1.62 -1.53,2.4 0,0.81 0.66,1.38 1.29,1.38 0.78,0 1.38,-0.66 1.38,-1.23 0,-0.63 -0.18,-0.72 -0.18,-1.26 0,-0.81 0.9,-1.47 2.1,-1.47 1.35,0 2.34,0.84 2.34,2.7 l 0,1.62 c -3.39,1.26 -4.5,1.83 -5.4,2.43 -1.17,0.78 -2.1,1.95 -2.1,3.51 0,1.98 1.29,3.12 3.15,3.12 1.29,0 2.76,-0.39 4.35,-2.19 l 0.03,0 c 0.15,1.59 0.81,2.19 1.92,2.19 1.02,0 1.8,-0.3 2.7,-1.44 l 0,-0.84 z m -4.65,-1.83 c 0,0.87 -0.18,1.29 -1.05,1.89 -0.51,0.33 -1.14,0.48 -1.74,0.48 -1.17,0 -2.07,-0.72 -2.07,-2.31 0,-0.93 0.3,-1.65 1.02,-2.31 0.75,-0.69 1.98,-1.32 3.84,-1.98 l 0,4.23 z"></path><path d="m 496.85695,296.57731 c -0.66,0.78 -1.14,1.05 -1.8,1.05 -1.11,0 -1.56,-0.78 -1.56,-2.7 l 0,-8.58 3.03,0 0,-0.96 -3.03,0 0,-3.48 c 0,-0.3 -0.06,-0.39 -0.21,-0.39 -0.18,0.3 -0.42,0.57 -0.6,0.84 -1.14,1.65 -2.13,2.76 -2.91,3.21 -0.33,0.21 -0.51,0.39 -0.51,0.57 0,0.09 0.03,0.15 0.12,0.21 l 1.59,0 0,9.03 c 0,2.52 0.9,3.81 2.64,3.81 1.5,0 2.64,-0.72 3.63,-2.28 l -0.39,-0.33 z"></path><path d="m 516.63727,294.20731 c -1.44,2.1 -2.52,2.82 -4.23,2.82 -2.76,0 -4.65,-2.4 -4.65,-5.85 0,-3.12 1.65,-5.22 4.08,-5.22 1.08,0 1.47,0.33 1.77,1.44 l 0.18,0.66 c 0.24,0.87 0.78,1.38 1.44,1.38 0.78,0 1.41,-0.57 1.41,-1.26 0,-1.68 -2.1,-3.09 -4.62,-3.09 -1.41,0 -2.85,0.54 -4.05,1.53 -1.62,1.35 -2.52,3.42 -2.52,5.91 0,3.87 2.37,6.66 5.7,6.66 1.29,0 2.43,-0.42 3.45,-1.26 0.9,-0.72 1.5,-1.59 2.46,-3.45 l -0.42,-0.27 z"></path><path d="m 523.39805,279.92731 c 0,-0.84 -0.66,-1.53 -1.53,-1.53 -0.84,0 -1.53,0.69 -1.53,1.53 0,0.87 0.66,1.53 1.5,1.53 0.9,0 1.56,-0.66 1.56,-1.53 z m 2.19,18.96 0,-0.45 c -1.98,-0.15 -2.22,-0.48 -2.22,-2.7 l 0,-10.53 -0.12,-0.12 -4.65,1.65 0,0.48 c 0.54,-0.15 0.99,-0.15 1.26,-0.15 0.75,0 0.99,0.48 0.99,1.89 l 0,6.81 c 0,2.28 -0.3,2.55 -2.37,2.67 l 0,0.45 7.11,0 z"></path><path d="m 540.62836,285.38731 -4.17,0 0,0.45 c 0.96,0.09 1.41,0.39 1.41,0.96 0,0.3 -0.06,0.6 -0.18,0.9 l -2.97,7.77 -3.06,-7.68 c -0.18,-0.45 -0.27,-0.84 -0.27,-1.14 0,-0.51 0.36,-0.72 1.38,-0.81 l 0,-0.45 -5.88,0 0,0.45 c 1.14,0.06 1.44,0.36 2.73,3.45 l 3.6,8.61 c 0.12,0.27 0.15,0.48 0.24,0.63 0.21,0.54 0.36,0.78 0.54,0.78 0.18,0 0.39,-0.39 0.84,-1.5 l 3.84,-9.63 c 0.81,-2.01 1.05,-2.25 1.95,-2.34 l 0,-0.45 z"></path><path d="m 546.71836,279.92731 c 0,-0.84 -0.66,-1.53 -1.53,-1.53 -0.84,0 -1.53,0.69 -1.53,1.53 0,0.87 0.66,1.53 1.5,1.53 0.9,0 1.56,-0.66 1.56,-1.53 z m 2.19,18.96 0,-0.45 c -1.98,-0.15 -2.22,-0.48 -2.22,-2.7 l 0,-10.53 -0.12,-0.12 -4.65,1.65 0,0.48 c 0.54,-0.15 0.99,-0.15 1.26,-0.15 0.75,0 0.99,0.48 0.99,1.89 l 0,6.81 c 0,2.28 -0.3,2.55 -2.37,2.67 l 0,0.45 7.11,0 z"></path><path d="m 557.34867,298.88731 0,-0.45 c -1.92,-0.12 -2.25,-0.51 -2.25,-2.16 l 0,-17.76 -0.15,-0.12 c -1.56,0.51 -2.67,0.81 -4.74,1.32 l 0,0.48 c 0.48,-0.06 0.87,-0.06 1.11,-0.06 0.96,0 1.26,0.48 1.26,1.92 l 0,14.07 c 0,1.65 -0.42,2.16 -2.31,2.31 l 0,0.45 7.08,0 z"></path><path d="m 563.35898,279.92731 c 0,-0.84 -0.66,-1.53 -1.53,-1.53 -0.84,0 -1.53,0.69 -1.53,1.53 0,0.87 0.66,1.53 1.5,1.53 0.9,0 1.56,-0.66 1.56,-1.53 z m 2.19,18.96 0,-0.45 c -1.98,-0.15 -2.22,-0.48 -2.22,-2.7 l 0,-10.53 -0.12,-0.12 -4.65,1.65 0,0.48 c 0.54,-0.15 0.99,-0.15 1.26,-0.15 0.75,0 0.99,0.48 0.99,1.89 l 0,6.81 c 0,2.28 -0.3,2.55 -2.37,2.67 l 0,0.45 7.11,0 z"></path><path d="m 570.9593,289.85731 c -0.84,-0.51 -1.29,-1.38 -1.29,-2.04 0,-1.41 0.96,-2.04 2.25,-2.04 1.8,0 2.7,0.99 3.39,3.69 l 0.45,0 -0.15,-4.08 -0.33,0 c -0.24,0.27 -0.36,0.3 -0.48,0.3 -0.21,0 -0.51,-0.09 -0.84,-0.24 -0.63,-0.3 -1.29,-0.33 -2.01,-0.33 -2.46,0 -4.14,1.32 -4.14,3.69 0,1.53 1.11,2.97 3.6,4.35 l 1.62,0.9 c 0.99,0.54 1.59,1.32 1.59,2.25 0,1.23 -0.96,2.22 -2.49,2.22 -2.07,0 -3.18,-1.32 -3.81,-4.23 l -0.48,0 0,4.71 0.39,0 c 0.18,-0.3 0.36,-0.36 0.72,-0.36 0.33,0 0.66,0.03 1.38,0.27 0.69,0.24 1.56,0.27 2.19,0.27 2.28,0 4.2,-1.74 4.2,-3.75 0,-1.71 -0.72,-2.52 -2.64,-3.69 l -3.12,-1.89 z"></path><path d="m 591.19945,296.90731 c -0.51,0.42 -0.81,0.57 -1.29,0.57 -0.54,0 -0.93,-0.6 -0.93,-1.98 l 0,-5.73 c 0,-1.83 -0.12,-2.46 -0.84,-3.33 -0.72,-0.87 -1.86,-1.35 -3.54,-1.35 -1.35,0 -2.61,0.36 -3.45,0.9 -1.05,0.66 -1.53,1.62 -1.53,2.4 0,0.81 0.66,1.38 1.29,1.38 0.78,0 1.38,-0.66 1.38,-1.23 0,-0.63 -0.18,-0.72 -0.18,-1.26 0,-0.81 0.9,-1.47 2.1,-1.47 1.35,0 2.34,0.84 2.34,2.7 l 0,1.62 c -3.39,1.26 -4.5,1.83 -5.4,2.43 -1.17,0.78 -2.1,1.95 -2.1,3.51 0,1.98 1.29,3.12 3.15,3.12 1.29,0 2.76,-0.39 4.35,-2.19 l 0.03,0 c 0.15,1.59 0.81,2.19 1.92,2.19 1.02,0 1.8,-0.3 2.7,-1.44 l 0,-0.84 z m -4.65,-1.83 c 0,0.87 -0.18,1.29 -1.05,1.89 -0.51,0.33 -1.14,0.48 -1.74,0.48 -1.17,0 -2.07,-0.72 -2.07,-2.31 0,-0.93 0.3,-1.65 1.02,-2.31 0.75,-0.69 1.98,-1.32 3.84,-1.98 l 0,4.23 z"></path><path d="m 599.22023,296.57731 c -0.66,0.78 -1.14,1.05 -1.8,1.05 -1.11,0 -1.56,-0.78 -1.56,-2.7 l 0,-8.58 3.03,0 0,-0.96 -3.03,0 0,-3.48 c 0,-0.3 -0.06,-0.39 -0.21,-0.39 -0.18,0.3 -0.42,0.57 -0.6,0.84 -1.14,1.65 -2.13,2.76 -2.91,3.21 -0.33,0.21 -0.51,0.39 -0.51,0.57 0,0.09 0.03,0.15 0.12,0.21 l 1.59,0 0,9.03 c 0,2.52 0.9,3.81 2.64,3.81 1.5,0 2.64,-0.72 3.63,-2.28 l -0.39,-0.33 z"></path><path d="m 604.96055,279.92731 c 0,-0.84 -0.66,-1.53 -1.53,-1.53 -0.84,0 -1.53,0.69 -1.53,1.53 0,0.87 0.66,1.53 1.5,1.53 0.9,0 1.56,-0.66 1.56,-1.53 z m 2.19,18.96 0,-0.45 c -1.98,-0.15 -2.22,-0.48 -2.22,-2.7 l 0,-10.53 -0.12,-0.12 -4.65,1.65 0,0.48 c 0.54,-0.15 0.99,-0.15 1.26,-0.15 0.75,0 0.99,0.48 0.99,1.89 l 0,6.81 c 0,2.28 -0.3,2.55 -2.37,2.67 l 0,0.45 7.11,0 z"></path><path d="m 621.98086,291.95731 c 0,-4.14 -2.82,-6.87 -6.48,-6.87 -4.05,0 -6.75,2.79 -6.75,6.96 0,4.17 2.85,7.14 6.48,7.14 4.05,0 6.75,-3.06 6.75,-7.23 z m -2.7,0.81 c 0,3.48 -1.32,5.58 -3.54,5.58 -1.08,0 -2.04,-0.54 -2.7,-1.5 -1.11,-1.62 -1.59,-3.78 -1.59,-6.15 0,-3 1.41,-4.77 3.48,-4.77 1.29,0 2.13,0.6 2.85,1.5 0.96,1.23 1.5,3.3 1.5,5.34 z"></path><path d="m 637.43086,298.88731 0,-0.45 c -1.47,-0.15 -1.83,-0.48 -1.83,-2.1 l 0,-6.63 c 0,-2.97 -1.26,-4.62 -3.54,-4.62 -1.38,0 -2.76,0.66 -4.32,2.43 l -0.03,0 0,-2.34 -0.24,-0.09 c -1.47,0.54 -2.46,0.87 -4.11,1.35 l 0,0.51 c 0.21,-0.09 0.54,-0.12 0.87,-0.12 0.84,0 1.05,0.48 1.05,1.95 l 0,7.29 c 0,1.77 -0.33,2.25 -1.86,2.37 l 0,0.45 6.33,0 0,-0.45 c -1.53,-0.12 -1.95,-0.54 -1.95,-1.71 l 0,-8.28 c 1.38,-1.35 2.1,-1.71 3.09,-1.71 1.47,0 2.19,0.9 2.19,3.03 l 0,5.97 c 0,1.98 -0.36,2.58 -1.86,2.7 l -0.03,0.45 6.24,0 z"></path><path d="m 642.56086,289.85731 c -0.84,-0.51 -1.29,-1.38 -1.29,-2.04 0,-1.41 0.96,-2.04 2.25,-2.04 1.8,0 2.7,0.99 3.39,3.69 l 0.45,0 -0.15,-4.08 -0.33,0 c -0.24,0.27 -0.36,0.3 -0.48,0.3 -0.21,0 -0.51,-0.09 -0.84,-0.24 -0.63,-0.3 -1.29,-0.33 -2.01,-0.33 -2.46,0 -4.14,1.32 -4.14,3.69 0,1.53 1.11,2.97 3.6,4.35 l 1.62,0.9 c 0.99,0.54 1.59,1.32 1.59,2.25 0,1.23 -0.96,2.22 -2.49,2.22 -2.07,0 -3.18,-1.32 -3.81,-4.23 l -0.48,0 0,4.71 0.39,0 c 0.18,-0.3 0.36,-0.36 0.72,-0.36 0.33,0 0.66,0.03 1.38,0.27 0.69,0.24 1.56,0.27 2.19,0.27 2.28,0 4.2,-1.74 4.2,-3.75 0,-1.71 -0.72,-2.52 -2.64,-3.69 l -3.12,-1.89 z"></path><path d="m 671.14102,291.95731 c 0,-4.14 -2.82,-6.87 -6.48,-6.87 -4.05,0 -6.75,2.79 -6.75,6.96 0,4.17 2.85,7.14 6.48,7.14 4.05,0 6.75,-3.06 6.75,-7.23 z m -2.7,0.81 c 0,3.48 -1.32,5.58 -3.54,5.58 -1.08,0 -2.04,-0.54 -2.7,-1.5 -1.11,-1.62 -1.59,-3.78 -1.59,-6.15 0,-3 1.41,-4.77 3.48,-4.77 1.29,0 2.13,0.6 2.85,1.5 0.96,1.23 1.5,3.3 1.5,5.34 z"></path><path d="m 672.67102,285.38731 0,0.96 2.46,0 0,9.42 c 0,2.19 -0.33,2.55 -2.49,2.67 l 0,0.45 7.8,0 0,-0.45 c -2.46,-0.09 -2.79,-0.42 -2.79,-2.67 l 0,-9.42 3.66,0 0,-0.96 -3.66,0 0,-3.48 c 0,-1.77 0.54,-2.67 1.68,-2.67 0.66,0 1.05,0.3 1.59,1.17 0.48,0.81 0.84,1.08 1.35,1.08 0.72,0 1.26,-0.54 1.26,-1.23 0,-1.08 -1.32,-1.86 -3.12,-1.86 -1.89,0 -3.45,0.81 -4.23,2.16 -0.78,1.35 -1.02,2.43 -1.05,4.83 l -2.46,0 z"></path><path d="m 697.54055,296.57731 c -0.66,0.78 -1.14,1.05 -1.8,1.05 -1.11,0 -1.56,-0.78 -1.56,-2.7 l 0,-8.58 3.03,0 0,-0.96 -3.03,0 0,-3.48 c 0,-0.3 -0.06,-0.39 -0.21,-0.39 -0.18,0.3 -0.42,0.57 -0.6,0.84 -1.14,1.65 -2.13,2.76 -2.91,3.21 -0.33,0.21 -0.51,0.39 -0.51,0.57 0,0.09 0.03,0.15 0.12,0.21 l 1.59,0 0,9.03 c 0,2.52 0.9,3.81 2.64,3.81 1.5,0 2.64,-0.72 3.63,-2.28 l -0.39,-0.33 z"></path><path d="m 712.72523,298.88731 0,-0.45 c -1.62,-0.3 -1.8,-0.54 -1.8,-2.61 l 0,-5.97 c 0,-3.15 -1.23,-4.77 -3.69,-4.77 -1.77,0 -3.03,0.72 -4.41,2.52 l 0,-9.12 -0.15,-0.09 c -1.05,0.36 -1.74,0.57 -3.45,1.08 l -0.81,0.24 0,0.48 c 0.09,-0.03 0.24,-0.03 0.36,-0.03 1.29,0 1.53,0.24 1.53,1.53 l 0,14.13 c 0,2.1 -0.18,2.37 -1.92,2.61 l 0,0.45 6.48,0 0,-0.45 c -1.74,-0.18 -2.04,-0.54 -2.04,-2.61 l 0,-7.23 c 1.26,-1.38 2.16,-1.89 3.36,-1.89 1.47,0 2.22,1.08 2.22,3.18 l 0,5.94 c 0,2.07 -0.3,2.43 -2.04,2.61 l 0,0.45 6.36,0 z"></path><path d="m 725.35523,293.96731 c -1.47,2.22 -2.61,3.15 -4.62,3.15 -1.38,0 -2.49,-0.54 -3.33,-1.65 -1.08,-1.44 -1.23,-2.61 -1.38,-4.89 l 9.24,0 c -0.12,-1.62 -0.42,-2.58 -1.02,-3.42 -0.96,-1.35 -2.31,-2.07 -4.17,-2.07 -3.78,0 -6.21,3.06 -6.21,7.29 0,4.14 2.16,6.81 5.7,6.81 3,0 5.1,-1.74 6.27,-5.01 l -0.48,-0.21 z m -9.27,-4.35 c 0.33,-2.25 1.5,-3.45 3.18,-3.45 1.98,0 2.61,1.02 2.94,3.45 l -6.12,0 z"></path><path d="m 741.89602,296.57731 c -0.66,0.78 -1.14,1.05 -1.8,1.05 -1.11,0 -1.56,-0.78 -1.56,-2.7 l 0,-8.58 3.03,0 0,-0.96 -3.03,0 0,-3.48 c 0,-0.3 -0.06,-0.39 -0.21,-0.39 -0.18,0.3 -0.42,0.57 -0.6,0.84 -1.14,1.65 -2.13,2.76 -2.91,3.21 -0.33,0.21 -0.51,0.39 -0.51,0.57 0,0.09 0.03,0.15 0.12,0.21 l 1.59,0 0,9.03 c 0,2.52 0.9,3.81 2.64,3.81 1.5,0 2.64,-0.72 3.63,-2.28 l -0.39,-0.33 z"></path><path d="m 747.63633,279.92731 c 0,-0.84 -0.66,-1.53 -1.53,-1.53 -0.84,0 -1.53,0.69 -1.53,1.53 0,0.87 0.66,1.53 1.5,1.53 0.9,0 1.56,-0.66 1.56,-1.53 z m 2.19,18.96 0,-0.45 c -1.98,-0.15 -2.22,-0.48 -2.22,-2.7 l 0,-10.53 -0.12,-0.12 -4.65,1.65 0,0.48 c 0.54,-0.15 0.99,-0.15 1.26,-0.15 0.75,0 0.99,0.48 0.99,1.89 l 0,6.81 c 0,2.28 -0.3,2.55 -2.37,2.67 l 0,0.45 7.11,0 z"></path><path d="m 773.80664,298.88731 0,-0.45 -0.78,-0.06 c -0.9,-0.06 -1.29,-0.45 -1.29,-1.8 l 0,-6.09 c 0,-3.54 -1.05,-5.4 -3.48,-5.4 -1.74,0 -3.27,0.78 -4.89,2.52 -0.54,-1.71 -1.56,-2.52 -3.18,-2.52 -1.35,0 -2.61,0.27 -4.59,2.31 l -0.06,0 0,-2.22 -0.24,-0.09 c -1.53,0.57 -2.52,0.9 -4.17,1.35 l 0,0.51 c 0.39,-0.09 0.63,-0.12 0.96,-0.12 0.78,0 1.05,0.51 1.05,1.98 l 0,7.44 c 0,1.74 -0.42,2.16 -2.1,2.19 l 0,0.45 6.66,0 0,-0.45 c -1.59,-0.06 -2.04,-0.36 -2.04,-1.65 l 0,-8.34 c 0,-0.06 0.18,-0.27 0.39,-0.51 0.6,-0.72 2.07,-1.29 3.18,-1.29 1.29,0 1.95,1.26 1.95,3.33 l 0,6.33 c 0,1.83 -0.33,2.01 -2.04,2.13 l 0,0.45 6.72,0 0,-0.45 c -1.71,-0.03 -2.16,-0.45 -2.16,-2.4 l 0,-7.56 c 0.9,-1.29 1.8,-1.83 3.21,-1.83 1.71,0 2.31,0.99 2.31,3.36 l 0,6.18 c 0,1.74 -0.27,2.07 -1.95,2.25 l 0,0.45 6.54,0 z"></path><path d="m 786.11695,293.96731 c -1.47,2.22 -2.61,3.15 -4.62,3.15 -1.38,0 -2.49,-0.54 -3.33,-1.65 -1.08,-1.44 -1.23,-2.61 -1.38,-4.89 l 9.24,0 c -0.12,-1.62 -0.42,-2.58 -1.02,-3.42 -0.96,-1.35 -2.31,-2.07 -4.17,-2.07 -3.78,0 -6.21,3.06 -6.21,7.29 0,4.14 2.16,6.81 5.7,6.81 3,0 5.1,-1.74 6.27,-5.01 l -0.48,-0.21 z m -9.27,-4.35 c 0.33,-2.25 1.5,-3.45 3.18,-3.45 1.98,0 2.61,1.02 2.94,3.45 l -6.12,0 z"></path><path d="m 792.60773,297.59731 c 0,-0.9 -0.78,-1.71 -1.65,-1.71 -0.93,0 -1.68,0.75 -1.68,1.68 0,0.93 0.72,1.65 1.65,1.65 0.9,0 1.68,-0.75 1.68,-1.62 z"></path></g></g></svg>